<?xml version="1.0" encoding="utf-8"?>
<!-- Generator: Adobe Illustrator 15.0.0, SVG Export Plug-In . SVG Version: 6.00 Build 0)  -->
<!DOCTYPE svg PUBLIC "-//W3C//DTD SVG 1.1//EN" "http://www.w3.org/Graphics/SVG/1.1/DTD/svg11.dtd">
<svg version="1.1" id="Layer_1" xmlns="http://www.w3.org/2000/svg" xmlns:xlink="http://www.w3.org/1999/xlink" x="0px" y="0px"
	 width="141.568px" height="48.406px" viewBox="0 0 141.568 48.406" enable-background="new 0 0 141.568 48.406"
	 xml:space="preserve">
<g>
	<path fill-rule="evenodd" clip-rule="evenodd" fill="#00539B" d="M12.978,18.575H8.146l2.57-8.395L12.978,18.575L12.978,18.575z
		 M5.645,27.827l1.644-5.516H13.8l1.543,5.516h6.031L15.377,6.787c-0.342-1.235-1.097-1.816-2.399-1.816H4.444v1.987h0.72
		c0.891,0,1.372,0.343,1.372,1.03c0,0.445-0.104,0.819-0.446,1.849L0.091,27.827H5.645L5.645,27.827z"/>
	<path fill="#00539B" d="M28.323,27.827V6.717c0-1.096-0.651-1.746-1.713-1.746h-5.279v1.987h0.342c0.891,0,1.27,0.376,1.27,1.268
		v19.602H28.323L28.323,27.827z"/>
	<path fill="#00539B" d="M37.464,27.827V6.717c0-1.096-0.651-1.746-1.713-1.746h-5.278v1.987h0.343c0.892,0,1.268,0.376,1.268,1.268
		v19.602H37.464L37.464,27.827z"/>
	<path fill-rule="evenodd" clip-rule="evenodd" fill="#00539B" d="M46.845,7.061c0-1.542-1.131-2.469-3.084-2.469
		c-1.919,0-3.083,0.926-3.083,2.469c0,1.542,1.164,2.468,3.083,2.468C45.714,9.529,46.845,8.602,46.845,7.061L46.845,7.061z
		 M46.742,27.827V12.441c0-1.099-0.651-1.749-1.714-1.749h-5.209v1.954h0.309c0.891,0,1.268,0.412,1.268,1.304v13.877H46.742
		L46.742,27.827z"/>
	<path fill-rule="evenodd" clip-rule="evenodd" fill="#00539B" d="M58.523,19.604v3.323c-0.891,0.925-1.989,1.474-2.915,1.474
		c-0.958,0-1.302-0.479-1.302-1.747c0-1.268,0.275-1.851,1.233-2.228C56.26,20.116,57.186,19.843,58.523,19.604L58.523,19.604z
		 M51.291,15.593c1.782-0.855,3.736-1.336,5.278-1.336c1.439,0,1.954,0.515,1.954,2.021v0.379c-2.194,0.341-2.879,0.478-4.112,0.753
		c-0.721,0.171-1.373,0.378-2.023,0.65c-2.159,0.857-3.187,2.538-3.187,5.108c0,3.254,1.405,4.83,4.318,4.83
		c1.063,0,2.021-0.204,2.878-0.547c0.754-0.344,1.2-0.618,2.297-1.474v0.239c0,1.063,0.548,1.611,1.612,1.611h4.899v-1.85h-0.239
		c-0.926,0-1.27-0.412-1.27-1.506v-8.159c0-4.351-1.506-5.859-5.859-5.859c-1.405,0-2.776,0.171-4.112,0.479
		c-1.337,0.308-2.023,0.584-3.634,1.372L51.291,15.593L51.291,15.593z"/>
	<path fill-rule="evenodd" clip-rule="evenodd" fill="#00539B" d="M73.006,27.827V16.244c0.891-0.994,1.817-1.439,2.882-1.439
		c1.128,0,1.404,0.446,1.404,2.16v10.863h5.347v-11.65c0-2.709-0.207-3.565-1.063-4.491c-0.719-0.79-1.817-1.199-3.223-1.199
		c-2.092,0-3.565,0.65-5.551,2.502v-0.685c0-1.064-0.547-1.613-1.645-1.613h-5.071v1.954h0.309c0.889,0,1.267,0.412,1.267,1.304
		v13.877H73.006L73.006,27.827z"/>
	<path fill="#00539B" d="M98.5,24.229h-7.472l7.129-10.006v-3.531H86.984c-1.27,0-1.852,0.584-1.852,1.852v3.119h1.989v-0.31
		c0-0.786,0.413-1.165,1.267-1.165h3.84L85.03,24.298v3.529H98.5V24.229L98.5,24.229z"/>
	<path fill-rule="evenodd" clip-rule="evenodd" fill="#00539B" d="M126.556,27.381V8.021c0-1.544-0.549-2.057-2.055-2.057h-4.525
		v2.158h0.275c1.027,0,1.234,0.24,1.234,1.475v17.785H126.556L126.556,27.381z M128.785,27.381h5.039V12.305
		c0-1.51-0.584-2.058-2.057-2.058h-2.982V27.381L128.785,27.381z M119.257,27.381V10.247h-2.982c-1.475,0-2.057,0.548-2.057,2.058
		v15.077H119.257L119.257,27.381z M138.585,17.548c0,8.532-6.135,14.733-14.566,14.733c-8.428,0-14.563-6.202-14.563-14.733
		c0-8.536,6.135-14.737,14.563-14.737C132.451,2.812,138.585,9.047,138.585,17.548L138.585,17.548z M141.568,17.548
		C141.568,7.506,134.062,0,124.019,0c-10.039,0-17.545,7.506-17.545,17.548s7.506,17.546,17.545,17.546
		C134.062,35.094,141.568,27.59,141.568,17.548L141.568,17.548z"/>
	<path fill-rule="evenodd" clip-rule="evenodd" fill="#00539B" d="M6.601,48.406l-0.808-2.901H2.7l-0.794,2.901H0l3.066-9.959h2.63
		l2.955,9.959H6.601L6.601,48.406z M4.495,40.823c-0.05-0.16-0.092-0.31-0.124-0.447c-0.028-0.146-0.051-0.269-0.069-0.381
		c-0.019-0.124-0.035-0.243-0.048-0.359c-0.014,0.106-0.032,0.219-0.056,0.34c-0.041,0.225-0.108,0.503-0.2,0.834l-0.862,3.155
		h2.236L4.495,40.823L4.495,40.823z"/>
	<polygon fill="#00539B" points="9.515,48.406 9.515,37.743 11.455,37.515 11.455,48.406 9.515,48.406 	"/>
	<polygon fill="#00539B" points="13.174,48.406 13.174,37.743 15.114,37.515 15.114,48.406 13.174,48.406 	"/>
	<path fill-rule="evenodd" clip-rule="evenodd" fill="#00539B" d="M18.939,38.664c0,0.193-0.032,0.354-0.096,0.489
		c-0.065,0.128-0.15,0.232-0.256,0.312c-0.102,0.078-0.219,0.134-0.352,0.163c-0.129,0.034-0.263,0.05-0.4,0.05
		c-0.346,0-0.615-0.087-0.809-0.255c-0.193-0.173-0.291-0.406-0.291-0.704c0-0.195,0.031-0.354,0.09-0.484
		c0.064-0.133,0.147-0.239,0.249-0.318c0.106-0.078,0.223-0.132,0.353-0.165c0.132-0.032,0.269-0.048,0.408-0.048
		c0.349,0,0.62,0.085,0.814,0.255C18.843,38.126,18.939,38.364,18.939,38.664L18.939,38.664z M16.86,48.406v-7.411h1.954v7.411
		H16.86L16.86,48.406z"/>
	<path fill-rule="evenodd" clip-rule="evenodd" fill="#00539B" d="M24.172,48.458v-0.933c-0.087,0.186-0.213,0.351-0.379,0.497
		c-0.143,0.126-0.336,0.238-0.579,0.339c-0.24,0.103-0.546,0.152-0.919,0.152c-0.382,0-0.706-0.067-0.973-0.201
		c-0.267-0.13-0.485-0.304-0.656-0.515c-0.166-0.219-0.288-0.46-0.366-0.734c-0.073-0.27-0.11-0.546-0.11-0.824
		c0-0.38,0.048-0.704,0.144-0.972c0.098-0.265,0.226-0.487,0.388-0.669c0.161-0.18,0.346-0.319,0.559-0.428
		c0.211-0.106,0.433-0.188,0.663-0.242c0.23-0.054,0.46-0.091,0.69-0.108c0.235-0.021,0.456-0.034,0.663-0.044l0.822-0.041V43.4
		c0-0.112-0.009-0.23-0.028-0.36c-0.014-0.134-0.064-0.255-0.152-0.367c-0.088-0.114-0.224-0.211-0.407-0.29
		c-0.184-0.078-0.442-0.118-0.773-0.118c-0.303,0-0.571,0.036-0.8,0.104c-0.231,0.069-0.421,0.145-0.574,0.227
		c-0.185,0.099-0.338,0.207-0.462,0.334v-1.474c0.143-0.099,0.327-0.189,0.552-0.273c0.193-0.069,0.439-0.133,0.739-0.193
		c0.299-0.062,0.665-0.091,1.098-0.091c0.432,0,0.798,0.041,1.097,0.118c0.299,0.073,0.548,0.174,0.747,0.304
		c0.198,0.13,0.351,0.278,0.462,0.451c0.11,0.164,0.193,0.336,0.248,0.515c0.055,0.182,0.088,0.359,0.097,0.541
		c0.014,0.177,0.021,0.347,0.021,0.503v5.021L24.172,48.458L24.172,48.458z M24.131,44.907l-0.621,0.046
		c-0.208,0.012-0.398,0.039-0.573,0.074c-0.175,0.04-0.327,0.099-0.456,0.188c-0.129,0.081-0.23,0.195-0.304,0.338
		c-0.074,0.144-0.111,0.323-0.111,0.544c0,0.106,0.014,0.219,0.042,0.331c0.027,0.116,0.075,0.221,0.146,0.319
		c0.073,0.093,0.172,0.172,0.296,0.235c0.129,0.059,0.292,0.089,0.49,0.089c0.167,0,0.315-0.028,0.449-0.083
		c0.133-0.056,0.249-0.131,0.346-0.221c0.096-0.095,0.17-0.209,0.221-0.34c0.05-0.128,0.076-0.266,0.076-0.412V44.907L24.131,44.907
		z"/>
	<path fill="#00539B" d="M31.967,48.406v-4.345c0-0.174-0.007-0.355-0.021-0.538c-0.009-0.188-0.05-0.357-0.124-0.513
		c-0.074-0.152-0.191-0.276-0.353-0.371c-0.157-0.099-0.382-0.145-0.677-0.145c-0.133,0-0.269,0.019-0.407,0.062
		c-0.138,0.035-0.267,0.103-0.387,0.193c-0.115,0.089-0.209,0.203-0.283,0.343c-0.074,0.141-0.11,0.312-0.11,0.521v4.793h-1.94
		v-7.411h1.906v0.903c0.115-0.186,0.264-0.357,0.449-0.509c0.161-0.131,0.368-0.249,0.621-0.352
		c0.257-0.104,0.575-0.157,0.953-0.157c0.377,0,0.697,0.055,0.959,0.163c0.263,0.104,0.481,0.239,0.656,0.402
		c0.165,0.156,0.293,0.329,0.386,0.515s0.162,0.377,0.208,0.566c0.046,0.195,0.074,0.381,0.083,0.56
		c0.009,0.182,0.013,0.342,0.014,0.483v4.836H31.967L31.967,48.406z"/>
	<polygon fill="#00539B" points="40.688,48.406 35.164,48.406 35.164,47.201 38.513,42.337 35.419,42.337 35.419,40.995 
		40.75,40.995 40.75,42.198 37.38,47.058 40.763,47.058 40.688,48.406 	"/>
	<path fill="#00539B" d="M54.434,48.458h-2.203l-1.387-5.709c-0.092-0.393-0.158-0.702-0.2-0.94
		c-0.028-0.135-0.051-0.251-0.069-0.354c-0.009,0.075-0.023,0.174-0.041,0.292c-0.019,0.103-0.046,0.23-0.083,0.395
		c-0.032,0.16-0.076,0.359-0.131,0.592l-1.409,5.725h-2.223l-2.644-9.998h2.133l1.415,6.283c0.051,0.236,0.094,0.455,0.132,0.658
		c0.041,0.195,0.073,0.375,0.096,0.53c0.028,0.186,0.051,0.354,0.069,0.503c0.032-0.197,0.067-0.398,0.104-0.6
		c0.032-0.175,0.067-0.366,0.104-0.571c0.042-0.207,0.086-0.41,0.131-0.609l1.526-6.163V38.46h1.886l1.525,6.297
		c0.051,0.223,0.097,0.434,0.138,0.639c0.042,0.193,0.073,0.373,0.096,0.528c0.028,0.184,0.054,0.355,0.076,0.511
		c0.023-0.173,0.048-0.353,0.076-0.536c0.023-0.164,0.053-0.341,0.09-0.54c0.037-0.197,0.081-0.395,0.131-0.588l1.456-6.311h1.913
		L54.434,48.458L54.434,48.458z"/>
	<path fill-rule="evenodd" clip-rule="evenodd" fill="#00539B" d="M64.19,44.599c0,0.637-0.074,1.197-0.22,1.692
		c-0.148,0.489-0.365,0.901-0.65,1.242c-0.281,0.335-0.632,0.594-1.049,0.768c-0.416,0.171-0.891,0.262-1.429,0.262
		c-0.497,0-0.95-0.079-1.353-0.236c-0.407-0.154-0.75-0.389-1.037-0.696c-0.286-0.313-0.507-0.7-0.662-1.167
		c-0.152-0.464-0.228-1.006-0.228-1.619c0-0.64,0.073-1.201,0.221-1.688c0.146-0.491,0.36-0.907,0.641-1.242
		c0.286-0.342,0.635-0.598,1.05-0.773c0.417-0.176,0.896-0.26,1.437-0.26c0.497,0,0.947,0.076,1.353,0.232
		c0.404,0.159,0.75,0.395,1.035,0.704c0.286,0.306,0.504,0.694,0.657,1.159C64.111,43.444,64.19,43.982,64.19,44.599L64.19,44.599z
		 M62.222,44.732c0-0.387-0.021-0.729-0.062-1.03c-0.042-0.302-0.116-0.558-0.221-0.759c-0.103-0.209-0.237-0.365-0.409-0.47
		c-0.169-0.11-0.384-0.167-0.647-0.167c-0.248,0-0.461,0.047-0.636,0.14c-0.169,0.091-0.311,0.234-0.42,0.436
		c-0.107,0.189-0.186,0.442-0.237,0.744c-0.044,0.304-0.067,0.664-0.067,1.084c0,0.387,0.021,0.731,0.061,1.033
		c0.042,0.302,0.114,0.553,0.216,0.762c0.104,0.201,0.244,0.361,0.414,0.47c0.174,0.104,0.394,0.157,0.656,0.157
		c0.249,0,0.458-0.045,0.627-0.136c0.171-0.093,0.308-0.234,0.415-0.428c0.111-0.197,0.188-0.448,0.234-0.752
		C62.197,45.512,62.222,45.15,62.222,44.732L62.222,44.732z"/>
	<path fill="#00539B" d="M69.809,42.817c-0.067-0.054-0.153-0.106-0.255-0.158c-0.086-0.039-0.197-0.079-0.33-0.108
		c-0.129-0.039-0.283-0.056-0.464-0.056c-0.277,0-0.499,0.044-0.668,0.137c-0.172,0.093-0.304,0.209-0.401,0.345
		c-0.098,0.141-0.16,0.292-0.193,0.456c-0.032,0.167-0.048,0.321-0.048,0.463v4.511h-1.94v-7.411H67.4v1.043
		c0.083-0.215,0.198-0.408,0.346-0.582c0.06-0.07,0.13-0.142,0.213-0.213c0.083-0.069,0.174-0.13,0.276-0.186
		c0.102-0.055,0.213-0.101,0.338-0.132c0.124-0.031,0.262-0.045,0.413-0.045c0.177,0,0.325,0.014,0.451,0.039
		c0.123,0.029,0.227,0.058,0.311,0.087c0.095,0.039,0.177,0.083,0.241,0.126L69.809,42.817L69.809,42.817z"/>
	<polygon fill="#00539B" points="70.771,48.406 70.771,37.743 72.709,37.515 72.709,48.406 70.771,48.406 	"/>
	<path fill-rule="evenodd" clip-rule="evenodd" fill="#00539B" d="M78.585,48.47v-0.956c-0.094,0.188-0.229,0.356-0.399,0.509
		c-0.148,0.13-0.341,0.248-0.58,0.353c-0.241,0.103-0.538,0.15-0.898,0.15c-0.42,0-0.794-0.075-1.126-0.23
		c-0.332-0.16-0.615-0.389-0.849-0.7c-0.23-0.306-0.406-0.687-0.532-1.136c-0.121-0.458-0.178-0.982-0.178-1.576
		c0-0.58,0.043-1.083,0.137-1.507c0.097-0.428,0.223-0.789,0.38-1.085c0.155-0.295,0.336-0.54,0.545-0.726
		c0.208-0.181,0.425-0.325,0.655-0.426c0.232-0.101,0.464-0.17,0.699-0.205c0.235-0.039,0.46-0.055,0.675-0.055
		c0.237,0,0.444,0.025,0.623,0.08c0.185,0.056,0.336,0.115,0.457,0.18c0.142,0.081,0.264,0.166,0.364,0.261v-3.658l1.94-0.228
		v10.819L78.585,48.47L78.585,48.47z M78.557,42.777c-0.06-0.083-0.14-0.157-0.241-0.221c-0.088-0.055-0.197-0.106-0.332-0.153
		c-0.132-0.046-0.297-0.065-0.49-0.065c-0.257,0-0.48,0.041-0.67,0.13c-0.188,0.087-0.344,0.225-0.47,0.414
		c-0.123,0.186-0.218,0.431-0.283,0.724c-0.061,0.296-0.088,0.649-0.088,1.065c0,0.412,0.028,0.765,0.088,1.055
		c0.061,0.286,0.151,0.515,0.269,0.696c0.121,0.18,0.268,0.313,0.443,0.395c0.174,0.079,0.379,0.116,0.614,0.116
		c0.157,0,0.303-0.023,0.443-0.066c0.142-0.048,0.266-0.119,0.371-0.218c0.106-0.095,0.19-0.217,0.25-0.362
		c0.062-0.15,0.095-0.323,0.095-0.526V42.777L78.557,42.777z"/>
	<path fill="#00539B" d="M90.081,48.445h-2.333l-0.807-3.735c-0.038-0.165-0.068-0.319-0.091-0.463
		c-0.023-0.146-0.044-0.274-0.063-0.377c-0.019-0.126-0.033-0.242-0.046-0.347c-0.009,0.092-0.023,0.199-0.041,0.317
		c-0.019,0.106-0.042,0.232-0.07,0.389c-0.028,0.149-0.065,0.329-0.112,0.528l-0.849,3.688h-2.291l-2.023-7.45h1.94l1.083,4.765
		c0.037,0.159,0.07,0.319,0.098,0.477c0.027,0.158,0.054,0.3,0.077,0.427c0.021,0.153,0.044,0.297,0.067,0.43
		c0.024-0.158,0.047-0.312,0.07-0.47c0.023-0.134,0.048-0.278,0.076-0.436c0.028-0.16,0.058-0.31,0.095-0.444l1.091-4.748h1.852
		l1.028,4.792c0.037,0.164,0.067,0.325,0.091,0.491c0.028,0.159,0.048,0.306,0.066,0.434c0.019,0.154,0.038,0.3,0.056,0.436
		c0.023-0.132,0.046-0.275,0.07-0.43c0.023-0.126,0.049-0.271,0.076-0.432c0.033-0.166,0.067-0.331,0.109-0.499l1.175-4.792h1.782
		L90.081,48.445L90.081,48.445z"/>
	<path fill-rule="evenodd" clip-rule="evenodd" fill="#00539B" d="M95.184,38.664c0,0.193-0.033,0.354-0.098,0.489
		c-0.063,0.128-0.148,0.232-0.255,0.312c-0.1,0.078-0.218,0.134-0.35,0.163c-0.13,0.034-0.263,0.05-0.402,0.05
		c-0.345,0-0.614-0.087-0.807-0.255c-0.193-0.173-0.291-0.406-0.291-0.704c0-0.195,0.03-0.354,0.09-0.484
		c0.063-0.133,0.146-0.239,0.249-0.318c0.104-0.078,0.223-0.132,0.35-0.165c0.135-0.032,0.27-0.048,0.409-0.048
		c0.351,0,0.622,0.085,0.814,0.255C95.086,38.126,95.184,38.364,95.184,38.664L95.184,38.664z M93.107,48.406v-7.411h1.951v7.411
		H93.107L93.107,48.406z"/>
	<path fill-rule="evenodd" clip-rule="evenodd" fill="#00539B" d="M100.997,48.47v-0.956c-0.098,0.188-0.23,0.356-0.401,0.509
		c-0.146,0.13-0.339,0.248-0.578,0.353c-0.241,0.103-0.541,0.15-0.898,0.15c-0.42,0-0.794-0.075-1.125-0.23
		c-0.333-0.16-0.615-0.389-0.85-0.7c-0.229-0.306-0.408-0.687-0.53-1.136c-0.122-0.458-0.182-0.982-0.182-1.576
		c0-0.58,0.046-1.083,0.14-1.507c0.097-0.428,0.222-0.789,0.38-1.085c0.155-0.295,0.336-0.54,0.545-0.726
		c0.207-0.181,0.425-0.325,0.654-0.426c0.229-0.101,0.464-0.17,0.699-0.205c0.234-0.039,0.459-0.055,0.675-0.055
		c0.235,0,0.443,0.025,0.622,0.08c0.184,0.056,0.337,0.115,0.456,0.18c0.144,0.081,0.264,0.166,0.367,0.261v-3.658l1.94-0.228
		v10.819L100.997,48.47L100.997,48.47z M100.969,42.777c-0.061-0.083-0.14-0.157-0.241-0.221c-0.089-0.055-0.198-0.106-0.333-0.153
		c-0.132-0.046-0.297-0.065-0.489-0.065c-0.258,0-0.48,0.041-0.67,0.13c-0.188,0.087-0.343,0.225-0.469,0.414
		c-0.125,0.186-0.218,0.431-0.283,0.724c-0.061,0.296-0.09,0.649-0.09,1.065c0,0.412,0.029,0.765,0.09,1.055
		c0.061,0.286,0.148,0.515,0.27,0.696c0.121,0.18,0.267,0.313,0.443,0.395c0.174,0.079,0.378,0.116,0.612,0.116
		c0.158,0,0.304-0.023,0.444-0.066c0.142-0.048,0.267-0.119,0.372-0.218c0.106-0.095,0.189-0.217,0.247-0.362
		c0.066-0.15,0.098-0.323,0.098-0.526V42.777L100.969,42.777z"/>
	<path fill-rule="evenodd" clip-rule="evenodd" fill="#00539B" d="M106.154,45.193c0,0.244,0.021,0.485,0.07,0.718
		c0.051,0.229,0.148,0.439,0.297,0.623c0.15,0.178,0.363,0.321,0.635,0.435c0.273,0.108,0.629,0.163,1.078,0.163
		c0.332,0,0.621-0.031,0.869-0.103c0.248-0.067,0.455-0.144,0.621-0.229c0.193-0.097,0.357-0.207,0.49-0.337l-0.082,1.548
		c-0.145,0.101-0.328,0.189-0.553,0.27c-0.193,0.065-0.445,0.125-0.752,0.178c-0.305,0.056-0.678,0.083-1.119,0.083
		c-0.252,0-0.518-0.018-0.789-0.056c-0.268-0.035-0.527-0.106-0.787-0.205c-0.258-0.103-0.502-0.242-0.736-0.416
		c-0.23-0.177-0.432-0.402-0.609-0.682c-0.174-0.282-0.313-0.617-0.412-1.008c-0.104-0.396-0.154-0.866-0.154-1.404
		c0-0.58,0.064-1.106,0.195-1.588c0.131-0.477,0.334-0.889,0.605-1.229c0.271-0.339,0.615-0.604,1.031-0.793
		c0.412-0.189,0.9-0.281,1.461-0.281c0.488,0,0.904,0.066,1.244,0.199c0.342,0.128,0.623,0.304,0.842,0.524
		c0.221,0.215,0.391,0.465,0.512,0.751c0.125,0.282,0.217,0.574,0.275,0.878c0.063,0.304,0.098,0.605,0.105,0.905
		c0.014,0.3,0.02,0.575,0.02,0.826v0.229H106.154L106.154,45.193z M108.611,43.879c0-0.203-0.012-0.41-0.031-0.611
		c-0.023-0.207-0.078-0.393-0.16-0.554c-0.08-0.164-0.195-0.298-0.352-0.4c-0.152-0.104-0.361-0.158-0.629-0.158
		c-0.203,0-0.375,0.029-0.52,0.087c-0.137,0.062-0.254,0.14-0.35,0.238c-0.094,0.095-0.168,0.207-0.221,0.33
		c-0.057,0.12-0.098,0.244-0.125,0.372c-0.023,0.131-0.039,0.259-0.051,0.381c-0.004,0.118-0.006,0.225-0.006,0.315H108.611
		L108.611,43.879z"/>
	<path fill-rule="evenodd" clip-rule="evenodd" fill="#00539B" d="M121.294,47.865c-0.146,0.135-0.346,0.253-0.6,0.352
		c-0.217,0.087-0.5,0.165-0.848,0.234c-0.346,0.073-0.777,0.112-1.295,0.112c-0.766,0-1.426-0.13-1.977-0.387
		c-0.551-0.26-0.998-0.609-1.35-1.057c-0.348-0.445-0.605-0.968-0.773-1.56c-0.16-0.596-0.24-1.229-0.24-1.907
		c0-0.611,0.057-1.191,0.17-1.739c0.115-0.553,0.295-1.044,0.543-1.472c0.379-0.674,0.893-1.194,1.537-1.554
		c0.648-0.357,1.422-0.536,2.322-0.536c0.426,0,0.801,0.035,1.115,0.103c0.318,0.068,0.586,0.146,0.803,0.227
		c0.254,0.095,0.467,0.207,0.641,0.331v1.797c-0.156-0.162-0.342-0.306-0.566-0.426c-0.193-0.108-0.436-0.209-0.723-0.3
		c-0.293-0.091-0.639-0.139-1.043-0.139c-0.42,0-0.801,0.065-1.146,0.193c-0.342,0.127-0.635,0.325-0.877,0.602
		s-0.432,0.639-0.566,1.083c-0.133,0.441-0.199,0.979-0.199,1.619c0,0.515,0.047,0.988,0.145,1.42c0.1,0.432,0.26,0.809,0.477,1.118
		c0.221,0.31,0.508,0.55,0.854,0.724c0.352,0.172,0.779,0.258,1.287,0.258c0.422,0,0.785-0.051,1.09-0.146
		c0.303-0.103,0.553-0.211,0.746-0.331c0.225-0.143,0.416-0.302,0.564-0.483L121.294,47.865L121.294,47.865z"/>
	<path fill-rule="evenodd" clip-rule="evenodd" fill="#00539B" d="M126.177,48.458v-0.933c-0.088,0.186-0.213,0.351-0.381,0.497
		c-0.143,0.126-0.336,0.238-0.58,0.339c-0.238,0.103-0.545,0.152-0.916,0.152c-0.383,0-0.709-0.067-0.975-0.201
		c-0.268-0.13-0.484-0.304-0.656-0.515c-0.164-0.219-0.289-0.46-0.365-0.734c-0.074-0.27-0.113-0.546-0.113-0.824
		c0-0.38,0.051-0.704,0.148-0.972c0.096-0.265,0.225-0.487,0.385-0.669c0.164-0.18,0.35-0.319,0.561-0.428
		c0.211-0.106,0.434-0.188,0.662-0.242c0.23-0.054,0.459-0.091,0.689-0.108c0.236-0.021,0.459-0.034,0.666-0.044l0.82-0.041V43.4
		c0-0.112-0.01-0.23-0.027-0.36c-0.014-0.134-0.066-0.255-0.152-0.367c-0.09-0.114-0.225-0.211-0.408-0.29
		c-0.184-0.078-0.439-0.118-0.773-0.118c-0.303,0-0.57,0.036-0.801,0.104c-0.229,0.069-0.422,0.145-0.572,0.227
		c-0.186,0.099-0.338,0.207-0.463,0.334v-1.474c0.143-0.099,0.326-0.189,0.555-0.273c0.193-0.069,0.438-0.133,0.736-0.193
		c0.301-0.062,0.664-0.091,1.1-0.091c0.43,0,0.797,0.041,1.096,0.118c0.301,0.073,0.549,0.174,0.746,0.304s0.354,0.278,0.463,0.451
		c0.111,0.164,0.193,0.336,0.248,0.515c0.055,0.182,0.088,0.359,0.098,0.541c0.012,0.177,0.02,0.347,0.02,0.503v5.021
		L126.177,48.458L126.177,48.458z M126.136,44.907l-0.621,0.046c-0.207,0.012-0.396,0.039-0.574,0.074
		c-0.174,0.04-0.328,0.099-0.453,0.188c-0.133,0.081-0.23,0.195-0.307,0.338c-0.074,0.144-0.109,0.323-0.109,0.544
		c0,0.106,0.014,0.219,0.041,0.331c0.027,0.116,0.074,0.221,0.146,0.319c0.072,0.093,0.17,0.172,0.295,0.235
		c0.129,0.059,0.293,0.089,0.49,0.089c0.164,0,0.316-0.028,0.449-0.083c0.133-0.056,0.248-0.131,0.344-0.221
		c0.1-0.095,0.17-0.209,0.221-0.34c0.053-0.128,0.078-0.266,0.078-0.412V44.907L126.136,44.907z"/>
	<path fill="#00539B" d="M133.972,42.817c-0.068-0.054-0.154-0.106-0.258-0.158c-0.084-0.039-0.197-0.079-0.328-0.108
		c-0.129-0.039-0.283-0.056-0.465-0.056c-0.275,0-0.498,0.044-0.668,0.137c-0.172,0.093-0.305,0.209-0.402,0.345
		c-0.096,0.141-0.16,0.292-0.191,0.456c-0.031,0.167-0.049,0.321-0.049,0.463v4.511h-1.941v-7.411h1.895v1.043
		c0.082-0.215,0.199-0.408,0.344-0.582c0.061-0.07,0.131-0.142,0.213-0.213c0.084-0.069,0.178-0.13,0.277-0.186
		c0.102-0.055,0.213-0.101,0.338-0.132c0.127-0.031,0.264-0.045,0.414-0.045c0.176,0,0.324,0.014,0.451,0.039
		c0.121,0.029,0.227,0.058,0.311,0.087c0.096,0.039,0.176,0.083,0.24,0.126L133.972,42.817L133.972,42.817z"/>
	<path fill-rule="evenodd" clip-rule="evenodd" fill="#00539B" d="M136.46,45.193c0,0.244,0.02,0.485,0.066,0.718
		c0.051,0.229,0.15,0.439,0.295,0.623c0.154,0.178,0.365,0.321,0.639,0.435c0.27,0.108,0.631,0.163,1.076,0.163
		c0.332,0,0.621-0.031,0.869-0.103c0.248-0.067,0.455-0.144,0.621-0.229c0.193-0.097,0.357-0.207,0.492-0.337l-0.086,1.548
		c-0.141,0.101-0.324,0.189-0.553,0.27c-0.189,0.065-0.441,0.125-0.75,0.178c-0.305,0.056-0.68,0.083-1.119,0.083
		c-0.252,0-0.516-0.018-0.787-0.056c-0.266-0.035-0.529-0.106-0.785-0.205c-0.26-0.103-0.508-0.242-0.742-0.416
		c-0.229-0.177-0.432-0.402-0.607-0.682c-0.174-0.282-0.311-0.617-0.412-1.008c-0.104-0.396-0.152-0.866-0.152-1.404
		c0-0.58,0.063-1.106,0.193-1.588c0.133-0.477,0.338-0.889,0.607-1.229c0.271-0.339,0.613-0.604,1.029-0.793
		c0.412-0.189,0.904-0.281,1.463-0.281c0.488,0,0.902,0.066,1.242,0.199c0.342,0.128,0.623,0.304,0.844,0.524
		c0.221,0.215,0.393,0.465,0.51,0.751c0.127,0.282,0.215,0.574,0.275,0.878c0.063,0.304,0.096,0.605,0.105,0.905
		c0.014,0.3,0.02,0.575,0.02,0.826v0.229H136.46L136.46,45.193z M138.917,43.879c0-0.203-0.012-0.41-0.035-0.611
		c-0.025-0.207-0.078-0.393-0.16-0.554c-0.078-0.164-0.195-0.298-0.352-0.4c-0.152-0.104-0.361-0.158-0.627-0.158
		c-0.203,0-0.377,0.029-0.52,0.087c-0.139,0.062-0.256,0.14-0.352,0.238c-0.094,0.095-0.164,0.207-0.221,0.33
		c-0.057,0.12-0.098,0.244-0.125,0.372c-0.023,0.131-0.039,0.259-0.049,0.381c-0.004,0.118-0.008,0.225-0.008,0.315H138.917
		L138.917,43.879z"/>
</g>
</svg>
