<?xml version="1.0" encoding="utf-8"?>
<!-- Generator: Adobe Illustrator 15.0.0, SVG Export Plug-In . SVG Version: 6.00 Build 0)  -->
<!DOCTYPE svg PUBLIC "-//W3C//DTD SVG 1.1//EN" "http://www.w3.org/Graphics/SVG/1.1/DTD/svg11.dtd">
<svg version="1.1" id="Layer_1" xmlns="http://www.w3.org/2000/svg" xmlns:xlink="http://www.w3.org/1999/xlink" x="0px" y="0px"
	 width="1068.854px" height="242.146px" viewBox="0 0 1068.854 242.146" enable-background="new 0 0 1068.854 242.146"
	 xml:space="preserve">
<g>
	<path d="M242.698,199.122l0.065-199.091L175.586,0v0.031l19.506,200.563C210.621,199.651,226.522,199.157,242.698,199.122"/>
	<path d="M155.824,203.926l19.75-203.896V0.009L0,0.031l0.095,242.115C41.329,224.075,95.044,210.635,155.824,203.926"/>
	<path d="M658.796,58.514c3.178,0.573,14.616,3.907,14.616,12.012v130.068h38.661V53.887h-53.277V58.514z"/>
	<path d="M354.792,53.887v4.627c4.686,0.974,14.833,3.811,10.721,12.959l-57.66,129.113h30.472l18.051-40.243h63.853l15.786,40.243
		h40.068L418.869,53.887H354.792z M364.554,142.107l25.911-57.706l22.611,57.706H364.554z"/>
	<path d="M947.547,53.887v4.627c4.663,0.974,14.828,3.811,10.697,12.959l-57.636,129.113h30.471l18.02-40.243h63.864l15.793,40.243
		h40.099l-57.253-146.699H947.547z M957.302,142.107l25.887-57.706l22.647,57.706H957.302z"/>
	<path d="M844.69,200.585l61.132-146.699h-28.906l-44.827,107.575L789.417,53.887h-54.331v4.627
		c6.281,1.207,13.329,3.898,16.543,12.012l51.571,130.06H844.69z"/>
	<path d="M576.718,200.585l61.137-146.699h-28.934l-44.822,107.575L521.426,53.887H467.1v4.627
		c6.299,1.207,13.316,3.898,16.547,12.012l51.545,130.06H576.718z"/>
</g>
</svg>
