<?xml version="1.0" encoding="utf-8"?>
<!-- Generator: Adobe Illustrator 15.0.0, SVG Export Plug-In . SVG Version: 6.00 Build 0)  -->
<!DOCTYPE svg PUBLIC "-//W3C//DTD SVG 1.1//EN" "http://www.w3.org/Graphics/SVG/1.1/DTD/svg11.dtd">
<svg version="1.1" id="Layer_1" xmlns="http://www.w3.org/2000/svg" xmlns:xlink="http://www.w3.org/1999/xlink" x="0px" y="0px"
	 width="1242.117px" height="866.209px" viewBox="0 0 1242.117 866.209" enable-background="new 0 0 1242.117 866.209"
	 xml:space="preserve">
<path fill="none" d="M879.298,428.52l0.143-428.456L734.872,0v0.063l41.981,431.629C810.266,429.662,844.489,428.599,879.298,428.52
	"/>
<path fill="none" d="M692.335,438.864l42.505-438.8V0.016L356.996,0.063l0.206,521.048
	C445.94,482.225,561.538,453.301,692.335,438.864"/>
<path fill="none" d="M572.803,634.298c5.188,0.937,23.862,6.378,23.862,19.61v212.301h63.099V626.747h-86.96V634.298z"/>
<path fill="none" d="M76.6,626.747v7.552c7.647,1.587,24.211,6.22,17.5,21.149L-0.016,866.193h49.739l29.463-65.685h104.222
	l25.766,65.685h65.399l-93.386-239.446H76.6z M92.529,770.745l42.298-94.195l36.904,94.195H92.529z"/>
<path fill="none" d="M1044.112,626.747v7.552c7.615,1.587,24.211,6.22,17.469,21.149l-94.085,210.745h49.739l29.416-65.685h104.238
	l25.781,65.685h65.446l-93.449-239.446H1044.112z M1060.042,770.745l42.25-94.195l36.968,94.195H1060.042z"/>
<path fill="none" d="M876.236,866.193l99.78-239.446h-47.186l-73.173,175.587l-69.65-175.587h-88.674v7.552
	c10.249,1.968,21.752,6.362,27.003,19.61l84.168,212.284H876.236z"/>
<path fill="none" d="M438.832,866.193l99.795-239.446h-47.232l-73.157,175.587l-69.65-175.587h-88.674v7.552
	c10.281,1.968,21.736,6.362,27.004,19.61l84.136,212.284H438.832z"/>
</svg>
