<?xml version="1.0" encoding="utf-8"?>
<!-- Generator: Adobe Illustrator 19.0.0, SVG Export Plug-In . SVG Version: 6.00 Build 0)  -->
<svg version="1.1" id="Layer_1" xmlns="http://www.w3.org/2000/svg" xmlns:xlink="http://www.w3.org/1999/xlink" x="0px" y="0px"
	 viewBox="0 0 183 43" enable-background="new 0 0 183 43" xml:space="preserve">
<path fill="#5F2D91" d="M178.26419,21.6203h0.6201c0.3311,0,0.5498-0.1279,0.5498-0.4042c0-0.2413-0.1904-0.3956-0.47461-0.3956
	h-0.6953V21.6203 M179.55229,23.1213l-0.2363-0.4179c-0.3389-0.5977-0.4649-0.711-0.79401-0.711h-0.2578v1.1289h-0.42769v-2.6645
	h1.1758c0.6611,0,0.8828,0.4126,0.8828,0.6987c0,0.4326-0.31061,0.7393-0.7618,0.7676v0.0127
	c0.22949,0.081,0.3965,0.3105,0.62019,0.6679l0.3203,0.5176H179.55229 M176.85309,21.7483c0,1.1435,0.91991,2.0732,2.0634,2.0732
	c1.1456,0,2.0733-0.9297,2.0733-2.0732c0-1.1431-0.9277-2.065-2.0733-2.065C177.77299,19.6833,176.85309,20.6052,176.85309,21.7483
	 M176.4429,21.7483c0-1.3726,1.10449-2.4751,2.47359-2.4751c1.375,0,2.48341,1.1025,2.48341,2.4751
	c0,1.373-1.10841,2.4814-2.48341,2.4814C177.54739,24.2297,176.4429,23.1213,176.4429,21.7483"/>
<path fill="#5F2D91" d="M40.1407,23.2981h5.9116c4.2217,0,5.8462-1.6367,5.8462-3.4907c0-1.8096-1.8071-2.9712-5.7896-2.9712h-4.581
	L40.1407,23.2981 M37.4864,36.3938h8.3242c5.4277,0,7.2959-2.0674,7.2959-4.3067c0-2.7158-3.4356-3.8789-7.6597-3.8789h-6.2119
	L37.4864,36.3938 M27.8956,41.3059l5.7895-29.3818h13.0898c10.6167,0,13.691,3.706,13.691,7.1074
	c0,2.8428-2.0508,5.1299-5.9722,6.5488c4.0918,0.8525,6.8091,3.1025,7.4912,5.8223c0.0039,0.54,0.0591,1.0664,0.1665,1.5732
	c-0.1504,3.5987-4.2847,8.3301-14.1094,8.3301H27.8956"/>
<path fill="#5F2D91" d="M68.7696,31.1282c0,3.7812,3.6186,6.3964,8.8213,6.3964c6.104,0,10.94331-3.6181,10.94331-8.1748
	c0-3.6513-3.708-6.2998-8.8637-6.2998C73.6998,23.05,68.7696,26.7014,68.7696,31.1282 M61.9849,31.3537
	c0-7.1416,7.688-12.375,18.1382-12.375c5.2778,0,9.5889,1.4195,12.2534,3.7872l-0.0351,0.1865h0.2402
	c1.7519,1.6435,2.7373,3.7187,2.7373,6.0742c0,7.5928-7.5523,12.5703-17.7749,12.5703
	C68.5909,41.5969,61.9849,37.3948,61.9849,31.3537"/>
<polyline fill="#5F2D91" points="98.4947,41.3059 102.1119,22.9524 92.3414,22.9524 93.06499,19.2688 119.4351,19.2688 
	118.71049,22.9465 118.7027,22.9524 108.67049,22.9524 105.0523,41.3059 98.4947,41.3059 "/>
<path fill="#5F2D91" d="M120.981,31.1282c0,3.7812,3.6162,6.3964,8.8213,6.3964c6.1035,0,10.9453-3.6181,10.9453-8.1748
	c0-3.6513-3.70999-6.2998-8.8662-6.2998C125.9136,23.05,120.981,26.7014,120.981,31.1282 M114.19579,31.3537
	c0-7.1416,7.68851-12.375,18.1368-12.375c9.00391,0,15.1992,4.1348,15.1992,10.0479c0,7.5928-7.5537,12.5703-17.7764,12.5703
	C120.80029,41.5969,114.19579,37.3948,114.19579,31.3537"/>
<polyline fill="#5F2D91" points="164.72809,41.3059 158.5298,33.9709 149.3492,41.3059 141.2085,41.3059 155.1841,29.9953 
	146.1373,19.2688 153.32959,19.2688 159.481,26.508 168.30229,19.2688 176.4429,19.2688 162.78279,30.4787 171.9205,41.3059 
	164.72809,41.3059 "/>
<path fill="#5F2D91" d="M1.8785,12.905H1.7383H1.8785c-0.0166-3.0137,3.5434-5.8569,9.3877-7.9018
	c5.8364-2.0508,13.9145-3.3218,22.833-3.3218c11.581-0.0025,21.747,2.1504,27.4184,5.355
	C55.6817,5.0256,47.6827,3.781,38.8453,3.781c-8.9068,0-16.9746,1.2588-22.8291,3.2959C10.1739,9.1218,6.5,11.9241,6.482,15.1487
	h0.1401H6.482c0.0019,1.9067,1.3095,3.6655,3.5718,5.209C4.9366,18.3552,1.8599,15.7053,1.8785,12.905"/>
<path fill="#FFFFFF" d="M62.7994,7.5032l0.0058-0.0083l-0.0039,0.0083C62.8013,7.5032,62.8013,7.5032,62.7994,7.5032 M1.6001,12.905
	c0.0181-3.2593,3.7061-6.0981,9.5728-8.1675c5.8789-2.0615,13.9814-3.3344,22.9263-3.3344c12.436,0,23.2373,2.457,28.706,6.0918
	l-0.0058,0.0083c-0.3496-0.1338-0.7071-0.2662-1.0743-0.3941c-0.0693-0.0263-0.1381-0.0488-0.2075-0.0727
	c-5.6714-3.2046-15.8374-5.3575-27.4184-5.355V1.5432v0.1382c-8.9185,0-16.9966,1.271-22.833,3.3218
	C5.4219,7.0481,1.8619,9.8913,1.8785,12.905H1.6001 M1.6001,12.905h0.2784c-0.0186,2.8003,3.0581,5.4502,8.1753,7.4527
	c0.3413,0.2314,0.7006,0.4589,1.0844,0.6796l0.0713-0.1211l-0.0713,0.1211c0.0264,0.0166,0.0572,0.0332,0.0855,0.0489
	C5.3223,19.0173,1.6207,16.1721,1.6001,12.905"/>
<path fill="#A90533" d="M11.2784,20.7942l-0.0689,0.122L11.2784,20.7942c-2.8916-1.6753-4.5201-3.6206-4.5161-5.6455H6.6221h0.1402
	c-0.0186-2.9751,3.5273-5.7832,9.3452-7.8057c5.8139-2.0249,13.8554-3.2798,22.7378-3.2798c8.9145,0,16.9746,1.2691,22.788,3.3101
	c0.9732,0.3432,1.8868,0.7046,2.7295,1.0845C63.9385,8.344,63.504,8.2322,63.063,8.1223
	c-5.2534-1.2891-11.6499-2.0508-18.5605-2.0508v0.1402V6.0715c-8.9063,0-16.9746,1.2593-22.8267,3.2979
	c-5.8427,2.0429-9.5141,4.8452-9.5361,8.0698c0.0019,1.6733,1.021,3.2412,2.8022,4.6421c0.396,0.3125,0.8326,0.6191,1.3038,0.914
	C14.3365,22.3391,12.6631,21.5979,11.2784,20.7942"/>
<path fill="#FFFFFF" d="M44.5025,6.2117V6.0715V6.2117 M63.0308,8.2585l0.0322-0.1362L63.0308,8.2585 M6.482,15.1487
	c0.018-3.2246,3.6919-6.0269,9.5342-8.0718C21.8707,5.0398,29.9385,3.781,38.8453,3.781c8.9409,0,17.0254,1.2729,22.8798,3.3281
	c1.5674,0.5484,2.9849,1.1514,4.2056,1.8076l-0.0713,0.1704c-5.6636-1.7241-13.0737-2.77-21.1821-2.77c-0.0591,0-0.1157,0-0.1748,0
	V6.0715c6.9106,0,13.3071,0.7617,18.5605,2.0508c0.441,0.1099,0.8755,0.2217,1.2998,0.3355
	c-0.8427-0.3799-1.7563-0.7413-2.7295-1.0845l0.045-0.1319l-0.045,0.1319c-5.8134-2.041-13.8735-3.3101-22.788-3.3101V3.9211v0.1421
	c-8.8824,0-16.9239,1.2549-22.7378,3.2798c-5.8179,2.0225-9.3638,4.8306-9.3452,7.8057H6.482 M6.482,15.1487h0.2803
	c-0.004,2.0249,1.6245,3.9702,4.5161,5.6455l-0.1402,0.2431C8.212,19.3401,6.4859,17.3401,6.482,15.1487 M17.4659,23.552
	c0.0044,0.0019,0.0083,0.0039,0.0102,0.0058l-0.0508,0.1202L17.4659,23.552 M11.2095,20.9162l0.0689-0.122L11.2095,20.9162
	 M11.1382,21.0373l0.1402-0.2431c1.3847,0.8037,3.0581,1.5449,4.9673,2.2011c-0.4712-0.2949-0.9078-0.6015-1.3038-0.914
	c-1.7812-1.4009-2.8003-2.9688-2.8022-4.6421c0.022-3.2246,3.6934-6.0269,9.5361-8.0698
	c5.8521-2.0386,13.9204-3.2979,22.8267-3.2979v0.2456C37.919,6.3293,31.8008,7.03,26.7139,8.2239
	c-1.7832,0.4106-3.438,0.8857-4.9429,1.4096c-5.8242,2.0205-9.3696,4.8311-9.3491,7.8057c0,0.3496,0.0484,0.6948,0.1421,1.0381
	c0.2925,1.2241,1.1494,2.396,2.4795,3.4761L15.0293,21.97l0.0142-0.0166c0.686,0.5586,1.4966,1.0927,2.4224,1.5986l-0.0406,0.126
	C14.9703,22.9162,12.8462,22.0286,11.1382,21.0373"/>
<path fill="#F8991D" d="M17.6407,23.6477c-3.2798-1.7588-5.1866-3.855-5.1866-6.1069c0-6.1954,14.4341-11.2237,32.2232-11.2237
	c8.1938,0,15.6728,1.0664,21.3608,2.8247c0.8306,0.2559,1.5371,0.4995,2.2886,0.7842c-0.4629-0.0937-0.8569-0.1523-1.334-0.2378
	c-4.5854-0.8345-9.8286-1.312-15.4048-1.312c-17.915,0-32.4546,4.8799-32.4546,10.8906c0,2.2256,2.0103,4.334,5.4278,6.0577
	c1.8442,0.9306,2.0879,1.1113,4.6279,1.8154C23.7144,26.3459,20.9527,25.4202,17.6407,23.6477"/>
</svg>
