<?xml version="1.0" encoding="utf-8"?>
<!-- Generator: Adobe Illustrator 19.0.0, SVG Export Plug-In . SVG Version: 6.00 Build 0)  -->
<svg version="1.1" id="Layer_1" xmlns="http://www.w3.org/2000/svg" xmlns:xlink="http://www.w3.org/1999/xlink" x="0px" y="0px"
	 viewBox="0 0 69 33" style="enable-background:new 0 0 69 33;" xml:space="preserve">
<path style="fill:#1D9DD9;" d="M34.9,17.4c1.6,0,2.5-0.7,3-1.5l0,0.1c-0.2,0.8,0.5,1.2,1.1,1.2h0.5L41,8.9h-1.8L39,10.2
	c-0.3-0.7-1.2-1.4-2.7-1.4c-2.6,0-4.2,2.2-4.5,4.5C31.5,15.8,33.2,17.4,34.9,17.4 M36.5,10.1c3,0.2,2,6-1,5.8
	C32.7,15.7,33.5,9.9,36.5,10.1 M11.5,8.3c0-1.9-1.2-2.8-3.3-2.8c-1.3,0-3.4,0-4.1,0L2,17.2c0.3,0,2.5,0,3.8,0c0.9,0,1.7,0,2.1-0.1
	c2.1-0.4,3-2,3.1-3.1c0.2-1.6-0.7-2.6-1.9-2.8C10,11,11.5,10.1,11.5,8.3 M7.1,15.8c-0.2,0.1-0.6,0.1-1.4,0.1H4.4L5,12h2
	C9.7,12,9.5,15.2,7.1,15.8 M7.9,10.5c-0.3,0.1-0.6,0.1-1.2,0.1H5.3l0.7-3.7h1.8C10,6.9,9.8,9.9,7.9,10.5 M19.5,8.9H19
	c0,0-0.8,4.6-0.9,5.1c-0.2,1.1-0.7,1.9-2.2,1.9c-0.9,0-1.7-0.5-1.5-1.7c0.1-0.5,0.6-3.8,0.7-4c0.2-0.9-0.6-1.2-1.2-1.2h-0.5
	c-0.1,0.7-0.6,3.6-0.8,4.8c-0.1,0.5-0.1,0.9-0.1,1.2c0.2,1.6,1.5,2.5,3.2,2.5c2.9,0,4-1.5,4.4-3.3c0.1-0.6,0.7-3.6,0.7-3.9
	C20.8,9.3,20.1,8.9,19.5,8.9 M22.5,20.5l0.8-4.6c0.3,0.7,1.3,1.5,2.8,1.5c2.7,0,4.3-2.1,4.5-4.5c0.2-2.6-1.4-4.1-3.1-4.1
	c-1.5,0-2.6,0.8-3.1,1.5l0-0.1c0.2-0.8-0.5-1.2-1.1-1.2h-0.6c0,0-1.6,8.9-1.8,10c-0.3,1.3,0.8,1.6,1.1,1.6H22.5z M26.9,10.2
	c2.8,0.2,1.9,6-1,5.8C22.8,15.9,23.8,10.1,26.9,10.2 M65.9,20.7c-0.8,0-1.8,0-2.5-0.3c-0.7-0.3-1.4-0.8-2.1-1.3
	c-0.3-0.3-0.7-0.5-1.1-0.8c-0.5-0.3-0.9-0.5-1.2-0.5c-0.5,0-1,0.3-1.6,0.9c-0.8,0.8-2.1,2.7-2.6,3.5c0,0-0.1,0.1-0.1,0.1
	c-0.1,0-0.1-0.2-0.1-0.2c0-2.2-0.4-14-0.6-17.6c-0.1-1.6-0.6-2.5-1.3-2.5c-0.5,0-1.4,0.7-1.9,2.8c-1.3,5.2-4.1,16.7-5.3,22.6
	c0,0.2-0.2,0.2-0.2,0c-0.1-0.6-0.3-1.3-0.4-1.9c-0.4-1.8-0.7-3.4-1.3-4.2c-0.7-1-1.7-1-3-0.2c-0.3,0.2-0.5,0.4-0.8,0.7
	c-0.8,0.7-1.7,1.5-3.2,1.5H22l-0.4,1.9H37c1.6,0,3-0.9,3.9-1.5c0.4-0.3,0.7-0.5,1-0.5c0.3,0,0.5,0.3,0.6,0.9c0.1,0.3,0.1,0.6,0.2,1
	c0.3,1.3,0.7,3.5,1.3,4.9c0.3,0.7,0.6,1,1.1,1c0.7,0,1.4-0.8,1.7-2c0.5-1.6,3.6-15.1,4.9-20.8c0.1-0.2,0.1-0.4,0.1-0.4
	c0-0.1,0.1-0.2,0.2-0.2c0.1,0,0.1,0.1,0.1,0.2l0,0c0.1,5.7,0.4,15.7,0.8,16.8c0.2,0.6,0.6,0.9,1,0.9c0.5,0,1.1-0.4,1.6-1.1
	c0.2-0.3,0.5-0.7,0.8-1.2c0.7-1.1,1.6-2.4,1.8-2.6c0.4-0.4,0.8-0.4,1.4,0c0.1,0.1,0.2,0.1,0.3,0.2c0.6,0.5,1.7,1.1,2.9,1.4
	c0.8,0.2,1.8,0.3,2.6,0.3c0.5,0,1,0,1.1,0l0.3-1.8C66.8,20.7,66.3,20.7,65.9,20.7"/>
</svg>
