<?xml version="1.0" encoding="utf-8"?>
<!-- Generator: Adobe Illustrator 15.0.0, SVG Export Plug-In . SVG Version: 6.00 Build 0)  -->
<!DOCTYPE svg PUBLIC "-//W3C//DTD SVG 1.1//EN" "http://www.w3.org/Graphics/SVG/1.1/DTD/svg11.dtd">
<svg version="1.1" id="Layer_1" xmlns="http://www.w3.org/2000/svg" xmlns:xlink="http://www.w3.org/1999/xlink" x="0px" y="0px"
	 width="265px" height="85.506px" viewBox="0 0 265 85.506" enable-background="new 0 0 265 85.506" xml:space="preserve">
<g>
	<path fill="none" d="M84.541,26.475l0.853,1.605c-1.928,1.271-3.708,2.17-5.341,2.7c-1.633,0.53-3.341,0.794-5.124,0.794
		c-3.768,0-6.729-1.072-8.886-3.218s-3.235-5.035-3.235-8.668c0-3.856,1.215-6.96,3.645-9.312c2.429-2.352,5.79-3.527,10.081-3.527
		c1.371,0,2.694,0.108,3.971,0.326c1.276,0.217,2.856,0.622,4.739,1.212c-0.067,0.726-0.1,1.478-0.1,2.257
		c0,1.349,0.083,2.998,0.25,4.948h-1.839c-0.557-2.14-0.925-3.394-1.103-3.762c-0.413-0.835-1.09-1.543-2.031-2.123
		c-0.942-0.579-2.215-0.869-3.82-0.869c-2.44,0-4.324,0.747-5.65,2.24c-1.605,1.794-2.407,4.274-2.407,7.439
		c0,3.276,0.799,5.771,2.399,7.481c1.599,1.711,3.753,2.566,6.461,2.566C79.81,28.564,82.189,27.868,84.541,26.475z"/>
	<path fill="none" d="M91.01,20.506l-1.488-0.167c0.324-1.578,0.53-2.978,0.62-4.201c2.031-0.978,4.151-1.467,6.361-1.467
		c1.284,0,2.308,0.207,3.072,0.619c0.764,0.413,1.292,0.975,1.582,1.688c0.291,0.713,0.436,1.822,0.436,3.327l-0.083,5.684
		c0,1.081,0.092,1.764,0.276,2.048c0.184,0.284,0.426,0.426,0.727,0.426c0.356,0,0.886-0.195,1.588-0.585l0.635,0.97
		c-1.516,1.07-2.636,1.772-3.36,2.106c-0.524,0.234-1.025,0.351-1.504,0.351c-0.636,0-1.182-0.173-1.639-0.519
		c-0.457-0.345-0.769-0.858-0.936-1.538c-1.337,0.925-2.274,1.502-2.809,1.73c-0.535,0.229-1.182,0.343-1.939,0.343
		c-1.148,0-2.087-0.387-2.817-1.162c-0.73-0.774-1.095-1.808-1.095-3.101c0-0.914,0.245-1.761,0.735-2.541
		c0.334-0.546,0.953-1.07,1.855-1.571l6.069-2.875c-0.022-1.326-0.231-2.218-0.627-2.675s-0.984-0.686-1.764-0.686
		c-0.792,0-1.479,0.259-2.065,0.777C92.256,18.007,91.646,19.013,91.01,20.506z M97.296,21.877c-1.839,0.858-2.999,1.56-3.478,2.106
		c-0.479,0.546-0.719,1.26-0.719,2.14c0,0.903,0.178,1.566,0.535,1.989c0.356,0.424,0.819,0.635,1.387,0.635
		c0.435,0,0.855-0.145,1.263-0.435c0.406-0.29,0.68-0.699,0.819-1.229s0.209-1.641,0.209-3.335
		C97.313,23.359,97.307,22.735,97.296,21.877z"/>
	<path fill="none" d="M116.003,15.24l0.217,0.234c-0.357,0.625-0.674,1.271-0.953,1.939c-1.193-0.123-2.48-0.211-3.862-0.268
		l-0.05,1.99l-0.05,2.29l-0.05,2.274c0,2.129,0.175,3.463,0.526,4.004c0.351,0.541,0.811,0.811,1.379,0.811
		c0.435,0,1.137-0.211,2.106-0.635l0.602,1.204c-1.683,1.014-2.803,1.622-3.36,1.822c-0.747,0.268-1.46,0.401-2.14,0.401
		c-1.037,0-1.864-0.329-2.482-0.986c-0.619-0.658-0.928-1.627-0.928-2.909l0.067-3.862l0.134-6.403l-1.354-0.033
		c-0.123,0-0.468,0.011-1.037,0.033v-1.237c1.07-0.379,2.054-0.998,2.951-1.856c0.897-0.858,1.803-2.128,2.717-3.812h1.471
		c-0.294,1.85-0.465,3.517-0.51,4.999c0.971,0.021,1.563,0.034,1.775,0.034C113.586,15.274,114.53,15.263,116.003,15.24z"/>
	<path fill="none" d="M116.472,9.991V8.787c1.772-0.412,3.073-0.766,3.903-1.062c0.831-0.295,1.725-0.705,2.684-1.229l0.836,0.518
		c-0.123,1.059-0.223,2.447-0.301,4.163c-0.1,2.441-0.15,4.325-0.15,5.651v1.02c1.404-1.426,2.413-2.307,3.026-2.642
		c0.613-0.334,1.371-0.501,2.274-0.501c1.226,0,2.165,0.284,2.816,0.853c0.652,0.568,1.045,1.304,1.179,2.207
		c0.089,0.625,0.134,2.508,0.134,5.65c0,2.552,0.022,4.141,0.067,4.765c0.034,0.446,0.139,0.764,0.318,0.953
		c0.178,0.189,0.674,0.39,1.488,0.602c0.145,0.034,0.361,0.089,0.652,0.167v1.17c-1.909-0.123-3.417-0.185-4.522-0.185
		c-1.172,0-2.647,0.062-4.422,0.185v-1.17c0.989-0.256,1.576-0.493,1.761-0.711c0.186-0.217,0.278-0.688,0.278-1.413
		c0-4.748-0.006-7.216-0.017-7.406c-0.067-0.903-0.284-1.541-0.652-1.914c-0.368-0.374-0.875-0.56-1.521-0.56
		c-0.613,0-1.176,0.204-1.688,0.61c-0.513,0.407-0.854,0.961-1.021,1.663c-0.111,0.479-0.167,1.85-0.167,4.113
		c0,2.497,0.022,3.917,0.067,4.263c0.044,0.346,0.178,0.619,0.401,0.819c0.223,0.201,0.735,0.379,1.538,0.535v1.17
		c-1.738-0.123-3.115-0.185-4.129-0.185c-0.68,0-2.291,0.062-4.832,0.185v-1.17c0.189-0.056,0.334-0.095,0.435-0.117
		c0.903-0.223,1.432-0.418,1.588-0.585c0.223-0.256,0.356-0.758,0.401-1.505c0.089-1.593,0.134-4.669,0.134-9.228l-0.05-7.289
		c0-0.468-0.089-0.805-0.268-1.011c-0.179-0.206-0.429-0.31-0.752-0.31C117.536,9.857,117.04,9.902,116.472,9.991z"/>
	<path fill="none" d="M149.79,26.542l0.87,1.271c-1.75,1.482-3.36,2.558-4.832,3.227c-0.635,0.29-1.449,0.435-2.441,0.435
		c-2.072,0-3.656-0.613-4.748-1.839c-1.382-1.538-2.072-3.588-2.072-6.152c0-2.664,0.791-4.826,2.373-6.486
		c1.584-1.661,3.545-2.491,5.885-2.491c2.14,0,3.705,0.646,4.697,1.939c0.657,0.847,1.037,2.168,1.138,3.962
		c-0.558,0.368-1.076,0.786-1.556,1.254c-1.17-0.044-2.362-0.067-3.578-0.067c-1.582,0-3.053,0.023-4.412,0.067
		c-0.012,0.246-0.018,0.452-0.018,0.619c0,1.572,0.359,2.954,1.078,4.146c0.719,1.193,1.797,1.789,3.235,1.789
		c0.702,0,1.374-0.117,2.015-0.351C148.064,27.628,148.854,27.188,149.79,26.542z M141.146,19.938
		c0.625,0.022,1.138,0.033,1.539,0.033c0.957,0,2.129-0.044,3.51-0.134c-0.066-1.422-0.303-2.368-0.709-2.838
		c-0.407-0.47-0.967-0.706-1.68-0.706c-0.691,0-1.283,0.28-1.772,0.84C141.542,17.693,141.248,18.628,141.146,19.938z"/>
	<path fill="none" d="M160.439,10.074v-1.22c2.552-0.546,4.77-1.332,6.653-2.357l0.802,0.585c-0.155,1.416-0.272,3.042-0.351,4.882
		c-0.078,1.839-0.117,3.89-0.117,6.152c0,4.046,0.011,6.904,0.033,8.576c0.011,0.78,0.11,1.268,0.301,1.463
		c0.189,0.195,0.529,0.292,1.021,0.292c0.111,0,0.523-0.005,1.236-0.017v1.17c-1.371,0.192-2.543,0.414-3.519,0.667
		s-2.026,0.6-3.151,1.039l-0.818-0.402c0.121-0.703,0.217-1.429,0.283-2.177c-1.271,1.06-2.323,1.786-3.16,2.176
		c-0.59,0.279-1.227,0.419-1.905,0.419c-1.315,0-2.424-0.563-3.327-1.688c-1.181-1.438-1.771-3.315-1.771-5.634
		c0-1.114,0.158-2.229,0.477-3.344c0.316-1.114,0.824-2.101,1.521-2.959c0.695-0.858,1.621-1.574,2.774-2.148
		c1.153-0.574,2.332-0.861,3.536-0.861c0.268,0,0.568,0.028,0.902,0.083c0.334,0.056,0.703,0.14,1.104,0.251
		c0.033-1.226,0.05-2.09,0.05-2.591c0-1.181-0.089-1.897-0.267-2.148c-0.179-0.25-0.496-0.376-0.953-0.376
		C161.47,9.907,161.02,9.963,160.439,10.074z M162.997,22.312c0-2.274-0.162-3.739-0.485-4.397
		c-0.423-0.847-1.103-1.271-2.039-1.271c-0.793,0-1.505,0.432-2.141,1.296c-0.637,0.864-0.953,2.343-0.953,4.438
		c0,2.051,0.373,3.6,1.12,4.647c0.513,0.713,1.17,1.07,1.974,1.07c0.946,0,1.639-0.485,2.072-1.455
		C162.848,25.939,162.997,24.497,162.997,22.312z"/>
	<path fill="none" d="M170.438,18.083v-1.17c2.764-0.602,4.971-1.36,6.619-2.274l0.803,0.452c-0.189,1.17-0.301,2.458-0.334,3.862
		c1.138-1.783,1.976-2.881,2.517-3.293s1.179-0.619,1.914-0.619c0.501,0,1.053,0.134,1.655,0.401
		c-0.346,1.393-0.613,2.836-0.803,4.33h-1.137c-0.056-0.446-0.199-0.775-0.436-0.987c-0.233-0.211-0.512-0.317-0.836-0.317
		c-0.489,0-0.952,0.229-1.387,0.687c-0.658,0.702-1.115,1.565-1.371,2.591c-0.135,0.524-0.201,1.427-0.201,2.708
		c0,2.263,0.021,3.567,0.066,3.912c0.044,0.346,0.167,0.602,0.368,0.769s0.819,0.368,1.856,0.602
		c0.145,0.034,0.361,0.089,0.651,0.167v1.17c-2.118-0.123-3.829-0.184-5.132-0.184c-1.404,0-3.009,0.061-4.814,0.184v-1.17
		c1.336-0.278,2.095-0.591,2.273-0.937c0.256-0.479,0.384-2.769,0.384-6.871c0-2.173-0.083-3.408-0.25-3.703
		s-0.468-0.443-0.903-0.443C171.607,17.949,171.105,17.993,170.438,18.083z"/>
	<path fill="none" d="M186.954,20.506l-1.488-0.167c0.324-1.578,0.53-2.978,0.62-4.201c2.031-0.978,4.152-1.467,6.361-1.467
		c1.283,0,2.307,0.207,3.072,0.619c0.765,0.413,1.291,0.975,1.582,1.688s0.436,1.822,0.436,3.327l-0.083,5.684
		c0,1.081,0.092,1.764,0.276,2.048c0.184,0.284,0.426,0.426,0.727,0.426c0.355,0,0.886-0.195,1.588-0.585l0.635,0.97
		c-1.516,1.07-2.636,1.772-3.359,2.106c-0.524,0.234-1.025,0.351-1.504,0.351c-0.635,0-1.183-0.173-1.64-0.519
		c-0.457-0.345-0.769-0.858-0.936-1.538c-1.337,0.925-2.273,1.502-2.81,1.73c-0.535,0.229-1.182,0.343-1.938,0.343
		c-1.148,0-2.087-0.387-2.816-1.162c-0.729-0.774-1.095-1.808-1.095-3.101c0-0.914,0.245-1.761,0.734-2.541
		c0.334-0.546,0.953-1.07,1.856-1.571l6.068-2.875c-0.022-1.326-0.231-2.218-0.627-2.675c-0.396-0.457-0.984-0.686-1.765-0.686
		c-0.791,0-1.479,0.259-2.063,0.777C188.199,18.007,187.589,19.013,186.954,20.506z M193.24,21.877
		c-1.84,0.858-2.998,1.56-3.479,2.106c-0.479,0.546-0.719,1.26-0.719,2.14c0,0.903,0.178,1.566,0.535,1.989
		c0.355,0.424,0.818,0.635,1.388,0.635c0.435,0,0.855-0.145,1.263-0.435c0.405-0.29,0.679-0.699,0.818-1.229
		c0.139-0.529,0.209-1.641,0.209-3.335C193.256,23.359,193.25,22.735,193.24,21.877z"/>
	<path fill="none" d="M200.695,10.008v-1.17c1.639-0.393,2.896-0.747,3.771-1.061s1.819-0.741,2.833-1.279l0.819,0.585
		c-0.156,1.427-0.276,3.109-0.359,5.049c-0.084,1.939-0.125,4.141-0.125,6.604c0,5.305,0.015,8.306,0.042,9.002
		c0.028,0.697,0.131,1.14,0.311,1.329c0.268,0.29,0.979,0.568,2.14,0.836v1.17c-1.75-0.123-3.333-0.184-4.748-0.184
		c-1.448,0-3.048,0.061-4.798,0.184v-1.17c1.236-0.278,1.967-0.535,2.189-0.769c0.224-0.233,0.356-0.757,0.401-1.57
		c0.067-1.18,0.101-4.315,0.101-9.404c0-4.688-0.033-7.194-0.101-7.517c-0.101-0.512-0.483-0.768-1.153-0.768
		C201.716,9.874,201.275,9.918,200.695,10.008z"/>
</g>
<g>
	<path fill="none" d="M62.03,41.727V40.49c2.597,0.123,4.742,0.184,6.437,0.184c1.292,0,3.082-0.033,5.366-0.1
		c1.661-0.056,3.048-0.083,4.163-0.083c2.095,0,3.755,0.268,4.981,0.802c1.694,0.736,3.023,1.867,3.987,3.394
		c0.964,1.527,1.446,3.506,1.446,5.936c0,2.697-0.63,5.096-1.889,7.197c-1.26,2.101-3.032,3.742-5.316,4.923
		c-1.906,0.991-4.219,1.487-6.938,1.487c-0.256,0-1.293-0.037-3.109-0.108c-1.817-0.073-2.836-0.108-3.059-0.108
		c-0.78,0-2.803,0.066-6.069,0.201v-1.236l0.706-0.135c1.466-0.256,2.326-0.496,2.578-0.719c0.251-0.223,0.4-0.552,0.445-0.986
		c0.044-0.646,0.067-4.029,0.067-10.147c0-4.491-0.044-7.021-0.134-7.591c-0.056-0.39-0.195-0.673-0.417-0.853
		c-0.223-0.178-1.07-0.401-2.542-0.668L62.03,41.727z M71.007,61.989c1.349,0.223,2.48,0.334,3.394,0.334
		c2.563,0,4.497-0.758,5.801-2.274c1.661-1.938,2.491-4.753,2.491-8.442c0-3.164-0.735-5.566-2.207-7.205
		c-1.193-1.337-3.059-2.005-5.601-2.005c-1.07,0-2.363,0.106-3.878,0.318c-0.111,1.738-0.167,4.965-0.167,9.68
		C70.84,55.101,70.896,58.3,71.007,61.989z"/>
	<path fill="none" d="M104.159,59.683l0.869,1.271c-1.75,1.481-3.36,2.558-4.831,3.228c-0.635,0.289-1.449,0.435-2.441,0.435
		c-2.073,0-3.656-0.613-4.748-1.839c-1.382-1.538-2.073-3.59-2.073-6.152c0-2.664,0.791-4.826,2.374-6.487
		c1.583-1.659,3.544-2.491,5.885-2.491c2.14,0,3.706,0.647,4.698,1.939c0.658,0.848,1.037,2.168,1.137,3.962
		c-0.557,0.368-1.076,0.786-1.555,1.253c-1.17-0.044-2.363-0.066-3.578-0.066c-1.583,0-3.054,0.022-4.414,0.066
		c-0.011,0.246-0.017,0.452-0.017,0.619c0,1.572,0.359,2.954,1.079,4.146c0.719,1.192,1.797,1.789,3.235,1.789
		c0.702,0,1.373-0.117,2.014-0.352S103.223,60.328,104.159,59.683z M95.516,53.078c0.624,0.022,1.137,0.034,1.538,0.034
		c0.958,0,2.128-0.045,3.511-0.135c-0.067-1.422-0.304-2.369-0.71-2.838c-0.407-0.471-0.967-0.707-1.68-0.707
		c-0.691,0-1.282,0.28-1.772,0.84C95.911,50.833,95.616,51.769,95.516,53.078z"/>
	<path fill="none" d="M106.282,51.239v-1.204c1.471-0.312,2.694-0.642,3.669-0.986c0.975-0.346,1.942-0.786,2.901-1.321l0.869,0.502
		c-0.156,0.847-0.262,1.771-0.318,2.774c1.237-1.403,2.168-2.288,2.792-2.649c0.624-0.362,1.36-0.543,2.207-0.543
		c0.836,0,1.558,0.162,2.165,0.484c0.607,0.323,1.059,0.733,1.354,1.229c0.295,0.496,0.487,1.162,0.577,1.998
		c0.056,0.524,0.083,1.783,0.083,3.778l-0.017,2.976c0,1.918,0.022,3.046,0.067,3.386c0.044,0.34,0.153,0.585,0.326,0.735
		s0.666,0.315,1.479,0.494c0.134,0.032,0.346,0.082,0.636,0.149v1.17c-1.862-0.123-3.305-0.185-4.33-0.185
		c-1.037,0-2.563,0.062-4.581,0.185v-1.17c0.858-0.212,1.382-0.404,1.571-0.577c0.189-0.172,0.306-0.459,0.351-0.861
		c0.067-0.557,0.1-2.4,0.1-5.533c0-2.217-0.095-3.555-0.284-4.012c-0.313-0.726-0.897-1.088-1.755-1.088
		c-0.625,0-1.195,0.223-1.714,0.67c-0.518,0.445-0.85,1.014-0.995,1.704c-0.145,0.691-0.217,2.212-0.217,4.564
		c0,2.106,0.044,3.416,0.134,3.929c0.044,0.279,0.145,0.482,0.301,0.61c0.156,0.128,0.68,0.325,1.571,0.594v1.17
		c-1.694-0.123-3.109-0.185-4.246-0.185c-1.059,0-2.625,0.062-4.698,0.185v-1.17c1.226-0.323,1.92-0.558,2.082-0.702
		c0.161-0.145,0.27-0.479,0.326-1.003c0.101-1.204,0.15-2.764,0.15-4.681c0-2.932-0.033-4.542-0.1-4.832
		c-0.134-0.49-0.474-0.735-1.02-0.735C107.374,51.089,106.895,51.14,106.282,51.239z"/>
	<path fill="none" d="M136.708,48.38l0.217,0.234c-0.356,0.624-0.674,1.271-0.952,1.938c-1.193-0.122-2.48-0.211-3.863-0.268
		l-0.05,1.989l-0.05,2.291l-0.05,2.273c0,2.128,0.175,3.463,0.526,4.004s0.811,0.812,1.379,0.812c0.435,0,1.137-0.212,2.107-0.636
		l0.602,1.205c-1.684,1.015-2.803,1.621-3.36,1.821c-0.747,0.269-1.46,0.401-2.14,0.401c-1.037,0-1.864-0.329-2.483-0.986
		c-0.618-0.658-0.928-1.627-0.928-2.909l0.067-3.862l0.134-6.402l-1.354-0.033c-0.123,0-0.468,0.012-1.037,0.033v-1.237
		c1.07-0.379,2.054-0.998,2.951-1.856c0.897-0.857,1.803-2.127,2.717-3.812h1.471c-0.295,1.851-0.465,3.517-0.51,4.999
		c0.971,0.021,1.563,0.034,1.775,0.034C134.291,48.414,135.234,48.403,136.708,48.38z"/>
	<path fill="none" d="M140.62,53.646l-1.488-0.166c0.324-1.578,0.53-2.979,0.62-4.201c2.031-0.979,4.152-1.467,6.361-1.467
		c1.283,0,2.308,0.207,3.072,0.619c0.765,0.411,1.291,0.975,1.582,1.688s0.436,1.822,0.436,3.326l-0.083,5.685
		c0,1.082,0.092,1.765,0.276,2.048c0.184,0.285,0.426,0.426,0.727,0.426c0.355,0,0.886-0.194,1.588-0.584l0.635,0.97
		c-1.516,1.069-2.636,1.771-3.359,2.105c-0.524,0.234-1.025,0.351-1.504,0.351c-0.635,0-1.183-0.172-1.64-0.518
		s-0.769-0.857-0.936-1.539c-1.337,0.926-2.273,1.502-2.81,1.73c-0.535,0.229-1.182,0.343-1.938,0.343
		c-1.148,0-2.087-0.388-2.816-1.162s-1.095-1.808-1.095-3.101c0-0.914,0.245-1.762,0.734-2.541c0.334-0.547,0.953-1.07,1.856-1.571
		l6.068-2.875c-0.022-1.326-0.231-2.218-0.628-2.675c-0.396-0.457-0.983-0.686-1.764-0.686c-0.791,0-1.479,0.258-2.063,0.776
		C141.865,51.147,141.255,52.153,140.62,53.646z M146.906,55.017c-1.84,0.858-2.998,1.562-3.479,2.106
		c-0.479,0.546-0.719,1.26-0.719,2.14c0,0.903,0.178,1.566,0.535,1.989c0.355,0.424,0.818,0.635,1.388,0.635
		c0.435,0,0.854-0.145,1.263-0.435c0.405-0.29,0.679-0.699,0.818-1.229c0.139-0.529,0.209-1.642,0.209-3.336
		C146.922,56.5,146.917,55.875,146.906,55.017z"/>
	<path fill="none" d="M154.361,43.148v-1.17c1.639-0.393,2.896-0.746,3.771-1.061c0.875-0.314,1.819-0.741,2.833-1.28l0.819,0.585
		c-0.156,1.427-0.276,3.11-0.359,5.048c-0.084,1.939-0.125,4.142-0.125,6.604c0,5.306,0.015,8.306,0.042,9.002
		c0.028,0.697,0.131,1.14,0.311,1.329c0.268,0.29,0.979,0.568,2.14,0.836v1.17c-1.75-0.123-3.333-0.184-4.748-0.184
		c-1.449,0-3.048,0.061-4.798,0.184v-1.17c1.236-0.277,1.967-0.535,2.189-0.768c0.224-0.234,0.356-0.758,0.401-1.571
		c0.067-1.181,0.101-4.315,0.101-9.404c0-4.688-0.033-7.194-0.101-7.517c-0.101-0.512-0.483-0.77-1.153-0.77
		C155.382,43.014,154.941,43.059,154.361,43.148z"/>
	<path fill="none" d="M196.34,59.615l0.854,1.604c-1.928,1.271-3.709,2.17-5.342,2.7c-1.633,0.529-3.341,0.794-5.123,0.794
		c-3.768,0-6.729-1.072-8.887-3.218c-2.156-2.146-3.234-5.035-3.234-8.668c0-3.856,1.215-6.96,3.645-9.312
		c2.43-2.353,5.79-3.527,10.081-3.527c1.371,0,2.694,0.108,3.97,0.326c1.276,0.217,2.856,0.622,4.739,1.212
		c-0.065,0.725-0.101,1.477-0.101,2.257c0,1.349,0.084,2.998,0.252,4.947h-1.84c-0.558-2.14-0.925-3.394-1.104-3.761
		c-0.413-0.836-1.089-1.544-2.031-2.124c-0.941-0.579-2.215-0.869-3.82-0.869c-2.44,0-4.324,0.747-5.65,2.24
		c-1.605,1.794-2.407,4.274-2.407,7.439c0,3.275,0.8,5.771,2.399,7.48c1.599,1.711,3.753,2.566,6.461,2.566
		C191.609,61.705,193.988,61.008,196.34,59.615z"/>
	<path fill="none" d="M199.434,43.148v-1.17c1.637-0.393,2.895-0.746,3.77-1.061s1.818-0.741,2.834-1.28l0.818,0.585
		c-0.156,1.427-0.275,3.11-0.359,5.048c-0.084,1.939-0.125,4.142-0.125,6.604c0,5.306,0.014,8.306,0.042,9.002
		c0.028,0.697,0.131,1.14,0.31,1.329c0.268,0.29,0.98,0.568,2.139,0.836v1.17c-1.75-0.123-3.332-0.184-4.747-0.184
		c-1.449,0-3.048,0.061-4.798,0.184v-1.17c1.236-0.277,1.967-0.535,2.189-0.768c0.223-0.234,0.355-0.758,0.401-1.571
		c0.067-1.181,0.1-4.315,0.1-9.404c0-4.688-0.032-7.194-0.1-7.517c-0.101-0.512-0.485-0.77-1.153-0.77
		C200.453,43.014,200.014,43.059,199.434,43.148z"/>
	<path fill="none" d="M210.116,51.104v-1.203c2.53-0.446,4.714-1.221,6.553-2.324l0.853,0.451c-0.155,1.349-0.256,2.552-0.301,3.611
		c-0.078,1.57-0.117,4.057-0.117,7.455c0,1.428,0.051,2.336,0.151,2.725c0.065,0.257,0.197,0.449,0.394,0.578
		c0.194,0.127,0.86,0.342,1.998,0.644v1.17c-1.549-0.123-2.965-0.185-4.248-0.185c-1.226,0-3.015,0.062-5.365,0.185v-1.17
		l0.435-0.101c0.98-0.224,1.562-0.416,1.739-0.577s0.29-0.448,0.334-0.861c0.102-1.06,0.15-3.243,0.15-6.553
		c0-1.917-0.049-3.031-0.15-3.345c-0.133-0.412-0.451-0.619-0.953-0.619C211.152,50.988,210.662,51.028,210.116,51.104z
		 M214.98,39.871c0.746,0,1.385,0.265,1.914,0.794c0.529,0.53,0.795,1.167,0.795,1.915c0,0.747-0.266,1.385-0.795,1.914
		c-0.529,0.528-1.168,0.794-1.914,0.794c-0.748,0-1.386-0.266-1.914-0.794c-0.53-0.529-0.795-1.167-0.795-1.914
		s0.263-1.385,0.787-1.915C213.582,40.136,214.223,39.871,214.98,39.871z"/>
	<path fill="none" d="M220.547,51.239v-1.204c1.471-0.312,2.694-0.642,3.669-0.986c0.976-0.346,1.942-0.786,2.901-1.321l0.869,0.502
		c-0.156,0.847-0.262,1.771-0.317,2.774c1.237-1.403,2.167-2.288,2.792-2.649c0.624-0.362,1.359-0.543,2.207-0.543
		c0.836,0,1.557,0.162,2.165,0.484c0.608,0.323,1.06,0.733,1.354,1.229c0.295,0.496,0.486,1.162,0.576,1.998
		c0.057,0.524,0.084,1.783,0.084,3.778l-0.018,2.976c0,1.918,0.021,3.046,0.066,3.386s0.153,0.585,0.326,0.735
		c0.174,0.15,0.666,0.315,1.48,0.494c0.133,0.032,0.345,0.082,0.635,0.149v1.17c-1.861-0.123-3.304-0.185-4.33-0.185
		c-1.037,0-2.563,0.062-4.581,0.185v-1.17c0.858-0.212,1.382-0.404,1.571-0.577c0.189-0.172,0.307-0.459,0.352-0.861
		c0.066-0.557,0.101-2.4,0.101-5.533c0-2.217-0.095-3.555-0.285-4.012c-0.312-0.726-0.897-1.088-1.755-1.088
		c-0.624,0-1.195,0.223-1.713,0.67c-0.518,0.445-0.85,1.014-0.995,1.704c-0.146,0.691-0.218,2.212-0.218,4.564
		c0,2.106,0.045,3.416,0.135,3.929c0.044,0.279,0.145,0.482,0.301,0.61s0.68,0.325,1.571,0.594v1.17
		c-1.694-0.123-3.109-0.185-4.246-0.185c-1.06,0-2.625,0.062-4.698,0.185v-1.17c1.227-0.323,1.92-0.558,2.082-0.702
		c0.161-0.145,0.27-0.479,0.326-1.003c0.1-1.204,0.15-2.764,0.15-4.681c0-2.932-0.035-4.542-0.102-4.832
		c-0.133-0.49-0.474-0.735-1.02-0.735C221.641,51.089,221.16,51.14,220.547,51.239z"/>
	<path fill="none" d="M240.074,51.104v-1.203c2.529-0.446,4.714-1.221,6.553-2.324l0.854,0.451
		c-0.156,1.349-0.258,2.552-0.301,3.611c-0.078,1.57-0.117,4.057-0.117,7.455c0,1.428,0.049,2.336,0.149,2.725
		c0.067,0.257,0.198,0.449,0.394,0.578c0.194,0.127,0.86,0.342,1.998,0.644v1.17c-1.549-0.123-2.965-0.185-4.246-0.185
		c-1.228,0-3.016,0.062-5.367,0.185v-1.17l0.435-0.101c0.981-0.224,1.562-0.416,1.739-0.577s0.29-0.448,0.334-0.861
		c0.1-1.06,0.15-3.243,0.15-6.553c0-1.917-0.051-3.031-0.15-3.345c-0.134-0.412-0.452-0.619-0.953-0.619
		C241.109,50.988,240.62,51.028,240.074,51.104z M244.939,39.871c0.746,0,1.384,0.265,1.914,0.794
		c0.528,0.53,0.793,1.167,0.793,1.915c0,0.747-0.265,1.385-0.793,1.914c-0.53,0.528-1.168,0.794-1.914,0.794
		c-0.748,0-1.385-0.266-1.916-0.794c-0.529-0.529-0.793-1.167-0.793-1.914s0.262-1.385,0.785-1.915
		C243.54,40.136,244.182,39.871,244.939,39.871z"/>
	<path fill="none" d="M264.03,53.713l-1.505-0.067c-0.111-1.582-0.438-2.68-0.979-3.293c-0.541-0.612-1.223-0.918-2.048-0.918
		c-1.024,0-1.845,0.39-2.457,1.168c-0.813,1.045-1.222,2.554-1.222,4.523c0,2.016,0.447,3.545,1.339,4.591
		c0.891,1.046,1.956,1.569,3.192,1.569c0.547,0,1.096-0.086,1.646-0.26c0.551-0.172,1.29-0.51,2.215-1.01L265,61.287
		c-1.861,1.448-3.225,2.366-4.087,2.75c-0.864,0.384-1.786,0.577-2.767,0.577c-1.984,0-3.629-0.694-4.933-2.081
		c-1.304-1.388-1.956-3.269-1.956-5.644c0-2.529,0.764-4.703,2.291-6.52s3.65-2.725,6.369-2.725c1.572,0,3.266,0.418,5.083,1.254
		c-0.224,0.892-0.44,1.944-0.651,3.16C264.214,52.771,264.107,53.323,264.03,53.713z"/>
</g>
<path fill="none" d="M18.306,2.672c1.107,0.033,2.249,0.175,3.095,0.164c-0.021,0.105-0.249,0.003-0.162,0.217
	c0.585,0.38,1.651-0.055,2.118,0.436c-0.031,0.227-0.523,0.079-0.652,0.055c-0.195-0.118-0.054,0.368-0.162,0.162
	c-0.44,0.035,0.106-0.32-0.272-0.379c-0.449,0.668,1.049,1.034,1.466,1.031c0.295,0.342,0.201,0.738,0.543,1.033
	c0.072,0.421-0.292,0.74,0,1.196c0.047,0.201,0.368-0.167,0.218,0c-0.25,0.726-1.138-0.426-1.521,0.108
	c-0.517-0.074-0.749-0.422-1.141-0.38C21.73,6.307,21.92,6.11,21.781,6.04c-0.199-0.037-0.413-0.058-0.597-0.109
	c-0.23-0.03-0.186,0.214-0.381,0.217c-1.217-0.158-2.379,0.611-3.638,0.38c-0.418-0.075-0.83-0.444-1.305-0.598
	c-0.721-0.23-1.29-0.343-1.683-0.759c-0.136-0.038,0.101-0.146,0.054-0.272c-0.288-0.111-0.631-0.164-1.032-0.163
	c-0.173,0.194,0.385,0.119,0.488,0.217c-0.251,0.138-0.521,0.037-0.87,0.052c-2.786,0.142-4.154,2.048-5.702,3.75
	c-0.518,0.568-1.341,1.261-1.468,1.846c-0.16,0.746-0.074,1.458-0.271,2.119c-0.115,0.389-0.415,0.688-0.542,1.087
	c-0.096,0.295-0.023,0.502-0.271,0.707c0.376,1.342,0.593,2.846,1.032,4.128c0.059,0.137,0.138-0.306,0.271-0.11
	c0.397,0.381-0.019,1.062,0.055,1.63c0.029,0.23,0.252,0.344,0.38,0.599c0.05,0.097,0.008,0.245,0.054,0.324
	c0.28,0.479,0.846,0.867,1.087,1.305c0.592,1.08,0.921,2.881,1.303,4.237c0.781,2.766,1.87,5.304,2.824,8.146
	c0.472,1.407,1.091,2.964,1.195,4.292c0.014,0.186-0.076,0.384-0.055,0.543c0.025,0.169,0.178,0.318,0.218,0.49
	c0.201,0.839-0.013,2.418,0.053,3.42c0.141,2.082,0.262,4.703,0.164,6.897c-0.03,0.683,0.018,1.408-0.109,1.957
	c-0.11,0.478-0.436,0.872-0.489,1.356c-0.041,0.373,0.016,0.776,0,1.142c-0.208,4.737-1.598,8.994-2.771,13.252
	c-0.568,2.063-1.042,4.262-1.628,6.411c-0.673,2.464-1.375,4.847-1.413,7.386c-0.385,0.041-0.75,0.652-0.925,0.545
	c0.089,0.015,0.094-0.055,0.163-0.056c-0.365-0.628-0.642-1.215-0.705-2.01c-0.017-0.194,0.048-0.437,0-0.651
	c-0.1-0.442-0.359-0.736-0.434-1.14c-0.138-0.729-0.308-1.942-0.218-2.879c0.1-1.037,0.332-2.021,0.38-3.097
	c0.022-0.481-0.043-0.963,0.054-1.469c0.047-0.251-0.085-0.056-0.107-0.162c0.433-3.41,1.193-6.437,1.955-9.558
	c0.242-0.993,0.642-2.014,0.76-3.043c0.17-1.478-0.066-3.484,0.706-4.454c0.055-0.406-0.071-0.851,0-1.306
	c0.028-0.166,0.173-0.313,0.218-0.486c0.196-0.751,0.07-1.65,0.108-2.499c0.048-1.063,0.078-2.108,0.056-3.206
	c-0.231,0.095-0.056-0.846,0.108-1.031c-0.166-0.939-0.204-2.003-0.652-2.662c-0.017-0.196,0.01-0.354,0.055-0.489
	c-0.172,0.188-0.175,0.55-0.434,0.652c-0.214-1.451-0.678-2.654-1.032-3.965c-0.125,0.147-0.02,0.523-0.055,0.761
	c-0.278-2.631-0.569-5.398-1.304-7.604c-0.629-1.883-1.545-3.585-2.173-5.485C1.991,22.793,0.776,19.04,0,14.567V12.34
	c0.21-0.828,0.036-1.575,0.163-2.335c0.15-0.897,1.069-2.107,1.738-2.663c0.243-0.2,0.538-0.433,0.869-0.379
	c-0.094-2.466,1.286-4.031,2.825-5.16c1.649-1.21,3.945-2.141,6.247-1.684c-1.047,0.04-1.942,0.23-2.717,0.543
	c0.476-0.126,1.08,0.113,1.522-0.109c0.015,0.096-0.175,0.293,0.053,0.273c1.166,0.359,1.428-0.571,2.444-0.326
	c0.012,0.163-0.202,0.184-0.056,0.326c0.215,0.094,0.453,0.164,0.654,0.271c0.107,0.208-0.096,0.411,0.326,0.327
	c0.224,0.167-0.182-0.305,0.162-0.327c0.677,0.049,1.151,0.299,1.684,0.488 M22.488,6.148c-0.001,0.109-0.147,0.069-0.108,0.219
	c0.146,0.071,0.288,0.146,0.433,0.217C22.748,6.376,22.396,6.354,22.488,6.148 M7.659,1.749C7.72,1.61,7.792,1.485,7.877,1.368
	C8.26,1.137,8.604,0.865,9.071,0.717C8.408,0.87,7.491,1.237,7.005,1.749C7.124,1.975,7.496,1.808,7.659,1.749 M18.794,2.888
	c0.92-0.114-0.551-0.092-0.597,0C18.147,2.988,18.969,2.867,18.794,2.888 M22.271,6.203c0.209-0.5-1.273-0.879-1.847-0.759
	C21.019,5.716,21.749,5.856,22.271,6.203"/>
<path fill="none" d="M41.553,85.506c0.246-0.405,0.938-0.366,1.303-0.649c0.252-0.039-0.083-0.183,0.056-0.221
	c0.81-0.527,1.517-1.29,1.845-2.388c0.144-0.481,0.384-1.104,0.38-1.522c-0.001-0.184-0.131-0.416-0.163-0.598
	c-0.092-0.523-0.116-1.164-0.163-1.792c-0.044-0.592-0.2-1.216-0.218-1.737c-0.032-1.037,0.135-1.982-0.162-2.826
	c-0.178-0.5-0.82-1.442-0.977-1.685c-1.916-5.038-2.398-11.505-3.75-17.108c0.212,0.201,0.099-0.74,0.327-0.869
	c-0.296-0.672-0.245-1.433-0.218-2.064c0.042-0.928-0.211-1.993-0.325-2.988c-0.118-1.031-0.271-2.043-0.272-3.095
	c-0.016-0.18-0.188,0.234-0.163-0.055c0.368-1.513-0.296-3.226-0.38-4.725c-0.069,0.27-0.234,0.687-0.434,0.651
	c-0.116-1.587-0.178-3.227-0.38-4.725c-0.033,0.382-0.116,0.718-0.217,1.031c1.028-6.102,2.309-12.774,4.237-18.251
	c0.651-1.851,1.486-3.925,1.628-5.919c0.038-0.517,0.048-0.979,0-1.412c-0.159-1.436-1.044-1.903-1.575-2.825
	c-0.39-0.68-0.572-1.451-0.489-2.443c-0.456-0.04-1.094-0.165-1.52-0.055c-0.367-0.322-0.695-0.681-1.141-0.923
	c-0.1,0.231,0.286,0.252,0.164,0.327c-1.284-0.143-2.607,0.432-3.585,0.596c0.678-0.413,1.487-0.746,2.281-1.032
	c0.22-0.078,0.658-0.126,0.706-0.434c-0.521-0.214-0.857,0.532-1.467,0.651c-0.327,0.065-0.63-0.17-0.868,0.165
	c-0.108-0.039,0.034-0.325-0.164-0.272c-0.327,0.088-0.678,0.154-0.922,0.327c-0.084,0.356-0.185,0.719-0.707,0.759
	c-0.087-0.009,0.088-0.256-0.163-0.217c-0.584,0.242-0.747-0.212-1.086,0.054c-0.147,0.082,0.322-0.002,0.163,0.272
	c-0.451,0.472-1.129,0.717-1.739,1.031c-0.06,0.404-0.471,0.542-0.706,0.815c-0.284,0.329-0.45,0.817-0.869,1.031
	c-0.167-0.044-0.13-0.152-0.327-0.054c-0.361,0.255-0.649,0.873-1.085,0.87c0.125-0.436,0.535-0.587,0.597-1.086
	c-0.113-0.068-0.268,0.168-0.381,0.27c-0.482,0.443-1.022,0.926-1.629,1.141c-0.119-0.007-0.117-0.136-0.108-0.272
	c-0.159,0.119-0.321,0.282-0.489,0.381c-1.171,0.696-2.699,1.568-4.346,1.522c-0.114,0.137-0.298,0.208-0.597,0.162
	c0.062-0.066,0.155-0.1,0.109-0.271c-0.675-0.272-1.893,0.334-2.226-0.272c0.375-0.031,0.758-0.063,0.868-0.217
	c0.304-0.023-0.167,0.409,0.218,0.326c0.379-0.186-0.112-0.462-0.218-0.651c-0.585,0.028-1.14-0.298-1.519,0
	c-0.432-0.192-0.687-0.223-0.98-0.543c-0.73,0.39-0.84-0.692-1.737-0.489c-0.211,0.061,0.209,0.21,0,0.272
	c-0.579-0.452,0.267-0.925,0.489-1.25c0.076-0.285-0.481-0.131-0.272-0.38c0.046-0.352,0.583-0.214,0.868-0.327
	c0.121-0.042-0.01-0.336,0.218-0.271c0.437,0.149,0.417,0.127,0.652,0.434c0.475,0.14,1.196,0.035,1.413,0.436
	c-0.232,0.047-0.482-0.167-0.651,0c0.445,0.11,0.558,0.27,0.976,0.054c0.7,0.152,1.325,0.667,2.227,0.434
	c-0.627-0.151-1.178-0.377-1.738-0.596c0.253,0.016,0.471,0,0.598-0.108c-0.118,0.409,0.352,0.229,0.543,0.326
	c0.156-0.007,0.052-0.221,0.271-0.272c0.996-0.162,1.452-0.863,2.172-1.303c0.292,0.004,0.451-0.12,0.761-0.055
	c0.12-0.132,0.218-0.286,0.434-0.326c0.498,0.129,0.661-0.417,0.923-0.054c0.117-0.137,0.136-0.373,0.327-0.436
	c0.879-0.111,1.21-0.685,1.792-1.138c1.247-0.975,2.572-1.754,3.803-2.662c-0.317-0.183-0.504,0.449-0.815,0.271
	c2.289-1.487,4.48-3.47,7.713-3.586c2.257-0.079,3.715,1.157,4.998,2.282c0.834,0.731,1.399,1.836,2.062,2.769
	c0.608,0.856,1.721,1.901,2.011,2.879c0.2,0.672,0.106,1.733,0.38,2.446v0.163H48.07c-0.208,0.536-0.051,1.256,0.055,1.792v1.467
	H48.07c0.086,0.952-0.566,1.946-0.542,2.771c0.008,0.27-0.011,0.061,0.055,0.109c0.565,0.409-0.653,1.401-0.761,1.845
	c-0.216,0.881,0.076,1.689,0,2.607c-0.05,0.599-0.369,1.336-0.598,2.011c-0.633,1.869-1.477,3.787-1.956,5.758
	c-0.735,3.037-0.257,5.974-0.705,9.614c0.274,1.31-0.244,2.489-0.217,3.801c0.026,1.362,0.295,2.795,0.434,4.184
	c0.069,0.693,0.139,1.419,0.217,2.118c0.077,0.688,0.228,1.428,0.216,2.063c-0.007,0.47-0.183,0.904-0.162,1.357
	c0.038,0.831,0.325,1.709,0.489,2.606c0.473,2.588,0.909,5.354,1.303,7.986c0.267,1.779,0.478,3.605,0.871,5.323
	c0.179,0.793,0.473,1.608,0.65,2.444c0.188,0.887,0.51,1.744,0.543,2.555c0.171,4.24-0.976,8.234-2.934,10.699
	c-0.707,0.433-1.232,1.047-2.227,1.194h-1.193V85.506z M16.459,9.789c0.129,0.033,0.246,0.077,0.433,0.054
	c0.041-0.435,0.564,0.14,0.707-0.054C17.331,9.518,16.747,9.531,16.459,9.789 M24.334,12.503c0.159-0.113,0.421-0.123,0.543-0.271
	C24.66,12.253,24.31,12.424,24.334,12.503"/>
<path fill="none" d="M20.695,46.288c-0.146,0.417-0.635,0.958-0.869,1.467c0.053,0.112,0.208,0.118,0.38,0.108
	c-0.013-0.146-0.105-0.575,0.055-0.814c0.177-0.079,0.502-0.003,0.489-0.272c0.184,0.277,0.447,0.078,0.651-0.056
	c-0.002-0.206-0.285-0.325-0.107-0.543c0.225,0.125,0.792-0.024,1.032,0.218c0.165-0.189-0.261-0.138-0.216-0.379
	c0.619-0.306,0.81-0.707,1.03-1.412c0.215-0.071,0.111,0.177,0.326,0.108c0.099-0.155,0.095-0.414,0.38-0.379
	c-0.028,0.306-0.063,0.42,0.056,0.651c0.148-0.213,0.363-0.361,0.434-0.651c0.146,0.09,0.254-0.088,0.326,0.106
	c0.602-0.304,0.475-1.335,1.194-1.521c0.1-0.086-0.039-0.172,0.109-0.271c0.12,0.043,0.071,0.255,0.217,0.271
	c0.382,0.003,0.261-0.499,0.706-0.433c0.124,0.224-0.187,0.414-0.054,0.541c-0.186,0.041-0.09-0.199-0.218-0.216
	c-0.063,0.246,0.429,0.607,0.76,0.327c0.141-0.013-0.075-0.093,0-0.218c0.28,0,0.319-0.078,0.436,0.107
	c0.085-0.315,0.366-0.061,0.541,0c0.108,0.028,0.175-0.248,0.056-0.271c0.263,0.219,0.38,1.309,0.433,1.739
	c0.196-0.304,0.049,0.382,0.164,0.489c0.009,0.235-0.184-0.051-0.218-0.109c-0.352,0.361-0.886-0.22-1.413,0
	c0.11,0.247,0.86,0.104,0.761,0.381c-0.023,0.291-0.136-0.279-0.271-0.055c-0.059,0.258-0.063,0.969-0.054,1.466
	c-0.067,0.089-0.471-0.058-0.327,0.217c-0.326-0.098-0.462,0.22-0.597,0c-0.114,0.017,0.078,0.146-0.054,0.218
	c-0.927,0.068-1.254,0.738-1.794,1.194c0.244,0.081,0.168-0.159,0.381-0.108c-0.836,1.304-1.125,3.146-2.444,3.967
	c0.025,0.316,0.106,0.582,0.162,0.869c-0.237,0.25-0.28,0.699-0.707,0.761c0.143,0.665-0.044,1.231-0.107,1.847
	c0.081,0.096,0.234-0.056,0.326,0.109c-0.123,0.238-0.282,0.439-0.599,0.486c0.025,0.508,0.228,0.769,0.436,1.195
	c-0.199,1.391-1.446,2.107-1.575,3.423c-0.094,0.958,0.357,2.31-0.055,3.204c0.031,0.116,0.135,0.157,0.109,0.327
	c-0.664,1.112-0.674,2.876-1.033,4.292c-0.1,0.207-0.324,0.291-0.434,0.489c-0.038,4.687-1.408,8.485-3.259,11.243
	c-0.33,0.179-0.325,0.688-0.869,0.652c-0.044-0.229-0.042-0.502-0.217-0.599c0.131-0.467-0.104-0.995,0.055-1.464
	c-0.915-0.928-0.174-2.564-0.708-3.749c-0.163-2.446,0.754-4.363,0.436-6.466c0.156,0.052,0.231-0.215,0.488-0.217
	c0.039-0.235-0.092-0.306-0.053-0.541c0.494-0.521,0.322-1.707,0.65-2.392c-0.014-0.06-0.107-0.036-0.108-0.108
	c0.034-0.166,0.122-0.277,0.327-0.271c-0.006-0.491-0.208-1.05-0.218-1.358c-0.099,0.081-0.303,0.057-0.38,0.161
	c-0.179-0.544-0.194-1.252-0.325-1.846c-0.086,0.112-0.177,0.22-0.218,0.38c0.534-1.287,0.943-2.736,1.469-4.236
	c0.75-2.156,2.068-4.394,1.085-7.226c0.324-0.507,0.657-1.005,1.521-0.978C18.031,48.765,19.389,46.832,20.695,46.288"/>
<path fill="none" d="M32.156,54.11c-0.095,0.125,0.313,0.518-0.055,0.543c0.305,0.059,0.055,0.429,0.163,0.599
	c0.086-0.116,0.113-0.287,0.108-0.49c0.045,0.345,0.535,0.446,0.924,0.597c0.017,0.668,0.125,1.19,0.271,2.012
	c0.098,0.015,0.111-0.051,0.055-0.055c0.234,0.084,0.339,0.494,0.487,0.813c0.153,0.327,0.351,0.693,0.381,1.033
	c0.036,0.4-0.18,0.791,0.271,0.924c-0.08,0.637,0.166,0.818,0.325,1.303c0.048,0.159,0.082,0.062,0.218,0.057
	c0.059,0.24-0.093,0.269-0.11,0.434c0.298,0.223,0.509,0.454,0.545,0.868c0.037,0.438-0.117,0.858-0.054,1.249
	c0.119,0.738,0.68,1.23,0.76,1.9c0.016,0.131-0.057,0.301-0.054,0.435c0.008,0.5,0.34,0.974,0.38,1.413
	c0.008,0.092-0.072,0.232-0.055,0.326c0.142,0.762,0.574,1.369,0.652,2.173c0.187,1.914-0.117,3.257-1.25,4.399
	c-0.161-0.254-0.189-0.643-0.162-1.086c-0.192-0.205-0.184-0.613-0.38-0.813c0.236-0.401-0.093-0.591-0.217-0.925
	c-0.35-0.943-0.212-2.234-0.816-2.823c0.055-0.074,0.09-0.164,0.163-0.22c-0.474-0.771-0.119-2.109-0.923-2.226
	c-0.055-0.178-0.307-0.684-0.38-0.489c-0.267-1.888,0.029-4.336-1.412-5.052c-0.054-0.417,0.105-0.618,0.271-0.815
	c-0.766-0.047-0.893-0.775-0.76-1.575c0.139,0.005,0.088,0.204,0.163,0.272c0.147-0.132,0.061-0.181,0.217-0.328
	c0.048-0.174-0.178-0.074-0.217-0.162c0.036-0.164,0.214-0.184,0.272-0.325c-0.145-0.398-0.333-0.726-0.435-1.031
	c0.068-0.167,0.187,0.058,0.326,0c-0.087-0.538-0.288-0.789-0.762-1.142c0.195-0.199,0.021-0.282-0.052-0.488
	c0.16-0.088,0.219,0.13,0.379,0c0.016-0.271-0.35-0.444-0.163-0.706c0.017-0.067-0.157-0.188-0.164-0.056
	C31.174,54.412,31.749,54.075,32.156,54.11"/>
<g>
	<path fill="none" d="M71.925,73.756v0.353c-0.436,0.08-0.712,0.147-0.83,0.205c-0.057,0.028-0.1,0.084-0.129,0.162
		c-0.028,0.08-0.043,0.324-0.043,0.734c0,0.654,0.01,1.232,0.029,1.734c-0.216,0.039-0.453,0.084-0.711,0.138
		c-0.674,0.146-1.16,0.237-1.458,0.276c-0.298,0.037-0.616,0.057-0.957,0.057c-0.792,0-1.418-0.1-1.879-0.296
		c-0.576-0.251-1.016-0.64-1.321-1.164c-0.306-0.524-0.458-1.149-0.458-1.875c0-1.288,0.475-2.281,1.426-2.978
		c0.681-0.496,1.579-0.744,2.695-0.744c0.748,0,1.59,0.108,2.528,0.324c-0.006,0.188-0.009,0.34-0.009,0.453
		c0,0.372,0.016,0.9,0.048,1.584H70.37c-0.134-0.527-0.268-0.895-0.403-1.1c-0.135-0.205-0.345-0.369-0.629-0.491
		c-0.285-0.123-0.632-0.184-1.042-0.184c-0.538,0-0.987,0.11-1.348,0.329c-0.361,0.22-0.641,0.56-0.84,1.02
		c-0.199,0.459-0.298,0.988-0.298,1.586c0,0.954,0.225,1.676,0.675,2.166c0.45,0.49,1.042,0.735,1.777,0.735
		c0.369,0,0.768-0.083,1.197-0.248v-1.468c0-0.32-0.016-0.526-0.048-0.618c-0.022-0.058-0.066-0.104-0.131-0.138
		c-0.065-0.035-0.271-0.088-0.613-0.158c-0.038-0.008-0.097-0.023-0.177-0.043v-0.353c0.732,0.035,1.282,0.054,1.651,0.054
		C70.411,73.81,71.006,73.792,71.925,73.756z"/>
	<path fill="none" d="M76.449,75.979l0.248,0.362c-0.5,0.423-0.959,0.73-1.379,0.92c-0.181,0.083-0.414,0.124-0.696,0.124
		c-0.592,0-1.043-0.175-1.355-0.523c-0.395-0.439-0.592-1.024-0.592-1.756c0-0.761,0.226-1.377,0.678-1.852
		c0.452-0.474,1.011-0.711,1.679-0.711c0.61,0,1.058,0.186,1.34,0.555c0.188,0.241,0.296,0.618,0.325,1.129
		c-0.159,0.105-0.307,0.226-0.444,0.358c-0.334-0.013-0.674-0.019-1.021-0.019c-0.452,0-0.872,0.006-1.259,0.019
		c-0.003,0.07-0.005,0.129-0.005,0.177c0,0.448,0.103,0.844,0.308,1.184s0.513,0.51,0.923,0.51c0.2,0,0.392-0.033,0.575-0.1
		S76.182,76.164,76.449,75.979z M73.982,74.095c0.178,0.006,0.325,0.01,0.439,0.01c0.273,0,0.607-0.014,1.002-0.039
		c-0.019-0.405-0.086-0.676-0.203-0.81c-0.117-0.134-0.276-0.2-0.479-0.2c-0.197,0-0.366,0.079-0.506,0.239
		C74.096,73.455,74.011,73.722,73.982,74.095z"/>
	<path fill="none" d="M77.329,73.569v-0.342c0.42-0.09,0.769-0.184,1.047-0.283c0.278-0.099,0.554-0.224,0.828-0.377l0.248,0.144
		c-0.045,0.242-0.075,0.506-0.091,0.792c0.353-0.4,0.619-0.652,0.797-0.756c0.178-0.104,0.388-0.155,0.629-0.155
		c0.239,0,0.445,0.046,0.618,0.14c0.173,0.092,0.302,0.209,0.386,0.351s0.139,0.332,0.165,0.569c0.016,0.149,0.024,0.51,0.024,1.078
		l-0.005,0.85c0,0.547,0.006,0.869,0.019,0.966c0.013,0.097,0.044,0.167,0.093,0.21s0.19,0.09,0.422,0.141
		c0.039,0.011,0.099,0.024,0.182,0.043v0.334c-0.531-0.034-0.943-0.053-1.236-0.053c-0.296,0-0.731,0.019-1.307,0.053v-0.334
		c0.245-0.061,0.395-0.114,0.449-0.164c0.054-0.049,0.087-0.131,0.1-0.246c0.019-0.159,0.028-0.687,0.028-1.579
		c0-0.634-0.027-1.015-0.081-1.146c-0.089-0.207-0.256-0.31-0.501-0.31c-0.178,0-0.341,0.063-0.489,0.19s-0.243,0.289-0.284,0.486
		c-0.042,0.197-0.062,0.631-0.062,1.303c0,0.602,0.013,0.975,0.038,1.12c0.013,0.08,0.041,0.138,0.086,0.175
		c0.044,0.037,0.194,0.092,0.448,0.168v0.334c-0.483-0.035-0.887-0.053-1.212-0.053c-0.302,0-0.749,0.018-1.34,0.053v-0.334
		c0.35-0.092,0.548-0.158,0.594-0.199c0.046-0.042,0.077-0.137,0.093-0.287c0.028-0.344,0.043-0.789,0.043-1.335
		c0-0.836-0.01-1.296-0.029-1.38c-0.038-0.139-0.135-0.209-0.291-0.209C77.64,73.526,77.503,73.542,77.329,73.569z"/>
	<path fill="none" d="M87.072,75.979l0.248,0.362c-0.499,0.423-0.959,0.73-1.378,0.92c-0.182,0.083-0.414,0.124-0.697,0.124
		c-0.591,0-1.043-0.175-1.355-0.523c-0.394-0.439-0.591-1.024-0.591-1.756c0-0.761,0.226-1.377,0.677-1.852
		c0.452-0.474,1.012-0.711,1.679-0.711c0.611,0,1.058,0.186,1.341,0.555c0.188,0.241,0.296,0.618,0.324,1.129
		c-0.159,0.105-0.307,0.226-0.443,0.358c-0.334-0.013-0.674-0.019-1.021-0.019c-0.452,0-0.872,0.006-1.26,0.019
		c-0.003,0.07-0.004,0.129-0.004,0.177c0,0.448,0.103,0.844,0.308,1.184s0.513,0.51,0.923,0.51c0.201,0,0.392-0.033,0.575-0.1
		C86.58,76.29,86.805,76.164,87.072,75.979z M84.605,74.095c0.178,0.006,0.324,0.01,0.439,0.01c0.273,0,0.607-0.014,1.002-0.039
		c-0.02-0.405-0.087-0.676-0.203-0.81c-0.116-0.134-0.276-0.2-0.479-0.2c-0.197,0-0.366,0.079-0.505,0.239
		C84.718,73.455,84.634,73.722,84.605,74.095z"/>
	<path fill="none" d="M87.942,73.565v-0.334c0.789-0.172,1.418-0.389,1.889-0.648l0.229,0.128c-0.054,0.334-0.086,0.702-0.096,1.103
		c0.325-0.51,0.564-0.822,0.718-0.939c0.154-0.117,0.336-0.177,0.546-0.177c0.143,0,0.3,0.038,0.472,0.114
		c-0.099,0.397-0.175,0.81-0.229,1.235h-0.324c-0.016-0.127-0.058-0.221-0.125-0.28c-0.066-0.062-0.146-0.092-0.238-0.092
		c-0.14,0-0.272,0.065-0.396,0.196c-0.188,0.2-0.318,0.446-0.391,0.739c-0.038,0.148-0.057,0.406-0.057,0.772
		c0,0.646,0.006,1.019,0.019,1.116s0.047,0.172,0.105,0.22c0.057,0.048,0.233,0.104,0.529,0.171c0.042,0.01,0.104,0.025,0.186,0.049
		v0.334c-0.604-0.035-1.092-0.054-1.464-0.054c-0.401,0-0.859,0.019-1.374,0.054v-0.334c0.382-0.08,0.598-0.168,0.649-0.268
		c0.073-0.137,0.109-0.791,0.109-1.961c0-0.62-0.024-0.972-0.071-1.057c-0.048-0.084-0.134-0.127-0.258-0.127
		C88.276,73.526,88.133,73.54,87.942,73.565z"/>
	<path fill="none" d="M92.929,74.257l-0.424-0.048c0.092-0.45,0.151-0.851,0.177-1.199c0.58-0.278,1.185-0.418,1.815-0.418
		c0.366,0,0.659,0.06,0.877,0.177c0.218,0.118,0.369,0.278,0.451,0.482c0.083,0.203,0.125,0.52,0.125,0.949l-0.024,1.622
		c0,0.309,0.026,0.503,0.079,0.584c0.053,0.081,0.122,0.122,0.208,0.122c0.102,0,0.253-0.057,0.453-0.168l0.182,0.276
		c-0.433,0.306-0.752,0.507-0.959,0.602c-0.149,0.067-0.293,0.101-0.43,0.101c-0.181,0-0.337-0.049-0.467-0.148
		c-0.13-0.099-0.22-0.244-0.267-0.438c-0.382,0.265-0.649,0.429-0.802,0.494c-0.152,0.065-0.337,0.098-0.553,0.098
		c-0.328,0-0.596-0.11-0.804-0.332c-0.208-0.221-0.313-0.516-0.313-0.885c0-0.261,0.07-0.502,0.21-0.726
		c0.095-0.155,0.272-0.305,0.529-0.447l1.732-0.821c-0.006-0.378-0.066-0.633-0.179-0.763c-0.113-0.13-0.28-0.196-0.503-0.196
		c-0.226,0-0.422,0.074-0.589,0.222C93.284,73.544,93.11,73.831,92.929,74.257z M94.723,74.647
		c-0.525,0.246-0.855,0.445-0.992,0.602s-0.206,0.359-0.206,0.611c0,0.257,0.051,0.447,0.153,0.567
		c0.103,0.121,0.234,0.181,0.396,0.181c0.124,0,0.244-0.041,0.36-0.123c0.116-0.084,0.194-0.2,0.233-0.352
		c0.04-0.15,0.06-0.468,0.06-0.951C94.728,75.071,94.726,74.894,94.723,74.647z"/>
	<path fill="none" d="M97.124,71.261v-0.334c0.468-0.111,0.826-0.213,1.076-0.303c0.25-0.089,0.519-0.211,0.809-0.365l0.233,0.167
		c-0.044,0.407-0.079,0.888-0.103,1.441c-0.023,0.553-0.036,1.182-0.036,1.884c0,1.514,0.004,2.371,0.012,2.569
		c0.008,0.198,0.037,0.325,0.088,0.379c0.077,0.083,0.28,0.163,0.611,0.239v0.334c-0.5-0.035-0.951-0.054-1.355-0.054
		c-0.414,0-0.87,0.019-1.369,0.054v-0.334c0.353-0.08,0.562-0.152,0.625-0.22s0.102-0.216,0.114-0.448
		c0.02-0.336,0.029-1.23,0.029-2.684c0-1.338-0.009-2.053-0.029-2.145c-0.028-0.146-0.138-0.219-0.329-0.219
		C97.415,71.224,97.289,71.235,97.124,71.261z"/>
	<path fill="none" d="M101.176,77.015l-0.205-0.253c0.061-0.075,0.156-0.194,0.286-0.356c0.2-0.248,0.393-0.501,0.578-0.76
		c0.298,0.086,0.536,0.244,0.713,0.473c0.176,0.229,0.265,0.492,0.265,0.788c0,0.366-0.123,0.766-0.367,1.202
		c-0.245,0.436-0.62,0.879-1.126,1.33l-0.348-0.349c0.353-0.467,0.588-0.819,0.706-1.059c0.076-0.159,0.114-0.329,0.114-0.511
		c0-0.166-0.043-0.295-0.131-0.394c-0.088-0.098-0.187-0.146-0.298-0.146C101.317,76.981,101.255,76.993,101.176,77.015z"/>
	<path fill="none" d="M113.287,75.96l0.243,0.458c-0.55,0.363-1.058,0.62-1.524,0.771c-0.466,0.151-0.954,0.228-1.462,0.228
		c-1.075,0-1.92-0.306-2.536-0.918c-0.616-0.612-0.923-1.437-0.923-2.474c0-1.101,0.347-1.986,1.04-2.657s1.652-1.007,2.877-1.007
		c0.391,0,0.769,0.031,1.133,0.094c0.364,0.063,0.815,0.177,1.353,0.346c-0.019,0.207-0.028,0.421-0.028,0.645
		c0,0.385,0.023,0.854,0.071,1.412h-0.525c-0.159-0.611-0.264-0.97-0.314-1.074c-0.118-0.238-0.311-0.44-0.58-0.606
		c-0.269-0.165-0.632-0.248-1.09-0.248c-0.697,0-1.234,0.214-1.612,0.64c-0.458,0.513-0.687,1.221-0.687,2.123
		c0,0.936,0.228,1.647,0.685,2.136c0.456,0.487,1.071,0.731,1.844,0.731C111.937,76.558,112.616,76.358,113.287,75.96z"/>
	<path fill="none" d="M114.696,74.906c0-0.706,0.219-1.276,0.656-1.71c0.437-0.435,1.019-0.651,1.744-0.651
		c0.719,0,1.281,0.201,1.687,0.604c0.405,0.401,0.608,0.957,0.608,1.662c0,0.814-0.215,1.447-0.646,1.899
		c-0.431,0.452-1.012,0.677-1.744,0.677c-0.738,0-1.306-0.21-1.706-0.629C114.896,76.337,114.696,75.72,114.696,74.906z
		 M116.123,74.656c0,0.893,0.125,1.536,0.375,1.93c0.143,0.226,0.348,0.338,0.614,0.338c0.245,0,0.433-0.097,0.566-0.291
		c0.19-0.276,0.286-0.754,0.286-1.434c0-0.867-0.119-1.483-0.357-1.849c-0.146-0.229-0.351-0.344-0.614-0.344
		c-0.248,0-0.441,0.1-0.581,0.295C116.219,73.573,116.123,74.024,116.123,74.656z"/>
	<path fill="none" d="M120.427,75.692h0.429c0.083,0.439,0.22,0.752,0.413,0.938s0.416,0.279,0.67,0.279
		c0.194,0,0.348-0.052,0.46-0.155c0.113-0.104,0.169-0.23,0.169-0.379c0-0.137-0.056-0.27-0.167-0.396
		c-0.111-0.127-0.396-0.322-0.852-0.586c-0.457-0.265-0.761-0.504-0.914-0.721c-0.156-0.216-0.234-0.458-0.234-0.725
		c0-0.391,0.157-0.723,0.472-0.995s0.767-0.408,1.355-0.408c0.423,0,0.857,0.097,1.302,0.287c-0.041,0.176-0.087,0.579-0.138,1.207
		l-0.415-0.019c-0.067-0.381-0.181-0.649-0.341-0.806c-0.161-0.157-0.347-0.235-0.561-0.235c-0.175,0-0.311,0.045-0.408,0.137
		c-0.097,0.091-0.146,0.208-0.146,0.351c0,0.124,0.043,0.237,0.129,0.339c0.118,0.141,0.38,0.324,0.787,0.553
		c0.512,0.291,0.846,0.539,1.002,0.75c0.156,0.209,0.233,0.457,0.233,0.74c0,0.385-0.146,0.737-0.439,1.059
		c-0.292,0.32-0.796,0.48-1.512,0.48c-0.414,0-0.868-0.072-1.364-0.219C120.402,76.608,120.424,76.116,120.427,75.692z"/>
	<path fill="none" d="M127.556,72.754l0.062,0.067c-0.102,0.178-0.192,0.363-0.272,0.554c-0.34-0.035-0.708-0.062-1.102-0.077
		l-0.014,0.568l-0.015,0.652l-0.014,0.649c0,0.606,0.05,0.988,0.15,1.144c0.1,0.154,0.231,0.23,0.394,0.23
		c0.124,0,0.324-0.061,0.601-0.182l0.172,0.344c-0.48,0.29-0.8,0.463-0.959,0.52c-0.213,0.076-0.417,0.115-0.611,0.115
		c-0.296,0-0.532-0.094-0.708-0.281c-0.176-0.188-0.265-0.465-0.265-0.83l0.019-1.103l0.038-1.827l-0.386-0.009
		c-0.035,0-0.134,0.003-0.296,0.009v-0.354c0.305-0.107,0.586-0.284,0.842-0.528c0.256-0.245,0.514-0.606,0.775-1.088h0.42
		c-0.084,0.528-0.132,1.003-0.146,1.426c0.277,0.006,0.446,0.011,0.506,0.011C126.866,72.765,127.135,72.761,127.556,72.754z"/>
	<path fill="none" d="M127.997,73.556v-0.324c0.719-0.146,1.35-0.366,1.894-0.658l0.224,0.119c-0.041,0.238-0.071,0.513-0.09,0.826
		c0.369-0.416,0.64-0.675,0.813-0.774c0.173-0.101,0.381-0.151,0.623-0.151c0.331,0,0.6,0.086,0.807,0.26
		c0.152,0.125,0.272,0.347,0.357,0.666c0.306-0.357,0.57-0.602,0.794-0.73s0.464-0.194,0.718-0.194c0.28,0,0.518,0.067,0.713,0.201
		c0.195,0.133,0.321,0.31,0.375,0.527c0.055,0.218,0.082,0.624,0.082,1.219l-0.005,0.754c0,0.722,0.015,1.156,0.044,1.302
		c0.012,0.067,0.045,0.12,0.1,0.16c0.054,0.04,0.244,0.102,0.572,0.184v0.334c-0.52-0.034-0.94-0.053-1.265-0.053
		c-0.323,0-0.748,0.019-1.269,0.053V76.94c0.272-0.075,0.433-0.137,0.479-0.184c0.046-0.046,0.074-0.127,0.084-0.245
		c0.016-0.151,0.024-0.68,0.024-1.581c0-0.471-0.011-0.771-0.034-0.9c-0.032-0.185-0.096-0.317-0.188-0.4
		c-0.094-0.083-0.213-0.124-0.36-0.124c-0.194,0-0.367,0.067-0.518,0.2c-0.151,0.134-0.247,0.323-0.288,0.566
		c-0.022,0.131-0.034,0.586-0.034,1.367c0,0.543,0.006,0.856,0.019,0.938c0.013,0.083,0.047,0.147,0.103,0.192
		c0.056,0.047,0.205,0.104,0.446,0.17v0.334c-0.41-0.035-0.789-0.054-1.135-0.054c-0.328,0-0.746,0.019-1.255,0.054V76.94
		c0.251-0.066,0.403-0.123,0.456-0.17c0.052-0.045,0.085-0.113,0.098-0.203c0.019-0.12,0.029-0.577,0.029-1.371
		c0-0.616-0.006-0.976-0.019-1.077c-0.025-0.216-0.084-0.373-0.177-0.47c-0.092-0.097-0.224-0.146-0.396-0.146
		c-0.197,0-0.367,0.063-0.508,0.193c-0.141,0.129-0.231,0.286-0.269,0.475c-0.038,0.187-0.057,0.481-0.057,0.886
		c0,0.918,0.003,1.412,0.009,1.481c0.01,0.099,0.046,0.176,0.11,0.233c0.063,0.058,0.213,0.112,0.448,0.168v0.334
		c-0.534-0.035-0.957-0.054-1.269-0.054s-0.739,0.019-1.283,0.054V76.94c0.388-0.09,0.604-0.176,0.649-0.258
		c0.063-0.115,0.095-0.738,0.095-1.869c0-0.662-0.013-1.028-0.038-1.099c-0.047-0.134-0.159-0.2-0.334-0.2
		C128.264,73.513,128.14,73.526,127.997,73.556z"/>
	<path fill="none" d="M140.393,75.979l0.248,0.362c-0.5,0.423-0.959,0.73-1.379,0.92c-0.181,0.083-0.414,0.124-0.695,0.124
		c-0.592,0-1.043-0.175-1.355-0.523c-0.395-0.439-0.592-1.024-0.592-1.756c0-0.761,0.227-1.377,0.678-1.852
		c0.452-0.474,1.012-0.711,1.68-0.711c0.61,0,1.058,0.186,1.34,0.555c0.188,0.241,0.295,0.618,0.324,1.129
		c-0.158,0.105-0.307,0.226-0.443,0.358c-0.334-0.013-0.674-0.019-1.021-0.019c-0.451,0-0.871,0.006-1.259,0.019
		c-0.003,0.07-0.005,0.129-0.005,0.177c0,0.448,0.104,0.844,0.308,1.184c0.205,0.34,0.513,0.51,0.923,0.51
		c0.2,0,0.393-0.033,0.575-0.1S140.125,76.164,140.393,75.979z M137.926,74.095c0.178,0.006,0.324,0.01,0.438,0.01
		c0.274,0,0.606-0.014,1.002-0.039c-0.019-0.405-0.086-0.676-0.203-0.81c-0.116-0.134-0.276-0.2-0.479-0.2
		c-0.197,0-0.365,0.079-0.506,0.239C138.039,73.455,137.955,73.722,137.926,74.095z"/>
	<path fill="none" d="M144.463,72.754l0.063,0.067c-0.103,0.178-0.192,0.363-0.272,0.554c-0.34-0.035-0.708-0.062-1.103-0.077
		l-0.014,0.568l-0.014,0.652l-0.016,0.649c0,0.606,0.051,0.988,0.151,1.144c0.101,0.153,0.231,0.23,0.394,0.23
		c0.123,0,0.324-0.061,0.601-0.182l0.172,0.344c-0.479,0.29-0.8,0.463-0.959,0.52c-0.213,0.076-0.417,0.115-0.61,0.115
		c-0.295,0-0.531-0.094-0.707-0.281c-0.176-0.188-0.266-0.465-0.266-0.83l0.02-1.103l0.039-1.827l-0.388-0.009
		c-0.034,0-0.133,0.003-0.296,0.009v-0.354c0.307-0.107,0.586-0.284,0.842-0.528c0.256-0.245,0.515-0.606,0.775-1.088h0.419
		c-0.083,0.528-0.132,1.003-0.146,1.426c0.277,0.006,0.446,0.011,0.506,0.011C143.773,72.765,144.043,72.761,144.463,72.754z"/>
	<path fill="none" d="M144.99,73.532v-0.344c0.722-0.127,1.345-0.349,1.869-0.664l0.244,0.13c-0.045,0.385-0.073,0.729-0.086,1.03
		c-0.022,0.448-0.033,1.158-0.033,2.127c0,0.407,0.014,0.668,0.043,0.778c0.019,0.073,0.057,0.128,0.111,0.165
		s0.246,0.098,0.57,0.184v0.334c-0.441-0.034-0.846-0.053-1.211-0.053c-0.35,0-0.859,0.019-1.532,0.053v-0.334l0.124-0.028
		c0.28-0.063,0.445-0.118,0.496-0.165c0.051-0.046,0.083-0.128,0.096-0.246c0.028-0.302,0.043-0.925,0.043-1.87
		c0-0.547-0.015-0.864-0.043-0.954c-0.037-0.117-0.129-0.176-0.271-0.176C145.286,73.499,145.146,73.51,144.99,73.532z
		 M146.378,70.326c0.213,0,0.396,0.075,0.546,0.227c0.151,0.151,0.227,0.333,0.227,0.546s-0.074,0.396-0.227,0.547
		c-0.15,0.15-0.333,0.227-0.546,0.227s-0.396-0.076-0.546-0.227c-0.15-0.151-0.227-0.334-0.227-0.547s0.074-0.395,0.225-0.546
		C145.979,70.401,146.162,70.326,146.378,70.326z"/>
	<path fill="none" d="M152.1,74.276l-0.429-0.02c-0.032-0.451-0.125-0.765-0.278-0.939c-0.154-0.176-0.351-0.262-0.586-0.262
		c-0.291,0-0.525,0.11-0.701,0.332c-0.231,0.299-0.348,0.729-0.348,1.291c0,0.575,0.127,1.012,0.383,1.311
		c0.254,0.298,0.558,0.447,0.91,0.447c0.156,0,0.313-0.023,0.471-0.073c0.156-0.05,0.367-0.146,0.631-0.289l0.225,0.362
		c-0.531,0.414-0.92,0.674-1.166,0.784c-0.247,0.11-0.51,0.165-0.79,0.165c-0.565,0-1.035-0.197-1.407-0.594
		c-0.371-0.396-0.558-0.934-0.558-1.609c0-0.723,0.218-1.343,0.653-1.86c0.435-0.519,1.041-0.778,1.817-0.778
		c0.448,0,0.933,0.12,1.45,0.357c-0.063,0.255-0.126,0.556-0.186,0.902C152.152,74.008,152.122,74.165,152.1,74.276z"/>
	<path fill="none" d="M153.704,77.015l-0.205-0.253c0.062-0.075,0.156-0.194,0.286-0.356c0.201-0.248,0.393-0.501,0.578-0.76
		c0.299,0.086,0.537,0.244,0.713,0.473s0.264,0.492,0.264,0.788c0,0.366-0.122,0.766-0.367,1.202
		c-0.244,0.436-0.619,0.879-1.125,1.33l-0.349-0.349c0.353-0.467,0.588-0.819,0.706-1.059c0.076-0.159,0.115-0.329,0.115-0.511
		c0-0.166-0.043-0.295-0.131-0.394c-0.088-0.097-0.188-0.146-0.299-0.146C153.846,76.981,153.784,76.993,153.704,77.015z"/>
	<path fill="none" d="M162.873,70.503v0.354l-0.178,0.023c-0.422,0.051-0.676,0.114-0.76,0.189
		c-0.084,0.078-0.127,0.226-0.127,0.445v0.172l-0.01,1.598l0.006,1.826l0.004,0.931c0,0.272,0.014,0.444,0.041,0.515
		c0.026,0.07,0.073,0.123,0.141,0.158c0.115,0.061,0.35,0.119,0.705,0.176c0.039,0.006,0.098,0.017,0.178,0.029v0.354
		c-0.652-0.035-1.227-0.054-1.723-0.054c-0.471,0-1.094,0.019-1.87,0.054v-0.354c0.493-0.092,0.764-0.148,0.812-0.167
		c0.072-0.028,0.128-0.069,0.166-0.124c0.049-0.072,0.073-0.223,0.077-0.449c0.006-0.527,0.009-1.426,0.009-2.695l-0.014-1.735
		v-0.144c0-0.254-0.037-0.418-0.11-0.491s-0.319-0.146-0.739-0.214c-0.047-0.01-0.115-0.024-0.205-0.043v-0.354
		c0.818,0.035,1.432,0.053,1.84,0.053C161.55,70.556,162.137,70.538,162.873,70.503z"/>
	<path fill="none" d="M163.322,73.556v-0.324c0.719-0.146,1.35-0.366,1.894-0.658l0.224,0.119c-0.041,0.238-0.07,0.513-0.09,0.826
		c0.369-0.416,0.641-0.675,0.813-0.774c0.173-0.101,0.381-0.151,0.623-0.151c0.331,0,0.6,0.086,0.807,0.26
		c0.152,0.125,0.272,0.347,0.357,0.666c0.306-0.357,0.569-0.602,0.794-0.73c0.224-0.129,0.464-0.194,0.718-0.194
		c0.28,0,0.517,0.067,0.713,0.201c0.195,0.133,0.321,0.31,0.375,0.527s0.081,0.624,0.081,1.219l-0.004,0.754
		c0,0.722,0.014,1.156,0.043,1.302c0.014,0.067,0.046,0.12,0.1,0.16c0.055,0.04,0.246,0.102,0.572,0.184v0.334
		c-0.519-0.034-0.939-0.053-1.264-0.053s-0.748,0.019-1.27,0.053V76.94c0.273-0.075,0.434-0.137,0.479-0.184
		c0.046-0.046,0.074-0.127,0.084-0.245c0.017-0.151,0.024-0.68,0.024-1.581c0-0.471-0.012-0.771-0.034-0.9
		c-0.032-0.185-0.095-0.317-0.188-0.4c-0.093-0.083-0.214-0.124-0.359-0.124c-0.194,0-0.367,0.067-0.519,0.2
		c-0.151,0.134-0.247,0.323-0.288,0.566c-0.021,0.131-0.033,0.586-0.033,1.367c0,0.543,0.006,0.856,0.019,0.938
		c0.013,0.083,0.047,0.147,0.103,0.192c0.057,0.047,0.205,0.104,0.446,0.17v0.334c-0.41-0.035-0.789-0.054-1.135-0.054
		c-0.328,0-0.746,0.019-1.255,0.054V76.94c0.25-0.066,0.402-0.123,0.455-0.17c0.053-0.045,0.086-0.113,0.099-0.203
		c0.019-0.12,0.028-0.577,0.028-1.371c0-0.616-0.006-0.976-0.019-1.077c-0.024-0.216-0.084-0.373-0.177-0.47
		c-0.092-0.097-0.225-0.146-0.396-0.146c-0.196,0-0.367,0.063-0.509,0.193c-0.141,0.129-0.231,0.286-0.269,0.475
		c-0.038,0.187-0.057,0.481-0.057,0.886c0,0.918,0.002,1.412,0.008,1.481c0.011,0.099,0.047,0.176,0.11,0.233
		s0.214,0.112,0.448,0.168v0.334c-0.534-0.035-0.957-0.054-1.27-0.054c-0.312,0-0.738,0.019-1.282,0.054V76.94
		c0.388-0.09,0.604-0.176,0.649-0.258c0.063-0.115,0.094-0.738,0.094-1.869c0-0.662-0.012-1.028-0.037-1.099
		c-0.047-0.134-0.159-0.2-0.334-0.2C163.589,73.513,163.465,73.526,163.322,73.556z"/>
	<path fill="none" d="M171.663,73.584v-0.329c0.519-0.13,0.886-0.234,1.104-0.314c0.217-0.08,0.478-0.2,0.779-0.362l0.234,0.119
		c-0.038,0.241-0.063,0.495-0.076,0.759c0.385-0.4,0.634-0.633,0.749-0.697c0.204-0.111,0.424-0.167,0.663-0.167
		c0.41,0,0.761,0.177,1.051,0.527c0.291,0.352,0.438,0.856,0.438,1.515c0,0.789-0.232,1.438-0.696,1.944s-0.989,0.761-1.575,0.761
		c-0.121,0-0.238-0.015-0.354-0.043c-0.113-0.029-0.224-0.07-0.328-0.124c-0.004,0.156-0.006,0.275-0.006,0.357
		c0,0.7,0.023,1.086,0.07,1.159s0.256,0.157,0.626,0.252c0.035,0.011,0.089,0.024,0.163,0.043v0.334
		c-0.634-0.034-1.125-0.051-1.472-0.051c-0.356,0-0.83,0.018-1.419,0.051v-0.334c0.353-0.088,0.566-0.166,0.639-0.232
		c0.073-0.066,0.115-0.158,0.125-0.271c0.021-0.259,0.033-1.059,0.033-2.4c0-1.418-0.012-2.184-0.033-2.294
		c-0.035-0.162-0.14-0.244-0.314-0.244C171.973,73.542,171.838,73.556,171.663,73.584z M173.652,76.538
		c0.127,0.099,0.25,0.173,0.369,0.224c0.119,0.052,0.233,0.077,0.342,0.077c0.264,0,0.463-0.094,0.596-0.281
		c0.213-0.303,0.32-0.764,0.32-1.384c0-0.601-0.104-1.048-0.311-1.341c-0.146-0.207-0.33-0.311-0.554-0.311
		c-0.185,0-0.349,0.074-0.491,0.223s-0.229,0.389-0.257,0.723C173.657,74.594,173.652,75.285,173.652,76.538z"/>
	<path fill="none" d="M177.289,71.261v-0.334c0.468-0.111,0.826-0.213,1.076-0.303c0.25-0.089,0.52-0.211,0.809-0.365l0.233,0.167
		c-0.044,0.407-0.079,0.888-0.103,1.441c-0.024,0.553-0.037,1.182-0.037,1.884c0,1.514,0.004,2.371,0.013,2.569
		c0.008,0.198,0.038,0.325,0.088,0.379c0.077,0.083,0.28,0.163,0.61,0.239v0.334c-0.5-0.035-0.951-0.054-1.354-0.054
		c-0.414,0-0.87,0.019-1.369,0.054v-0.334c0.353-0.08,0.562-0.152,0.625-0.22s0.103-0.216,0.114-0.448
		c0.02-0.336,0.029-1.23,0.029-2.684c0-1.338-0.01-2.053-0.029-2.145c-0.028-0.146-0.139-0.219-0.329-0.219
		C177.58,71.224,177.455,71.235,177.289,71.261z"/>
	<path fill="none" d="M181.475,74.257l-0.424-0.048c0.092-0.45,0.151-0.851,0.178-1.199c0.58-0.278,1.185-0.418,1.814-0.418
		c0.367,0,0.659,0.06,0.877,0.177c0.219,0.118,0.369,0.278,0.452,0.482c0.083,0.203,0.124,0.52,0.124,0.949l-0.023,1.622
		c0,0.309,0.025,0.503,0.078,0.584s0.121,0.122,0.207,0.122c0.102,0,0.253-0.057,0.453-0.168l0.182,0.276
		c-0.433,0.306-0.752,0.507-0.959,0.602c-0.148,0.067-0.291,0.101-0.429,0.101c-0.182,0-0.337-0.049-0.468-0.148
		c-0.131-0.099-0.219-0.244-0.268-0.438c-0.381,0.265-0.648,0.429-0.801,0.494s-0.337,0.098-0.554,0.098
		c-0.328,0-0.595-0.11-0.804-0.332c-0.209-0.221-0.313-0.516-0.313-0.885c0-0.261,0.07-0.502,0.21-0.726
		c0.096-0.155,0.272-0.305,0.529-0.447l1.732-0.821c-0.006-0.378-0.066-0.633-0.18-0.763s-0.281-0.196-0.503-0.196
		c-0.226,0-0.422,0.074-0.589,0.222C181.831,73.544,181.656,73.831,181.475,74.257z M183.27,74.647
		c-0.525,0.246-0.855,0.445-0.992,0.602s-0.205,0.359-0.205,0.611c0,0.257,0.051,0.447,0.152,0.567
		c0.102,0.121,0.233,0.181,0.396,0.181c0.124,0,0.245-0.041,0.36-0.123c0.115-0.084,0.193-0.2,0.233-0.352
		c0.04-0.15,0.06-0.468,0.06-0.951C183.273,75.071,183.271,74.894,183.27,74.647z"/>
	<path fill="none" d="M185.689,73.569v-0.342c0.42-0.09,0.769-0.184,1.047-0.283c0.277-0.099,0.554-0.224,0.826-0.377l0.25,0.144
		c-0.045,0.242-0.076,0.506-0.092,0.792c0.354-0.4,0.619-0.652,0.797-0.756s0.389-0.155,0.629-0.155c0.239,0,0.445,0.046,0.619,0.14
		c0.172,0.092,0.301,0.209,0.385,0.351s0.14,0.332,0.166,0.569c0.016,0.149,0.023,0.51,0.023,1.078l-0.005,0.85
		c0,0.547,0.006,0.869,0.019,0.966c0.014,0.097,0.045,0.167,0.094,0.21s0.189,0.09,0.422,0.141c0.038,0.011,0.099,0.024,0.182,0.043
		v0.334c-0.531-0.034-0.943-0.053-1.236-0.053c-0.295,0-0.73,0.019-1.307,0.053v-0.334c0.245-0.061,0.395-0.114,0.448-0.164
		c0.054-0.049,0.088-0.131,0.101-0.246c0.02-0.159,0.028-0.687,0.028-1.579c0-0.634-0.026-1.015-0.081-1.146
		c-0.089-0.207-0.256-0.31-0.501-0.31c-0.178,0-0.341,0.063-0.489,0.19c-0.147,0.127-0.242,0.289-0.283,0.486
		s-0.063,0.631-0.063,1.303c0,0.602,0.014,0.975,0.039,1.12c0.013,0.08,0.041,0.138,0.085,0.175
		c0.045,0.037,0.194,0.092,0.449,0.168v0.334c-0.483-0.035-0.888-0.053-1.212-0.053c-0.303,0-0.75,0.018-1.34,0.053v-0.334
		c0.35-0.092,0.547-0.158,0.594-0.199c0.046-0.042,0.076-0.137,0.093-0.287c0.028-0.344,0.043-0.789,0.043-1.335
		c0-0.836-0.01-1.296-0.028-1.38c-0.039-0.139-0.136-0.209-0.291-0.209C186,73.526,185.864,73.542,185.689,73.569z"/>
	<path fill="none" d="M194.645,72.754l0.063,0.067c-0.102,0.178-0.191,0.363-0.271,0.554c-0.341-0.035-0.709-0.062-1.103-0.077
		l-0.015,0.568l-0.015,0.652l-0.014,0.649c0,0.606,0.05,0.988,0.149,1.144c0.102,0.153,0.231,0.23,0.395,0.23
		c0.124,0,0.324-0.061,0.602-0.182l0.172,0.344c-0.48,0.29-0.801,0.463-0.959,0.52c-0.213,0.076-0.418,0.115-0.611,0.115
		c-0.295,0-0.532-0.094-0.708-0.281c-0.177-0.188-0.265-0.465-0.265-0.83l0.019-1.103l0.038-1.827l-0.387-0.009
		c-0.034,0-0.133,0.003-0.295,0.009v-0.354c0.306-0.107,0.586-0.284,0.842-0.528c0.256-0.245,0.514-0.606,0.775-1.088h0.42
		c-0.084,0.528-0.133,1.003-0.146,1.426c0.276,0.006,0.446,0.011,0.506,0.011C193.956,72.765,194.225,72.761,194.645,72.754z"/>
	<path fill="none" d="M202.734,73.208v-0.307c0.391,0.035,0.748,0.054,1.068,0.054c0.286,0,0.688-0.019,1.207-0.054v0.334
		c-0.268,0.035-0.466,0.087-0.597,0.154c-0.131,0.066-0.243,0.156-0.339,0.271c-0.066,0.08-0.184,0.266-0.354,0.558
		c-0.226,0.397-0.473,0.79-0.74,1.179c0.262,0.299,0.514,0.517,0.756,0.653c0.244,0.138,0.457,0.205,0.638,0.205
		c0.121,0,0.24-0.024,0.358-0.075c0.117-0.052,0.266-0.147,0.442-0.291l0.259,0.332c-0.445,0.439-0.832,0.754-1.158,0.944
		c-0.205,0.114-0.402,0.172-0.597,0.172c-0.235,0-0.479-0.067-0.729-0.201c-0.251-0.133-0.547-0.37-0.889-0.71
		c-0.444,0.369-0.818,0.613-1.121,0.732c-0.301,0.12-0.652,0.179-1.054,0.179c-0.604,0-1.069-0.155-1.397-0.468
		c-0.327-0.313-0.491-0.706-0.491-1.184c0-0.305,0.076-0.596,0.229-0.871c0.151-0.274,0.355-0.51,0.611-0.705
		c0.256-0.196,0.658-0.43,1.208-0.699c-0.179-0.366-0.296-0.645-0.353-0.837c-0.055-0.192-0.082-0.379-0.082-0.562
		c0-0.49,0.169-0.888,0.509-1.195c0.339-0.307,0.808-0.459,1.407-0.459c0.436,0,0.76,0.097,0.972,0.291
		c0.211,0.193,0.317,0.457,0.317,0.787c0,0.336-0.102,0.643-0.303,0.916c-0.203,0.273-0.554,0.56-1.054,0.854
		c0.397,0.737,0.778,1.324,1.142,1.76c0.197-0.267,0.342-0.521,0.436-0.763c0.092-0.242,0.138-0.439,0.138-0.592
		c0-0.09-0.024-0.163-0.075-0.223C203.046,73.333,202.925,73.271,202.734,73.208z M200.247,73.828
		c-0.3,0.168-0.515,0.338-0.642,0.51c-0.182,0.251-0.272,0.526-0.272,0.825c0,0.337,0.125,0.633,0.375,0.888
		s0.534,0.382,0.849,0.382c0.195,0,0.379-0.033,0.553-0.096s0.369-0.17,0.586-0.32c-0.271-0.328-0.495-0.625-0.674-0.892
		C200.896,74.944,200.639,74.512,200.247,73.828z M201.25,72.769c0.232-0.158,0.393-0.313,0.482-0.463
		c0.129-0.216,0.195-0.449,0.195-0.701c0-0.258-0.057-0.455-0.172-0.594c-0.113-0.138-0.251-0.208-0.41-0.208
		c-0.143,0-0.261,0.054-0.353,0.163c-0.093,0.108-0.138,0.276-0.138,0.505c0,0.146,0.022,0.306,0.07,0.479
		C200.975,72.123,201.082,72.397,201.25,72.769z"/>
	<path fill="none" d="M209.031,73.995c0-1.091,0.334-1.971,1.004-2.637c0.669-0.666,1.566-1,2.693-1
		c1.062,0,1.896,0.301,2.502,0.899c0.604,0.601,0.908,1.402,0.908,2.407c0,0.639-0.119,1.221-0.356,1.746
		c-0.188,0.417-0.431,0.768-0.728,1.055c-0.298,0.286-0.603,0.499-0.914,0.639c-0.464,0.207-1.023,0.311-1.679,0.311
		c-1.088,0-1.932-0.301-2.53-0.902C209.332,75.912,209.031,75.073,209.031,73.995z M210.682,73.737c0,1.158,0.209,2.008,0.629,2.552
		c0.313,0.407,0.758,0.61,1.34,0.61c0.401,0,0.74-0.104,1.015-0.31c0.274-0.207,0.481-0.539,0.618-0.995
		c0.137-0.457,0.205-0.986,0.205-1.591c0-0.461-0.043-0.903-0.124-1.326c-0.082-0.423-0.196-0.754-0.339-0.991
		c-0.144-0.239-0.336-0.432-0.575-0.578c-0.24-0.146-0.53-0.219-0.87-0.219c-0.378,0-0.716,0.105-1.012,0.316
		c-0.295,0.211-0.518,0.544-0.666,0.997C210.755,72.656,210.682,73.168,210.682,73.737z"/>
	<path fill="none" d="M216.934,73.565v-0.334c0.789-0.172,1.418-0.389,1.889-0.648l0.229,0.128
		c-0.054,0.334-0.086,0.702-0.096,1.103c0.325-0.51,0.563-0.822,0.718-0.939s0.336-0.177,0.546-0.177
		c0.144,0,0.301,0.038,0.473,0.114c-0.099,0.397-0.174,0.81-0.229,1.235h-0.324c-0.017-0.127-0.058-0.221-0.125-0.28
		c-0.066-0.062-0.146-0.092-0.238-0.092c-0.139,0-0.271,0.065-0.396,0.196c-0.188,0.2-0.317,0.446-0.391,0.739
		c-0.039,0.148-0.058,0.406-0.058,0.772c0,0.646,0.006,1.019,0.019,1.116s0.048,0.172,0.104,0.22
		c0.059,0.048,0.234,0.104,0.53,0.171c0.042,0.01,0.104,0.025,0.187,0.049v0.334c-0.604-0.035-1.092-0.054-1.465-0.054
		c-0.4,0-0.858,0.019-1.375,0.054v-0.334c0.381-0.08,0.599-0.168,0.648-0.268c0.072-0.137,0.109-0.791,0.109-1.961
		c0-0.62-0.023-0.972-0.07-1.057c-0.048-0.084-0.135-0.127-0.258-0.127C217.266,73.526,217.123,73.54,216.934,73.565z"/>
	<path fill="none" d="M224.167,72.754l0.062,0.067c-0.102,0.178-0.191,0.363-0.271,0.554c-0.34-0.035-0.708-0.062-1.102-0.077
		l-0.015,0.568l-0.015,0.652l-0.014,0.649c0,0.606,0.049,0.988,0.149,1.144c0.101,0.154,0.231,0.23,0.394,0.23
		c0.125,0,0.324-0.061,0.602-0.182l0.171,0.344c-0.479,0.29-0.8,0.463-0.958,0.52c-0.213,0.076-0.417,0.115-0.611,0.115
		c-0.295,0-0.531-0.094-0.707-0.281c-0.178-0.188-0.266-0.465-0.266-0.83l0.02-1.103l0.037-1.827l-0.386-0.009
		c-0.034,0-0.134,0.003-0.296,0.009v-0.354c0.305-0.107,0.586-0.284,0.842-0.528c0.256-0.245,0.516-0.606,0.775-1.088h0.42
		c-0.084,0.528-0.133,1.003-0.146,1.426c0.277,0.006,0.446,0.011,0.508,0.011C223.477,72.765,223.746,72.761,224.167,72.754z"/>
	<path fill="none" d="M224.573,71.257v-0.344c0.506-0.118,0.877-0.219,1.114-0.303c0.236-0.084,0.492-0.201,0.766-0.352l0.238,0.147
		c-0.035,0.302-0.063,0.698-0.086,1.188c-0.028,0.697-0.043,1.234-0.043,1.613v0.291c0.4-0.407,0.688-0.659,0.863-0.754
		c0.176-0.097,0.391-0.144,0.649-0.144c0.35,0,0.618,0.082,0.804,0.243c0.186,0.162,0.298,0.372,0.336,0.63
		c0.025,0.178,0.038,0.715,0.038,1.612c0,0.729,0.006,1.183,0.019,1.36c0.011,0.127,0.041,0.218,0.092,0.271
		c0.051,0.055,0.191,0.111,0.424,0.172c0.042,0.01,0.104,0.024,0.186,0.047v0.334c-0.545-0.035-0.975-0.053-1.291-0.053
		c-0.334,0-0.755,0.018-1.262,0.053v-0.334c0.282-0.072,0.45-0.141,0.502-0.203c0.053-0.062,0.08-0.196,0.08-0.402
		c0-1.355-0.001-2.059-0.005-2.113c-0.019-0.258-0.081-0.439-0.187-0.546c-0.104-0.106-0.25-0.16-0.434-0.16
		c-0.175,0-0.335,0.058-0.48,0.175c-0.146,0.115-0.244,0.273-0.291,0.475c-0.032,0.137-0.049,0.527-0.049,1.173
		c0,0.712,0.006,1.118,0.02,1.217c0.013,0.099,0.051,0.177,0.113,0.233c0.064,0.058,0.211,0.107,0.439,0.152v0.334
		c-0.496-0.035-0.889-0.053-1.178-0.053c-0.194,0-0.654,0.018-1.379,0.053v-0.334c0.054-0.016,0.096-0.026,0.123-0.032
		c0.259-0.064,0.41-0.12,0.455-0.167c0.063-0.073,0.102-0.217,0.113-0.43c0.025-0.455,0.038-1.334,0.038-2.634l-0.014-2.08
		c0-0.133-0.025-0.229-0.076-0.288s-0.123-0.089-0.215-0.089C224.877,71.218,224.736,71.231,224.573,71.257z"/>
	<path fill="none" d="M230.609,74.906c0-0.706,0.22-1.276,0.656-1.71c0.438-0.435,1.019-0.651,1.744-0.651
		c0.719,0,1.281,0.201,1.688,0.604c0.404,0.401,0.607,0.957,0.607,1.662c0,0.814-0.215,1.447-0.646,1.899s-1.013,0.677-1.744,0.677
		c-0.738,0-1.306-0.21-1.705-0.629C230.811,76.337,230.609,75.72,230.609,74.906z M232.036,74.656c0,0.893,0.126,1.536,0.376,1.93
		c0.143,0.226,0.348,0.338,0.613,0.338c0.246,0,0.434-0.097,0.567-0.291c0.19-0.276,0.285-0.754,0.285-1.434
		c0-0.867-0.119-1.483-0.356-1.849c-0.146-0.229-0.351-0.344-0.614-0.344c-0.248,0-0.441,0.1-0.581,0.295
		C232.133,73.573,232.036,74.024,232.036,74.656z"/>
	<path fill="none" d="M238.475,71.28v-0.348c0.728-0.156,1.36-0.381,1.897-0.673l0.229,0.167c-0.045,0.404-0.078,0.869-0.101,1.393
		c-0.022,0.525-0.033,1.111-0.033,1.757c0,1.153,0.003,1.97,0.009,2.446c0.004,0.224,0.032,0.362,0.086,0.418
		c0.055,0.055,0.151,0.082,0.291,0.082c0.032,0,0.149,0,0.354-0.004v0.334c-0.391,0.055-0.727,0.117-1.004,0.189
		c-0.278,0.072-0.578,0.171-0.899,0.296l-0.233-0.114c0.035-0.201,0.062-0.408,0.08-0.621c-0.361,0.302-0.662,0.51-0.9,0.621
		c-0.169,0.079-0.35,0.118-0.544,0.118c-0.375,0-0.692-0.161-0.949-0.481c-0.337-0.41-0.506-0.945-0.506-1.607
		c0-0.318,0.045-0.636,0.136-0.954c0.09-0.317,0.235-0.6,0.434-0.844c0.199-0.245,0.464-0.449,0.793-0.613
		c0.328-0.164,0.664-0.246,1.009-0.246c0.076,0,0.162,0.009,0.257,0.024c0.096,0.016,0.201,0.04,0.314,0.07
		c0.011-0.35,0.015-0.596,0.015-0.738c0-0.337-0.024-0.542-0.076-0.613c-0.051-0.07-0.142-0.107-0.272-0.107
		C238.768,71.233,238.639,71.249,238.475,71.28z M239.204,74.772c0-0.649-0.046-1.067-0.14-1.254
		c-0.121-0.242-0.314-0.363-0.582-0.363c-0.226,0-0.429,0.123-0.609,0.369c-0.182,0.248-0.271,0.67-0.271,1.268
		c0,0.585,0.105,1.027,0.318,1.326c0.146,0.204,0.334,0.306,0.563,0.306c0.271,0,0.469-0.139,0.593-0.415
		C239.161,75.808,239.204,75.396,239.204,74.772z"/>
	<path fill="none" d="M241.843,74.906c0-0.706,0.22-1.276,0.656-1.71c0.437-0.435,1.019-0.651,1.743-0.651
		c0.719,0,1.281,0.201,1.688,0.604c0.404,0.401,0.607,0.957,0.607,1.662c0,0.814-0.215,1.447-0.646,1.899
		c-0.431,0.452-1.013,0.677-1.744,0.677c-0.737,0-1.306-0.21-1.705-0.629C242.043,76.337,241.843,75.72,241.843,74.906z
		 M243.27,74.656c0,0.893,0.125,1.536,0.377,1.93c0.143,0.226,0.348,0.338,0.613,0.338c0.244,0,0.434-0.097,0.567-0.291
		c0.19-0.276,0.284-0.754,0.284-1.434c0-0.867-0.118-1.483-0.356-1.849c-0.146-0.229-0.351-0.344-0.614-0.344
		c-0.248,0-0.44,0.1-0.58,0.295C243.367,73.573,243.27,74.024,243.27,74.656z"/>
	<path fill="none" d="M247.273,73.569v-0.342c0.42-0.09,0.77-0.184,1.047-0.283c0.279-0.099,0.555-0.224,0.828-0.377l0.248,0.144
		c-0.045,0.242-0.074,0.506-0.09,0.792c0.353-0.4,0.618-0.652,0.797-0.756c0.178-0.104,0.388-0.155,0.629-0.155
		c0.238,0,0.444,0.046,0.617,0.14c0.174,0.092,0.303,0.209,0.387,0.351s0.139,0.332,0.164,0.569c0.017,0.149,0.024,0.51,0.024,1.078
		l-0.005,0.85c0,0.547,0.006,0.869,0.02,0.966c0.013,0.097,0.043,0.167,0.093,0.21c0.049,0.043,0.19,0.09,0.422,0.141
		c0.038,0.011,0.099,0.024,0.182,0.043v0.334c-0.53-0.034-0.942-0.053-1.235-0.053c-0.297,0-0.731,0.019-1.308,0.053v-0.334
		c0.245-0.061,0.396-0.114,0.448-0.164c0.054-0.049,0.088-0.131,0.102-0.246c0.019-0.159,0.027-0.687,0.027-1.579
		c0-0.634-0.027-1.015-0.081-1.146c-0.089-0.207-0.256-0.31-0.501-0.31c-0.178,0-0.341,0.063-0.488,0.19
		c-0.148,0.127-0.244,0.289-0.285,0.486s-0.062,0.631-0.062,1.303c0,0.602,0.013,0.975,0.039,1.12
		c0.013,0.08,0.041,0.138,0.085,0.175c0.045,0.037,0.193,0.092,0.449,0.168v0.334c-0.483-0.035-0.887-0.053-1.212-0.053
		c-0.302,0-0.749,0.018-1.341,0.053v-0.334c0.351-0.092,0.549-0.158,0.595-0.199c0.046-0.042,0.077-0.137,0.093-0.287
		c0.028-0.344,0.043-0.789,0.043-1.335c0-0.836-0.01-1.296-0.029-1.38c-0.037-0.139-0.135-0.209-0.291-0.209
		C247.585,73.526,247.449,73.542,247.273,73.569z"/>
	<path fill="none" d="M256.23,72.754l0.062,0.067c-0.103,0.178-0.192,0.363-0.272,0.554c-0.34-0.035-0.707-0.062-1.102-0.077
		l-0.014,0.568l-0.016,0.652l-0.014,0.649c0,0.606,0.05,0.988,0.15,1.144c0.101,0.153,0.23,0.23,0.394,0.23
		c0.124,0,0.324-0.061,0.601-0.182l0.172,0.344c-0.479,0.29-0.799,0.463-0.959,0.52c-0.213,0.076-0.416,0.115-0.61,0.115
		c-0.295,0-0.532-0.094-0.708-0.281c-0.178-0.188-0.266-0.465-0.266-0.83l0.02-1.103l0.038-1.827l-0.386-0.009
		c-0.035,0-0.135,0.003-0.297,0.009v-0.354c0.307-0.107,0.586-0.284,0.843-0.528c0.256-0.245,0.514-0.606,0.774-1.088h0.42
		c-0.082,0.528-0.132,1.003-0.145,1.426c0.277,0.006,0.445,0.011,0.506,0.011C255.541,72.765,255.811,72.761,256.23,72.754z"/>
	<path fill="none" d="M256.756,73.532v-0.344c0.723-0.127,1.346-0.349,1.87-0.664l0.243,0.13c-0.044,0.385-0.073,0.729-0.086,1.03
		c-0.022,0.448-0.033,1.158-0.033,2.127c0,0.407,0.014,0.668,0.043,0.778c0.02,0.073,0.057,0.128,0.112,0.165
		c0.055,0.037,0.245,0.098,0.569,0.184v0.334c-0.441-0.034-0.846-0.053-1.211-0.053c-0.351,0-0.86,0.019-1.531,0.053v-0.334
		l0.123-0.028c0.28-0.063,0.445-0.118,0.496-0.165c0.051-0.046,0.084-0.128,0.097-0.246c0.028-0.302,0.042-0.925,0.042-1.87
		c0-0.547-0.014-0.864-0.042-0.954c-0.039-0.117-0.13-0.176-0.272-0.176C257.052,73.499,256.912,73.51,256.756,73.532z
		 M258.145,70.326c0.213,0,0.396,0.075,0.547,0.227s0.227,0.333,0.227,0.546s-0.075,0.396-0.227,0.547
		c-0.151,0.15-0.334,0.227-0.547,0.227s-0.395-0.076-0.545-0.227c-0.151-0.151-0.228-0.334-0.228-0.547s0.075-0.395,0.226-0.546
		C257.746,70.401,257.928,70.326,258.145,70.326z"/>
	<path fill="none" d="M263.867,74.276l-0.43-0.02c-0.031-0.451-0.125-0.765-0.278-0.939c-0.154-0.176-0.349-0.262-0.584-0.262
		c-0.292,0-0.526,0.11-0.701,0.332c-0.231,0.299-0.349,0.729-0.349,1.291c0,0.575,0.128,1.012,0.382,1.311
		c0.255,0.298,0.559,0.447,0.911,0.447c0.156,0,0.313-0.023,0.47-0.073c0.158-0.05,0.369-0.146,0.633-0.289l0.224,0.362
		c-0.53,0.414-0.92,0.674-1.166,0.784c-0.248,0.11-0.51,0.165-0.789,0.165c-0.566,0-1.035-0.197-1.407-0.594
		s-0.558-0.934-0.558-1.609c0-0.723,0.217-1.343,0.652-1.86c0.436-0.519,1.042-0.778,1.816-0.778c0.449,0,0.933,0.12,1.451,0.357
		c-0.063,0.255-0.125,0.556-0.186,0.902C263.919,74.008,263.889,74.165,263.867,74.276z"/>
</g>
</svg>
