<?xml version="1.0" encoding="utf-8"?>
<!-- Generator: Adobe Illustrator 19.0.0, SVG Export Plug-In . SVG Version: 6.00 Build 0)  -->
<svg version="1.1" id="Layer_1" xmlns="http://www.w3.org/2000/svg" xmlns:xlink="http://www.w3.org/1999/xlink" x="0px" y="0px"
	 viewBox="0 0 315 115" style="enable-background:new 0 0 315 115;" xml:space="preserve">
<g id="XMLID_51_">
	<path id="XMLID_52_" style="fill:#FFFFFF;" d="M66,42.5l1,1.9c-2.2,1.5-4.3,2.5-6.2,3.1c-1.9,0.6-3.9,0.9-6,0.9
		c-4.4,0-7.8-1.2-10.3-3.7c-2.5-2.5-3.8-5.9-3.8-10.1c0-4.5,1.4-8.1,4.2-10.8c2.8-2.7,6.7-4.1,11.7-4.1c1.6,0,3.1,0.1,4.6,0.4
		c1.5,0.3,3.3,0.7,5.5,1.4c-0.1,0.8-0.1,1.7-0.1,2.6c0,1.6,0.1,3.5,0.3,5.8h-2.1c-0.6-2.5-1.1-4-1.3-4.4c-0.5-1-1.3-1.8-2.4-2.5
		c-1.1-0.7-2.6-1-4.4-1c-2.8,0-5,0.9-6.6,2.6c-1.9,2.1-2.8,5-2.8,8.7c0,3.8,0.9,6.7,2.8,8.7s4.4,3,7.5,3C60.5,45,63.2,44.1,66,42.5z
		"/>
	<path id="XMLID_54_" style="fill:#FFFFFF;" d="M73.5,35.6l-1.7-0.2c0.4-1.8,0.6-3.5,0.7-4.9c2.4-1.1,4.8-1.7,7.4-1.7
		c1.5,0,2.7,0.2,3.6,0.7c0.9,0.5,1.5,1.1,1.8,2c0.3,0.8,0.5,2.1,0.5,3.9L85.7,42c0,1.3,0.1,2.1,0.3,2.4c0.2,0.3,0.5,0.5,0.8,0.5
		c0.4,0,1-0.2,1.8-0.7l0.7,1.1c-1.8,1.2-3.1,2.1-3.9,2.5c-0.6,0.3-1.2,0.4-1.8,0.4c-0.7,0-1.4-0.2-1.9-0.6c-0.5-0.4-0.9-1-1.1-1.8
		c-1.6,1.1-2.6,1.7-3.3,2s-1.4,0.4-2.3,0.4c-1.3,0-2.4-0.5-3.3-1.4c-0.8-0.9-1.3-2.1-1.3-3.6c0-1.1,0.3-2,0.9-3
		c0.4-0.6,1.1-1.2,2.2-1.8l7.1-3.3c0-1.5-0.3-2.6-0.7-3.1c-0.5-0.5-1.1-0.8-2.1-0.8c-0.9,0-1.7,0.3-2.4,0.9
		C74.9,32.7,74.2,33.8,73.5,35.6z M80.8,37.2c-2.1,1-3.5,1.8-4,2.5c-0.6,0.6-0.8,1.5-0.8,2.5c0,1.1,0.2,1.8,0.6,2.3
		c0.4,0.5,1,0.7,1.6,0.7c0.5,0,1-0.2,1.5-0.5c0.5-0.3,0.8-0.8,1-1.4c0.2-0.6,0.2-1.9,0.2-3.9C80.8,38.9,80.8,38.2,80.8,37.2z"/>
	<path id="XMLID_57_" style="fill:#FFFFFF;" d="M102.6,29.4l0.3,0.3c-0.4,0.7-0.8,1.5-1.1,2.3c-1.4-0.1-2.9-0.2-4.5-0.3L97.2,34
		l-0.1,2.7l-0.1,2.6c0,2.5,0.2,4,0.6,4.7s0.9,0.9,1.6,0.9c0.5,0,1.3-0.2,2.5-0.7l0.7,1.4c-2,1.2-3.3,1.9-3.9,2.1
		c-0.9,0.3-1.7,0.5-2.5,0.5c-1.2,0-2.2-0.4-2.9-1.1c-0.7-0.8-1.1-1.9-1.1-3.4l0.1-4.5l0.2-7.5l-1.6,0c-0.1,0-0.5,0-1.2,0v-1.4
		c1.2-0.4,2.4-1.2,3.4-2.2c1-1,2.1-2.5,3.2-4.4h1.7c-0.3,2.2-0.5,4.1-0.6,5.8c1.1,0,1.8,0,2.1,0C99.8,29.5,100.9,29.5,102.6,29.4z"
		/>
	<path id="XMLID_59_" style="fill:#FFFFFF;" d="M103.1,23.3v-1.4c2.1-0.5,3.6-0.9,4.5-1.2s2-0.8,3.1-1.4l1,0.6
		c-0.1,1.2-0.3,2.8-0.4,4.8c-0.1,2.8-0.2,5-0.2,6.6v1.2c1.6-1.7,2.8-2.7,3.5-3.1c0.7-0.4,1.6-0.6,2.6-0.6c1.4,0,2.5,0.3,3.3,1
		s1.2,1.5,1.4,2.6c0.1,0.7,0.2,2.9,0.2,6.6c0,3,0,4.8,0.1,5.5c0,0.5,0.2,0.9,0.4,1.1s0.8,0.5,1.7,0.7c0.2,0,0.4,0.1,0.8,0.2v1.4
		c-2.2-0.1-4-0.2-5.3-0.2c-1.4,0-3.1,0.1-5.1,0.2v-1.4c1.2-0.3,1.8-0.6,2-0.8s0.3-0.8,0.3-1.6c0-5.5,0-8.4,0-8.6
		c-0.1-1.1-0.3-1.8-0.8-2.2c-0.4-0.4-1-0.7-1.8-0.7c-0.7,0-1.4,0.2-2,0.7c-0.6,0.5-1,1.1-1.2,1.9c-0.1,0.6-0.2,2.2-0.2,4.8
		c0,2.9,0,4.6,0.1,5c0.1,0.4,0.2,0.7,0.5,1c0.3,0.2,0.9,0.4,1.8,0.6v1.4c-2-0.1-3.6-0.2-4.8-0.2c-0.8,0-2.7,0.1-5.6,0.2v-1.4
		c0.2-0.1,0.4-0.1,0.5-0.1c1.1-0.3,1.7-0.5,1.8-0.7c0.3-0.3,0.4-0.9,0.5-1.8c0.1-1.9,0.2-5.4,0.2-10.7l-0.1-8.5
		c0-0.5-0.1-0.9-0.3-1.2c-0.2-0.2-0.5-0.4-0.9-0.4C104.4,23.2,103.8,23.2,103.1,23.3z"/>
	<path id="XMLID_61_" style="fill:#FFFFFF;" d="M141.9,42.6l1,1.5c-2,1.7-3.9,3-5.6,3.8c-0.7,0.3-1.7,0.5-2.8,0.5
		c-2.4,0-4.3-0.7-5.5-2.1c-1.6-1.8-2.4-4.2-2.4-7.2c0-3.1,0.9-5.6,2.8-7.5c1.8-1.9,4.1-2.9,6.8-2.9c2.5,0,4.3,0.8,5.5,2.3
		c0.8,1,1.2,2.5,1.3,4.6c-0.6,0.4-1.3,0.9-1.8,1.5c-1.4-0.1-2.8-0.1-4.2-0.1c-1.8,0-3.6,0-5.1,0.1c0,0.3,0,0.5,0,0.7
		c0,1.8,0.4,3.4,1.3,4.8c0.8,1.4,2.1,2.1,3.8,2.1c0.8,0,1.6-0.1,2.3-0.4S140.8,43.4,141.9,42.6z M131.8,34.9c0.7,0,1.3,0,1.8,0
		c1.1,0,2.5-0.1,4.1-0.2c-0.1-1.7-0.4-2.8-0.8-3.3c-0.5-0.5-1.1-0.8-2-0.8c-0.8,0-1.5,0.3-2.1,1C132.3,32.3,132,33.4,131.8,34.9z"/>
	<path id="XMLID_64_" style="fill:#FFFFFF;" d="M154.3,23.4V22c3-0.6,5.6-1.5,7.7-2.7l0.9,0.7c-0.2,1.6-0.3,3.5-0.4,5.7
		c-0.1,2.1-0.1,4.5-0.1,7.2c0,4.7,0,8,0,10c0,0.9,0.1,1.5,0.4,1.7c0.2,0.2,0.6,0.3,1.2,0.3c0.1,0,0.6,0,1.4,0v1.4
		c-1.6,0.2-3,0.5-4.1,0.8c-1.1,0.3-2.4,0.7-3.7,1.2l-1-0.5c0.1-0.8,0.3-1.7,0.3-2.5c-1.5,1.2-2.7,2.1-3.7,2.5
		c-0.7,0.3-1.4,0.5-2.2,0.5c-1.5,0-2.8-0.7-3.9-2c-1.4-1.7-2.1-3.9-2.1-6.6c0-1.3,0.2-2.6,0.6-3.9c0.4-1.3,1-2.4,1.8-3.4
		c0.8-1,1.9-1.8,3.2-2.5c1.3-0.7,2.7-1,4.1-1c0.3,0,0.7,0,1.1,0.1s0.8,0.2,1.3,0.3c0-1.4,0.1-2.4,0.1-3c0-1.4-0.1-2.2-0.3-2.5
		c-0.2-0.3-0.6-0.4-1.1-0.4C155.5,23.2,155,23.3,154.3,23.4z M157.3,37.7c0-2.6-0.2-4.4-0.6-5.1c-0.5-1-1.3-1.5-2.4-1.5
		c-0.9,0-1.8,0.5-2.5,1.5c-0.7,1-1.1,2.7-1.1,5.2c0,2.4,0.4,4.2,1.3,5.4c0.6,0.8,1.4,1.2,2.3,1.2c1.1,0,1.9-0.6,2.4-1.7
		C157.1,41.9,157.3,40.2,157.3,37.7z"/>
	<path id="XMLID_67_" style="fill:#FFFFFF;" d="M165.9,32.8v-1.4c3.2-0.7,5.8-1.6,7.7-2.6l0.9,0.5c-0.2,1.4-0.4,2.9-0.4,4.5
		c1.3-2.1,2.3-3.4,2.9-3.8c0.6-0.5,1.4-0.7,2.2-0.7c0.6,0,1.2,0.2,1.9,0.5c-0.4,1.6-0.7,3.3-0.9,5H179c-0.1-0.5-0.2-0.9-0.5-1.1
		c-0.3-0.2-0.6-0.4-1-0.4c-0.6,0-1.1,0.3-1.6,0.8c-0.8,0.8-1.3,1.8-1.6,3c-0.2,0.6-0.2,1.7-0.2,3.2c0,2.6,0,4.2,0.1,4.6
		s0.2,0.7,0.4,0.9c0.2,0.2,1,0.4,2.2,0.7c0.2,0,0.4,0.1,0.8,0.2v1.4c-2.5-0.1-4.5-0.2-6-0.2c-1.6,0-3.5,0.1-5.6,0.2v-1.4
		c1.6-0.3,2.4-0.7,2.6-1.1c0.3-0.6,0.4-3.2,0.4-8c0-2.5-0.1-4-0.3-4.3c-0.2-0.3-0.5-0.5-1.1-0.5C167.3,32.6,166.7,32.6,165.9,32.8z"
		/>
	<path id="XMLID_69_" style="fill:#FFFFFF;" d="M185.2,35.6l-1.7-0.2c0.4-1.8,0.6-3.5,0.7-4.9c2.4-1.1,4.8-1.7,7.4-1.7
		c1.5,0,2.7,0.2,3.6,0.7c0.9,0.5,1.5,1.1,1.8,2c0.3,0.8,0.5,2.1,0.5,3.9l-0.1,6.6c0,1.3,0.1,2.1,0.3,2.4c0.2,0.3,0.5,0.5,0.8,0.5
		c0.4,0,1-0.2,1.8-0.7l0.7,1.1c-1.8,1.2-3.1,2.1-3.9,2.5c-0.6,0.3-1.2,0.4-1.8,0.4c-0.7,0-1.4-0.2-1.9-0.6s-0.9-1-1.1-1.8
		c-1.6,1.1-2.6,1.7-3.3,2c-0.6,0.3-1.4,0.4-2.3,0.4c-1.3,0-2.4-0.5-3.3-1.4c-0.8-0.9-1.3-2.1-1.3-3.6c0-1.1,0.3-2,0.9-3
		c0.4-0.6,1.1-1.2,2.2-1.8l7.1-3.3c0-1.5-0.3-2.6-0.7-3.1c-0.5-0.5-1.1-0.8-2.1-0.8c-0.9,0-1.7,0.3-2.4,0.9
		C186.6,32.7,185.9,33.8,185.2,35.6z M192.5,37.2c-2.1,1-3.5,1.8-4,2.5c-0.6,0.6-0.8,1.5-0.8,2.5c0,1.1,0.2,1.8,0.6,2.3
		c0.4,0.5,1,0.7,1.6,0.7c0.5,0,1-0.2,1.5-0.5c0.5-0.3,0.8-0.8,1-1.4c0.2-0.6,0.2-1.9,0.2-3.9C192.5,38.9,192.5,38.2,192.5,37.2z"/>
	<path id="XMLID_72_" style="fill:#FFFFFF;" d="M201.2,23.4V22c1.9-0.5,3.4-0.9,4.4-1.2c1-0.4,2.1-0.9,3.3-1.5l1,0.7
		c-0.2,1.7-0.3,3.6-0.4,5.9c-0.1,2.3-0.1,4.8-0.1,7.7c0,6.2,0,9.7,0,10.5c0,0.8,0.2,1.3,0.4,1.5c0.3,0.3,1.1,0.7,2.5,1v1.4
		c-2-0.1-3.9-0.2-5.5-0.2c-1.7,0-3.5,0.1-5.6,0.2v-1.4c1.4-0.3,2.3-0.6,2.5-0.9c0.3-0.3,0.4-0.9,0.5-1.8c0.1-1.4,0.1-5,0.1-10.9
		c0-5.5,0-8.4-0.1-8.7c-0.1-0.6-0.6-0.9-1.3-0.9C202.3,23.2,201.8,23.3,201.2,23.4z"/>
</g>
<g id="XMLID_83_">
	<path id="XMLID_84_" style="fill:#FFFFFF;" d="M60.7,71.6l-5.2,0.4c0.5-4,1.6-9.7,2.7-12.6c2.6,0.5,4.9,0.9,6.6,0.9
		c3.7,0,4.9-1.8,5.3-4.3l-0.7-0.4c-0.7,1-1.7,1.3-3.3,1.3c-3.5,0-11.2-1.7-15.8-1.7c-8.4,0-15.6,5.7-15.6,12.3c0,4.2,3,7,6.3,7
		c0.7,0,1.5-0.1,2-0.3l0-0.8c-3.8,0-5.7-2.9-5.7-6.6c0-5.6,4.1-9.1,10.2-9.1c2.7,0,6.1,0.8,9.3,1.4c-2.4,2.7-4.1,8.2-4.8,13.1
		l-4.6,0.2c0,0.1-0.1,0.5-0.1,0.6c0,0.3,0.1,0.7,0.2,0.9l4.2-0.2c-0.6,4.2-1,7.3-1.3,9.7C50.2,86,50,88.4,50,89.4
		c0,1,0.2,1.7,0.9,1.7c0.8,0,2.4-0.8,3.1-1.3c0.1-4.9,0.5-10.5,1.3-16.4l5.4-0.1c0.1-0.3,0.2-0.7,0.2-1S60.9,71.8,60.7,71.6z"/>
	<path id="XMLID_85_" style="fill:#FFFFFF;" d="M102.4,66.6c1.3,0,2.4-1.1,2.4-2.4c0-1.3-1-2.4-2.4-2.4s-2.4,1-2.4,2.4
		C100.1,65.5,101.1,66.6,102.4,66.6z"/>
	<path id="XMLID_88_" style="fill:#FFFFFF;" d="M134.1,88.8c-1.6,0-3.1-2.1-3.1-7.2c0-1.5,0.1-3.4,0.3-5.2c5.2-1.6,8.4-8.4,8.4-13.7
		c0-2.9-0.9-6.3-2.6-7.5c-0.2-0.1-0.4-0.2-0.5-0.2c-0.7,0-2.3,0.9-3.5,1.8c-1.2,2.7-2.5,7-2.8,8.3c-1.3,4.8-2.4,10.4-2.7,14.6
		c-1.5,6.6-3.3,9-4.8,9c-1.5,0-2.1-2.4-2.1-5.5c0-3.3,0.7-7.9,1.3-11c-1.7-1-3.4-1.5-5.2-1.5c-3,0-5.6,1.3-7.5,3.5
		c-1.9,2.1-3.4,5.5-3.4,9.1c0,0.6,0,1.2,0.1,1.7c-1.1,2.6-2.2,3.7-3.3,3.7c-1.4,0-2.1-2-2.1-4.8c0-2.5,0.5-5.6,1-8.2
		c0.4-1.8,0.6-3.3,0.6-3.9c0-0.7-0.3-1-0.8-1c-0.7,0-2.1,0.6-2.9,1.1c-0.2,1.7-0.5,3.5-0.8,5.2c-1.7,8.3-5.6,11.5-8.6,11.5
		c-2.8,0-5-2.9-5-7.3c0-1.8,0.4-4.3,1.5-6.2c0.9-1.5,2.2-2.5,3.5-2.5c1.6,0,2.3,1.5,2.3,3.3c0,0.2,0,0.4,0,0.7
		c1.6,0.1,2.9-1.1,2.9-2.6c0-1.6-1.4-3.3-3.8-3.3c-2.1,0-4.2,1.2-5.9,2.7c-2.6,2.4-4,5.7-4,8.9c0,0.8,0.1,1.6,0.3,2.3
		c-1.1,2.9-2.3,4.1-3.3,4.1c-1.5,0-2.1-2.4-2.1-5.5c0-3.3,0.7-7.9,1.3-11c-1.7-1-3.4-1.5-5.2-1.5c-3,0-5.6,1.3-7.5,3.5
		c-1.9,2.1-3.4,5.5-3.4,9.1c0,4.6,2.3,7.2,5,7.2c2.6,0,4.6-2.5,6.3-7.7h0.1c-0.1,3.9,1.5,7.7,4.6,7.7c1.7,0,3.3-1.1,4.8-4.3
		c1.3,2.7,3.8,4.3,6.6,4.3c3.2,0,6.7-2.1,9.1-7.4c0,0.2,0,0.5,0,0.7c0,4.7,2.1,6.7,4.6,6.7c1.7,0,3.2-0.9,4.7-3.7
		c0.8,2.4,2.5,3.7,4.4,3.7c2.6,0,4.6-2.5,6.3-7.7h0.1c-0.1,3.9,1.5,7.7,4.6,7.7c2,0,4-1.6,5.7-6.7c0.6,5.2,3.3,6.7,5.4,6.7
		c3.5,0,5.9-3.8,7.4-8.1l-1.1-0.4C137.6,87.2,135.6,88.8,134.1,88.8z M133.5,64.9c0.4-1.7,1.1-4.2,2-7c1.4,1.6,1.9,4.1,1.9,6.3
		c0,4.6-2.1,9.5-5.9,10.9C132,71.5,132.9,67.5,133.5,64.9z M70.8,83.1c-1.3,3.9-2.6,5.5-3.9,5.5c-1.5,0-2.5-2.7-2.5-6
		c0-3.1,0.9-6.5,2-8.5c1-1,2.3-1.4,3.6-1.4c1.1,0,2.2,0.3,3.1,1C72.6,76.6,71.8,80.2,70.8,83.1z M115.9,83.1
		c-1.3,3.9-2.6,5.5-3.9,5.5c-1.5,0-2.5-2.7-2.5-6c0-3.1,0.9-6.5,2-8.5c1-1,2.3-1.4,3.6-1.4c1.1,0,2.2,0.3,3.1,1
		C117.7,76.6,116.9,80.2,115.9,83.1z"/>
	<path id="XMLID_93_" style="fill:#FFFFFF;" d="M206.9,70.8c-3.2,0-7.7,2.1-7.7,5.8c0,0.2,0,0.3,0,0.5c-1.6,7.9-5.2,11.7-8.4,11.7
		c-2.7,0-4.9-2.6-5.1-6.7c2.1-0.5,4.7-1.5,6.6-3.1c1.6-1.3,2.7-3,2.7-4.8c0-2-1.3-3.3-3.4-3.3c-1.9,0-3.9,1-5.4,2.4
		c-2.8,2.5-4.1,6-4.1,9.1c0,0.9,0.1,1.7,0.3,2.4c-1.2,3.2-2.6,4.4-3.6,4.4c-1.4,0-2.3-2.2-2.7-4.7c-0.3-1.9-0.4-4.5-0.4-6.7
		c0-6.4,0.8-13.8,1.9-20.2c-1.1-1.1-2.5-1.7-4.1-1.9c-2,0.3-3.8,1.9-5.2,4.2c-1.5,2.4-2.6,5.4-4.3,10.2c-1.2,3.3-1.3,3.6-2,5.2
		c-3.6,0.1-6.4,0.8-8.7,2.1c-3.8,2-6.5,5.3-6.5,8.3c0,2.9,2.4,5.1,5.2,5.1c3.3,0,6.4-3,8.6-6.8c1.2-2.1,2.1-4.5,2.9-6.7
		c0.5,0,1,0,1.5,0c2,0,4.6,0.1,6.8,0.4c0,2.6,0.1,5.6,0.8,8.2c0.8,2.9,2.3,5.4,5,5.4c2,0,3.9-1.5,5.3-4.9c1.3,2.7,3.9,4.3,6.6,4.3
		c3.9,0,8.3-3.4,10.4-11.7c0.7,1,2,2,3.5,3.2c2.4,1.8,3.6,2.9,3.6,4.4c0,1.6-1.5,2.6-3.2,2.6c-1.9,0-2.8-1.3-2.8-3.2
		c-1.5,0-2.2,1-2.2,2.1c0,1.9,2,2.7,3.9,2.7c3.2,0,7.3-2.5,7.3-5.9c0-2.1-1.7-3.3-4-5.1c-2.8-2.2-4-3.3-4-4.6c0-1.5,1.5-2.6,3.3-2.6
		c2.1,0,3.3,1.5,3.3,3.7c0,0.2,0,0.4,0,0.7c1.6,0,2.7-1,2.7-2.6C211.3,72.2,209.5,70.8,206.9,70.8z M187,75.4
		c0.9-1.8,2.1-2.8,3.4-2.8c1.1,0,1.8,0.8,1.8,2.2c0,3.5-4,5.3-6.5,5.7C185.8,78.9,186.2,77,187,75.4z M158.5,82.5
		c-2.3,3.6-4.6,5.6-6.8,5.6c-1.7,0-3-1.3-3-3c0-2.3,2.3-4.6,5.5-6.1c2.1-1,4.5-1.5,7-1.7C160.3,79.3,159.5,81,158.5,82.5z
		 M172.8,64.5c-0.4,2.8-0.8,6.9-1,11.6c-2.3-0.4-5-0.8-7.7-0.8c1.4-4.4,2.2-7.4,3.4-10.3c0.9-2.3,2-4.6,3.1-5.8c0.6-0.6,1.2-1,1.7-1
		c0.7,0,1,0.5,1,1.1C173.4,60.2,173.1,62.2,172.8,64.5z"/>
	<path id="XMLID_96_" style="fill:#FFFFFF;" d="M280.6,66.6c1.3,0,2.4-1.1,2.4-2.4c0-1.3-1-2.4-2.4-2.4c-1.3,0-2.4,1-2.4,2.4
		C278.2,65.5,279.3,66.6,280.6,66.6z"/>
	<path id="XMLID_99_" style="fill:#FFFFFF;" d="M313.5,74.2c0-2.1-1.9-3.5-4.5-3.5c-3.2,0-7.7,2.1-7.7,5.8c0,0.2,0,0.3,0,0.5
		c-1.7,8.3-5.6,11.7-8.7,11.7c-2.8,0-5-2.9-5-7.3c0-1.8,0.4-4.3,1.5-6.2c0.9-1.5,2.2-2.5,3.5-2.5c1.6,0,2.3,1.5,2.3,3.3
		c0,0.2,0,0.4,0,0.7c1.6,0.1,2.9-1.1,2.9-2.6c0-1.6-1.4-3.3-3.8-3.3c-2.1,0-4.2,1.2-5.9,2.7c-2.6,2.4-4,5.7-4,8.9
		c0,0.8,0.1,1.5,0.3,2.2c-1.2,2.9-2.4,4.1-3.4,4.1c-1.4,0-2.1-2-2.1-4.8c0-2.5,0.5-5.6,1-8.2c0.4-1.8,0.6-3.3,0.6-3.9
		c0-0.7-0.3-1-0.8-1c-0.7,0-2.1,0.6-2.9,1.1c-0.2,1.9-0.5,3.9-0.8,5.8c-1.6,8.2-4.3,11.1-6.3,11.1c-1.6,0-2.9-2.1-2.9-7
		c0-2.7,0.4-6.1,1-9.6l5.8-0.2c0.2-0.3,0.3-0.6,0.3-0.9s-0.1-0.6-0.2-0.7l-5.6,0.4c0.6-3.2,1.4-6.8,1.4-7.7c0-0.5-0.2-0.8-0.8-0.8
		c-0.7,0-2.2,0.6-3,1.1c-0.4,2-0.7,4.3-1.2,7.6l-2.7,0.1c0,0.1-0.1,0.4-0.1,0.6c0,0.3,0,0.6,0.2,0.8l2.4-0.1
		c-0.3,1.6-0.5,3.1-0.7,4.6c-1.6,7.9-5.2,11.7-8.4,11.7c-2.7,0-4.9-2.6-5.1-6.7c2.1-0.5,4.7-1.5,6.6-3.1c1.6-1.3,2.7-3,2.7-4.8
		c0-2-1.3-3.3-3.4-3.3c-1.9,0-3.9,1-5.4,2.4c-2.8,2.5-4.1,6-4.1,9.1c0,0.8,0.1,1.6,0.3,2.3c-1.2,3.1-2.4,4.2-3.4,4.2
		c-1.3,0-2.1-2.2-2.1-5.3c0-3.3,0.9-6.3,1.5-9.3c-0.9-1.3-2.2-2.4-4.1-2.6c-2.8,0.4-5.1,3-6.7,6.7c-0.7,1.7-1.3,3.8-1.6,6.1h-0.1
		c0-0.6,0-1.1,0-1.8c0-2.5,0.5-6.3,1-9.3c4.8-1.4,8.3-6.7,8.3-11.6c0-2.8-1.2-4.6-2.2-5.7c-0.5-0.5-0.9-0.8-1.4-0.8
		c-0.8,0-2.5,1-3.6,1.8c-1,2.2-2,5.1-2.8,8.2c-1.3,4.7-2.2,9.8-2.7,14.6c-1.7,6.6-4,9.1-5.8,9.1c-1.6,0-2.9-2.1-2.9-7
		c0-2.7,0.4-6.1,1-9.6l5.8-0.2c0.2-0.3,0.3-0.6,0.3-0.9s-0.1-0.6-0.2-0.7l-5.6,0.4c0.6-3.2,1.4-6.8,1.4-7.7c0-0.5-0.2-0.8-0.8-0.8
		c-0.7,0-2.2,0.6-3,1.1c-0.4,2-0.7,4.3-1.2,7.6l-2.7,0.1c0,0.1-0.1,0.4-0.1,0.6c0,0.3,0,0.6,0.2,0.8l2.4-0.1
		c-0.6,3.6-1.1,7.1-1.1,9.7c0,6.6,3.1,8.4,5.6,8.4c1.7,0,4.4-0.8,6.6-6.4c0,0,0,0.1,0,0.1c0,2,0.1,6.1,2,6.1c0.5,0,1.4-0.3,2.4-0.8
		c0-2.5,0.4-6.1,1.7-9.7c0.9-2.4,1.9-4.2,3-5.2c0.7-0.5,1.3-0.9,2-0.9c0.8,0,1.2,0.6,1.2,1.4c0,1.4-1,4.8-1,8.1
		c0,4.9,2.3,7.2,4.7,7.2c1.7,0,3.4-1.1,4.9-4.4c1.3,2.8,4,4.5,6.7,4.5c3.3,0,6.9-2.4,9.2-8.2c0.1,6.5,3.2,8.2,5.6,8.2
		c1.7,0,4.4-0.8,6.6-6.4c0.1,4.4,2.1,6.4,4.6,6.4c1.8,0,3.5-1,5-4.3c1.3,2.8,3.8,4.4,6.6,4.4c3.9,0,8.4-3.2,10.6-11.7
		c0.7,1,2,2,3.5,3.2c2.4,1.8,3.6,2.9,3.6,4.4c0,1.6-1.5,2.6-3.2,2.6c-1.9,0-2.8-1.3-2.8-3.2c-1.5,0-2.2,1-2.2,2.1
		c0,1.9,2,2.7,3.9,2.7c3.2,0,7.3-2.5,7.3-5.9c0-2.1-1.7-3.3-4-5.1c-2.8-2.2-4-3.3-4-4.6c0-1.5,1.5-2.6,3.3-2.6
		c2.1,0,3.3,1.5,3.3,3.7c0,0.2,0,0.4,0,0.7C312.4,76.8,313.5,75.8,313.5,74.2z M251.4,75.4c0.9-1.8,2.1-2.8,3.4-2.8
		c1.1,0,1.8,0.8,1.8,2.2c0,3.5-4,5.3-6.5,5.7C250.1,78.9,250.6,77,251.4,75.4z M234.9,57.5c1.4,1.3,2.1,3.5,2.1,5.5
		c0,3.7-2.3,7.7-5.7,8.7C232.1,66.6,233.4,61.8,234.9,57.5z"/>
</g>
<g id="XMLID_3_">
	<path id="XMLID_5_" style="fill:#FFFFFF;" d="M38.1,109.4c-6.3,2.1-16.2,4.3-21.1-1.2c-2.1-2.3-2.6-4.4-1.9-7.4
		c0.6-2.6,1.6-4.3,0.5-6.9c-0.1-0.4-0.7-0.4-1-0.5c-2.3-0.2-5.7-6.3-1.4-6.8c0.8-0.1,1.7-1.2,0.6-1.7c-1.1-0.5-3.7-2.8-3.6-4.2
		c0-0.3,1.2-1.1,1.4-1.4c0.6-0.8,1.5-2,1.7-3.1c0.7-3.7-2.1-5.8-4.8-7.6c-1.2-0.8-3.4-1.5-4-2.8c-1.3-2.9,3.4-6,5.1-7.7
		c2.5-2.3,5.1-4.6,7.1-7.4c4.8-6.6,1.4-15.5,3.2-23c2.3-9.6,7.3-17.3,13.5-24.8c1-1.2-1.3-1.8-2.1-0.9c-5.8,7.1-10.3,14-13.2,22.8
		c-2.9,9,1.2,19.8-5.3,27.3C9.9,55.8,4.1,58.8,2,63c-1.5,3,1,4.9,3.3,6.4c2.2,1.4,4.4,2.4,5.2,5c0.8,3-1,3.1-2.3,5.5
		c-1.8,3.3,1.1,5.4,4,6.7c0.2-0.6,0.4-1.1,0.6-1.7c-4,0.5-5.4,5.7-3,8.4c0.9,1,3.6,1.8,3.8,2.2c0.9,2.2-2.2,6.2-1.7,8.9
		c2.1,12,19,9.1,27,6.5C40.7,110.4,39.4,108.9,38.1,109.4L38.1,109.4z"/>
</g>
</svg>
