<?xml version="1.0" encoding="utf-8"?>
<!-- Generator: Adobe Illustrator 15.0.0, SVG Export Plug-In . SVG Version: 6.00 Build 0)  -->
<!DOCTYPE svg PUBLIC "-//W3C//DTD SVG 1.1//EN" "http://www.w3.org/Graphics/SVG/1.1/DTD/svg11.dtd">
<svg version="1.1" id="Layer_1" xmlns="http://www.w3.org/2000/svg" xmlns:xlink="http://www.w3.org/1999/xlink" x="0px" y="0px"
	 width="777.381px" height="358.333px" viewBox="0 0 777.381 358.333" enable-background="new 0 0 777.381 358.333"
	 xml:space="preserve">
<path fill="none" d="M301.922,1.483c-21.246,0-39.617,7.621-54.64,22.621c-15,15.016-22.59,33.379-22.59,73.27v142.921
	c0,0,0.184,5.34-5.781,5.34h-87.953c-63.629,0-115.391-51.75-115.391-115.394c0-63.625,51.762-115.41,115.391-115.41
	c2.238,0,4.105-1.825,4.105-4.071V5.881c0-2.246-1.867-4.078-4.105-4.078C60.161,1.803,2.524,59.432,2.524,130.241
	c0,70.292,57.164,127.887,127.473,128.421l100.113,0.031c0,0,3.566,0.164,5.215-0.309c1.508-0.57,2.617-2.035,2.617-3.797V141.963
	c0-3.195,2.617-5.793,5.801-5.793h48.582c1.09,0,2.172-0.218,2.855-1.167l3.117-5.036c1.149-2.531,2-2.98,1.368-4.562
	c-0.645-1.512-2.125-2.508-3.754-2.508h-52.168c-3.184,0-5.801-2.582-5.801-5.797V78.706c0-17.539,6.316-32.75,18.746-45.188
	c12.457-12.449,27.66-18.75,45.234-18.75h1.137c2.258,0,4.055-1.84,4.055-4.098V5.577c0-2.258-1.797-4.094-4.055-4.094H301.922z"/>
<path fill="none" d="M336.899,226.67c-12.449-12.453-18.727-27.645-18.727-45.191c0-17.566,6.309-32.781,18.747-45.262
	c12.437-12.543,27.64-18.91,45.167-18.91c17.543,0,32.762,6.414,45.282,18.985c12.52,12.429,18.879,27.621,18.879,45.187
	c0,17.531-6.359,32.738-18.973,45.199c-12.426,12.426-27.617,18.715-45.188,18.715C364.559,245.393,349.356,239.104,336.899,226.67
	 M327.512,126.842c-15.019,15.008-22.609,33.399-22.609,54.637c0,21.234,7.59,39.598,22.609,54.586
	c14.973,14.992,33.352,22.605,54.574,22.605c17.407,0,33.231-5.387,46.965-15.977c2.586-2.008,5.059-4.176,7.352-6.414
	c1.109-1.066,2.57-1.651,4.055-1.651c0.758,0,1.512,0.159,2.246,0.444c2.172,0.922,3.543,3.016,3.543,5.34v14.176
	c0,2.247,1.824,4.082,4.105,4.082h4.871c2.293,0,4.105-1.835,4.105-4.082l-0.043-69.746c0-8.515-0.836-19.164-2.691-23.683
	c-0.215-0.59-0.383-1.215-0.383-1.828c-4.785-15.86-13.914-28.981-27.121-39.043c-13.773-10.657-29.578-16.047-47.004-16.047
	C360.864,104.241,342.516,111.85,327.512,126.842"/>
<path fill="none" d="M631.442,27.264c-2.262,0-4.082,1.93-4.082,4.094v149.887c0,23.867,7.648,39.594,22.715,54.559
	c15.078,15.191,33.516,22.867,54.852,22.867h1.188c2.281,0,4.078-1.835,4.078-4.082v-5.085c0-2.259-1.797-4.11-4.078-4.11h-1.188
	c-17.633,0-32.934-6.273-45.488-18.68c-12.496-12.602-18.797-27.949-18.797-45.648v-39.898c0-3.211,2.594-5.786,5.781-5.786h121.004
	c0.898,0,1.734-0.304,2.363-0.765v-11.563c-0.629-0.465-1.465-0.754-2.363-0.754H646.422c-3.188,0-5.781-2.597-5.781-5.793V31.362
	c0-2.246-1.84-4.098-4.074-4.098H631.442z"/>
<path fill="none" d="M522.977,107.772c-19.766,4.856-32.348,17.539-33.676,33.906c-1.672,20.805,19.844,30.25,50.395,41.321
	c23.43,8.476,47.621,17.226,46.285,33.358c-0.977,12.289-9.859,21.902-24.395,26.379c-5.539,1.724-11.91,2.621-18.418,2.621
	c-17.973,0-34.223-6.742-43.367-18.104c-0.742-0.853-1.961-1.411-3.305-1.411c-0.949,0-1.793,0.286-2.43,0.777l-3.789,3.059
	c-0.84,0.668-1.398,1.672-1.488,2.66c-0.156,1.145,0.184,2.281,0.863,3.09c11.582,14.364,31.68,22.938,53.711,22.938
	c7.727,0,15.363-1.109,22.063-3.164c19.883-6.141,32.105-19.918,33.563-37.793c2.109-26.07-28.152-37.004-54.836-46.672
	c-25.883-9.367-42.801-16.344-41.855-27.992c0.867-10.676,9.555-18.801,23.797-22.293c4.504-1.102,9.293-1.668,14.25-1.668
	c14.168,0,32.398,5,41.223,19.051c0.563,0.875,1.461,1.507,2.477,1.734c1.086,0.234,2.238,0.059,3.082-0.484l4.152-2.618
	c0.949-0.582,1.582-1.437,1.82-2.543c0.227-1.054,0.063-2.136-0.52-3.093c-9.859-15.676-29.438-25.055-52.379-25.055
	C534.211,105.776,528.422,106.463,522.977,107.772"/>
<g>
	<path fill="none" d="M771.508,238.616v20.102h-3.152v-17.25l-6.965,17.25h-1.879l-6.797-17.25v17.25h-3.191v-20.102h5.168
		l5.781,14.188l5.969-14.188H771.508 M745.993,238.616v2.852h-6.344v17.25h-3.547v-17.25h-6.406v-2.852H745.993z"/>
	<path fill="none" d="M97.997,342.327c-7.223,0-12.7-4.883-12.7-14.695c0-9.777,5.477-14.648,12.7-14.648
		c3.957,0,6.453,1.017,9.449,4.246l-2.875,2.664c-2.145-2.367-3.817-3.195-6.574-3.195c-2.825,0-5.153,1.09-6.661,3.246
		c-1.312,1.883-1.855,4.099-1.855,7.688c0,3.618,0.543,5.859,1.855,7.676c1.508,2.18,3.836,3.278,6.661,3.278
		c2.757,0,4.429-0.864,6.574-3.278l2.875,2.774C104.45,341.276,101.954,342.327,97.997,342.327"/>
	<path fill="none" d="M129.95,318.792c-1.324-1.356-3.18-2.095-5.215-2.095c-2.059,0-3.867,0.738-5.207,2.095
		c-2.082,2.108-2.313,5.651-2.313,8.839c0,3.223,0.231,6.758,2.313,8.859c1.34,1.341,3.148,2.095,5.207,2.095
		c2.035,0,3.891-0.754,5.215-2.095c2.097-2.102,2.281-5.637,2.281-8.859C132.231,324.444,132.047,320.901,129.95,318.792
		 M132.946,339.069c-1.988,1.974-4.719,3.242-8.211,3.242c-3.508,0-6.234-1.269-8.203-3.242c-2.926-2.992-3.516-6.996-3.516-11.438
		c0-4.418,0.59-8.43,3.516-11.41c1.969-1.972,4.695-3.238,8.203-3.238c3.492,0,6.223,1.267,8.211,3.238
		c2.894,2.98,3.461,6.992,3.461,11.41C136.407,332.073,135.84,336.077,132.946,339.069"/>
	<path fill="none" d="M154.403,342.327c-4.828,0-8.629-1.113-11.766-4.133l2.785-2.805c2.286,2.398,5.372,3.332,8.942,3.332
		c4.711,0,7.633-1.688,7.633-5.086c0-2.5-1.493-3.898-4.766-4.175l-4.762-0.407c-5.586-0.504-8.539-2.988-8.539-7.688
		c0-5.27,4.414-8.383,10.547-8.383c4.059,0,7.742,0.992,10.301,3.066l-2.727,2.743c-2.054-1.563-4.672-2.247-7.648-2.247
		c-4.172,0-6.395,1.758-6.395,4.672c0,2.48,1.399,3.926,5.008,4.223l4.567,0.414c5.05,0.457,8.472,2.356,8.472,7.728
		C166.055,339.143,161.336,342.327,154.403,342.327"/>
	<path fill="none" d="M211.047,341.963v-17.637c0-5.082-2.707-7.629-7.019-7.629c-4.199,0-7.176,2.629-7.176,7.164v18.102h-4.172
		v-17.637c0-5.082-2.758-7.629-7.074-7.629c-4.293,0-7.121,2.629-7.121,7.629v17.637h-4.246v-28.637h4.246v3.141
		c2.008-2.336,4.883-3.484,8.066-3.484c3.965,0,7.055,1.629,8.793,4.754c2.219-3.125,5.403-4.754,9.434-4.754
		c3.09,0,5.668,0.992,7.41,2.668c2.031,1.969,3.059,4.645,3.059,7.957v18.355H211.047"/>
	<path fill="none" d="M242.325,320.827c-1.082-2.602-3.68-4.293-6.696-4.293c-3.043,0-5.593,1.691-6.703,4.293
		c-0.629,1.566-0.777,2.441-0.871,4.766h15.149C243.086,323.268,242.993,322.393,242.325,320.827 M228.055,328.76
		c0,6.285,2.981,9.871,8.422,9.871c3.34,0,5.266-0.964,7.52-3.242l2.879,2.528c-2.922,2.886-5.586,4.394-10.457,4.394
		c-7.602,0-12.551-4.523-12.551-14.68c0-9.246,4.457-14.648,11.761-14.648c7.383,0,11.766,5.32,11.766,13.84v1.938H228.055z"/>
	<path fill="none" d="M264.309,341.963c-4.836,0-7.305-3.421-7.305-7.671v-17.595h-3.621v-3.219h3.621v-8.961h4.196v8.961h6.105
		v3.219H261.2v17.477c0,2.609,1.222,4.207,3.886,4.207h2.219v3.582H264.309"/>
	<path fill="none" d="M275.602,341.963h4.199v-28.637h-4.199V341.963 M275.387,305.171h4.699v-4.735h-4.699V305.171z"/>
	<path fill="none" d="M301.477,342.327c-7.223,0-12.687-4.883-12.687-14.695c0-9.777,5.464-14.648,12.687-14.648
		c3.961,0,6.469,1.017,9.434,4.246l-2.875,2.664c-2.11-2.367-3.801-3.195-6.559-3.195c-2.812,0-5.141,1.09-6.629,3.246
		c-1.367,1.883-1.886,4.099-1.886,7.688c0,3.618,0.519,5.859,1.886,7.676c1.488,2.18,3.817,3.278,6.629,3.278
		c2.758,0,4.449-0.864,6.559-3.278l2.875,2.774C307.946,341.276,305.438,342.327,301.477,342.327"/>
	<path fill="none" d="M341.43,341.963c-4.91,0-7.332-3.421-7.332-7.671v-17.595h-3.605v-3.219h3.605v-8.961h4.172v8.961h6.133v3.219
		h-6.133v17.477c0,2.609,1.246,4.207,3.91,4.207h2.223v3.582H341.43"/>
	<path fill="none" d="M367.68,318.792c-1.344-1.356-3.211-2.095-5.238-2.095c-2.023,0-3.848,0.738-5.172,2.095
		c-2.086,2.108-2.328,5.651-2.328,8.839c0,3.223,0.242,6.758,2.328,8.859c1.324,1.341,3.149,2.095,5.172,2.095
		c2.027,0,3.894-0.754,5.238-2.095c2.086-2.102,2.282-5.637,2.282-8.859C369.962,324.444,369.766,320.901,367.68,318.792
		 M370.645,339.069c-1.976,1.974-4.715,3.242-8.203,3.242c-3.484,0-6.25-1.269-8.211-3.242c-2.895-2.992-3.516-6.996-3.516-11.438
		c0-4.418,0.621-8.43,3.516-11.41c1.961-1.972,4.727-3.238,8.211-3.238c3.488,0,6.227,1.267,8.203,3.238
		c2.926,2.98,3.516,6.992,3.516,11.41C374.161,332.073,373.571,336.077,370.645,339.069"/>
	<path fill="none" d="M398.547,318.792c-1.352-1.356-3.211-2.095-5.277-2.095c-2.008,0-3.801,0.738-5.141,2.095
		c-2.102,2.108-2.333,5.651-2.333,8.839c0,3.223,0.231,6.758,2.333,8.859c1.34,1.341,3.133,2.095,5.141,2.095
		c2.066,0,3.926-0.754,5.277-2.095c2.078-2.102,2.266-5.637,2.266-8.859C400.813,324.444,400.625,320.901,398.547,318.792
		 M401.5,339.069c-1.988,1.974-4.719,3.242-8.23,3.242c-3.469,0-6.199-1.269-8.187-3.242c-2.922-2.992-3.489-6.996-3.489-11.438
		c0-4.418,0.567-8.43,3.489-11.41c1.988-1.972,4.718-3.238,8.187-3.238c3.512,0,6.242,1.267,8.23,3.238
		c2.895,2.98,3.488,6.992,3.488,11.41C404.989,332.073,404.395,336.077,401.5,339.069"/>
	<path fill="none" d="M421.993,341.963c-4.883,0-7.332-3.421-7.332-7.671v-17.595h-3.609v-3.219h3.609v-8.961h4.219v8.961h6.09
		v3.219h-6.09v17.477c0,2.609,1.203,4.207,3.863,4.207h2.227v3.582H421.993"/>
	<path fill="none" d="M451.606,341.963V324.26c0-5.016-2.648-7.563-6.945-7.563c-4.328,0-7.195,2.629-7.195,7.563v17.703h-4.176
		v-41.473h4.176v15.977c2.117-2.41,4.855-3.484,8.063-3.484c6.441,0,10.309,4.121,10.309,10.594v18.387H451.606"/>
	<path fill="none" d="M496.786,328.753h-8.07c-4.293,0-6.383,1.761-6.383,5.078c0,3.3,2,4.89,6.574,4.89
		c2.449,0,4.598-0.179,6.406-1.938c1-0.922,1.473-2.547,1.473-4.957V328.753 M496.786,341.963v-2.714
		c-2.367,2.319-4.449,3.062-8.285,3.062c-3.992,0-6.285-0.742-8.121-2.617c-1.406-1.391-2.152-3.543-2.152-5.815
		c0-5.009,3.512-8.274,9.918-8.274h8.641v-2.75c0-4.191-2.109-6.285-7.371-6.285c-3.68,0-5.508,0.867-7.199,3.254l-2.891-2.594
		c2.602-3.332,5.5-4.246,10.145-4.246c7.688,0,11.484,3.293,11.484,9.521v19.46H496.786z"/>
	<path fill="none" d="M518.305,341.963c-5.02,0-7.305-3.242-7.305-7.621v-33.852h4.219v33.684c0,2.786,0.906,4.207,3.844,4.207h2.27
		v3.582H518.305"/>
	<path fill="none" d="M528.407,341.963h4.215v-28.637h-4.215V341.963 M528.196,305.171h4.715v-4.735h-4.715V305.171z"/>
	<path fill="none" d="M552.997,316.698c-6.223,0-7.164,5.332-7.164,10.707c0,5.371,0.941,10.724,7.164,10.724
		c6.262,0,7.102-5.353,7.102-10.724C560.098,322.03,559.258,316.698,552.997,316.698 M552.34,355.143
		c-4.262,0-6.668-1.105-9.691-3.855l2.723-2.656c2.117,1.855,3.531,2.832,6.879,2.832c5.523,0,7.848-3.902,7.848-8.792v-4.485
		c-2.324,2.973-4.949,3.715-8.035,3.715c-2.906,0-5.43-1.039-6.918-2.555c-2.852-2.855-3.484-7.273-3.484-11.941
		c0-4.645,0.633-9.102,3.484-11.901c1.488-1.54,4.059-2.521,6.984-2.521c3.145,0,5.711,0.676,8.027,3.715v-3.371h4.117v29.531
		C564.274,349.957,559.868,355.143,552.34,355.143"/>
	<path fill="none" d="M593.098,341.963v-17.637c0-5.082-2.691-7.629-7-7.629c-4.324,0-7.129,2.629-7.129,7.629v17.637h-4.219
		v-28.637h4.219v3.141c2.023-2.336,4.813-3.484,8.023-3.484c3.109,0,5.605,0.914,7.355,2.668c2.023,1.969,2.996,4.645,2.996,7.957
		v18.355H593.098"/>
	<path fill="none" d="M644.329,341.963v-17.637c0-5.082-2.77-7.629-7.059-7.629c-4.191,0-7.199,2.629-7.199,7.164v18.102h-4.164
		v-17.637c0-5.082-2.742-7.629-7.051-7.629c-4.324,0-7.172,2.629-7.172,7.629v17.637h-4.176v-28.637h4.176v3.141
		c2.027-2.336,4.906-3.484,8.082-3.484c3.973,0,7.09,1.629,8.824,4.754c2.199-3.125,5.402-4.754,9.438-4.754
		c3.059,0,5.637,0.992,7.379,2.668c2.031,1.969,3.09,4.645,3.09,7.957v18.355H644.329"/>
	<path fill="none" d="M675.547,320.827c-1.082-2.602-3.637-4.293-6.676-4.293s-5.605,1.691-6.727,4.293
		c-0.602,1.566-0.719,2.441-0.867,4.766h15.172C676.356,323.268,676.211,322.393,675.547,320.827 M661.278,328.76
		c0,6.285,2.977,9.871,8.469,9.871c3.293,0,5.238-0.964,7.52-3.242l2.84,2.528c-2.902,2.886-5.598,4.394-10.48,4.394
		c-7.586,0-12.539-4.523-12.539-14.68c0-9.246,4.469-14.648,11.785-14.648c7.41,0,11.742,5.32,11.742,13.84v1.938H661.278z"/>
	<path fill="none" d="M707.879,341.963v-17.637c0-5.082-2.738-7.629-7.055-7.629c-4.285,0-7.117,2.629-7.117,7.629v17.637h-4.195
		v-28.637h4.195v3.141c2.059-2.336,4.887-3.484,8.07-3.484c3.059,0,5.59,0.914,7.305,2.668c2.055,1.969,2.973,4.645,2.973,7.957
		v18.355H707.879"/>
	<path fill="none" d="M730.282,341.963c-4.898,0-7.297-3.421-7.297-7.671v-17.595h-3.637v-3.219h3.637v-8.961h4.141v8.961h6.133
		v3.219h-6.133v17.477c0,2.609,1.227,4.207,3.941,4.207h2.191v3.582H730.282"/>
</g>
</svg>
