<?xml version="1.0" encoding="utf-8"?>
<!-- Generator: Adobe Illustrator 19.0.0, SVG Export Plug-In . SVG Version: 6.00 Build 0)  -->
<svg version="1.1" id="Layer_1" xmlns="http://www.w3.org/2000/svg" xmlns:xlink="http://www.w3.org/1999/xlink" x="0px" y="0px"
	 viewBox="0 0 590.4 108" style="enable-background:new 0 0 590.4 108;" xml:space="preserve">
<path style="fill:#0069AA;" d="M4.3,74.3h4.2l9.9,21.7l10-21.7h3.9V99h-2.7V76.8h-0.1L19.6,99h-2.3L7.1,76.8H7V99H4.3V74.3z"/>
<path style="fill:#0069AA;" d="M53.1,80.5c6.4,0,9.3,4.5,9.3,9.5c0,4.9-2.8,9.5-9.3,9.5s-9.3-4.5-9.3-9.5
	C43.8,85.1,46.7,80.5,53.1,80.5z M53.1,97.5c4.3,0,6.6-3.4,6.6-7.5c0-4.2-2.3-7.5-6.6-7.5c-4.3,0-6.6,3.4-6.6,7.5
	C46.5,94.2,48.8,97.5,53.1,97.5z"/>
<path style="fill:#0069AA;" d="M73.6,85c0-2,0-2.7-0.2-4h2.5v3.5H76c0.9-2,2.6-3.9,5.1-3.9c0.6,0,1.3,0.1,1.7,0.2v2.3
	c-0.5-0.1-1.2-0.2-1.8-0.2c-3.9,0-4.9,4-4.9,7.2V99h-2.5V85z"/>
<path style="fill:#0069AA;" d="M106.6,98.5c-1.7,0.6-3.9,1-5.8,1c-6.6,0-9-4-9-9.5c0-5.5,3.4-9.5,8.4-9.5c5.6,0,7.9,4.1,7.9,9v1.1
	H94.5c0,3.8,2.3,6.9,6.5,6.9c1.8,0,4.4-0.7,5.6-1.3V98.5z M105.4,88.7c0-3.2-1.4-6.3-5.1-6.3c-3.6,0-5.8,3.3-5.8,6.3H105.4z"/>
<path style="fill:#0069AA;" d="M146.2,82.9h-4.5v11.7c0,1.6,0.7,3,2.6,3c0.9,0,1.6-0.2,2.3-0.4l0.2,1.8c-0.6,0.2-1.8,0.5-3,0.5
	c-4.4,0-4.5-2.7-4.5-6V82.9h-3.9V81h3.9v-4.4l2.5-0.8V81h4.5V82.9z"/>
<path style="fill:#0069AA;" d="M158.8,72.5h2.5V84h0.1c1.1-2,3.3-3.5,6.2-3.5c5.3,0,6.8,3.2,6.8,7.7V99h-2.5V88.3
	c0-3.1-0.7-5.8-4.7-5.8c-4.4,0-5.9,3.8-5.9,6.9V99h-2.5V72.5z"/>
<path style="fill:#0069AA;" d="M199.3,96.1L199.3,96.1c-1.2,2.2-3.9,3.3-6.4,3.3c-5.6,0-6.5-3.5-6.5-5.1c0-6.1,7.1-6.3,12.2-6.3h0.5
	v-0.9c0-3.1-1.2-4.6-4.5-4.6c-2.1,0-4,0.4-5.8,1.5v-2.2c1.5-0.7,4.1-1.2,5.8-1.2c4.9,0,7,2,7,6.7v8c0,1.5,0,2.5,0.2,3.8h-2.4V96.1z
	 M199,89.9h-0.7c-4.2,0-9.3,0.4-9.3,4.4c0,2.4,1.9,3.3,4.1,3.3c5.8,0,5.9-4.6,5.9-6.5V89.9z"/>
<path style="fill:#0069AA;" d="M214.7,85.2c0-1.4,0-2.8-0.2-4.3h2.4v3.2h0.1c0.8-1.6,2.3-3.6,6.4-3.6c4.9,0,6.8,3,6.8,6.9V99h-2.5
	V88c0-3.4-1.3-5.6-4.7-5.6c-4.5,0-5.9,3.6-5.9,6.6v10h-2.5V85.2z"/>
<path style="fill:#0069AA;" d="M260.5,96.4c1.5,0.7,3.3,1.1,5.2,1.1c2.3,0,4.4-1.2,4.4-3.2c0-4.3-9.5-3.6-9.5-8.9
	c0-3.6,3.2-4.9,6.5-4.9c1.1,0,3.2,0.2,4.9,0.8l-0.2,1.9c-1.3-0.5-3-0.9-4.4-0.9c-2.5,0-4.3,0.7-4.3,3c0,3.4,9.8,2.9,9.8,8.9
	c0,3.8-3.9,5.1-6.9,5.1c-1.9,0-3.8-0.2-5.6-0.8L260.5,96.4z"/>
<path style="fill:#0069AA;" d="M293.2,82.9h-4.5v11.7c0,1.6,0.7,3,2.6,3c0.9,0,1.6-0.2,2.3-0.4l0.2,1.8c-0.6,0.2-1.8,0.5-3,0.5
	c-4.4,0-4.5-2.7-4.5-6V82.9h-3.9V81h3.9v-4.4l2.5-0.8V81h4.5V82.9z"/>
<path style="fill:#0069AA;" d="M305,85c0-2,0-2.7-0.2-4h2.5v3.5h0.1c0.9-2,2.6-3.9,5.1-3.9c0.6,0,1.3,0.1,1.7,0.2v2.3
	c-0.5-0.1-1.2-0.2-1.8-0.2c-3.9,0-4.9,4-4.9,7.2V99H305V85z"/>
<path style="fill:#0069AA;" d="M336.7,96.1L336.7,96.1c-1.2,2.2-3.9,3.3-6.4,3.3c-5.6,0-6.5-3.5-6.5-5.1c0-6.1,7.1-6.3,12.2-6.3h0.5
	v-0.9c0-3.1-1.2-4.6-4.5-4.6c-2.1,0-4,0.4-5.8,1.5v-2.2c1.5-0.7,4.1-1.2,5.8-1.2c4.9,0,7,2,7,6.7v8c0,1.5,0,2.5,0.2,3.8h-2.4V96.1z
	 M336.5,89.9h-0.7c-4.2,0-9.3,0.4-9.3,4.4c0,2.4,1.9,3.3,4.1,3.3c5.8,0,5.9-4.6,5.9-6.5V89.9z"/>
<path style="fill:#0069AA;" d="M353.9,76.1h-2.5v-3h2.5V76.1z M351.4,81h2.5V99h-2.5V81z"/>
<path style="fill:#0069AA;" d="M383.2,97.5c0,5-2.5,9.1-9.3,9.1c-2.6,0-5-0.7-6-1l0.2-2.2c1.5,0.7,3.7,1.3,5.8,1.3
	c6.3,0,6.9-4.2,6.9-9.3h-0.1c-1.3,2.6-3.5,3.5-6,3.5c-6.3,0-8.4-5-8.4-9c0-5.5,2.3-9.5,8.2-9.5c2.6,0,4.4,0.3,6.2,2.5h0.1V81h2.5
	V97.5z M374.7,97.1c4.4,0,6-3.8,6-7.1c0-4.4-1.4-7.5-5.9-7.5c-4.7,0-5.9,4-5.9,7.5C369,93.5,370.6,97.1,374.7,97.1z"/>
<path style="fill:#0069AA;" d="M395.8,72.5h2.5V84h0.1c1.1-2,3.3-3.5,6.2-3.5c5.3,0,6.8,3.2,6.8,7.7V99h-2.5V88.3
	c0-3.1-0.7-5.8-4.7-5.8c-4.4,0-5.9,3.8-5.9,6.9V99h-2.5V72.5z"/>
<path style="fill:#0069AA;" d="M433.4,82.9h-4.5v11.7c0,1.6,0.7,3,2.7,3c0.9,0,1.6-0.2,2.3-0.4l0.2,1.8c-0.6,0.2-1.8,0.5-3,0.5
	c-4.4,0-4.5-2.7-4.5-6V82.9h-3.9V81h3.9v-4.4l2.5-0.8V81h4.5V82.9z"/>
<path style="fill:#0069AA;" d="M470.5,82.9h-4.5v11.7c0,1.6,0.7,3,2.6,3c0.9,0,1.6-0.2,2.3-0.4L471,99c-0.6,0.2-1.8,0.5-3,0.5
	c-4.4,0-4.5-2.7-4.5-6V82.9h-3.9V81h3.9v-4.4l2.5-0.8V81h4.5V82.9z"/>
<path style="fill:#0069AA;" d="M495.6,98.5c-1.7,0.6-3.9,1-5.8,1c-6.6,0-9-4-9-9.5c0-5.5,3.3-9.5,8.4-9.5c5.6,0,7.9,4.1,7.9,9v1.1
	h-13.6c0,3.8,2.3,6.9,6.5,6.9c1.8,0,4.4-0.7,5.6-1.3V98.5z M494.4,88.7c0-3.2-1.4-6.3-5.1-6.3c-3.6,0-5.8,3.3-5.8,6.3H494.4z"/>
<path style="fill:#0069AA;" d="M522.5,98.5c-1.7,0.6-3.9,1-5.8,1c-6.6,0-9-4-9-9.5c0-5.5,3.3-9.5,8.4-9.5c5.6,0,7.9,4.1,7.9,9v1.1
	h-13.6c0,3.8,2.3,6.9,6.5,6.9c1.8,0,4.4-0.7,5.6-1.3V98.5z M521.3,88.7c0-3.2-1.4-6.3-5.1-6.3c-3.6,0-5.8,3.3-5.8,6.3H521.3z"/>
<path style="fill:#0069AA;" d="M543.8,82.9h-4.5v11.7c0,1.6,0.7,3,2.7,3c0.9,0,1.6-0.2,2.3-0.4l0.2,1.8c-0.6,0.2-1.8,0.5-3,0.5
	c-4.4,0-4.5-2.7-4.5-6V82.9h-3.9V81h3.9v-4.4l2.5-0.8V81h4.5V82.9z"/>
<path style="fill:#0069AA;" d="M556.4,72.5h2.5V84h0.1c1.1-2,3.3-3.5,6.2-3.5c5.3,0,6.8,3.2,6.8,7.7V99h-2.5V88.3
	c0-3.1-0.7-5.8-4.7-5.8c-4.4,0-5.9,3.8-5.9,6.9V99h-2.5V72.5z"/>
<path style="fill:#0069AA;" d="M573.8,73.3h-2.1v-0.7h5.1v0.7h-2.1v5.3h-1V73.3z M578.2,72.6h1.6l1.9,4.6l1.9-4.6h1.6v5.9h-1v-5.2h0
	l-2.2,5.2h-0.7l-2.2-5.2h0v5.2h-1V72.6z"/>
<g>
	<path style="fill:#0069AA;" d="M27.5,16.7h5.6c8.1,0,10.2,5.3,10.2,15.4c0,9.8-1.9,15.3-10.1,15.3h-5.7V16.7z M4.7,62.2h32.4
		c17,0,29.9-7,29.9-29.5C67,8.7,55,3,38.1,3H4.7V62.2z"/>
	<path style="fill:#0069AA;" d="M98.2,15.7h0.2l6.5,19.4H91.6L98.2,15.7z M62.2,62.2h22.7l3.7-12.8h19.2l3.9,12.8h23.9L114.3,3H83
		L62.2,62.2z"/>
	<path style="fill:#0069AA;" d="M137.6,3h33.6l7.7,32.4h0.2L186.8,3h33.5v59.2h-20.4l-0.3-46.5h-0.2l-11.6,46.5h-18.9l-11.3-46.5
		h-0.3L157,62.2h-19.4V3z"/>
	<path style="fill:#0069AA;" d="M247.8,32.6c0-5.5,0.7-16.4,9.1-16.4c8.7,0,9.3,10.9,9.3,16.4c-0.1,6.4-0.3,16.4-9.3,16.4
		C248.7,49,247.8,39,247.8,32.6z M290,32.6C290,12.7,277.6,2,256.9,2C236.2,2,224,12.7,224,32.6c0,20.2,12.1,30.6,32.9,30.6
		C277.6,63.2,290,52.8,290,32.6z"/>
	<path style="fill:#0069AA;" d="M293.3,3h34l11,41.8h0.2V3H358v59.2h-33.4L313,19.3h-0.2v42.9h-19.5V3z"/>
</g>
<path style="fill:#00A4E4;" d="M422.4,3.2h10.4l19.1,49.3L471,3.2h9.7v58h-5.6V9H475l-20.7,52.3h-4.8L428.2,9H428v52.3h-5.6V3.2z"/>
<path style="fill:#00A4E4;" d="M489.4,3.2h6v58h-6V3.2z"/>
<path style="fill:#00A4E4;" d="M503.7,3.2h6.6v53h31.8v5h-38.4V3.2z"/>
<path style="fill:#00A4E4;" d="M547.2,3.2h37.7v5h-31.1v20.7h29.8v5h-29.8v22.3h32.3v5h-38.9V3.2z"/>
<g>
	<path style="fill:#00A4E4;" d="M377,53.7c4.4,2.2,9.5,3.5,16.5,3.5c9.2,0,16.8-3.7,16.8-12.1c0-11.6-34.2-13-34.2-28.4
		c0-9.5,10.5-15.4,23.6-15.4c3.6,0,9.5,0.4,14.7,1.9l-1.2,5.3c-3.3-1.4-8.6-2.2-13.6-2.2c-7.7,0-16.2,2.5-16.2,10.1
		c0,11.8,34.2,11.9,34.2,29.1c0,11.9-12.9,16.6-24.5,16.6c-7.3,0-12.9-1.2-16.9-2.5L377,53.7z"/>
</g>
<path style="fill:#0069AA;" d="M364.5,3.9h-2.1V3.2h5.1v0.7h-2.1v5.3h-1V3.9z M369,3.2h1.6l1.9,4.6l1.9-4.6h1.6v5.9h-1V4h0l-2.2,5.2
	h-0.7L370,4h0v5.2h-1V3.2z"/>
</svg>
