<?xml version="1.0" encoding="utf-8"?>
<!-- Generator: Adobe Illustrator 15.0.0, SVG Export Plug-In . SVG Version: 6.00 Build 0)  -->
<!DOCTYPE svg PUBLIC "-//W3C//DTD SVG 1.1//EN" "http://www.w3.org/Graphics/SVG/1.1/DTD/svg11.dtd">
<svg version="1.1" id="Layer_1" xmlns="http://www.w3.org/2000/svg" xmlns:xlink="http://www.w3.org/1999/xlink" x="0px" y="0px"
	 width="720.008px" height="213.041px" viewBox="0 0 720.008 213.041" enable-background="new 0 0 720.008 213.041"
	 xml:space="preserve">
<g>
	<path fill="#1A497E" d="M66.885,152.996H27.667V30.498h39.219c46.762-0.516,57.537,32.018,57.537,61.244
		C124.422,120.976,113.647,153.502,66.885,152.996 M56.972,0.007H0v183.485h62.522c36.968,0.317,64.893-11.479,80.02-37.095v37.095
		h85.637v-28.361h-57.221v-24.979h57.104v-28.363h-57.104V85.755h57.221V57.398h-77.746C137.987,17.659,102.62-0.408,56.972,0.007"
		/>
</g>
<polygon fill="#1A497E" points="579.305,57.398 549.272,57.398 549.272,183.487 632.065,183.487 632.065,155.024 579.305,155.024 
	"/>
<polygon fill="#1A497E" points="682.842,57.398 656.877,92.07 630.479,57.398 593.651,57.398 641.844,116.862 641.844,183.487 
	671.243,183.487 671.243,116.862 720.008,57.398 "/>
<g>
	<path fill="#1A497E" d="M506.079,102.896h-22.508V85.74h22.508c0,0,11.084-0.318,11.084,8.146
		C517.163,103.007,506.079,102.896,506.079,102.896 M492.188,57.398h-38.939v84.889c-4.197-22.692-28.783-31.69-41.869-35.265
		c-14.334-3.903-12.6-11.287-12.6-11.287s-1.301-7.817,9.566-7.817c11.285,0,9.992,9.122,9.992,9.122h30.398
		c0-33.448-30.834-39.966-44.314-39.966c-6.412,0-14.973,1.977-22.209,6.796V57.51H296.49V85.74h28.658v52.336l-84.992-88.061
		v133.472h28.834v-57.786l84.565,87.342V85.74h14.796c-0.264,1.79-0.42,3.666-0.42,5.653c0,25.625,18.254,35.189,26.938,39.103
		c8.691,3.907,25.621,6.519,25.621,18.243c0,11.73-12.146,12.601-12.146,12.601c-17.809,0-15.059-15.842-15.059-15.842h-30.482
		c0.422,34.224,21.623,42.789,45.672,42.789c21.549,0,41.102-10.209,44.771-31.629v26.829h30.322v-53.118h16.48
		c29.752,0.11,43.111-11.322,43.111-34.198C543.163,64.209,526.319,57.251,492.188,57.398"/>
</g>
</svg>
