<?xml version="1.0" encoding="utf-8"?>
<!-- Generator: Adobe Illustrator 19.0.0, SVG Export Plug-In . SVG Version: 6.00 Build 0)  -->
<svg version="1.1" id="Layer_1" xmlns="http://www.w3.org/2000/svg" xmlns:xlink="http://www.w3.org/1999/xlink" x="0px" y="0px"
	 viewBox="0 0 453.5433 340.15747" enable-background="new 0 0 453.5433 340.15747" xml:space="preserve">
<g id="XMLID_1_">
	<path id="XMLID_85_" fill="#37549C" d="M83.18817,161.49332c14.89491-24.52783,37.47557-40.009,63.93071-51.60999
		c-5.91418-28.3306-0.65363-53.92672,18.34894-75.84679c11.70673-13.50407,26.53854-22.50249,44.12115-25.64738
		c22.07758-3.94888,43.50206-1.73359,62.9532,10.71585c19.3082,12.35796,31.08121,30.12985,36.71432,52.90024
		c19.47385-8.76965,35.79236-20.57452,49.18741-36.46339c0.35867,0.27632,0.71729,0.55264,1.07593,0.82895
		c-1.40665,2.25427-2.67804,4.60732-4.24118,6.74731C341.892,61.44532,324.38907,74.6656,303.97131,84.22057
		c-23.56201,11.02644-48.60884,15.80128-74.34583,17.98499c-21.76413,1.84662-43.29504,5.27295-64.31166,11.44036
		c-1.5648,0.45918-3.06311,1.14503-5.81067,2.18797c3.38568,5.81823,6.03127,11.52061,9.69865,16.46509
		c15.16481,20.44566,36.15114,31.29106,61.12543,30.17386c27.3483-1.22336,48.53027-15.06815,62.09128-39.45004
		c0.80817-1.45303,1.41318-3.01773,2.18613-4.492c1.50665-2.87357,4.13794-4.74297,6.83704-2.79927
		c1.55029,1.1164,2.78784,5.08073,1.98425,6.6348c-3.49429,6.75768-6.97183,13.81855-11.93198,19.47431
		c-25.71027,29.31578-65.12425,37.56647-100.42451,21.09793c-17.1806-8.01524-29.74924-21.0844-38.10867-38.14007
		c-0.73029-1.49002-1.48776-2.96757-2.27563-4.42771c-0.14482-0.26837-0.49728-0.42471-1.17029-0.97032
		c-12.53679,3.87862-24.47162,9.85471-35.3569,17.40993C103.33583,144.32175,93.47004,153.21097,83.18817,161.49332z
		 M299.29764,77.0216c-2.1001-25.05089-23.90353-50.07207-50.21806-58.56614c-27.60004-8.90901-57.57388-0.01875-77.37259,23.66693
		c-15.48289,18.52256-19.86128,39.91811-14.97716,64.05688c2.51315-0.60687,4.2296-1.1003,5.97682-1.43091
		c15.34422-2.90319,30.58792-6.77966,46.06773-8.41721c21.39386-2.26318,42.74998-4.30995,63.46863-10.35851
		C281.43842,83.28818,290.44888,79.97018,299.29764,77.0216z"/>
	<path id="XMLID_82_" fill="#37549C" d="M67.76208,325.12671c0,2.66092,0,4.39777,0,6.92166
		c-2.17689,0.46036-4.34457,1.29141-6.52191,1.31754c-12.16323,0.14581-24.33049,0.23059-36.49307,0.07623
		c-11.66783-0.14801-20.01615-8.69955-20.1405-20.4473c-0.10406-9.83072-0.10635-19.6644,0.00612-29.49496
		c0.12113-10.58749,6.99895-18.90094,17.49967-19.6123c10.42867-0.70645,21.00354-0.69348,31.41471,0.18466
		c10.45164,0.88153,17.17778,10.33405,16.63311,21.42361c-0.50378,10.25723-8.19095,18.54327-18.32698,19.01788
		c-10.31182,0.48282-20.6516,0.36002-30.97858,0.53497c-1.96238,0.03326-3.92219,0.21848-5.71619,0.32376
		c-3.84212,11.45529,1.57337,19.42468,12.28152,18.77634c10.79158-0.65338,21.6552-0.18613,32.48581-0.0723
		C62.3158,324.10184,64.71979,324.70236,67.76208,325.12671z M14.25998,295.55533c13.20905,0,25.64931,0.35883,38.05219-0.16577
		c5.42933-0.22968,9.25632-6.3692,8.91927-12.11154c-0.34716-5.91434-4.93797-10.56195-11.11363-10.70413
		c-8.47894-0.19525-16.96778-0.16098-25.44839-0.0065c-4.96349,0.09036-9.78493,3.54974-10.28594,7.88577
		C13.83914,285.16397,14.25998,289.98633,14.25998,295.55533z"/>
	<path id="XMLID_79_" fill="#37549C" d="M392.19125,304.98721c0,3.31128-0.14044,5.79547,0.02716,8.2587
		c0.44733,6.57492,4.71536,10.69702,11.35242,10.74933c11.65042,0.09183,23.30228-0.01111,34.95346,0.00681
		c1.65408,0.00256,3.58786-0.26608,4.88846,0.47495c1.50851,0.85953,3.52075,2.80222,3.39157,4.08038
		c-0.16876,1.67044-2.0462,3.3598-3.5426,4.62088c-0.71292,0.60083-2.24393,0.29178-3.40433,0.29147
		c-11.81772-0.00287-23.6362,0.05359-35.45288-0.06702c-12.71246-0.12976-20.87634-8.40579-20.90561-21.02521
		c-0.02283-9.82031-0.06982-19.64148,0.02643-29.46097c0.09787-9.98352,7.00986-18.22778,16.9151-18.9458
		c9.92917-0.71976,19.97391-0.87888,29.90509-0.26532c11.36914,0.70236,18.82516,9.58612,18.66687,20.77924
		c-0.15305,10.82303-7.83383,19.58148-18.84747,20.17154c-10.61206,0.56863-21.2818,0.04834-31.92621,0.03949
		C396.46524,304.69421,394.69171,304.86139,392.19125,304.98721z M392.45847,295.57858c12.71948,0,24.66132,0.2348,36.58789-0.09012
		c6.89328-0.18777,10.67343-4.9169,10.52182-11.90445c-0.13538-6.23703-4.61066-10.85089-11.14703-10.99872
		c-8.31143-0.18802-16.63211-0.16779-24.94501-0.02142c-5.68719,0.10007-10.17157,3.60626-10.90009,9.0538
		C391.99371,285.9722,392.45847,290.46674,392.45847,295.57858z"/>
	<path id="XMLID_76_" fill="#37549C" d="M211.00877,299.35501c0,4.99451,0.00211,9.98895-0.00047,14.98346
		c-0.00485,9.40897-4.95265,16.76044-14.20885,17.56396c-12.8606,1.11639-25.92496,1.27365-38.80019,0.37759
		c-9.66212-0.67242-15.34662-8.63379-15.39745-18.42786c-0.05183-9.98874-0.08723-19.97876,0.01198-29.96683
		c0.11833-11.91025,8.27498-19.95825,20.25757-19.99908c9.65556-0.03287,19.31328,0.01675,28.96721,0.18842
		c11.36263,0.20203,19.01251,7.98465,19.11937,19.29813c0.05032,5.32693,0.00862,10.65479,0.00862,15.98221
		C210.98064,299.35501,210.99471,299.35501,211.00877,299.35501z M203.77161,298.72092c-0.00723,0-0.01445-0.00003-0.02168-0.00003
		c0-4.49161,0.04535-8.98373-0.00974-13.47464c-0.10564-8.61453-4.34045-12.93591-12.86488-12.98108
		c-8.81635-0.04672-17.63382,0.02652-26.45024,0.10745c-9.03188,0.08286-13.22379,4.39484-13.26016,13.61362
		c-0.03481,8.8168-0.03505,17.63388-0.00948,26.45068c0.02292,7.89661,3.53955,11.58438,11.50098,11.81522
		c9.4738,0.27469,18.95216,0.4364,28.42969,0.52368c8.21893,0.07571,12.59331-4.32401,12.67735-12.58008
		C203.80917,307.70459,203.77161,303.21255,203.77161,298.72092z"/>
	<path id="XMLID_75_" fill="#37549C" d="M368.54724,263.82471c3.24933,5.69043,1.88998,8.55725-3.54196,8.61816
		c-11.81494,0.13251-23.63275-0.00626-35.44931,0.01141c-9.7576,0.01459-13.6051,3.81494-13.68005,13.58081
		c-0.06259,8.15454-0.04739,16.31049,0.01929,24.46509c0.08264,10.10904,3.71249,13.65671,13.98672,13.6698
		c10.81793,0.01382,21.63611-0.08557,32.45389-0.05795c1.80603,0.00461,3.80475,0.0014,5.35583,0.74738
		c1.2645,0.60806,2.8038,2.36441,2.75415,3.55014c-0.06204,1.48132-1.32755,3.35303-2.6301,4.21405
		c-1.23093,0.81369-3.18228,0.70767-4.81754,0.71207c-11.31717,0.03046-22.63467,0.01505-33.95175-0.04578
		c-13.74292-0.07385-22.09598-8.59558-21.93802-22.26978c0.09985-8.64542,0.1741-17.2912,0.23071-25.93704
		c0.08798-13.43292,7.59973-21.14569,20.93735-21.23785C341.72903,263.7522,355.18274,263.82471,368.54724,263.82471z"/>
	<path id="XMLID_74_" fill="#37549C" d="M228.32091,332.70605c-0.78726-1.90366-2.23285-3.79883-2.25742-5.71225
		c-0.19241-14.99075-0.27124-29.98718-0.05711-44.97723c0.12953-9.06842,8.63792-17.48883,17.84627-17.75674
		c10.48793-0.30511,20.99144-0.35928,31.48256-0.18539c9.94196,0.1647,18.31882,8.1394,18.53873,18.05853
		c0.33597,15.15234,0.23871,30.31985-0.06085,45.4733c-0.03601,1.82159-2.24631,4.84122-3.8461,5.13388
		c-3.38647,0.61951-4.25064-2.39337-4.25421-5.31018c-0.01694-13.82715,0.01746-27.65433-0.00513-41.48145
		c-0.01572-9.62961-3.96445-13.57343-13.71164-13.67493c-8.82861-0.09195-17.65829-0.16058-26.48715-0.13257
		c-8.53583,0.0271-12.59004,3.92215-12.6824,12.52676c-0.14836,13.82559,0.01715,27.65463-0.14183,41.47995
		c-0.02466,2.14041-1.06956,4.26904-1.64265,6.40311C230.13495,332.6026,229.22792,332.65433,228.32091,332.70605z"/>
	<path id="XMLID_73_" fill="#37549C" d="M91.29773,276.19577c0,11.49203-0.06258,22.98456,0.022,34.47601
		c0.05637,7.65805,3.4711,11.35742,10.85525,13.34808c1.85734,0.50073,3.17096,3.01843,4.73447,4.60919
		c-1.83575,1.29172-3.60961,3.58624-5.5178,3.70404c-8.97055,0.55359-18.52924-8.43011-18.63421-17.95581
		c-0.27345-24.81335-0.1034-49.63177-0.07309-74.44807c0.00362-2.96262,1.07384-5.45158,4.50615-5.38519
		c3.58153,0.06921,4.06856,2.78749,4.0666,5.67606c-0.00813,11.99187-0.00341,23.98378-0.00341,35.97566
		C91.26837,276.19574,91.28304,276.19574,91.29773,276.19577z"/>
	<path id="XMLID_72_" fill="#37549C" d="M127.31086,332.07217c-1.40551,0.12949-3.60635,1.00439-4.86139,0.26776
		c-1.38612-0.81351-2.66972-3.09689-2.68547-4.75256c-0.18548-19.49536-0.23335-38.99463,0.05552-58.48737
		c0.02622-1.76978,2.63438-3.50131,4.04351-5.25058c1.46154,1.44427,4.17927,2.87469,4.19535,4.33484
		c0.22554,20.4895,0.08583,40.98303,0.01062,61.47552C128.06726,330.13297,127.78349,330.60507,127.31086,332.07217z"/>
</g>
</svg>
