<?xml version="1.0" encoding="utf-8"?>
<!-- Generator: Adobe Illustrator 19.0.0, SVG Export Plug-In . SVG Version: 6.00 Build 0)  -->
<svg version="1.1" id="Layer_1" xmlns="http://www.w3.org/2000/svg" xmlns:xlink="http://www.w3.org/1999/xlink" x="0px" y="0px"
	 viewBox="0 0 187 53" style="enable-background:new 0 0 187 53;" xml:space="preserve">
<path id="XMLID_67_" style="fill:#86754D;" d="M3.1,19.1c0-8.8,7.1-15.9,15.9-15.9c8.8,0,15.9,7.1,15.9,15.9
	c0,8.8-7.1,15.9-15.9,15.9C10.3,34.9,3.1,27.8,3.1,19.1 M2.3,19.1c0,9.2,7.5,16.7,16.7,16.7c9.2,0,16.7-7.5,16.7-16.7
	c0-9.2-7.5-16.7-16.7-16.7C9.8,2.4,2.3,9.9,2.3,19.1"/>
<path id="XMLID_64_" style="fill:#86754D;" d="M19,8.5c2.5,0,4.5,1.9,4.6,4.4h-9.2C14.5,10.4,16.5,8.5,19,8.5 M13.5,13.1l0,0.1
	l0,0.4l0.4,0h10.5l0-0.5c0-3-2.5-5.5-5.5-5.5C16,7.7,13.5,10.1,13.5,13.1"/>
<path id="XMLID_61_" style="fill:#86754D;" d="M10.4,20c-0.6-0.7-0.6-1.6-0.6-1.6c0-0.9,0.2-1.5,0.7-2c0.7-0.7,1.7-0.7,1.7-0.7h13.6
	c0,0,1,0,1.7,0.7c0.5,0.5,0.7,1.1,0.7,2c0,0,0,1-0.6,1.6c-0.4,0.4-1.1,0.7-1.9,0.7h-1.9v4.2l0.4,0c0.2,0,2.2,0.2,2.2,2.4
	c0,0,0,1.1-0.6,1.8c-0.4,0.4-0.9,0.6-1.6,0.6H13.8c-0.7,0-1.2-0.2-1.6-0.6c-0.6-0.7-0.6-1.7-0.6-1.8c0-2.3,2-2.4,2.2-2.4l0.4,0v-0.4
	v-3.8h-1.9C11.5,20.7,10.9,20.5,10.4,20 M9.9,15.9C9.3,16.5,9,17.3,9,18.4c0,0,0,1.3,0.9,2.2c0.6,0.6,1.4,0.9,2.5,0.9h1v2.6
	c-1.1,0.2-2.6,1-2.6,3.2c0,0,0,0,0,0.1c0,0.3,0.1,1.4,0.8,2.3c0.5,0.6,1.3,0.8,2.2,0.8h10.4c0.9,0,1.6-0.3,2.2-0.8
	c0.8-0.8,0.8-2,0.8-2.3c0,0,0-0.1,0-0.1c0-2.2-1.5-3-2.6-3.2v-2.6h1c1.1,0,1.9-0.3,2.5-0.9c0.8-0.8,0.9-2,0.9-2.2c0,0,0,0,0,0
	c0-1.1-0.3-1.9-0.9-2.5c-0.9-0.9-2.3-0.9-2.3-0.9H12.2C12.2,15,10.9,14.9,9.9,15.9"/>
<path id="XMLID_47_" style="fill:#86754D;" d="M44.4,30.6h3.8V9.1h-3.8V30.6z M64.3,15.6c-1.2-0.7-2.8-1-4.8-1
	c-2.5,0-4.6,0.9-6.1,2.7h-0.1V15h-3.2v15.7h3.4v-8.5c0-1.9,0.6-3.3,1.9-4.2c1-0.7,2.1-1,3.4-1c1.6,0,2.8,0.3,3.4,1
	c0.6,0.6,0.9,1.7,0.9,3.1v9.6h3.4V20C66.6,17.9,65.8,16.5,64.3,15.6 M83.8,16.3c-1.4-1.2-3.3-1.8-5.7-1.8c-3.2,0-5.7,0.8-7.4,2.5
	c-1.6,1.5-2.4,3.6-2.4,6.2c0,2.3,0.8,4.2,2.4,5.6c1.7,1.5,3.9,2.2,6.7,2.2c2.7,0,4.8-0.7,6.3-2.1c1.1-1.1,1.8-2.4,2-3.9h-3.3
	c-0.3,1.2-0.9,2.1-1.8,2.7c-0.9,0.6-1.9,1-3.1,1c-3.7,0-5.6-2-5.6-6c0-1.6,0.4-2.9,1.2-4c1-1.3,2.4-1.9,4.4-1.9
	c2.8,0,4.4,1.1,4.8,3.3h3.3C85.5,18.7,84.9,17.4,83.8,16.3 M89.3,28.4c1.7,1.7,4.1,2.6,7.2,2.6c3.1,0,5.5-0.9,7.2-2.6
	c1.5-1.5,2.3-3.4,2.3-5.7c0-2.2-0.8-4.1-2.3-5.7c-1.7-1.7-4.1-2.6-7.2-2.6c-3,0-5.4,0.9-7.2,2.6c-1.5,1.5-2.3,3.4-2.3,5.7
	C87,25,87.8,26.9,89.3,28.4 M91.7,19c1-1.5,2.6-2.2,4.8-2.2c2.2,0,3.8,0.7,4.8,2.2c0.7,1.1,1.1,2.3,1.1,3.8c0,1.5-0.4,2.7-1.1,3.8
	c-1,1.5-2.7,2.2-4.8,2.2c-2.2,0-3.8-0.7-4.8-2.2c-0.7-1.1-1.1-2.3-1.1-3.8C90.6,21.3,90.9,20.1,91.7,19 M116.7,16.9
	c3.7,0,5.5,2.2,5.5,6.6c0,1.9-0.7,3.2-2,4.2c-1,0.7-2.2,1.1-3.6,1.1c-1.8,0-3.2-0.6-4.2-1.7c-0.9-1.1-1.3-2.5-1.3-4.3
	C111.1,18.8,113,16.9,116.7,16.9 M122.2,15v2.2h-0.1c-1.6-1.8-3.6-2.7-6.1-2.7c-2.6,0-4.7,0.7-6.3,2.2c-1.5,1.4-2.2,3.3-2.2,5.6
	s0.6,4.2,1.9,5.8c1.6,2,3.9,3,7.1,3c2.5,0,4.3-0.7,5.4-2.1v-0.1h0.1v0.7c0,1.6-0.2,2.7-0.7,3.4c-0.9,1.4-2.6,2.1-5.1,2.1
	c-2.7,0-4.2-0.8-4.6-2.5h-3.4c0.5,3.1,3.1,4.7,7.8,4.7c4.1,0,6.8-1,8.3-3.1c0.8-1.1,1.2-2.7,1.2-4.8V15H122.2z M141.5,15.6
	c-1.2-0.7-2.8-1-4.8-1c-2.5,0-4.6,0.9-6.1,2.7h-0.1V15h-3.2v15.7h3.4v-8.5c0-1.9,0.6-3.3,1.9-4.2c1-0.7,2.1-1,3.4-1
	c1.6,0,2.8,0.3,3.4,1c0.6,0.6,0.9,1.7,0.9,3.1v9.6h3.4V20C143.9,17.9,143.1,16.5,141.5,15.6 M145.8,30.6h3.4V15h-3.4V30.6z
	 M149.2,9.1h-3.4v3h3.4V9.1z M159.6,15h-3.3v-4.4h-3.4V15h-2.8v2.2h2.8v10.3c0,1.1,0.3,1.9,0.8,2.4c0.7,0.6,1.8,1,3.3,1
	c-0.2,0,0.6-0.1,2.6-0.2v-2.1h-1.2c-1.4,0-2.1-0.4-2.1-1.2V17.1h3.3V15z M162.2,28.4c1.7,1.7,4.1,2.6,7.2,2.6c3.1,0,5.4-0.9,7.2-2.6
	c1.5-1.5,2.3-3.4,2.3-5.7c0-2.2-0.8-4.1-2.3-5.7c-1.7-1.7-4.1-2.6-7.2-2.6c-3,0-5.4,0.9-7.2,2.6c-1.5,1.5-2.3,3.4-2.3,5.7
	C159.9,25,160.7,26.9,162.2,28.4 M164.6,19c1-1.5,2.6-2.2,4.8-2.2c2.2,0,3.8,0.7,4.8,2.2c0.7,1.1,1.1,2.3,1.1,3.8
	c0,1.5-0.4,2.7-1.1,3.8c-1,1.5-2.6,2.2-4.8,2.2c-2.2,0-3.8-0.7-4.8-2.2c-0.7-1.1-1.1-2.3-1.1-3.8C163.5,21.3,163.8,20.1,164.6,19"/>
<path id="XMLID_44_" style="fill:#86754D;" d="M181.5,12.9V9.7l1.1,3.3h0.5l1.1-3.2v3.2h0.5V9.1H184l-0.9,2.7
	c-0.1,0.3-0.2,0.5-0.2,0.6c0-0.1-0.1-0.3-0.2-0.6l-0.9-2.7H181v3.8H181.5z M179.3,12.9V9.6h1.3V9.1h-3v0.5h1.3v3.4H179.3z"/>
<path id="XMLID_41_" style="fill:#A39161;" d="M118.5,42.1h1.1l1.8,6.8h-0.9l-0.5-1.9h-2.2l-0.5,1.9h-0.9L118.5,42.1z M118.1,46.4
	h1.8l-0.9-3.3h0L118.1,46.4z"/>
<path id="XMLID_38_" style="fill:#A39161;" d="M121.9,43.8h0.8v0.6h0c0.1-0.4,0.6-0.8,1.1-0.8c1.2,0,1.7,1.1,1.7,2.6
	c0,1.2-0.3,2.8-1.7,2.8c-0.5,0-0.9-0.3-1.1-0.7h0v2.3h-0.8V43.8z M123.7,48.4c0.7,0,0.9-0.8,0.9-2.1c0-1.1-0.2-1.9-0.9-1.9
	c-0.9,0-1,0.8-1,2C122.7,47.4,122.9,48.4,123.7,48.4"/>
<path id="XMLID_35_" style="fill:#A39161;" d="M126.3,43.8h0.8v0.6h0c0.1-0.4,0.6-0.8,1.1-0.8c1.2,0,1.7,1.1,1.7,2.6
	c0,1.2-0.3,2.8-1.7,2.8c-0.5,0-0.9-0.3-1.1-0.7h0v2.3h-0.8V43.8z M128.1,48.4c0.7,0,0.9-0.8,0.9-2.1c0-1.1-0.2-1.9-0.9-1.9
	c-0.9,0-1,0.8-1,2C127,47.4,127.2,48.4,128.1,48.4"/>
<rect id="XMLID_34_" x="130.7" y="42.1" style="fill:#A39161;" width="0.8" height="6.8"/>
<path id="XMLID_31_" style="fill:#A39161;" d="M132.5,42.1h0.8V43h-0.8V42.1z M132.5,43.8h0.8v5.1h-0.8V43.8z"/>
<path id="XMLID_28_" style="fill:#A39161;" d="M134.2,45.4c0-1.2,0.5-1.7,1.7-1.7c1.6,0,1.6,0.9,1.6,1.5V48c0,0.2,0,0.4,0.3,0.4
	c0.1,0,0.2,0,0.2,0V49c-0.1,0-0.3,0-0.5,0c-0.3,0-0.7,0-0.7-0.7h0c-0.3,0.5-0.8,0.7-1.2,0.7c-1,0-1.4-0.6-1.4-1.5
	c0-0.7,0.3-1.2,1-1.4l1.1-0.3c0.6-0.2,0.6-0.3,0.6-0.8c0-0.5-0.3-0.8-0.8-0.8c-0.9,0-0.9,0.8-0.9,1v0H134.2z M136.7,46.1
	c-0.3,0.3-1,0.4-1.4,0.6c-0.3,0.2-0.4,0.4-0.4,0.8c0,0.5,0.2,0.9,0.7,0.9c0.5,0,1-0.5,1-1V46.1z"/>
<path id="XMLID_27_" style="fill:#A39161;" d="M138.5,43.8h0.8v0.6h0c0.2-0.5,0.7-0.7,1.2-0.7c1.4,0,1.4,1,1.4,1.6v3.6h-0.8v-3.5
	c0-0.4,0-1-0.8-1c-0.4,0-1,0.3-1,1v3.5h-0.8V43.8z"/>
<path id="XMLID_26_" style="fill:#A39161;" d="M145.3,45.4c0-0.5-0.2-1.1-0.8-1.1c-0.5,0-1,0.2-1,2.1c0,0.7,0,2,1,2
	c0.7,0,0.8-0.7,0.8-1.3h0.8c0,0.8-0.4,1.9-1.7,1.9c-1.3,0-1.8-0.9-1.8-2.6c0-1.3,0.3-2.8,1.8-2.8c1.4,0,1.6,1.1,1.6,1.7H145.3z"/>
<path id="XMLID_23_" style="fill:#A39161;" d="M147.5,46.5c0,0.8,0,2,1,2c0.8,0,0.9-0.8,0.9-1.2h0.8c0,0.5-0.3,1.8-1.7,1.8
	c-1.3,0-1.8-0.9-1.8-2.6c0-1.3,0.2-2.8,1.8-2.8c1.6,0,1.7,1.4,1.7,2.5v0.3H147.5z M149.4,45.8v-0.3c0-0.6-0.2-1.3-0.9-1.3
	c-0.8,0-0.9,1-0.9,1.3v0.2H149.4z"/>
<path id="XMLID_22_" style="fill:#A39161;" d="M156.2,43.9c0-0.7-0.3-1.2-1.1-1.2c-0.7,0-1.1,0.4-1.1,1.1c0,1.9,3.2,0.8,3.2,3.3
	c0,1.6-1.2,2-2.1,2c-1.6,0-2.1-0.8-2.1-2.3h0.8c0,0.8,0,1.6,1.3,1.6c0.7,0,1.2-0.5,1.2-1.2c0-1.9-3.2-0.8-3.2-3.3
	c0-0.6,0.3-1.9,2-1.9c1.3,0,1.9,0.7,1.9,1.9H156.2z"/>
<path id="XMLID_21_" style="fill:#A39161;" d="M157.5,43.8h0.9l1,4.1h0l0.9-4.1h0.9l-1.5,5.5c-0.2,0.7-0.4,1.3-1.4,1.3
	c-0.3,0-0.5,0-0.6,0V50c0.1,0,0.3,0,0.5,0c0.4,0,0.5-0.2,0.6-0.5l0.2-0.5L157.5,43.8z"/>
<path id="XMLID_20_" style="fill:#A39161;" d="M163.9,45.3c0-0.7-0.2-1-0.8-1c-0.3,0-0.8,0.1-0.8,0.8c0,0.6,0.6,0.7,1.3,0.9
	c0.6,0.2,1.3,0.4,1.3,1.4c0,1.1-0.7,1.6-1.7,1.6c-1.7,0-1.8-1.3-1.8-1.8h0.8c0,0.6,0.2,1.2,1,1.2c0.3,0,0.9-0.1,0.9-0.9
	c0-0.7-0.6-0.8-1.3-1c-0.6-0.2-1.3-0.4-1.3-1.5c0-1,0.7-1.4,1.6-1.4c1.5,0,1.6,1,1.6,1.6H163.9z"/>
<path id="XMLID_19_" style="fill:#A39161;" d="M165.8,42.3h0.8v1.5h0.9v0.6h-0.9v3.3c0,0.4,0.1,0.6,0.5,0.6c0.2,0,0.3,0,0.4,0v0.7
	c-0.1,0-0.3,0.1-0.7,0.1c-0.8,0-1-0.3-1-1v-3.5H165v-0.6h0.7V42.3z"/>
<path id="XMLID_16_" style="fill:#A39161;" d="M168.6,46.5c0,0.8,0,2,1,2c0.8,0,0.9-0.8,0.9-1.2h0.8c0,0.5-0.3,1.8-1.7,1.8
	c-1.3,0-1.8-0.9-1.8-2.6c0-1.3,0.2-2.8,1.8-2.8c1.6,0,1.7,1.4,1.7,2.5v0.3H168.6z M170.4,45.8v-0.3c0-0.6-0.2-1.3-0.9-1.3
	c-0.8,0-0.9,1-0.9,1.3v0.2H170.4z"/>
<path id="XMLID_15_" style="fill:#A39161;" d="M172.2,43.8h0.8v0.6h0c0.2-0.5,0.7-0.7,1.2-0.7c0.6,0,0.9,0.2,1.1,0.8
	c0.2-0.5,0.7-0.8,1.2-0.8c1.4,0,1.4,1,1.4,1.6v3.6h-0.8v-3.5c0-0.4,0-1-0.7-1c-0.4,0-1,0.2-1,1v3.5h-0.8v-3.5c0-0.4,0-1-0.7-1
	c-0.4,0-1,0.2-1,1v3.5h-0.8V43.8z"/>
</svg>
