<?xml version="1.0" encoding="utf-8"?>
<!-- Generator: Adobe Illustrator 15.0.0, SVG Export Plug-In . SVG Version: 6.00 Build 0)  -->
<!DOCTYPE svg PUBLIC "-//W3C//DTD SVG 1.1//EN" "http://www.w3.org/Graphics/SVG/1.1/DTD/svg11.dtd">
<svg version="1.1" id="Layer_1" xmlns="http://www.w3.org/2000/svg" xmlns:xlink="http://www.w3.org/1999/xlink" x="0px" y="0px"
	 width="310.5px" height="105.5px" viewBox="0 0 310.5 105.5" enable-background="new 0 0 310.5 105.5" xml:space="preserve">
<g>
	<polygon fill="#B1B3B6" points="212.037,89.465 213.646,89.465 213.646,88.08 208.916,88.08 208.916,89.465 210.443,89.465 
		210.443,94.053 212.037,94.053 212.037,89.465 	"/>
	<polygon fill="#B1B3B6" points="215.568,89.473 215.617,89.473 217.146,94.053 218.523,94.053 220.037,89.473 220.092,89.473 
		219.934,94.053 221.525,94.053 221.525,88.08 218.938,88.08 217.855,91.83 217.799,91.83 216.66,88.08 214.135,88.08 
		214.135,94.053 215.729,94.053 215.568,89.473 	"/>
	<g>
		<path fill-rule="evenodd" clip-rule="evenodd" fill="#B1B3B6" d="M10.003,70.303v-1.15c0-2.682,1.341-4.342,8.239-4.342h8.048
			c4.506,0,7.65,0.228,9.612,1.328c-1.745-1.903-5.235-2.246-10.785-2.246h-8.047c-6.898,0-8.239,1.662-8.239,4.344v1.15H4.51v0.916
			H10.003z"/>
		<path fill-rule="evenodd" clip-rule="evenodd" fill="#B1B3B6" d="M35.959,75.153c0.427,0.43,0.807,0.931,1.165,1.515h0.128V76.2
			C36.867,75.792,36.441,75.446,35.959,75.153z"/>
		<path fill-rule="evenodd" clip-rule="evenodd" fill="#B1B3B6" d="M39.987,62.811c1.773,1.691,2.758,4.189,2.758,7.854v21.844
			h-4.32v0.916h5.493V71.58C43.917,67.179,42.488,64.47,39.987,62.811z"/>
		<path fill-rule="evenodd" clip-rule="evenodd" fill="#B1B3B6" d="M9.377,87.571c-0.652-0.808-0.843-1.89-0.843-3.282v-1.021
			c0-4.088,1.98-5.109,9.069-5.109h8.431c4.931,0,8.322,0.204,10.296,1.262c-1.608-1.868-5.358-2.178-11.469-2.178H16.43
			c-7.089,0-9.069,1.021-9.069,5.109v1.021C7.361,85.385,7.757,86.75,9.377,87.571z"/>
		<path fill-rule="evenodd" clip-rule="evenodd" fill="#B1B3B6" d="M37.252,89.25h-0.128c-1.469,2.938-3.193,3.768-11.624,3.768
			H12.343c-3.122,0-5.377-0.516-6.976-1.483c1.598,1.552,4.161,2.399,8.148,2.399h13.157c6.628,0,9.106-0.519,10.579-2.165V89.25z"
			/>
	</g>
	<polygon fill="#B1B3B6" points="52.378,48.125 52.378,92.508 48.058,92.508 48.058,93.424 53.55,93.424 53.55,48.125 	"/>
	<g>
		<path fill-rule="evenodd" clip-rule="evenodd" fill="#B1B3B6" d="M74.247,98.391c-0.732-0.784-1.153-1.805-1.153-3.115v-0.895
			h-1.171C71.929,96.269,72.815,97.549,74.247,98.391z"/>
		<path fill-rule="evenodd" clip-rule="evenodd" fill="#B1B3B6" d="M92.167,63.893H80.991c-5.621,0-9.645,1.533-9.708,6.898v6.004
			c-0.039,4.559,0.952,7.186,3.247,8.546c-1.463-1.513-2.106-3.938-2.074-7.63v-6.004c0.063-5.365,4.087-6.896,9.708-6.896H93.34
			c2.764,0,4.806,0.506,6.298,1.423C98.119,64.735,95.744,63.893,92.167,63.893z"/>
		<path fill-rule="evenodd" clip-rule="evenodd" fill="#B1B3B6" d="M90.762,91.039H79.458c-3.72,0-6.664-0.786-8.862-2.269
			c2.273,2.08,5.609,3.185,10.035,3.185h11.305c5.872,0,8.553-1.165,10.004-3.088v-2.875h-0.127
			C100.662,89.059,98.427,91.039,90.762,91.039z"/>
		<path fill-rule="evenodd" clip-rule="evenodd" fill="#B1B3B6" d="M107.433,60.85v31.594c0,9.836-8.623,11.816-15.457,11.816
			H79.585c-3.987,0-6.804-0.875-8.77-2.181c1.951,1.802,5.081,3.097,9.942,3.097h12.391c6.833,0,15.456-1.98,15.456-11.816V60.85
			H107.433z"/>
		<path fill-rule="evenodd" clip-rule="evenodd" fill="#B1B3B6" d="M102.195,65.746h0.127v-1.36
			c-0.684-1.106-1.52-1.931-2.464-2.528C100.834,62.785,101.641,64.043,102.195,65.746z"/>
	</g>
	<g>
		<path fill="#B1B3B6" d="M134.45,63.893h-1.405c-12.838,0-15.776,2.428-15.776,10.092v18.523h-4.32v0.916h5.493V74.9
			c0-7.664,2.938-10.09,15.776-10.09h1.405c4.596,0,7.454,0.584,9.226,1.629C143.28,64.824,140.25,63.893,134.45,63.893z"/>
		<path fill="#B1B3B6" d="M116.886,65.555h0.128c0.298-0.736,0.65-1.38,1.045-1.957V60.85h-1.173V65.555z"/>
		<path fill="#B1B3B6" d="M148.91,62.635c2.188,2.038,3.041,4.845,3.041,7.838v22.035h-4.32v0.916h5.493V71.389
			C153.124,67.913,151.968,64.693,148.91,62.635z"/>
	</g>
	<g>
		<path fill-rule="evenodd" clip-rule="evenodd" fill="#B1B3B6" d="M172.76,64.811h8.047c4.154,0,6.903,0.722,8.67,1.821
			c-1.61-1.604-4.621-2.739-9.842-2.739h-8.049c-8.686,0-10.729,1.406-11.24,8.814h1.254
			C162.224,66.11,164.451,64.811,172.76,64.811z"/>
		<path fill-rule="evenodd" clip-rule="evenodd" fill="#B1B3B6" d="M180.145,93.018h-9.963c-3.678,0-7.623-0.358-10.592-2.335
			c3.044,2.788,7.578,3.251,11.766,3.251h9.963c10.219,0,16.414-2.234,16.414-9.707v-0.639h-1.187
			C196.388,90.831,190.233,93.018,180.145,93.018z"/>
		<path fill-rule="evenodd" clip-rule="evenodd" fill="#B1B3B6" d="M192.865,62.982c2.343,2.146,3.695,5.479,3.695,10.555v3.641
			h-36.215v2.045c0,3.85,0.979,6.207,3.251,7.593c-1.438-1.438-2.077-3.57-2.077-6.677v-2.045h36.213v-3.641
			C197.732,68.585,195.921,65.05,192.865,62.982z"/>
	</g>
	<g>
		<path fill="#B1B3B6" d="M205.324,64.66h0.127c0.303-0.625,0.657-1.172,1.045-1.663V60.85h-1.172V64.66z"/>
		<path fill="#B1B3B6" d="M231.517,62.317c1.947,1.833,2.739,4.58,2.739,8.411v3.895h-3.936v0.916h5.109v-3.895
			C235.43,67.115,234.336,64.091,231.517,62.317z"/>
		<path fill="#B1B3B6" d="M217.715,63.893h-3.387c-5.811,0-8.621,3.705-8.621,7.922v20.693h-4.32v0.916h5.492V72.73
			c0-4.217,2.811-7.92,8.623-7.92h3.385c4.24,0,6.95,0.243,8.663,1.172C226.012,64.288,223.099,63.893,217.715,63.893z"/>
	</g>
	<g>
		<polygon fill="#B1B3B6" points="159.051,29.222 159.981,27.131 158.133,4.131 157.034,4.131 		"/>
		<polygon fill="#B1B3B6" points="188.041,39.487 189.377,39.487 195.701,4.131 194.363,4.131 		"/>
		<polygon fill="#B1B3B6" points="107.001,30.267 107.14,28.143 98.971,4.131 98.11,4.131 		"/>
		<polygon fill="#B1B3B6" points="280.818,30.267 281.673,27.571 279.604,4.131 278.511,4.131 		"/>
		<polygon fill="#B1B3B6" points="215.635,30.82 217.247,30.82 224.622,15.4 224.547,12.191 		"/>
		<polygon fill="#B1B3B6" points="241.814,39.487 242.866,39.487 238.145,4.131 237.093,4.131 		"/>
		<polygon fill="#B1B3B6" points="124.347,4.131 121.834,47.113 104.35,47.113 104.673,48.029 123.007,48.029 125.574,4.131 		"/>
		<polygon fill="#B1B3B6" points="93.941,20 92.176,47.113 77.765,47.113 77.711,48.029 93.349,48.029 94.981,22.95 		"/>
		<polygon fill="#B1B3B6" points="270.346,20 261.75,47.113 226.211,47.113 226.211,48.029 262.922,48.029 270.698,23.5 		"/>
		<polygon fill="#B1B3B6" points="304.749,4.131 291.408,47.113 274.154,47.113 274.246,48.029 292.58,48.029 306.207,4.131 		"/>
		<polygon fill="#B1B3B6" points="225.043,39.427 211.74,39.427 208.322,47.113 172.375,47.113 172.211,48.029 209.494,48.029 
			212.914,40.344 225.043,40.344 		"/>
		<polygon fill="#B1B3B6" points="176.889,14.405 161.963,47.113 151.006,47.113 151.091,48.029 163.135,48.029 175.864,20.134 		
			"/>
		<polygon fill="#B1B3B6" points="146.87,14.405 140.841,47.113 126.54,47.113 126.376,48.029 142.014,48.029 147.321,19.239 		"/>
	</g>
	<path fill-rule="evenodd" clip-rule="evenodd" fill="#F0A617" d="M36.384,91.697h5.493V69.854c0-9.707-6.898-11.24-17.117-11.24
		h-8.686c-9.836,0-13.604,2.426-13.604,8.367v1.596h5.493v-1.148c0-2.684,1.341-4.344,8.239-4.344h8.047
		c8.431,0,12.136,0.766,12.136,6.643v6.131h-0.128c-1.916-3.129-4.471-3.896-11.624-3.896h-8.814C6.237,71.961,1,72.855,1,80.266
		v2.172c0,6.131,2.171,9.771,10.475,9.771h13.157c8.431,0,10.155-0.83,11.624-3.77h0.128V91.697L36.384,91.697z M36.384,82.947
		c0,4.088-3.833,4.791-13.796,4.791h-7.281c-7.537,0-8.814-1.533-8.814-5.174v-1.021c0-4.088,1.98-5.111,9.069-5.111h8.431
		c8.431,0,12.391,0.576,12.391,5.047V82.947L36.384,82.947z"/>
	<polygon fill="#F0A617" points="46.017,91.697 51.509,91.697 51.509,46.398 46.017,46.398 46.017,91.697 	"/>
	<polygon fill-rule="evenodd" clip-rule="evenodd" fill="#988691" points="55.131,91.697 63.798,91.697 63.798,50.329 
		55.131,50.329 55.131,91.697 	"/>
	<path fill-rule="evenodd" clip-rule="evenodd" fill="#F0A617" d="M101.071,77.008c0,5.621-2.874,8.75-10.73,8.75H79.739
		c-6.706,0-9.389-2.299-9.325-9.771v-6.004c0.064-5.365,4.087-6.898,9.708-6.898h11.177c7.728,0,9.9,3.896,9.772,9.963V77.008
		L101.071,77.008z M106.564,59.123h-5.109v5.813h-0.128c-1.724-5.301-5.876-6.322-10.027-6.322H79.611
		c-6.132,0-14.69,1.342-14.69,13.156v5.43c0,8.367,4.535,13.029,13.668,13.029h11.305c7.665,0,9.9-1.98,11.049-5.045h0.128v4.854
		c0,8.814-4.343,8.941-15.201,8.941h-5.365c-5.109,0-9.453-1.213-9.453-5.43v-0.893h-5.11v1.086c0,4.15,2.683,9.707,12.774,9.707
		h12.391c6.833,0,15.456-1.98,15.456-11.816V59.123L106.564,59.123z"/>
	<path fill="#F0A617" d="M110.909,91.697h5.493V73.176c0-7.664,2.938-10.092,15.776-10.092h1.405c10.667,0,12.008,3.129,12.008,7.92
		v20.693h5.493V69.662c0-5.875-3.257-11.049-13.541-11.049h-8.239c-6.834,0-11.114,1.086-13.157,6.131h-0.128v-5.621h-5.109V91.697
		L110.909,91.697z"/>
	<path fill-rule="evenodd" clip-rule="evenodd" fill="#F0A617" d="M190.199,71.898h-30.721c0.51-7.41,2.555-8.814,11.24-8.814h8.047
		c8.943,0,11.434,3.322,11.434,6.643V71.898L190.199,71.898z M153.985,78.859c0,12.008,8.175,13.35,15.33,13.35h9.963
		c10.219,0,16.414-2.236,16.414-9.709v-0.639h-5.492c-0.32,4.982-3.129,5.877-10.027,5.877h-7.537
		c-9.58,0-13.156-1.916-13.156-9.326v-2.043h36.213v-3.641c0-11.625-7.09-14.115-16.926-14.115h-8.813
		c-7.793,0-15.968,1.342-15.968,13.156V78.859L153.985,78.859z"/>
	<path fill="#F0A617" d="M199.346,91.697h5.492V71.004c0-4.215,2.811-7.92,8.623-7.92h3.385c9.773,0,11.434,1.277,11.434,9.324
		v1.406h5.109v-3.896c0-7.984-3.387-11.305-13.668-11.305h-5.174c-3.77,0-7.92,1.021-9.963,5.236h-0.129v-4.727h-5.109V91.697
		L199.346,91.697z"/>
	<path fill="#F0A617" d="M75.67,46.303l2.566-43.898H96.93l9.203,27.052l1.762-27.052h15.638l-2.566,43.898h-18.334l-9.56-27.114
		l-1.765,27.114H75.67L75.67,46.303z M224.113,30.01l-0.436-18.629l-8.91,18.629H224.113L224.113,30.01z M187.172,38.677h6.902
		l20.998-36.271h21.031l4.844,36.271h6.662l11.26-36.271h18.693l2.389,27.052l8.576-27.052h15.639l-13.627,43.898h-18.334
		l-2.729-27.114l-8.596,27.114H224.17l0.004-7.686h-13.301l-3.42,7.686H170.17l5.85-32.708l-14.926,32.708H149.05l-3.048-32.708
		l-6.029,32.708h-15.638l7.851-43.898h23.906l2.09,26.007l11.57-26.007h23.906L187.172,38.677L187.172,38.677z"/>
	<polygon fill="#988691" points="55.11,46.459 55.11,12.015 71.863,12.015 71.863,46.459 55.11,46.459 	"/>
	<polygon fill="#988691" points="55.11,9.532 55.11,1 71.863,1 71.863,9.532 55.11,9.532 	"/>
	<polygon fill="#988691" points="310.348,56.873 310.348,50.344 55.151,50.344 55.151,56.873 310.348,56.873 	"/>
</g>
</svg>
