<?xml version="1.0" encoding="utf-8"?>
<!-- Generator: Adobe Illustrator 15.0.0, SVG Export Plug-In . SVG Version: 6.00 Build 0)  -->
<!DOCTYPE svg PUBLIC "-//W3C//DTD SVG 1.1//EN" "http://www.w3.org/Graphics/SVG/1.1/DTD/svg11.dtd">
<svg version="1.1" id="Layer_1" xmlns="http://www.w3.org/2000/svg" xmlns:xlink="http://www.w3.org/1999/xlink" x="0px" y="0px"
	 width="338.667px" height="81.063px" viewBox="0 0 338.667 81.063" enable-background="new 0 0 338.667 81.063"
	 xml:space="preserve">
<g>
	<g>
		<path fill="#005DAA" d="M299.616,26.677h6.205l0.1,2.584c0.568-0.715,2.912-3.363,7.125-3.363c6.814,0,10.535,4.213,10.535,11.555
			v17.115h-6.439V37.663c0-3.779-2.309-5.947-5.549-5.947c-3.217,0-5.537,2.168-5.537,5.947v16.904h-6.439V26.677z M245.27,54.567
			h-6.445V14.026h6.445V54.567z M259.04,54.567h-6.445V26.677h6.445V54.567z M255.811,13.358c-2.232,0-4.031,1.811-4.031,4.043
			c0,2.221,1.799,4.037,4.031,4.037c2.227,0,4.043-1.816,4.043-4.037C259.854,15.169,258.038,13.358,255.811,13.358 M225.137,26.677
			h6.375v27.891h-6.375l-0.1-2.924c-1.172,1.195-4.289,3.709-8.643,3.709c-7.6,0-13.236-6.117-13.236-14.73
			c0-9.111,6.1-14.725,13.236-14.725c4.998,0,7.811,2.713,8.643,3.715L225.137,26.677z M209.745,40.622
			c0,5.35,3.281,8.918,7.84,8.918c4.137,0,7.852-3.012,7.852-8.918c0-5.736-3.563-8.918-7.852-8.918
			C212.838,31.704,209.745,35.489,209.745,40.622 M286.215,40.622c0-5.818-3.668-8.918-7.834-8.918
			c-4.986,0-7.857,4.055-7.857,8.918c0,5.133,3.094,8.918,7.852,8.918C282.752,49.54,286.215,46.282,286.215,40.622 M292.286,51.808
			c0,11.965-7.002,15.938-15.246,15.938c-5.496,0-8.813-1.658-9.979-2.209l1.6-5.543c0.727,0.381,3.738,2.168,8.326,2.168
			c4.799,0,8.865-3.076,8.865-8.613V51.62c-0.521,0.545-3.246,3.732-8.713,3.732c-7.512,0-13.189-6.041-13.189-14.73
			c0-8.326,5.344-14.725,13.213-14.725c5.367,0,8.092,3.047,8.654,3.715l0.082-2.936h6.387V51.808z"/>
		<path fill="#00AEEF" d="M144.717,26.677l7.219,16.775l7.184-16.775h7.148l-14.396,29.807l-14.273-29.807H144.717z M180.799,48.157
			c1.57,0.984,4.646,2.092,7.207,2.092c3.129,0,4.629-1.342,4.629-3.193c0-1.916-1.154-2.959-4.641-4.23
			c-5.514-1.863-7.699-4.746-7.699-8.109c0-4.986,3.926-8.818,10.494-8.818c3.135,0,5.865,0.744,7.541,1.676l-1.436,4.992
			c-1.184-0.697-3.504-1.623-5.988-1.623c-2.561,0-4.072,1.271-4.072,3.018c0,1.799,1.342,2.73,4.945,4.061
			c5.162,1.799,7.406,4.371,7.465,8.549c0,5.156-3.814,8.783-11.303,8.783c-3.422,0-6.504-0.809-8.602-1.975L180.799,48.157z
			 M104.991,54.567h-6.445V26.677h6.445V54.567z M101.774,13.358c-2.238,0-4.043,1.811-4.043,4.043c0,2.221,1.805,4.037,4.043,4.037
			c2.227,0,4.031-1.816,4.031-4.037C105.805,15.169,104,13.358,101.774,13.358 M175.022,54.567h-6.439V26.677h6.439V54.567z
			 M171.805,13.358c-2.238,0-4.049,1.811-4.049,4.043c0,2.221,1.811,4.037,4.049,4.037c2.227,0,4.031-1.816,4.031-4.037
			C175.836,15.169,174.032,13.358,171.805,13.358 M112.297,26.677h6.217l0.105,2.584c0.563-0.715,2.783-3.363,7.201-3.363
			c6.234,0,10.453,4.213,10.453,11.561v17.109h-6.445V37.757c0-3.58-2.32-6.041-5.543-6.041c-3.211,0-5.531,2.414-5.531,6.041
			v16.811h-6.457V26.677z"/>
		<path fill="#00AEEF" d="M49.321,25.077c2.818,1.605,5.145,3.938,6.744,6.75c-5.127,3.123-9.791,3.053-9.791,3.053
			S46.192,30.222,49.321,25.077 M56.065,49.417c-5.127-3.117-9.791-3.047-9.791-3.047s-0.082,4.658,3.047,9.797
			C52.139,54.567,54.465,52.229,56.065,49.417 M48.653,40.622c0,0,3.246,3.352,9.076,4.77c0.422-1.518,0.65-3.117,0.65-4.77
			s-0.229-3.246-0.65-4.77C51.899,37.271,48.653,40.622,48.653,40.622 M32.405,40.622c0,0-3.246-3.352-9.082-4.77
			c-0.422,1.523-0.639,3.117-0.639,4.77s0.217,3.252,0.639,4.77C29.159,43.974,32.405,40.622,32.405,40.622 M34.79,46.37
			c0,0-4.664-0.07-9.791,3.047c1.588,2.813,3.926,5.15,6.732,6.75C34.854,51.028,34.79,46.37,34.79,46.37 M34.79,34.88
			c0,0,0.064-4.658-3.059-9.803c-2.807,1.605-5.145,3.938-6.732,6.75C30.125,34.95,34.79,34.88,34.79,34.88 M40.538,48.743
			c0,0-3.357,3.246-4.781,9.082c1.529,0.428,3.117,0.656,4.781,0.656c1.646,0,3.24-0.229,4.764-0.65
			C43.866,51.989,40.538,48.743,40.538,48.743 M40.538,32.501c0,0,3.328-3.246,4.764-9.082c-1.523-0.428-3.117-0.65-4.764-0.65
			c-1.664,0-3.252,0.223-4.781,0.65C37.18,29.255,40.538,32.501,40.538,32.501"/>
		<path fill="#005DAA" d="M56.469,17.753c5.918-4.037,12.65-5.713,12.65-5.713s-1.676,6.721-5.719,12.639
			C61.52,21.983,59.17,19.64,56.469,17.753 M45.43,13.177c-1.336-7.043-4.893-12.973-4.893-12.973s-3.58,5.93-4.916,12.973
			c1.6-0.275,3.234-0.428,4.916-0.428C42.202,12.749,43.836,12.896,45.43,13.177 M56.469,63.491
			c5.918,4.049,12.65,5.719,12.65,5.719s-1.676-6.721-5.719-12.645C61.52,59.261,59.17,61.61,56.469,63.491 M13.086,35.729
			c-7.055,1.324-12.984,4.893-12.984,4.893s5.93,3.568,12.984,4.893c-0.287-1.576-0.439-3.217-0.439-4.893
			C12.647,38.952,12.799,37.317,13.086,35.729 M67.971,45.515c7.049-1.324,12.979-4.893,12.979-4.893s-5.93-3.568-12.979-4.893
			c0.287,1.588,0.428,3.223,0.428,4.893C68.399,42.298,68.258,43.938,67.971,45.515 M24.588,17.753
			C18.665,13.716,11.95,12.04,11.95,12.04s1.664,6.721,5.707,12.645C19.532,21.983,21.893,19.64,24.588,17.753 M35.622,68.073
			c1.336,7.037,4.916,12.973,4.916,12.973s3.557-5.936,4.893-12.973c-1.594,0.281-3.229,0.428-4.893,0.428
			C38.856,68.501,37.221,68.354,35.622,68.073 M17.657,56.565C13.614,62.489,11.95,69.21,11.95,69.21s6.715-1.67,12.639-5.719
			C21.893,61.61,19.532,59.261,17.657,56.565"/>
		<path fill="#0081C6" d="M45.917,63.099c0,1.676-0.188,3.357-0.486,4.975c-1.594,0.281-3.229,0.428-4.893,0.428
			c-1.682,0-3.328-0.146-4.916-0.428c-0.305-1.617-0.492-3.299-0.492-4.975c0-1.934,0.24-3.691,0.627-5.268
			c1.529,0.422,3.117,0.65,4.781,0.65c1.646,0,3.24-0.229,4.764-0.65C45.682,59.407,45.917,61.165,45.917,63.099 M57.729,35.853
			c0.422,1.523,0.65,3.117,0.65,4.77s-0.229,3.252-0.65,4.77c1.576,0.375,3.346,0.627,5.285,0.627c1.67,0,3.346-0.188,4.957-0.504
			c0.287-1.576,0.428-3.217,0.428-4.893c0-1.67-0.141-3.305-0.428-4.893c-1.611-0.316-3.287-0.498-4.957-0.498
			C61.075,35.231,59.305,35.472,57.729,35.853 M56.065,49.417c-1.6,2.813-3.926,5.15-6.744,6.75c0.844,1.383,1.91,2.795,3.287,4.166
			c1.184,1.184,2.502,2.244,3.861,3.158c2.701-1.881,5.051-4.23,6.932-6.926c-0.932-1.365-1.986-2.678-3.176-3.867
			C58.86,51.333,57.454,50.261,56.065,49.417 M23.323,45.392c-0.422-1.518-0.639-3.117-0.639-4.77s0.217-3.246,0.639-4.77
			c-1.57-0.381-3.34-0.621-5.273-0.621c-1.67,0-3.346,0.182-4.963,0.498c-0.287,1.588-0.439,3.223-0.439,4.893
			c0,1.676,0.152,3.316,0.439,4.893c1.617,0.316,3.293,0.504,4.963,0.504C19.983,46.019,21.752,45.767,23.323,45.392 M49.321,25.077
			c2.818,1.6,5.145,3.938,6.744,6.75c1.389-0.838,2.795-1.916,4.16-3.281c1.189-1.178,2.244-2.502,3.176-3.861
			c-1.881-2.701-4.23-5.045-6.932-6.932c-1.365,0.926-2.678,1.986-3.861,3.164C51.231,22.282,50.165,23.706,49.321,25.077
			 M35.756,23.419c1.529-0.428,3.117-0.645,4.781-0.645c1.646,0,3.24,0.217,4.764,0.645c0.381-1.57,0.615-3.34,0.615-5.273
			c0-1.676-0.188-3.352-0.486-4.969c-1.594-0.281-3.229-0.428-4.893-0.428c-1.682,0-3.328,0.146-4.916,0.428
			c-0.305,1.617-0.492,3.293-0.492,4.969C35.129,20.079,35.37,21.849,35.756,23.419 M24.999,31.827
			c1.588-2.813,3.926-5.145,6.732-6.75c-0.832-1.371-1.91-2.795-3.281-4.16c-1.189-1.178-2.496-2.238-3.861-3.164
			c-2.695,1.887-5.045,4.23-6.932,6.932c0.926,1.359,1.98,2.684,3.164,3.861C22.192,29.911,23.61,30.989,24.999,31.827
			 M31.731,56.167c-2.807-1.6-5.145-3.938-6.732-6.75c-1.389,0.844-2.807,1.916-4.178,3.281c-1.184,1.189-2.238,2.502-3.164,3.867
			c1.887,2.695,4.236,5.045,6.932,6.926c1.365-0.926,2.672-1.975,3.861-3.158C29.821,58.962,30.899,57.538,31.731,56.167"/>
		<path fill="#005DAA" d="M333.987,25.101c2.303,0,4.244,1.834,4.244,4.254c0,2.416-1.941,4.242-4.244,4.242
			c-2.318,0-4.246-1.826-4.246-4.242C329.741,26.935,331.668,25.101,333.987,25.101 M333.987,32.978
			c1.941,0,3.488-1.566,3.488-3.623s-1.547-3.637-3.488-3.637c-1.951,0-3.498,1.58-3.498,3.637S332.036,32.978,333.987,32.978
			 M332.364,26.864h1.869c1.178,0,1.74,0.463,1.74,1.418c0,0.898-0.572,1.273-1.311,1.355l1.422,2.186h-0.811l-1.34-2.133h-0.816
			v2.133h-0.754V26.864z M333.118,29.079h0.773c0.68,0,1.326-0.039,1.326-0.842c0-0.676-0.59-0.758-1.104-0.758h-0.996V29.079z"/>
	</g>
</g>
</svg>
