<?xml version="1.0" encoding="utf-8"?>
<!-- Generator: Adobe Illustrator 19.0.0, SVG Export Plug-In . SVG Version: 6.00 Build 0)  -->
<svg version="1.1" id="Layer_1" xmlns="http://www.w3.org/2000/svg" xmlns:xlink="http://www.w3.org/1999/xlink" x="0px" y="0px"
	 viewBox="0 0 159 42" style="enable-background:new 0 0 159 42;" xml:space="preserve">
<g id="XMLID_50_">
	<path id="XMLID_51_" style="fill:#005695;" d="M13.3,34.5c0,0.9-0.3,1.6-0.8,2.2c-0.6,0.6-1.2,0.9-2.1,0.9c-0.7,0-1.4-0.3-1.9-0.8
		v0.6H8v-8.5h0.5v3.2c0.5-0.5,1.1-0.8,1.9-0.8c0.8,0,1.5,0.3,2,0.9C13,32.9,13.3,33.6,13.3,34.5z M12.8,34.5c0-0.7-0.2-1.4-0.7-1.9
		c-0.5-0.5-1-0.8-1.7-0.8c-0.7,0-1.3,0.3-1.9,1v3.4c0.5,0.6,1.2,1,1.9,1c0.7,0,1.2-0.3,1.7-0.8C12.6,35.8,12.8,35.2,12.8,34.5z"/>
	<path id="XMLID_54_" style="fill:#005695;" d="M20,34.4c0,0.1,0,0.1,0,0.1h-5.3c0,0.8,0.3,1.4,0.8,1.9c0.5,0.4,1,0.7,1.6,0.7
		c0.8,0,1.4-0.3,1.9-1l0.4,0.2c-0.6,0.9-1.4,1.3-2.3,1.3c-0.8,0-1.5-0.3-2.1-0.9c-0.6-0.6-0.8-1.4-0.8-2.2c0-0.9,0.3-1.6,0.8-2.2
		c0.6-0.6,1.2-0.9,2.1-0.9c0.8,0,1.5,0.3,2,0.9C19.8,32.8,20,33.6,20,34.4z M19.6,34.1c-0.1-0.7-0.4-1.3-0.9-1.7
		c-0.5-0.4-1-0.6-1.5-0.6c-0.6,0-1.1,0.2-1.5,0.6c-0.5,0.4-0.8,1-0.9,1.7H19.6z"/>
	<path id="XMLID_57_" style="fill:#005695;" d="M25.6,37.4h-0.5v-0.9c-0.4,0.7-1.2,1.1-2.2,1.1c-1.3,0-2-0.6-2-1.9
		c0-0.5,0.2-0.9,0.5-1.3c0.3-0.3,0.6-0.5,1-0.5l2.6-0.3c0-0.7-0.2-1.2-0.5-1.5c-0.3-0.2-0.7-0.3-1.2-0.3c-0.5,0-0.9,0.2-1.3,0.5
		L21.7,32c0.5-0.4,1.1-0.7,1.7-0.7c1.5,0,2.2,0.7,2.2,2.2V37.4z M25.1,35.5v-1.4l-2.5,0.3c-0.4,0.1-0.7,0.2-0.9,0.5
		c-0.2,0.2-0.3,0.5-0.3,0.8c0,0.5,0.1,0.8,0.3,1c0.2,0.2,0.6,0.4,1.2,0.4c0.5,0,1-0.2,1.5-0.5C24.9,36.2,25.1,35.9,25.1,35.5z"/>
	<path id="XMLID_60_" style="fill:#005695;" d="M31.7,37.4h-0.5v-0.9c-0.6,0.7-1.2,1-2.1,1c-0.6,0-1.1-0.1-1.5-0.4
		c-0.5-0.4-0.8-0.9-0.8-1.7v-4h0.5v4c0,1.1,0.6,1.6,1.8,1.6c0.3,0,0.7-0.1,1.1-0.4c0.5-0.3,0.8-0.6,1-1v-4.3h0.5V37.4z"/>
	<path id="XMLID_62_" style="fill:#005695;" d="M36.7,37.1c-0.1,0.1-0.2,0.1-0.3,0.2c-0.3,0.2-0.7,0.3-1,0.3c-0.4,0-0.7-0.1-1-0.4
		c-0.2-0.3-0.3-0.6-0.3-1.1v-4.2h-1.3v-0.5H34v-2.5h0.5v2.5h1.9v0.5h-1.9v4.2c0,0.7,0.3,1.1,0.8,1.1c0.3,0,0.5-0.1,0.8-0.2
		c0,0,0.1-0.1,0.3-0.2L36.7,37.1z"/>
	<path id="XMLID_64_" style="fill:#005695;" d="M37.7,30.3h-0.5v-0.8h0.5V30.3z M37.7,37.4h-0.5v-6h0.5V37.4z"/>
	<path id="XMLID_67_" style="fill:#005695;" d="M43.3,29.1l-0.2,0.4c-0.4-0.1-0.8-0.2-1.1-0.2c-1,0-1.4,0.6-1.4,1.7v0.4h1.8V32h-1.8
		v5.5h-0.5V32h-1.2v-0.5h1.2v-0.4c0-0.7,0.2-1.2,0.6-1.7c0.4-0.4,0.8-0.6,1.4-0.6c0.3,0,0.5,0,0.8,0.1C43,29,43.1,29,43.3,29.1z"/>
	<path id="XMLID_69_" style="fill:#005695;" d="M48.6,37.4h-0.5v-0.9c-0.6,0.7-1.2,1-2.1,1c-0.6,0-1.1-0.1-1.5-0.4
		c-0.5-0.4-0.8-0.9-0.8-1.7v-4h0.5v4c0,1.1,0.6,1.6,1.8,1.6c0.3,0,0.7-0.1,1.1-0.4c0.5-0.3,0.8-0.6,1-1v-4.3h0.5V37.4z"/>
	<path id="XMLID_71_" style="fill:#005695;" d="M50.4,37.4h-0.5v-8.5h0.5V37.4z"/>
	<path id="XMLID_73_" style="fill:#005695;" d="M58.7,35.9c0,0.4-0.2,0.8-0.6,1.1c-0.4,0.3-0.9,0.5-1.6,0.5c-0.4,0-0.8-0.1-1.1-0.2
		c-0.4-0.2-0.7-0.4-0.9-0.7l0.4-0.3c0,0,0,0.1,0.1,0.1c0.4,0.4,0.9,0.6,1.6,0.6c0.5,0,1-0.1,1.3-0.4c0.3-0.2,0.4-0.4,0.4-0.7
		c0-0.5-0.3-0.9-1-1.1c-0.3-0.1-0.7-0.2-1.5-0.5c-0.4-0.1-0.8-0.4-1-0.7c-0.2-0.3-0.3-0.6-0.3-0.9c0-0.4,0.2-0.8,0.6-1.1
		c0.4-0.3,0.9-0.5,1.6-0.5c0.4,0,0.8,0.1,1.1,0.2c0.4,0.2,0.7,0.4,0.9,0.7l-0.4,0.3c0,0,0-0.1-0.1-0.1c-0.4-0.4-0.9-0.6-1.6-0.6
		c-0.5,0-1,0.1-1.3,0.4c-0.3,0.2-0.4,0.4-0.4,0.7c0,0.5,0.3,0.8,0.9,1c0.4,0.1,0.9,0.3,1.5,0.5c0.4,0.1,0.8,0.4,1,0.7
		C58.6,35.3,58.7,35.6,58.7,35.9z"/>
	<path id="XMLID_75_" style="fill:#005695;" d="M68.7,33.4v4h-0.5v-4c0-1.1-0.6-1.6-1.8-1.6c-0.4,0-1.1,0.4-1.9,1.1
		c0,0.2,0.1,0.3,0.1,0.5v4h-0.5v-4c0-1.1-0.6-1.6-1.8-1.6c-0.4,0-1.1,0.4-2.1,1.3v4.4h-0.5v-6h0.5v0.9c0.7-0.5,1.1-0.7,1.1-0.8
		c0.3-0.2,0.6-0.3,1-0.3c1,0,1.7,0.3,2,1c0.6-0.5,1-0.7,1.1-0.8c0.3-0.2,0.6-0.3,1-0.3c0.6,0,1.1,0.1,1.5,0.4
		C68.5,32.1,68.7,32.7,68.7,33.4z"/>
	<path id="XMLID_77_" style="fill:#005695;" d="M70.5,30.3H70v-0.8h0.5V30.3z M70.5,37.4H70v-6h0.5V37.4z"/>
	<path id="XMLID_80_" style="fill:#005695;" d="M72.4,37.4h-0.5v-8.5h0.5V37.4z"/>
	<path id="XMLID_82_" style="fill:#005695;" d="M79.3,34.4c0,0.1,0,0.1,0,0.1H74c0,0.8,0.3,1.4,0.8,1.9c0.5,0.4,1,0.7,1.6,0.7
		c0.8,0,1.4-0.3,1.9-1l0.4,0.2c-0.6,0.9-1.4,1.3-2.3,1.3c-0.8,0-1.5-0.3-2.1-0.9c-0.6-0.6-0.8-1.4-0.8-2.2c0-0.9,0.3-1.6,0.8-2.2
		c0.6-0.6,1.2-0.9,2.1-0.9c0.8,0,1.5,0.3,2,0.9C79,32.8,79.3,33.6,79.3,34.4z M78.8,34.1c-0.1-0.7-0.4-1.3-0.9-1.7
		c-0.5-0.4-1-0.6-1.5-0.6c-0.6,0-1.1,0.2-1.5,0.6c-0.5,0.4-0.8,1-0.9,1.7H78.8z"/>
</g>
<g id="XMLID_47_">
	<path id="XMLID_48_" style="fill:#005695;" d="M81.6,37.4h-1.1v-1.1h1.1V37.4z"/>
</g>
<g id="XMLID_17_">
	<path id="XMLID_18_" style="fill:#005695;" d="M91.1,34.5c0,0.9-0.3,1.6-0.8,2.2c-0.6,0.6-1.2,0.9-2.1,0.9c-0.7,0-1.4-0.3-1.9-0.8
		v0.6h-0.5v-8.5h0.5v3.2c0.5-0.5,1.1-0.8,1.9-0.8c0.8,0,1.5,0.3,2,0.9C90.8,32.9,91.1,33.6,91.1,34.5z M90.6,34.5
		c0-0.7-0.2-1.4-0.7-1.9c-0.5-0.5-1-0.8-1.7-0.8c-0.7,0-1.3,0.3-1.9,1v3.4c0.5,0.6,1.2,1,1.9,1c0.7,0,1.2-0.3,1.7-0.8
		C90.3,35.8,90.6,35.2,90.6,34.5z"/>
	<path id="XMLID_21_" style="fill:#005695;" d="M97.8,34.4c0,0.1,0,0.1,0,0.1h-5.3c0,0.8,0.3,1.4,0.8,1.9c0.5,0.4,1,0.7,1.6,0.7
		c0.8,0,1.4-0.3,1.9-1l0.4,0.2c-0.6,0.9-1.4,1.3-2.3,1.3c-0.8,0-1.5-0.3-2.1-0.9C92.3,36,92,35.3,92,34.4c0-0.9,0.3-1.6,0.8-2.2
		c0.6-0.6,1.2-0.9,2.1-0.9c0.8,0,1.5,0.3,2,0.9C97.5,32.8,97.8,33.6,97.8,34.4z M97.3,34.1c-0.1-0.7-0.4-1.3-0.9-1.7
		c-0.5-0.4-1-0.6-1.5-0.6c-0.6,0-1.1,0.2-1.5,0.6c-0.5,0.4-0.8,1-0.9,1.7H97.3z"/>
	<path id="XMLID_24_" style="fill:#005695;" d="M103.4,37.4h-0.5v-0.9c-0.4,0.7-1.2,1.1-2.2,1.1c-1.3,0-2-0.6-2-1.9
		c0-0.5,0.2-0.9,0.5-1.3c0.3-0.3,0.6-0.5,1-0.5l2.6-0.3c0-0.7-0.2-1.2-0.5-1.5c-0.3-0.2-0.7-0.3-1.2-0.3c-0.5,0-0.9,0.2-1.3,0.5
		L99.5,32c0.5-0.4,1.1-0.7,1.7-0.7c1.5,0,2.2,0.7,2.2,2.2V37.4z M102.9,35.5v-1.4l-2.5,0.3c-0.4,0.1-0.7,0.2-0.9,0.5
		c-0.2,0.2-0.3,0.5-0.3,0.8c0,0.5,0.1,0.8,0.3,1c0.2,0.2,0.6,0.4,1.2,0.4c0.5,0,1-0.2,1.5-0.5C102.6,36.2,102.9,35.9,102.9,35.5z"/>
	<path id="XMLID_27_" style="fill:#005695;" d="M109.4,37.4H109v-0.9c-0.6,0.7-1.2,1-2.1,1c-0.6,0-1.1-0.1-1.5-0.4
		c-0.5-0.4-0.8-0.9-0.8-1.7v-4h0.5v4c0,1.1,0.6,1.6,1.8,1.6c0.3,0,0.7-0.1,1.1-0.4c0.5-0.3,0.8-0.6,1-1v-4.3h0.5V37.4z"/>
	<path id="XMLID_29_" style="fill:#005695;" d="M114.5,37.1c-0.1,0.1-0.2,0.1-0.3,0.2c-0.3,0.2-0.7,0.3-1,0.3c-0.4,0-0.7-0.1-1-0.4
		c-0.2-0.3-0.3-0.6-0.3-1.1v-4.2h-1.3v-0.5h1.3v-2.5h0.5v2.5h1.9v0.5h-1.9v4.2c0,0.7,0.3,1.1,0.8,1.1c0.3,0,0.5-0.1,0.8-0.2
		c0,0,0.1-0.1,0.3-0.2L114.5,37.1z"/>
	<path id="XMLID_31_" style="fill:#005695;" d="M115.5,30.3H115v-0.8h0.5V30.3z M115.5,37.4H115v-6h0.5V37.4z"/>
	<path id="XMLID_34_" style="fill:#005695;" d="M121.1,29.1l-0.2,0.4c-0.4-0.1-0.8-0.2-1.1-0.2c-1,0-1.4,0.6-1.4,1.7v0.4h1.8V32
		h-1.8v5.5h-0.5V32h-1.2v-0.5h1.2v-0.4c0-0.7,0.2-1.2,0.6-1.7c0.4-0.4,0.8-0.6,1.4-0.6c0.3,0,0.5,0,0.8,0.1
		C120.8,29,120.9,29,121.1,29.1z"/>
	<path id="XMLID_36_" style="fill:#005695;" d="M126.3,37.4h-0.5v-0.9c-0.6,0.7-1.2,1-2.1,1c-0.6,0-1.1-0.1-1.5-0.4
		c-0.5-0.4-0.8-0.9-0.8-1.7v-4h0.5v4c0,1.1,0.6,1.6,1.8,1.6c0.3,0,0.7-0.1,1.1-0.4c0.5-0.3,0.8-0.6,1-1v-4.3h0.5V37.4z"/>
	<path id="XMLID_38_" style="fill:#005695;" d="M128.2,37.4h-0.5v-8.5h0.5V37.4z"/>
	<path id="XMLID_40_" style="fill:#005695;" d="M137.9,31.4l-3.1,7.6c-0.3,0.8-0.8,1.1-1.6,1.1c-0.2,0-0.4,0-0.6-0.1l-0.4-0.1
		l0.2-0.5l0.6,0.2c0.1,0,0.2,0.1,0.3,0.1c0.5,0,0.8-0.3,1.1-0.9c0.1-0.2,0.3-0.7,0.5-1.3l-2.5-6.1l0.5,0l2.3,5.4l2.2-5.4L137.9,31.4
		z"/>
	<path id="XMLID_42_" style="fill:#005695;" d="M143.5,34.4c0,0.9-0.3,1.6-0.8,2.2c-0.6,0.6-1.2,0.9-2,0.9c-0.8,0-1.5-0.3-2.1-0.9
		c-0.6-0.6-0.8-1.4-0.8-2.2c0-0.9,0.3-1.6,0.8-2.2c0.6-0.6,1.2-0.9,2.1-0.9c0.8,0,1.5,0.3,2,0.9C143.3,32.8,143.5,33.6,143.5,34.4z
		 M143,34.4c0-0.7-0.2-1.4-0.7-1.9c-0.5-0.5-1-0.8-1.7-0.8c-0.7,0-1.2,0.3-1.7,0.8c-0.5,0.5-0.7,1.1-0.7,1.9c0,0.7,0.2,1.4,0.7,1.9
		s1,0.8,1.7,0.8c0.7,0,1.2-0.3,1.7-0.8S143,35.2,143,34.4z"/>
	<path id="XMLID_45_" style="fill:#005695;" d="M149.3,37.4h-0.5v-0.9c-0.6,0.7-1.2,1-2.1,1c-0.6,0-1.1-0.1-1.5-0.4
		c-0.5-0.4-0.8-0.9-0.8-1.7v-4h0.5v4c0,1.1,0.6,1.6,1.8,1.6c0.3,0,0.7-0.1,1.1-0.4c0.5-0.3,0.8-0.6,1-1v-4.3h0.5V37.4z"/>
</g>
<g id="XMLID_14_">
	<path id="XMLID_15_" style="fill:#005695;" d="M151.8,37.4h-1.1v-1.1h1.1V37.4z"/>
</g>
<rect x="1.9" y="1.9" style="fill:#005695;" width="155.1" height="22.4"/>
<path style="fill-rule:evenodd;clip-rule:evenodd;fill:#FFFFFF;" d="M10.7,7.8v9.5h3.2v1.2H9.4V7.8H10.7z M23.6,7.8H25v6.3
	c0,1.7,0.5,3.4,2.6,3.4c2.1,0,2.6-1.6,2.6-3.4V7.8h1.3v6.8c0,2.3-1.5,4.1-3.9,4.1s-3.9-1.8-3.9-4.1V7.8z M47.3,18.7l-3.2-7.3h0
	l-1.2,7h-1.4l2.2-11.1l3.7,8.4l3.7-8.4l2.2,11.1h-1.4l-1.2-7h0L47.3,18.7z M64.6,18.4h-1.3V7.8h1.3V18.4z M75.5,18.4V7.3l8,8.4V7.8
	h1.3v11.1l-8-8.4v8H75.5z M95.7,18.4V7.8h5.7V9H97v3h4.3v1.2H97v4h4.4v1.2H95.7z M112.1,18.4V7.8h5.7V9h-4.4v3h4.3v1.2h-4.3v4h4.4
	v1.2H112.1z M131.7,13.8l3.4,4.6h-1.6l-3.1-4.5h-0.6v4.5h-1.3V7.8h1.6c1,0,2,0,2.8,0.5c0.9,0.5,1.4,1.5,1.4,2.5
	C134.3,12.3,133.3,13.6,131.7,13.8 M129.8,9v3.9h0.4c1.4,0,2.8-0.3,2.8-2c0-1.7-1.6-1.9-2.9-1.9H129.8z M149.3,9.1l-1.1,0.6
	c-0.4-0.7-0.9-1-1.7-1c-0.8,0-1.8,0.6-1.8,1.5c0,0.8,0.8,1.3,1.5,1.5l0.8,0.3c1.5,0.6,2.6,1.4,2.6,3.2c0,1.9-1.5,3.3-3.4,3.3
	c-1.7,0-3.1-1.3-3.3-3l1.3-0.3c0,1.2,0.9,2,2.1,2c1.1,0,2-1,2-2.1c0-1.1-0.9-1.6-1.8-2l-0.7-0.3c-1.2-0.5-2.3-1.2-2.3-2.7
	c0-1.7,1.5-2.8,3.1-2.8C147.7,7.5,148.7,8.1,149.3,9.1"/>
<path style="fill:#FFFFFF;" d="M151.6,8c0.3,0,0.5,0.1,0.7,0.2c0.2,0.1,0.4,0.3,0.6,0.6c0.1,0.2,0.2,0.5,0.2,0.8
	c0,0.3-0.1,0.5-0.2,0.8c-0.1,0.2-0.3,0.4-0.6,0.6s-0.5,0.2-0.8,0.2c-0.3,0-0.5-0.1-0.8-0.2s-0.4-0.3-0.6-0.6
	c-0.1-0.2-0.2-0.5-0.2-0.8c0-0.3,0.1-0.5,0.2-0.8c0.1-0.2,0.3-0.4,0.6-0.6C151.1,8,151.4,8,151.6,8 M151.6,8.2
	c-0.2,0-0.4,0.1-0.6,0.2c-0.2,0.1-0.4,0.3-0.5,0.5c-0.1,0.2-0.2,0.4-0.2,0.6c0,0.2,0.1,0.4,0.2,0.6c0.1,0.2,0.3,0.4,0.5,0.5
	c0.2,0.1,0.4,0.2,0.6,0.2c0.2,0,0.4-0.1,0.6-0.2c0.2-0.1,0.4-0.3,0.5-0.5c0.1-0.2,0.2-0.4,0.2-0.6c0-0.2-0.1-0.4-0.2-0.6
	c-0.1-0.2-0.3-0.4-0.5-0.5C152,8.3,151.8,8.2,151.6,8.2 M150.9,10.3V8.7h0.6c0.2,0,0.3,0,0.4,0c0.1,0,0.2,0.1,0.2,0.2
	c0.1,0.1,0.1,0.2,0.1,0.2c0,0.1,0,0.2-0.1,0.3c-0.1,0.1-0.2,0.1-0.3,0.1c0.1,0,0.1,0.1,0.1,0.1c0.1,0.1,0.1,0.2,0.2,0.3l0.2,0.3H152
	l-0.1-0.3c-0.1-0.2-0.2-0.3-0.3-0.4c0,0-0.1-0.1-0.2-0.1h-0.2v0.7H150.9z M151.2,9.4h0.3c0.2,0,0.3,0,0.3-0.1c0.1,0,0.1-0.1,0.1-0.2
	c0,0,0-0.1,0-0.1c0,0-0.1-0.1-0.1-0.1c0,0-0.1,0-0.3,0h-0.3V9.4z"/>
</svg>
