<?xml version="1.0" encoding="UTF-8"?><svg id="Layer_1" xmlns="http://www.w3.org/2000/svg" viewBox="0 0 398.02 116.52"><defs><style>.cls-1{fill:#00bfb2;stroke-width:0px;}</style></defs><path class="cls-1" d="m160.07,21.93v60.35h-17.73V14.89C143.77,6.48,151.04.08,159.78.08c4.62,0,8.84,1.81,12,4.75l50.33,55.6V.08h17.74v67.39c-1.47,8.4-8.72,14.8-17.45,14.8-4.64,0-8.84-1.79-12.01-4.74l-50.32-55.61Z"/><rect class="cls-1" x="113.56" y=".08" width="19.56" height="82.19"/><path class="cls-1" d="m66.21,73.61c-2.55,5.26-7.92,8.88-14.11,8.88s-11.56-3.63-14.12-8.9L17.24,20.8v61.48H.35V17.2C.35,7.75,7.92.09,17.27.09c7.51,0,13.88,4.96,16.09,11.82l18.74,47.71,18.76-47.71C73.06,5.05,79.43.09,86.96.09c9.34,0,16.91,7.66,16.91,17.11v65.08h-16.9V20.8l-20.76,52.81Z"/><polygon class="cls-1" points="248.44 .09 248.44 19.87 287.33 19.87 287.33 82.27 306.89 82.27 306.89 19.87 345.78 19.87 345.78 .09 248.44 .09"/><polygon class="cls-1" points="1.59 95.29 6.94 104.62 12.25 95.29 13.7 95.29 13.5 95.63 13.5 110.43 12.25 110.43 12.25 97.82 6.94 107.13 1.6 97.82 1.6 110.43 .36 110.43 .36 95.63 .17 95.29 1.59 95.29"/><path class="cls-1" d="m18.17,98.07c.19.21.31.45.31.73,0,.29-.11.55-.31.75-.21.21-.45.31-.74.31s-.51-.1-.72-.31c-.2-.2-.31-.46-.31-.75,0-.28.11-.52.31-.73.21-.2.44-.3.72-.3s.53.09.74.3m-.11,12.36h-1.24v-9.47h1.24v9.47Z"/><path class="cls-1" d="m22.44,103.25v7.17h-1.25v-9.47h1.25v.28c.54-.54,1.33-.83,2.39-.83s2.01.36,2.71,1.07c.7.71,1.06,1.61,1.09,2.68v6.26h-1.24v-6.18c0-.7-.25-1.31-.76-1.81-.51-.5-1.11-.75-1.79-.75s-1.3.25-1.8.74c-.28.28-.48.55-.59.82"/><path class="cls-1" d="m33.11,98.07c.21.21.31.45.31.73,0,.29-.1.55-.31.75-.21.21-.45.31-.74.31s-.53-.1-.73-.31c-.2-.2-.3-.46-.3-.75,0-.28.1-.52.3-.73.2-.2.45-.3.73-.3s.53.09.74.3m-.1,12.36h-1.26v-9.47h1.26v9.47Z"/><path class="cls-1" d="m36.13,100.96h1.25v-.09c.31-.29.84-.44,1.62-.44s1.45.29,2.02.85l.21.22.21-.22c.56-.55,1.24-.85,2.02-.85s1.48.29,2.03.85c.53.55.81,1.19.83,1.96v7.2h-1.25v-7.4c-.02-.27-.16-.57-.46-.85-.31-.33-.69-.47-1.14-.47s-.83.15-1.14.47c-.31.33-.47.73-.47,1.2v7.05h-1.24v-7.4h-.01c-.02-.27-.17-.57-.45-.85-.33-.33-.71-.47-1.15-.47s-.82.15-1.14.47c-.28.27-.44.6-.48,1v7.25h-1.25v-9.47Z"/><path class="cls-1" d="m59.33,110.43h-1.24v-1.4c-1.13,1.1-2.39,1.65-3.84,1.65s-2.65-.51-3.69-1.53c-1-1.04-1.52-2.28-1.52-3.72s.51-2.7,1.52-3.73c1.04-1.03,2.25-1.55,3.69-1.55s2.71.56,3.84,1.65v-.84h1.24v9.47Zm-1.24-4.22v-1.59c-.14-.75-.51-1.42-1.07-2-.77-.76-1.69-1.15-2.77-1.15s-1.99.38-2.77,1.15c-.76.78-1.14,1.71-1.14,2.8s.38,2.02,1.14,2.78c.77.77,1.69,1.15,2.77,1.15s1.99-.38,2.77-1.15c.57-.58.94-1.26,1.07-1.99"/><rect class="cls-1" x="62.29" y="95.29" width="1.25" height="15.14"/><rect class="cls-1" x="65.95" y="95.29" width="1.26" height="15.14"/><rect class="cls-1" x="86.53" y="95.29" width="1.26" height="15.14"/><path class="cls-1" d="m92.21,103.25v7.17h-1.25v-9.47h1.25v.28c.54-.54,1.33-.83,2.38-.83,1.12,0,2.02.36,2.73,1.07.7.71,1.06,1.61,1.08,2.68v6.26h-1.24v-6.18c0-.7-.27-1.31-.77-1.81-.5-.5-1.11-.75-1.79-.75s-1.29.25-1.8.74c-.27.28-.46.55-.58.82"/><polygon class="cls-1" points="105.08 108.18 108.37 100.96 109.81 100.96 105.08 110.96 100.36 100.96 101.8 100.96 105.08 108.18"/><path class="cls-1" d="m121.82,110.43h-1.26v-1.4c-1.1,1.1-2.37,1.65-3.83,1.65s-2.66-.51-3.67-1.53c-1.03-1.04-1.53-2.28-1.53-3.72s.5-2.7,1.53-3.73c1.01-1.03,2.23-1.55,3.67-1.55s2.72.56,3.83,1.65v-.84h1.26v9.47Zm-1.26-4.22v-1.59c-.13-.75-.49-1.42-1.06-2-.76-.76-1.68-1.15-2.76-1.15s-2,.38-2.76,1.15c-.76.78-1.14,1.71-1.14,2.8s.38,2.02,1.14,2.78c.76.77,1.68,1.15,2.76,1.15s2.01-.38,2.76-1.15c.57-.58.94-1.26,1.06-1.99"/><path class="cls-1" d="m127.32,105.75c-.71-.38-1.2-.72-1.49-1-.46-.46-.68-1.03-.68-1.68s.22-1.22.68-1.7c.46-.46,1.02-.7,1.66-.7s1.19.22,1.63.66c.41.43.62.92.62,1.47v.19l-1.1.46c-.08-.61-.21-1.01-.4-1.21-.19-.2-.45-.28-.75-.28s-.56.1-.77.32c-.22.22-.33.48-.33.8s.12.57.33.79c.13.15.44.36.91.67.79.44,1.34.82,1.7,1.17.54.56.81,1.24.81,2.04s-.27,1.49-.83,2.05c-.56.57-1.24.85-2.02.85s-1.48-.28-2.03-.85c-.55-.56-.83-1.24-.83-2.04l1.23-.33c0,.67.18,1.17.48,1.48.32.32.7.48,1.15.48s.81-.17,1.13-.48c.32-.3.49-.7.49-1.16s-.16-.84-.48-1.16c-.18-.17-.56-.45-1.13-.83"/><path class="cls-1" d="m134.19,98.07c.21.21.31.45.31.73,0,.29-.1.55-.31.75-.2.21-.45.31-.73.31s-.53-.1-.73-.31c-.21-.2-.31-.46-.31-.75,0-.28.1-.52.31-.73.21-.2.46-.3.73-.3s.53.09.73.3m-.1,12.36h-1.25v-9.47h1.25v9.47Z"/><polygon class="cls-1" points="140.95 108.18 144.25 100.96 145.69 100.96 140.95 110.96 136.23 100.96 137.67 100.96 140.95 108.18"/><path class="cls-1" d="m149.83,108.51c.62.56,1.43.85,2.42.85,1.09,0,2.01-.39,2.77-1.14.1-.11.22-.24.37-.44l1.28.46c-.28.4-.51.69-.72.9-1.01,1.03-2.25,1.55-3.7,1.55s-2.66-.51-3.67-1.54c-1.02-1.03-1.53-2.28-1.53-3.73s.51-2.69,1.53-3.72c1.01-1.03,2.23-1.55,3.67-1.55,1.23,0,2.31.38,3.25,1.12.14.13.3.27.45.42.04.06.15.17.3.33l-.76.77-5.66,5.73Zm4.57-6.41c-.55-.43-1.25-.63-2.15-.63-1.06,0-1.98.38-2.76,1.15-.75.77-1.13,1.7-1.13,2.79,0,.9.21,1.62.62,2.16l5.41-5.48Z"/><polygon class="cls-1" points="166.04 95.29 167.28 95.29 174.4 107.76 174.4 95.29 175.64 95.29 175.64 110.43 174.5 110.43 167.3 97.82 167.3 110.43 166.04 110.43 166.04 95.29"/><path class="cls-1" d="m183.23,100.15c1.44,0,2.66.51,3.68,1.55,1.01,1.03,1.51,2.27,1.51,3.72s-.5,2.69-1.51,3.72c-1.02,1.03-2.25,1.53-3.68,1.53s-2.66-.5-3.68-1.53c-1.02-1.04-1.53-2.28-1.53-3.72s.51-2.7,1.53-3.72c1.02-1.04,2.24-1.55,3.68-1.55m-2.77,2.47c-.77.78-1.14,1.71-1.14,2.8s.38,2.02,1.14,2.79c.77.76,1.68,1.15,2.77,1.15s1.99-.39,2.76-1.15c.76-.77,1.15-1.71,1.15-2.79s-.39-2.02-1.15-2.8c-.77-.76-1.69-1.15-2.76-1.15s-2,.38-2.77,1.15"/><path class="cls-1" d="m192.05,103.25v7.17h-1.25v-9.47h1.25v.28c.55-.54,1.33-.83,2.38-.83s2.01.36,2.72,1.07c.7.71,1.06,1.61,1.08,2.68v6.26h-1.25v-6.18c0-.7-.25-1.31-.75-1.81-.52-.5-1.1-.75-1.8-.75s-1.3.25-1.8.74c-.27.28-.46.55-.58.82"/><path class="cls-1" d="m210.36,105.75c-.71-.38-1.21-.72-1.49-1-.46-.46-.69-1.03-.69-1.68s.23-1.22.69-1.7c.46-.46,1.02-.7,1.66-.7s1.21.22,1.63.66c.41.43.62.92.62,1.47v.19l-1.1.46c-.08-.61-.22-1.01-.41-1.21-.18-.2-.43-.28-.74-.28s-.56.1-.77.32c-.23.22-.34.48-.34.8s.11.57.34.79c.13.15.43.36.91.67.78.44,1.35.82,1.7,1.17.54.56.82,1.24.82,2.04s-.28,1.49-.83,2.05c-.57.57-1.23.85-2.02.85s-1.48-.28-2.03-.85c-.56-.56-.84-1.24-.84-2.04l1.25-.33c0,.67.17,1.17.47,1.48.32.32.7.48,1.15.48s.82-.17,1.13-.48c.32-.3.48-.7.48-1.16s-.17-.84-.47-1.16c-.19-.17-.57-.45-1.14-.83"/><path class="cls-1" d="m219.62,110.55c-1.19,0-2.13-.36-2.82-1.06-.7-.71-1.06-1.6-1.07-2.67v-5.87h1.25v5.78c0,.71.25,1.3.75,1.8.5.51,1.13.76,1.88.76.69,0,1.29-.25,1.79-.74.5-.5.74-1.11.74-1.81v-5.78h1.26v5.87c0,1.07-.38,1.97-1.07,2.67-.71.71-1.61,1.06-2.71,1.06"/><path class="cls-1" d="m226.37,100.96h1.25v1.17c.91-.87,1.84-1.34,2.81-1.39v1.34c-.61.02-1.16.3-1.66.82-.75.74-1.12,1.62-1.15,2.64v4.88h-1.25v-9.47Z"/><path class="cls-1" d="m241.12,109.11l-.06.02c-1.03,1.04-2.27,1.55-3.7,1.55s-2.67-.51-3.67-1.53c-1.01-1.04-1.53-2.27-1.53-3.72s.52-2.7,1.53-3.72c1.01-1.03,2.24-1.55,3.67-1.55s2.72.54,3.82,1.64v-.84h1.25v7.23c0,1.41-.49,2.62-1.48,3.63-1.01,1.02-2.24,1.54-3.68,1.54s-2.67-.52-3.69-1.54c-.21-.22-.45-.51-.73-.9l1.28-.46c.15.18.28.32.37.42.77.78,1.7,1.16,2.77,1.16s1.99-.38,2.76-1.16c.69-.7,1.05-1.29,1.09-1.77m.06-4.54c-.15-.72-.51-1.38-1.06-1.96-.77-.76-1.69-1.15-2.77-1.15s-2.01.38-2.77,1.15c-.76.78-1.13,1.71-1.13,2.81s.37,2.03,1.13,2.78c.76.78,1.69,1.16,2.77,1.16s2-.38,2.77-1.16c.55-.56.9-1.2,1.06-1.93v-1.71Z"/><path class="cls-1" d="m246.97,98.07c.2.21.3.45.3.73,0,.29-.11.55-.3.75-.21.21-.45.31-.74.31s-.53-.1-.73-.31c-.2-.2-.32-.46-.32-.75,0-.28.12-.52.32-.73.2-.2.44-.3.73-.3s.53.09.74.3m-.11,12.36h-1.24v-9.47h1.24v9.47Z"/><path class="cls-1" d="m257.73,107.78l1.27.46c-.29.4-.52.7-.72.9-1.02,1.04-2.25,1.55-3.7,1.55s-2.66-.5-3.66-1.53c-1.02-1.04-1.53-2.28-1.53-3.73s.51-2.69,1.53-3.72c1-1.02,2.25-1.55,3.66-1.55s2.68.51,3.7,1.54c.2.23.43.52.72.9l-1.27.47c-.15-.18-.29-.33-.37-.43-.77-.76-1.7-1.15-2.78-1.15s-1.98.39-2.74,1.15c-.77.77-1.15,1.7-1.15,2.79s.38,2.02,1.15,2.79c.76.77,1.68,1.15,2.74,1.15s2.01-.38,2.78-1.15c.08-.1.22-.25.37-.43"/><path class="cls-1" d="m271.41,110.43h-1.25v-1.4c-1.11,1.1-2.39,1.65-3.83,1.65s-2.66-.51-3.68-1.53c-1.02-1.04-1.53-2.28-1.53-3.72s.51-2.7,1.53-3.73c1.02-1.03,2.24-1.55,3.68-1.55s2.72.56,3.83,1.65v-.84h1.25v9.47Zm-1.25-4.22v-1.59c-.14-.75-.5-1.42-1.06-2-.78-.76-1.69-1.15-2.77-1.15s-2.01.38-2.77,1.15c-.77.78-1.15,1.71-1.15,2.8s.38,2.02,1.15,2.78c.76.77,1.68,1.15,2.77,1.15s1.99-.38,2.77-1.15c.56-.58.92-1.26,1.06-1.99"/><rect class="cls-1" x="274.38" y="95.29" width="1.26" height="15.14"/><polygon class="cls-1" points="289.53 96.56 289.53 110.43 288.28 110.43 288.28 96.56 284.6 96.56 284.6 95.29 293.2 95.29 293.2 96.56 289.53 96.56"/><path class="cls-1" d="m295.18,95.29h1.25v5.85c.48-.48,1.25-.72,2.27-.72,1.12,0,2.03.36,2.72,1.07.69.71,1.06,1.6,1.08,2.68v6.26h-1.27v-6.18c0-.71-.25-1.3-.74-1.81-.51-.5-1.1-.74-1.79-.74s-1.28.25-1.8.73c-.21.23-.37.44-.47.65v7.35h-1.25v-15.13Z"/><path class="cls-1" d="m305.47,100.96h1.25v1.17c.9-.87,1.85-1.34,2.81-1.39v1.34c-.61.02-1.17.3-1.67.82-.73.74-1.13,1.62-1.15,2.64v4.88h-1.25v-9.47Z"/><path class="cls-1" d="m313.68,108.51c.62.56,1.43.85,2.43.85,1.08,0,2.01-.39,2.77-1.14.1-.11.23-.24.37-.44l1.28.46c-.27.4-.51.69-.71.9-1.02,1.03-2.26,1.55-3.7,1.55s-2.66-.51-3.68-1.54c-1.02-1.03-1.52-2.28-1.52-3.73s.5-2.69,1.52-3.72c1.01-1.03,2.25-1.55,3.68-1.55,1.24,0,2.32.38,3.24,1.12.15.13.3.27.46.42.05.06.16.17.3.33l-.77.77-5.66,5.73Zm4.57-6.41c-.54-.43-1.25-.63-2.14-.63-1.07,0-2,.38-2.75,1.15-.75.77-1.15,1.7-1.15,2.79,0,.9.21,1.62.63,2.16l5.41-5.48Z"/><path class="cls-1" d="m332.92,110.43h-1.24v-1.4c-1.11,1.1-2.39,1.65-3.82,1.65s-2.67-.51-3.69-1.53c-1.01-1.04-1.52-2.28-1.52-3.72s.51-2.7,1.52-3.73c1.02-1.03,2.24-1.55,3.69-1.55s2.71.56,3.82,1.65v-.84h1.24v9.47Zm-1.24-4.22v-1.59c-.14-.75-.48-1.42-1.06-2-.77-.76-1.68-1.15-2.76-1.15s-2,.38-2.77,1.15c-.77.78-1.15,1.71-1.15,2.8s.39,2.02,1.15,2.78c.77.77,1.68,1.15,2.77,1.15s1.99-.38,2.76-1.15c.58-.58.92-1.26,1.06-1.99"/><path class="cls-1" d="m345.95,110.43h-1.27v-1.4c-1.1,1.1-2.38,1.65-3.82,1.65s-2.66-.51-3.68-1.53c-1.01-1.04-1.51-2.28-1.51-3.72s.5-2.7,1.51-3.73c1.02-1.03,2.25-1.55,3.68-1.55s2.72.56,3.82,1.65v-6.5h1.27v15.13Zm-1.27-4.22v-1.59c-.13-.75-.48-1.42-1.06-2-.77-.76-1.69-1.15-2.77-1.15s-1.99.38-2.77,1.15c-.76.78-1.14,1.71-1.14,2.8s.38,2.02,1.14,2.78c.78.77,1.69,1.15,2.77,1.15s2-.38,2.77-1.15c.58-.58.93-1.26,1.06-1.99"/><path class="cls-1" d="m69.88,115.08s.11-.02.21.01l.12.04c.2.04.37.06.5.06.61,0,1.04-.42,1.3-1.24l.51-1.58-3.33-10.67h1.26l2.71,9.05,2.69-9.05h1.21l-2.75,8.89c-.85,2.76-1.49,4.44-1.92,5.07-.32.46-.9.69-1.77.69-.2,0-.44-.04-.73-.1v-1.18Z"/><rect class="cls-1" x="200.46" y="105.29" width="5.12" height="1.21"/><path class="cls-1" d="m367.87,19.88h-2.84V2.73h-6.38V.02h15.6v2.71h-6.38v17.14Zm20.24-4.45h-.39l-7.03-10.76v15.21h-2.84V.02h3.03l7.09,10.89L395,.02h2.97v19.85h-2.77V4.67l-7.09,10.76Z"/></svg>