<?xml version="1.0" encoding="utf-8"?>
<!-- Generator: Adobe Illustrator 19.0.0, SVG Export Plug-In . SVG Version: 6.00 Build 0)  -->
<svg version="1.1" id="Layer_1" xmlns="http://www.w3.org/2000/svg" xmlns:xlink="http://www.w3.org/1999/xlink" x="0px" y="0px"
	 viewBox="0 0 145 55" enable-background="new 0 0 145 55" xml:space="preserve">
<path fill="#085EAA" d="M31.37808,12.1154c0.23999,0.964-1.01901,1.19701-1.29901,2.022c0.138,0.444-0.549,0.606-0.82399,0.896
	c-0.07201,0.874-0.98001,1.33199-1.09201,2.09599c-0.11699,0.094-0.289,0.18101-0.23199,0.37601l-0.66299,0.673
	c0.144,0.151-0.153,0.172-0.138,0.278l-0.02301,0.668l-0.58,0.39c-0.092,0.363-0.043,0.876-0.43799,1.047
	c0.041,0.35-0.431,0.272-0.464,0.561c0.015,0.563-0.80701,0.739-0.64301,1.426c-0.19299,0.513-0.71899,0.909-0.72899,1.47
	c-0.08501,0.525-0.65201,0.808-0.78801,1.301c-0.291,0.209-0.01199,0.588-0.358,0.789c0.07701,0.971-0.888,1.237-0.884,2.147
	c-0.74599,0.933-0.74599,2.351-1.42499,3.369c-0.505,1.15-0.68401,2.28-1.38901,3.298c0.175,0.578-0.59999,0.814-0.399,1.399
	c-0.53799,0.499-0.37599,1.187-0.78799,1.756c-0.011,0.827-0.694,1.418-0.62,2.177c-0.127,0.412-0.362,0.843-0.25601,1.334
	c-0.48099,0.936-0.72699,2.166-0.73599,3.181c-0.078,0.234-0.40401,0.248-0.621,0.305c-0.34399-0.04-0.533-0.275-0.657-0.584
	c0.11501-1.03,0.78099-1.704,0.657-2.735c0.41299-0.594,0.186-1.182,0.578-1.806c-0.05701-0.435,0.55-0.821,0.39299-1.347
	c0.81001-1.006,0.29001-2.561,1.34801-3.405c0.293-0.93,0.38499-1.99,1.07899-2.688c-0.047-0.996,0.83801-1.724,0.858-2.845
	c0.397-0.919,0.96701-1.682,1.16901-2.784c0.44299-0.351,0.528-0.878,0.815-1.273c0.114-1.244,1.17499-1.871,1.35899-3.03
	c0.397-0.436,0.416-1.076,0.76201-1.545c0.23499-0.642,0.547-1.034,0.726-1.684c0.77899-0.741,0.935-1.874,1.59-2.708
	c0.367-0.173,0.20399-0.62099,0.496-0.828c0.366-1.108,1.183-1.952,1.578-3.085c0.187-0.459,0.55699-0.9,1.058-1.084
	C30.44008,11.66141,30.87808,11.8194,31.37808,12.1154"/>
<path fill="#085EAA" d="M97.79597,7.2078c-1.507,0.706-1.42001,2.464-2.375,3.583c-0.09201,0.44901-0.632,0.80901-0.61801,1.288
	c-0.216,0.126,0.045,0.267-0.039,0.478c-0.68199,0.727-0.89499,1.784-1.50099,2.59399c-0.299,0.311-0.097,0.716-0.371,0.97501
	c-0.03799,0.478-0.492,0.625-0.55901,1.103c-0.407,0.308-0.181,0.898-0.64099,1.18c0.09599,0.428-0.356,0.469-0.49901,0.785
	c-0.24699,0.39301-0.39,0.815-0.61299,1.18c0.084,0.882-0.77901,1.391-0.72,2.191c-0.543,0.463-0.451,1.025-0.758,1.601
	c-0.32201,0.126,0.01399,0.56-0.311,0.685c0.14,0.853-0.591,1.315-0.661,2.084c-0.485,0.534-0.526,0.357-0.72601,1.27
	c-0.019,0.374-0.09999,0.791-0.368,0.998l-0.33699,1.164c-0.34001,0.143-0.033,0.477-0.17601,0.753
	c-0.26599-0.006-0.149,0.331-0.29599,0.446c-0.22601,0.909-0.12801,1.619-0.82501,2.253c0.13901,0.582,0.25801,1.345-0.22699,1.767
	c0.017,0.296,0.317,0.468,0.60699,0.505c1.576-0.174,2.795-1.331,4.02699-2.139c2.12801-1.363,4.25-3.075,6.11301-4.659
	c0.688-0.343,1.205-0.839,1.868-1.211c0-0.213,0.29901-0.229,0.446-0.344c0.14601-0.304,0.537-0.415,0.80501-0.62l0.063,0.114
	c0.48-0.181,0.991-0.41,1.36099-0.792c0.94901-0.092,2.30301-0.402,2.853,0.74c0.106,0.012,0.181,0.05,0.22301,0.137
	c-0.008,0.479-0.561,0.623-0.923,0.738c-1.42101,0.005-2.552,0.881-3.381,1.927c-0.18401-0.022-0.33701,0.119-0.513,0.23
	c-0.235,0.803-1.317,1.092-1.578,1.889c-0.42599,0.374-0.521,0.926-1.02,1.263c-0.07999,0.42-0.84399,0.724-0.36099,1.16
	c0.841-0.294,1.895-0.375,2.429-1.19c0.614-0.19,1.25099-0.566,1.537-1.143c0.51399-0.659,1.327-1.145,1.61499-1.94
	c0.74301-0.145,1.51201-0.718,2.33101-0.21c-0.256,0.553,1.414,0.688,0.207,0.695c-0.26001,0.77-1.30301,1.173-1.334,2.054
	c-0.306,0.496-0.629,0.939-0.634,1.608c-0.164,0.031-0.106,0.201-0.146,0.303c0.24699,0.38,0.66299,0.271,1.034,0.293
	c1.123-0.394,2.06099-1.025,3.179-1.392c0.78099-0.649,1.868-1.207,2.63899-1.778c0.64-0.402,1.38501-0.764,1.998-1.382
	c0.528-0.145,0.771-0.785,1.367-0.842c0.235-0.158,0.367-0.571,0.733-0.498c1.478-1.285,3.229-2.215,4.856-3.186
	c0.08-0.632,0.786-0.49,1.22499-0.567c0.39,0.075,0.77199,0.232,0.93401,0.654c-0.20001,0.511-0.457,0.853-0.62302,1.316
	c-0.19199,0.457-0.62799,0.935-0.42699,1.446c-0.463,0.261-0.44299,0.961-0.894,1.333c0.039,0.325-0.55301,0.358-0.332,0.733
	c-0.483,0.207-0.37199,0.811-0.87,1.122l0.09399,0.119c0.993-0.434,1.741-1.465,2.70599-1.878
	c0.67099-0.639,1.634-1.053,2.37601-1.626c0.612-0.163,1.28198-0.375,1.82999-0.68c0.37201,0.022,0.71899-0.176,1.11002-0.098
	l0.48898,0.785c-0.04099,0.746-0.858,1.069-0.703,1.948c-0.79599,0.355-0.16299,1.292-0.935,1.649
	c-0.14999,0.357-0.28598,0.794-0.22299,1.124c-0.39801,0.191-0.15701,0.809-0.59399,0.888
	c-0.34601,0.386,0.24799,0.997-0.35001,1.269c-0.27701,0.688,0.638,0.458,0.737,0.952c-0.05402,0.422-0.215,0.615-0.647,0.855
	c-0.22501,0.295-0.814,0.084-1.091-0.058c-0.65698-0.727-1.129-1.646-0.68201-2.632c0.16901-0.489,0.09702-0.979,0.461-1.307
	c-0.00497-0.807,0.60001-1.131,0.56302-1.885c0.37299-0.624,0.82098-1.396,0.918-2.162c0.11899-0.092,0.21799-0.241,0.099-0.362
	c-0.56-0.233-0.927,0.336-1.32901,0.554c-1.022,0.646-1.99899,1.594-3.05998,2.343c0.17099,0.342-0.40001,0.403-0.414,0.724
	c-0.386,0.728-1.483,0.909-1.442,1.853c-0.263,0.18-0.007,0.695-0.395,0.806c-0.075,0.154,0.01601,0.299,0.14,0.367l0.13,0.017
	c-0.70399,0.285-1.623,0.543-2.297-0.052c-0.32201-0.416-0.28-1.162-0.095-1.567c0.32199-0.413,0.189-0.859,0.687-1.171
	c0.039-0.316,0.416-0.537,0.25101-0.934c0.20299-0.536,0.707-0.928,0.73199-1.541c0.59399-0.674,1.185-1.51,1.03799-2.466
	c-0.097-0.067-0.166-0.157-0.302-0.146c-0.67699,0.474-1.56799,0.738-2.09099,1.475c-0.845,0.321-1.565,0.927-2.134,1.604
	c-0.453,0.397-1.131,0.473-1.41901,1.027c-0.644,0.425-1.45599,0.724-2.017,1.348c-0.62,0.431-1.19299,0.732-1.911,1.097
	c-0.355,0.465-0.92801,0.765-1.429,0.915c-0.285,0.555-0.95,0.309-1.371,0.658c-0.851,0.588-1.87,0.591-2.843,0.654
	c-0.388-0.531-0.539-1.245-0.842-1.796c-0.172-0.341,0.368-1.212-0.28101-1.161c-1.01799,0.621-2.125,1.74-3.23399,2.243
	c-0.505,0.391-1.17101,0.572-1.83701,0.54c-0.37199-0.448-0.741-0.711-0.739-1.353c-0.42599-0.456,0.228-0.746,0.19501-1.315
	c0.34299-0.384,0.34999-1.053,0.879-1.228c-0.004-0.375,0.41-0.482,0.55299-0.759c0.509-0.846,1.295-1.549,1.875-2.308
	c-1.65399,0.568-2.70599,2.31-4.16899,3.275c-0.76701,0.759-1.905,1.071-2.584,1.975c-1.11101,0.526-1.74101,1.466-2.93401,1.796
	c-0.843,0.724-2.021,1.136-3.146,0.914c-0.593-0.184-0.776-0.638-0.955-1.142c-0.071-1.108-0.015-2.172,0.58699-3.114
	c0.10901-0.443-0.22899-1.154,0.35901-1.347c0.067-0.313-0.002-0.832,0.424-1.02c0.06-0.474,0.26801-1.037,0.561-1.454
	c0.181-1.209,0.722-2.109,0.963-3.219c0.70599-0.595,0.25-1.509,1.00999-2.076c0.093-0.608,0.61101-1.048,0.57401-1.713
	c0.741-0.938,1.037-2.182,1.62399-3.231c0.647-1.421,1.505-2.806,2.04401-4.202c0.511-1.21301,1.438-2.172,1.57899-3.498
	c0.25601-0.712,0.933-1.19901,0.76701-2.081c0.64699-0.303,0.32199-1.19,0.91699-1.52c-0.149-0.456,0.444-0.759,0.638-1.07401
	c0.50999-0.12,1.062,0.054,1.541,0.092C97.75397,6.77981,97.77397,7.0218,97.79597,7.2078"/>
<path fill="#085EAA" d="M73.14398,17.4412l0.06999,0.25101c-0.66,0.12299-0.67999,0.84499-1.08,1.21899
	c-0.09999,0.523-0.507,0.922-0.299,1.353c-0.355,0.247-0.349,0.571-0.474,0.901c-0.418,0.28999-0.02901,0.96099-0.369,1.28999
	c0.166,0.345-0.20599,0.32-0.31799,0.546c0.043,0.463-0.28,0.847-0.496,1.245c0.03799,0.49-0.591,0.776-0.535,1.322
	c0.131,0.421-0.62801,0.474-0.23601,0.933l0.32201,0.18c2.16701-0.127,4.245-0.776,6.50301-0.247
	c-0.119,0.281,0.153,0.453,0.263,0.63c-0.839,0.42-1.02,1.334-1.26401,2.131c0.05301,0.382-0.295,0.765-0.45599,1.144
	c-0.22501,0.452-0.40901,1.179-0.89801,1.619c-0.02299,0.533-0.77299,0.724-0.52699,1.268c-0.233,0.129-0.16701,0.433-0.379,0.593
	c0.114,0.148,0.04399,0.463,0.33,0.529c0.73599,0.103,1.15199-0.752,1.715-0.942c0.95999-0.724,1.56999-1.445,2.535-2.194
	c0.68199-1.033,1.79999-1.548,2.433-2.613c0.73799-0.487,1.746-0.588,2.657-0.193c0.41499,0.487-0.595,0.615-0.614,1.122
	c-0.27,0.392-0.84801,0.688-0.789,1.232c-0.172,0.084-0.15401,0.327-0.119,0.466c-0.72099,0.545-0.823,1.658-0.91,2.479
	c-0.33,0.248,0.11,0.552-0.345,0.728c-0.05099,0.557-0.57799,0.886-0.547,1.426c0.03601,0.516-0.705,0.628-0.65799,1.251
	c-0.15601,0.54-0.53601,0.945-0.59001,1.528c-0.35699,0.057-0.02199,0.345-0.228,0.478c-0.104,0.362-0.41499,0.479-0.66699,0.738
	l0.04399,1.026c-0.582,0.323-0.47099,1.061-0.92799,1.454c0.243,0.947-0.673,1.543-0.92601,2.394
	c0.138,0.745-0.82399,1.28-0.491,2.159c-0.174,0.297,0.151,0.664-0.315,0.922c-0.27699,1.222-0.77199,2.442-0.75999,3.705
	c-0.34,0.704,0.241,1.725-0.547,2.177c-0.26601-0.01-0.504-0.043-0.633-0.275c-0.29501-0.953,0.13399-1.914,0.23299-2.812
	c0.231-0.506,0.005-0.993,0.442-1.441c0.349-0.756-0.034-1.669,0.57001-2.337c-0.007-0.914,0.439-1.602,0.771-2.441
	c0.04201-0.881,0.601-1.796,0.729-2.718c0.608-0.88,0.73-2.151,1.258-3.045c-0.22099-0.916,0.64-1.305,0.674-2.132
	c0.22101-0.803,0.61401-1.498,0.709-2.371c0.64801-0.233,0.136-0.974,0.70801-1.243c-0.00999-0.295,0.233-0.504-0.084-0.735
	c-1.202,0.152-1.76201,1.282-2.746,1.976c-0.265,0.365-0.64,0.743-1.097,0.947c-0.47,0.47-1.12801,0.568-1.703,0.837l-1.23999-0.524
	c-0.71001-1.253,0.38399-2.362,0.44899-3.587c0.323-0.787,0.81401-1.415,0.91-2.288c0.371-0.163,0.186-0.565,0.489-0.818
	c0.263-0.338,0.11101-0.789,0.166-1.186c-0.431-0.381-1.181-0.191-1.707-0.075c-1.108,0.244-2.254,0.381-3.37999,0.572
	c-0.13901,0.221-0.26001,0.501-0.567,0.591c-0.04501,0.318-0.278,0.634-0.181,0.914c-0.42001,0.131-0.257,0.689-0.513,0.975
	c0.05299,0.196,0.082,0.362,0.172,0.508c-0.19301-0.16-0.377,0.189-0.576,0.268c0.187,0.59-0.438,0.827-0.384,1.396
	c-0.68599,0.307-0.52499,1.081-0.653,1.6c-0.38499,0.269-0.202,0.697-0.54599,1.025c0.36499,0.267-0.35301,0.407-0.04501,0.718
	c-0.424,0.344,0.21001,0.808-0.209,1.098c-0.06099,0.823-0.68199,1.435-0.508,2.29c-0.349,0.193-0.384,0.833-0.93499,0.543
	c-0.565-0.377,0.05499-0.772-0.116-1.279c0.07199-1.09,0.43699-2.168,0.63299-3.186c0.265-0.366,0.32201-0.948,0.54201-1.375
	c0.248-1.2,1.092-2.235,1.21599-3.506c0.507-0.171,0.106-0.953,0.64601-1.171c0.045-0.317,0.31099-0.682,0.13399-0.948
	c-0.674-0.361-1.437,0.094-2.09499,0.002c-0.75101,0.003-1.8,0.204-2.382-0.441c-0.039-0.274,0.16499-0.594,0.41899-0.694
	c0.25601-0.096,0.62201,0.169,0.847-0.095c0.14801,0.289,0.45601,0.199,0.749,0.212c0.965-0.187,2.09799-0.218,3.145-0.419
	c0.168-0.244,0.34399-0.354,0.51599-0.625c0.217-0.776,0.36101-1.614,0.851-2.244c-0.065-0.115,0.06801-0.284-0.105-0.39
	c1.021-0.581,0.283-2.028,1.03-2.753c0.155-0.543,0.172-1.239,0.468-1.627c0.132-0.572,0.565-0.969,0.354-1.562
	c0.336-0.3,0.20299-1.071,0.866-1.03201C72.10397,16.62521,73.02098,16.7812,73.14398,17.4412"/>
<path fill="#085EAA" d="M135.61696,27.796c0.013-0.533-0.146-1.17-0.10602-1.702l-0.34698-0.633
	c-0.789-0.127-1.97299-0.492-2.664,0.303c0.03699,0.542-0.49301,0.688-0.65399,1.123c-0.50702,0.417-0.62802,1.152-0.99402,1.696
	c-0.625,0.697-0.896,1.575-1.267,2.384c-0.30399,0.283-0.34601,0.814-0.72101,1.034c-0.45499,1.47-0.94598,3.203-0.73798,4.728
	c0.237,0.462,0.59299,0.828,0.54498,1.412c0.521-0.097,0.30099,0.787,0.841,0.534c0.71899,0.038,0.51599-0.685,0.42902-1.042
	c-0.69702-1.056-0.95502-2.399-0.45901-3.542c-0.198-0.348,0.186-0.62,0.431-0.859c0.30899-0.12,0.68301-0.313,1.03201-0.109
	c0.80798-0.245,1.71698-0.45,2.362-1.091c0.27499-0.689,0.94299-0.872,1.392-1.457c0.151-0.544,0.92599-0.74,0.70999-1.358
	C135.93294,28.882,135.56795,28.166,135.61696,27.796 M133.10497,29.835c0.00598,0.376-0.315,0.792-0.65503,0.936
	c-0.01797-0.084-0.14697-0.127-0.21698-0.19c-0.23502,0.158-0.00601,0.481-0.194,0.672c-0.44,0.106-0.79602,0.783-1.29001,0.452
	c0.26501-0.395,0.22699-0.936,0.66-1.176c-0.14999-0.714,0.76401-1.162,0.823-1.824c0.47101-0.342,1.293-1.951,1.573-0.576
	C133.65294,28.699,133.87196,29.503,133.10497,29.835"/>
<path fill="#085EAA" d="M60.86946,32.1398c-1.27899-0.447-2.685-0.188-4.052-0.003c-1.455,0.226-3.132,1.437-4.55899,1.854
	c-0.89301,0.44-2.04001,0.898-2.95201,1.282c-1.075,0.01-2.61299,0.843-3.351-0.417c0.198-0.642,0.67-1.14,1.142-1.636
	c0.015-0.482,0.49901-0.495,0.731-0.809c1.371-0.212,2.64301-0.865,3.89-1.524c0.612-0.721,1.625-0.873,2.175-1.735
	c0.43401-0.611,1.205-0.934,1.345-1.745c0.04399-0.316-0.09801-0.632-0.41701-0.675c-0.53299-0.399-1.263-0.365-1.92499-0.431
	c-1.16,0.615-2.011,1.329-3.05701,2.094c-0.02299,0.561-0.608,0.508-0.923,0.838l-0.01399,0.016
	c-0.172,0.515-0.696,1.064-1.233,1.293c-0.70399,1.329-2.24699,1.887-3.636,2.06c-0.96201-0.228-1.77901,0.528-2.71001,0.038
	c-1.922,0.161-4.10799,0.071-6.10899,0.009c-1.86501-0.287-3.77201-0.046-5.65801-0.39c-1.153,0.445-2.45799-0.04-3.67299,0.022
	l-0.24101-0.217c-0.008-0.136,0.03401-0.264,0.07401-0.366c0.66701-0.397,1.13901-0.742,1.72101-1.338
	c0.49899-0.125,0.95-0.523,1.20999-0.893c1.013-0.597,1.476-1.717,2.605-2.192c0.18301-0.378,0.701-0.662,1.123-0.823
	c1.61601-1.352,3.164-3.005,4.994-4.143l0.20399-0.565c0.96701-0.654,1.82201-1.056,2.649-1.89
	c0.04901-0.609,0.85201-0.589,1.19701-1.001c0.123-0.763,0.965-0.87,1.164-1.596c1.27699-0.563,1.293-1.981,2.57899-2.408
	c0.05101-0.397,0.347-0.841,0.69701-1.06599c0-0.214,0.07199-0.36501,0.244-0.45c-0.00401-1.046,1.38199-0.765,1.069-1.903
	l0.50499-0.606c-0.036-0.353,0.22301-0.722,0.509-0.847c-0.017-0.726,0.375-1.507,0.366-2.286
	c-0.229-0.296,0.04201-0.772-0.048-1.105c-0.48599-0.195-0.03699-0.779-0.461-1.022c-0.067-1.186-1.16499-1.405-1.45499-2.512
	c-0.37801-0.609-1.132-0.571-1.541-1.158c-1.12801-0.194-2.078-0.313-3.16901-0.585c-2.37601,0.158-4.687,0.64301-6.97,1.108
	c-1.444,0.193-2.86,0.792-4.25,1.208c-1.547,0.367-3.037,0.932-4.522,1.442c-2.565,1.016-5.174,1.948-7.567,3.311
	c-1.07999,0.051-1.81099,0.97701-2.85899,1.221c-1.873,1.265-4.008,1.829-5.897,3.225c-1.48599,0.751-3.103,1.46101-4.424,2.58
	c-0.30099,0.068-0.672,0.023-0.85001,0.375c-0.60399,0.327-1.355,0.124-1.90799,0.485c-0.136,0.437,0.38699,0.529,0.61499,0.853
	c0.746,0.254,0.83101,1.283,1.776,1.214c0.87801,0.057,0.98801-1.027,1.54901-1.441c1.73399-0.799,2.92699-2.203,4.715-2.783
	c1.468-1.235,3.20399-1.634,4.601-2.743c2.015-1.088,3.94699-1.971,5.978-3.001c0.534-0.416,1.254-0.594,1.914-0.726
	c1.61099-1.11,3.58701-1.478,5.396-2.215c0.44701-0.37399,1.08301-0.32,1.578-0.634c1.875-0.219,3.567-1.106,5.47501-1.349
	c1.588-0.71,3.435-0.479,5.166-0.82401c1.06799,0.027,2.72299,0.07201,3.728,0.60101c0.409,0.80099,1.19499,1.356,1.15599,2.31499
	c0.679,1.426-0.56099,2.555-0.314,4.006c-0.252,0.29-0.47299,0.557-0.49699,0.957c-0.58301,0.809-0.938,1.729-1.726,2.435
	c-0.22601,0.318-0.23801,0.828-0.67801,0.933c-0.627,1.368-2.00099,2.293-2.896,3.44c-1.21201,0.679-1.58,1.918-2.903,2.422
	c-0.64301,1.07-1.858,1.563-2.543,2.548c-0.53801,0.441-1.069,1.044-1.63501,1.508c-0.78,0.44-1.23599,1.293-2.135,1.637
	c-0.07199,0.365-0.429,0.428-0.672,0.665c-0.806,0.862-1.91,1.341-2.487,2.312c-0.37199,0.167-0.726,0.66-1.18001,0.845
	c-0.151,0.141-0.12999,0.411-0.39999,0.43c-0.429,0.43-1.069,0.617-1.259,1.265c-0.58299,0.381-1.179,0.87-1.87999,1.102
	c-0.10701,0.227,0.008,0.377-0.082,0.661c0.077,0.678,0.77899,0.632,1.196,0.926c0.793-0.115,1.81299,0.495,2.536,0.077
	c1.40199-0.066,2.75,0.078,4.10201-0.022c2.25899-0.278,4.77899,0.144,7.21999,0.103c0.651,0.16,1.369-0.231,2.01801,0.145
	c1.145,0.064,2.345,0.108,3.345-0.169c0.513,0.171,0.987-0.197,1.521-0.185c0.285,0.089,0.188,0.425,0.16501,0.611
	c-0.26401,0.61,0.07599,1.049,0.03,1.633c0.84,1.672,2.909,0.701,4.246,0.728c2.306-0.564,4.95399-2.409,7.20299-3.141
	c1.56601-0.359,2.50101-0.287,3.763-0.299c0.235,0.061,0.472,0.236,0.38701,0.465c-0.149,0.615-0.05701,1.224-2.58701,2.858
	c-0.461,0.233-0.504,0.402-1.321,0.808c-0.938,0.756-2.15399,0.828-3.213,1.296c0.026,0.193-0.2,0.456,0.049,0.598
	c1.343,0,2.85901,0.292,3.966-0.707c0.69901-0.198,1.252-0.335,1.76199-0.909c0.34601-0.352,0.70401-0.354,1.123-0.727
	c0.173-0.084,0.38901-1.13,0.53601-1.271c0.146-0.139,1.564-1.173,1.636-2.077C62.34746,32.6968,61.67946,32.3058,60.86946,32.1398
	 M50.74147,29.6218c0.52599-0.677,1.41699-0.929,2.02299-1.407c0.073,0.035,0.145,0.101,0.22701,0.085
	c-0.76201,0.671-1.35501,1.259-2.20001,1.545l-0.09,0.068L50.74147,29.6218z"/>
<path fill="#085EAA" d="M139.40776,22.5305c0.82498,0,1.53,0.293,2.11099,0.869c0.578,0.583,0.87201,1.288,0.87201,2.113
	c0,0.827-0.29401,1.529-0.87201,2.108c-0.58099,0.582-1.28601,0.874-2.11099,0.874c-0.832,0-1.53-0.288-2.11099-0.871
	c-0.58502-0.579-0.87302-1.284-0.87302-2.111c0-0.825,0.28799-1.53,0.87302-2.113
	C137.87776,22.8235,138.57576,22.5305,139.40776,22.5305 M139.40175,23.1175c-0.659,0-1.228,0.231-1.69098,0.699
	c-0.46402,0.465-0.69702,1.026-0.69702,1.691c0,0.668,0.233,1.229,0.69702,1.697c0.46298,0.471,1.03198,0.705,1.69098,0.705
	c0.66702,0,1.22702-0.234,1.69299-0.705c0.47101-0.468,0.70602-1.029,0.70602-1.697c0-0.665-0.233-1.226-0.69901-1.691
	C140.63475,23.3485,140.06877,23.1175,139.40175,23.1175 M140.80775,27.1055h-0.79099l-0.25101-0.521
	c-0.086-0.175-0.185-0.33-0.30002-0.469c-0.11099-0.138-0.20398-0.223-0.27698-0.256c-0.078-0.038-0.202-0.056-0.375-0.056h-0.12
	v1.302h-0.63501v-3.169h1.56198c0.306,0,0.55002,0.075,0.729,0.228c0.177,0.163,0.26901,0.378,0.26901,0.658
	c0,0.507-0.28101,0.801-0.853,0.886v0.013c0.129,0.049,0.23499,0.115,0.319,0.201c0.07898,0.086,0.19998,0.27,0.358,0.544
	L140.80775,27.1055z M138.69377,25.3025h0.66498c0.38501,0,0.58401-0.147,0.58401-0.441c0-0.288-0.22-0.432-0.65601-0.432h-0.59299
	V25.3025z"/>
</svg>
