<?xml version="1.0" encoding="utf-8"?>
<!-- Generator: Adobe Illustrator 15.0.0, SVG Export Plug-In . SVG Version: 6.00 Build 0)  -->
<!DOCTYPE svg PUBLIC "-//W3C//DTD SVG 1.1//EN" "http://www.w3.org/Graphics/SVG/1.1/DTD/svg11.dtd">
<svg version="1.1" id="Layer_1" xmlns="http://www.w3.org/2000/svg" xmlns:xlink="http://www.w3.org/1999/xlink" x="0px" y="0px"
	 width="1129.808px" height="550.34px" viewBox="0 0 1129.808 550.34" enable-background="new 0 0 1129.808 550.34"
	 xml:space="preserve">
<g id="Layer_2">
	<polygon fill="#5DAADE" points="1128.671,550.34 564.895,481.34 0,550.34 0,0 1128.671,0 	"/>
	<g>
		<polygon fill="#5DAADE" points="12.756,12.756 1115.916,12.756 1115.916,535.928 564.896,468.489 12.756,535.931 		"/>
		<path fill="#7BC1EA" d="M1111.664,17.008v514.115l-545.734-66.791l-1.033-0.127l-1.031,0.126L17.008,531.127V17.008H1111.664
			 M1120.167,8.504H8.504v532.229l556.393-67.961l555.271,67.959V8.504L1120.167,8.504z"/>
	</g>
	<g>
		<rect x="32.743" y="17.045" fill="#7BC1EA" width="8.504" height="512.021"/>
		<rect x="66.614" y="17.045" fill="#7BC1EA" width="8.504" height="512.021"/>
		<polygon fill="#7BC1EA" points="100.485,527.498 108.989,526.459 108.989,17.045 100.485,17.045 		"/>
		<polygon fill="#7BC1EA" points="134.355,523.361 142.86,522.322 142.86,17.045 134.355,17.045 		"/>
		<polygon fill="#7BC1EA" points="168.227,519.224 176.731,518.186 176.731,17.045 168.227,17.045 		"/>
		<polygon fill="#7BC1EA" points="202.098,515.087 210.602,514.048 210.602,17.045 202.098,17.045 		"/>
		<polygon fill="#7BC1EA" points="235.969,510.949 244.473,509.91 244.473,17.045 235.969,17.045 		"/>
		<polygon fill="#7BC1EA" points="269.839,506.813 278.344,505.773 278.344,17.045 269.839,17.045 		"/>
		<polygon fill="#7BC1EA" points="303.71,502.675 312.215,501.637 312.215,17.045 303.71,17.045 		"/>
		<polygon fill="#7BC1EA" points="337.582,498.538 346.086,497.499 346.086,17.045 337.582,17.045 		"/>
		<polygon fill="#7BC1EA" points="371.453,494.4 379.957,493.362 379.957,17.045 371.453,17.045 		"/>
		<polygon fill="#7BC1EA" points="405.323,490.264 413.828,489.225 413.828,17.045 405.323,17.045 		"/>
		<polygon fill="#7BC1EA" points="439.194,486.126 447.699,485.088 447.699,17.045 439.194,17.045 		"/>
		<polygon fill="#7BC1EA" points="473.065,481.989 481.57,480.95 481.57,17.045 473.065,17.045 		"/>
		<polygon fill="#7BC1EA" points="506.938,477.852 515.441,476.813 515.441,17.045 506.938,17.045 		"/>
		<polygon fill="#7BC1EA" points="540.807,473.715 549.313,472.676 549.313,17.045 540.807,17.045 		"/>
		<polygon fill="#7BC1EA" points="574.679,471.97 583.183,473.011 583.183,17.045 574.679,17.045 		"/>
		<polygon fill="#7BC1EA" points="608.548,476.115 617.054,477.156 617.054,17.045 608.548,17.045 		"/>
		<polygon fill="#7BC1EA" points="642.419,480.261 650.925,481.302 650.925,17.045 642.419,17.045 		"/>
		<polygon fill="#7BC1EA" points="676.291,484.406 684.796,485.447 684.796,17.045 676.291,17.045 		"/>
		<polygon fill="#7BC1EA" points="710.162,488.552 718.667,489.592 718.667,17.045 710.162,17.045 		"/>
		<polygon fill="#7BC1EA" points="744.033,492.697 752.539,493.738 752.539,17.045 744.033,17.045 		"/>
		<polygon fill="#7BC1EA" points="777.904,496.842 786.41,497.883 786.41,17.045 777.904,17.045 		"/>
		<polygon fill="#7BC1EA" points="811.775,500.988 820.281,502.028 820.281,17.045 811.775,17.045 		"/>
		<polygon fill="#7BC1EA" points="845.646,505.133 854.152,506.174 854.152,17.045 845.646,17.045 		"/>
		<polygon fill="#7BC1EA" points="879.517,509.278 888.021,510.319 888.021,17.045 879.517,17.045 		"/>
		<polygon fill="#7BC1EA" points="913.388,513.424 921.892,514.465 921.892,17.045 913.388,17.045 		"/>
		<polygon fill="#7BC1EA" points="947.259,517.569 955.763,518.61 955.763,17.045 947.259,17.045 		"/>
		<polygon fill="#7BC1EA" points="981.13,521.715 989.634,522.756 989.634,17.045 981.13,17.045 		"/>
		<polygon fill="#7BC1EA" points="1015.001,525.86 1023.505,526.901 1023.505,17.045 1015.001,17.045 		"/>
		<rect x="1048.873" y="17.045" fill="#7BC1EA" width="8.504" height="512.021"/>
		<rect x="1082.744" y="17.045" fill="#7BC1EA" width="8.504" height="512.021"/>
	</g>
</g>
<g id="Layer_4">
	<path fill="#DEBC64" d="M387.902,108.456c0,0,23.042,95.866-22.612,177.875S228.75,407.1,228.75,407.1
		s-84.123-40.451-130.623-121.613c-46.5-81.163-28.53-177.029-28.53-177.029s58.12-38,158.729-38
		C328.935,70.457,387.902,108.456,387.902,108.456z"/>
	<g>
		<path fill="#473A17" d="M112.574,196.502l-3.792,13.669H96.377l16.197-53.253h15.802l16.592,53.253h-13.037l-4.108-13.669H112.574
			z M126.085,187.496l-3.318-11.298c-0.948-3.161-1.896-7.111-2.687-10.271h-0.158c-0.79,3.16-1.581,7.19-2.449,10.271
			l-3.161,11.298H126.085z"/>
		<path fill="#473A17" d="M155.952,210.171l-12.642-53.253h12.879l4.029,21.886c1.185,6.4,2.292,13.274,3.161,18.646h0.158
			c0.869-5.768,2.133-12.167,3.477-18.804l4.503-21.728h12.8l4.267,22.439c1.185,6.242,2.054,11.931,2.844,17.856h0.158
			c0.79-5.926,1.975-12.167,3.081-18.567l4.346-21.728h12.247l-13.748,53.253h-13.037l-4.504-22.913
			c-1.027-5.373-1.896-10.35-2.528-16.434h-0.158c-0.948,6.005-1.817,11.062-3.082,16.434l-5.057,22.913H155.952z"/>
		<path fill="#473A17" d="M225.641,196.502l-3.792,13.669h-12.404l16.197-53.253h15.802l16.592,53.253h-13.037l-4.108-13.669
			H225.641z M239.151,187.496l-3.318-11.298c-0.948-3.161-1.896-7.111-2.687-10.271h-0.158c-0.79,3.16-1.581,7.19-2.449,10.271
			l-3.161,11.298H239.151z"/>
		<path fill="#473A17" d="M265.067,157.63c3.871-0.632,9.56-1.106,16.039-1.106c7.901,0,13.432,1.186,17.224,4.188
			c3.239,2.528,4.978,6.321,4.978,11.22c0,6.716-4.82,11.377-9.401,13.037v0.237c3.713,1.501,5.768,4.978,7.11,9.876
			c1.659,6.083,3.24,13.037,4.268,15.091h-12.326c-0.79-1.58-2.133-5.847-3.634-12.405c-1.501-6.716-3.792-8.454-8.771-8.533h-3.556
			v20.938h-11.93L265.067,157.63L265.067,157.63z M276.998,180.542h4.741c6.005,0,9.56-3.002,9.56-7.664
			c0-4.82-3.318-7.348-8.849-7.348c-2.923,0-4.583,0.158-5.452,0.395V180.542z"/>
		<path fill="#473A17" d="M311.92,157.709c4.424-0.711,10.192-1.186,16.197-1.186c10.191,0,16.829,1.896,21.886,5.689
			c5.531,4.108,9.007,10.667,9.007,20.068c0,10.192-3.713,17.224-8.77,21.57c-5.61,4.662-14.223,6.874-24.651,6.874
			c-6.242,0-10.745-0.395-13.668-0.79L311.92,157.709L311.92,157.709z M323.929,201.085c1.027,0.237,2.767,0.237,4.188,0.237
			c10.981,0.079,18.172-5.926,18.172-18.646c0-11.062-6.479-16.908-16.908-16.908c-2.606,0-4.424,0.237-5.452,0.474V201.085z"/>
	</g>
	<g>
		<path fill="#FFFFFF" d="M436.768,147.885v-4.806l6.142-5.963c14.774-14.063,21.539-21.539,21.539-30.262
			c0-5.874-2.759-11.303-11.394-11.303c-5.251,0-9.611,2.67-12.283,4.896l-2.491-5.519c3.917-3.293,9.702-5.875,16.288-5.875
			c12.46,0,17.712,8.544,17.712,16.822c0,10.681-7.744,19.314-19.938,31.063l-4.539,4.272v0.178h25.9v6.498L436.768,147.885
			L436.768,147.885z"/>
		<path fill="#FFFFFF" d="M520.962,118.335c0,19.67-7.387,30.528-20.115,30.528c-11.304,0-19.047-10.591-19.225-29.729
			c0-19.492,8.456-30.083,20.204-30.083C513.931,89.053,520.962,99.911,520.962,118.335z M489.544,119.225
			c0,15.042,4.628,23.586,11.749,23.586c7.921,0,11.749-9.346,11.749-24.12c0-14.241-3.56-23.586-11.749-23.586
			C494.528,95.105,489.544,103.472,489.544,119.225z"/>
		<path fill="#FFFFFF" d="M545.079,97.33h-0.178l-10.059,5.429l-1.513-5.963l12.639-6.765h6.676v57.853h-7.565V97.33z"/>
		<path fill="#FFFFFF" d="M597.945,147.885v-15.843h-26.881v-5.073l25.813-36.937h8.455v35.958h8.1v6.052h-8.1v15.843H597.945z
			 M597.945,125.99v-19.314c0-3.026,0.088-6.052,0.266-9.079h-0.266c-1.781,3.382-3.205,5.875-4.809,8.544l-14.15,19.67v0.178
			L597.945,125.99L597.945,125.99z"/>
		<path fill="#FFFFFF" d="M481.359,232.016c-2.76,1.424-8.544,2.848-15.844,2.848c-16.91,0-29.55-10.681-29.55-30.439
			c0-18.869,12.729-31.508,31.33-31.508c7.387,0,12.194,1.602,14.241,2.67l-1.958,6.319c-2.848-1.424-7.031-2.492-12.017-2.492
			c-14.063,0-23.407,8.989-23.407,24.743c0,14.775,8.456,24.12,22.963,24.12c4.806,0,9.612-0.979,12.728-2.492L481.359,232.016z"/>
		<path fill="#FFFFFF" d="M525.857,222.047c0,4.539,0.09,8.455,0.356,11.837h-6.942l-0.444-7.031h-0.179
			c-1.957,3.471-6.586,8.01-14.24,8.01c-6.766,0-14.864-3.827-14.864-18.869v-25.188h7.832v23.764
			c0,8.188,2.582,13.796,9.613,13.796c5.251,0,8.899-3.649,10.323-7.209c0.445-1.068,0.713-2.492,0.713-4.005v-26.345h7.832V222.047
			L525.857,222.047z"/>
		<path fill="#FFFFFF" d="M537.782,225.963c2.403,1.424,6.498,3.026,10.414,3.026c5.606,0,8.276-2.759,8.276-6.409
			c0-3.738-2.225-5.696-7.921-7.832c-7.833-2.848-11.481-7.032-11.481-12.194c0-6.941,5.695-12.639,14.863-12.639
			c4.361,0,8.188,1.157,10.504,2.67l-1.869,5.696c-1.691-1.068-4.808-2.582-8.813-2.582c-4.629,0-7.121,2.67-7.121,5.875
			c0,3.56,2.492,5.162,8.1,7.387c7.388,2.759,11.304,6.498,11.304,12.906c0,7.654-5.963,12.995-16.021,12.995
			c-4.717,0-9.079-1.246-12.104-3.026L537.782,225.963z"/>
		<path fill="#FFFFFF" d="M583.529,180.482v10.325h11.215v5.963h-11.215V220c0,5.34,1.514,8.367,5.873,8.367
			c2.137,0,3.383-0.178,4.541-0.534l0.354,5.963c-1.512,0.534-3.916,1.068-6.941,1.068c-3.648,0-6.586-1.246-8.455-3.293
			c-2.137-2.403-3.025-6.23-3.025-11.304V196.77h-6.676v-5.963h6.676v-8.01L583.529,180.482z"/>
		<path fill="#FFFFFF" d="M642.001,211.99c0,15.932-11.125,22.874-21.449,22.874c-11.57,0-20.648-8.544-20.648-22.162
			c0-14.33,9.521-22.785,21.359-22.785C633.636,189.917,642.001,198.906,642.001,211.99z M607.914,212.435
			c0,9.435,5.34,16.555,12.994,16.555c7.477,0,13.084-7.032,13.084-16.733c0-7.298-3.65-16.466-12.906-16.466
			C611.917,195.791,607.914,204.335,607.914,212.435z"/>
		<path fill="#FFFFFF" d="M651.878,202.466c0-4.54-0.178-8.1-0.355-11.66h6.854l0.355,7.031H659
			c2.402-4.094,6.408-7.921,13.617-7.921c5.785,0,10.234,3.56,12.104,8.633h0.178c1.338-2.492,3.115-4.272,4.896-5.607
			c2.582-1.958,5.342-3.026,9.436-3.026c5.785,0,14.24,3.738,14.24,18.691v25.277h-7.654v-24.298c0-8.366-3.113-13.262-9.346-13.262
			c-4.539,0-7.922,3.293-9.346,7.032c-0.355,1.157-0.623,2.492-0.623,3.916v26.612h-7.654v-25.812
			c0-6.854-3.025-11.749-8.988-11.749c-4.807,0-8.455,3.917-9.701,7.833c-0.445,1.068-0.623,2.492-0.623,3.827v25.9h-7.654v-31.417
			H651.878z"/>
		<path fill="#FFFFFF" d="M730.464,213.77c0.178,10.592,6.855,14.953,14.775,14.953c5.605,0,9.078-0.979,11.926-2.225l1.426,5.607
			c-2.76,1.246-7.564,2.759-14.42,2.759c-13.262,0-21.184-8.813-21.184-21.806c0-12.994,7.654-23.141,20.205-23.141
			c14.15,0,17.801,12.283,17.801,20.204c0,1.602-0.09,2.759-0.268,3.649H730.464z M753.427,208.163
			c0.09-4.896-2.047-12.639-10.857-12.639c-8.01,0-11.393,7.209-12.016,12.639H753.427z"/>
		<path fill="#FFFFFF" d="M770.691,204.246c0-5.073-0.09-9.434-0.355-13.439h6.854l0.355,8.544h0.268
			c1.959-5.785,6.766-9.435,12.018-9.435c0.801,0,1.424,0.089,2.135,0.178v7.387c-0.801-0.178-1.602-0.178-2.67-0.178
			c-5.518,0-9.434,4.094-10.502,9.969c-0.178,1.068-0.268,2.403-0.268,3.649v22.963h-7.834V204.246L770.691,204.246z"/>
		<path fill="#FFFFFF" d="M817.949,224.45c3.473,2.225,8.455,3.917,13.797,3.917c7.92,0,12.549-4.184,12.549-10.236
			c0-5.518-3.203-8.812-11.303-11.837c-9.791-3.56-15.844-8.723-15.844-17.089c0-9.346,7.742-16.288,19.402-16.288
			c6.053,0,10.592,1.424,13.172,2.938l-2.135,6.319c-1.869-1.157-5.875-2.848-11.305-2.848c-8.188,0-11.305,4.895-11.305,8.989
			c0,5.607,3.65,8.366,11.928,11.571c10.146,3.916,15.221,8.812,15.221,17.623c0,9.257-6.766,17.356-20.916,17.356
			c-5.785,0-12.105-1.78-15.311-3.916L817.949,224.45z"/>
		<path fill="#FFFFFF" d="M867.433,213.77c0.18,10.592,6.855,14.953,14.775,14.953c5.607,0,9.078-0.979,11.926-2.225l1.426,5.607
			c-2.76,1.246-7.564,2.759-14.42,2.759c-13.262,0-21.184-8.813-21.184-21.806c0-12.994,7.654-23.141,20.205-23.141
			c14.15,0,17.801,12.283,17.801,20.204c0,1.602-0.09,2.759-0.268,3.649H867.433z M890.396,208.163
			c0.09-4.896-2.047-12.639-10.857-12.639c-8.01,0-11.395,7.209-12.018,12.639H890.396z"/>
		<path fill="#FFFFFF" d="M907.66,204.246c0-5.073-0.088-9.434-0.355-13.439h6.855l0.354,8.544h0.27
			c1.957-5.785,6.764-9.435,12.016-9.435c0.801,0,1.424,0.089,2.135,0.178v7.387c-0.801-0.178-1.602-0.178-2.67-0.178
			c-5.518,0-9.434,4.094-10.502,9.969c-0.178,1.068-0.268,2.403-0.268,3.649v22.963h-7.832v-29.638H907.66z"/>
		<path fill="#FFFFFF" d="M942.013,190.807l8.455,24.12c1.426,4.005,2.582,7.565,3.473,11.125h0.268
			c0.979-3.56,2.225-7.12,3.648-11.125l8.365-24.12h8.189l-16.91,43.078h-7.477l-16.379-43.078H942.013z"/>
		<path fill="#FFFFFF" d="M990.517,178.702c0,2.67-1.869,4.806-4.982,4.806c-2.85,0-4.717-2.136-4.717-4.806
			s1.957-4.896,4.895-4.896C988.56,173.807,990.517,175.943,990.517,178.702z M981.794,233.885v-43.078h7.834v43.078H981.794z"/>
		<path fill="#FFFFFF" d="M1033.328,232.372c-2.047,0.979-6.588,2.492-12.373,2.492c-12.994,0-21.449-8.813-21.449-21.984
			c0-13.262,9.078-22.963,23.141-22.963c4.629,0,8.725,1.157,10.859,2.314l-1.781,5.963c-1.869-0.979-4.805-2.047-9.078-2.047
			c-9.879,0-15.219,7.387-15.219,16.288c0,9.969,6.408,16.11,14.951,16.11c4.451,0,7.389-1.068,9.613-2.047L1033.328,232.372z"/>
		<path fill="#FFFFFF" d="M1046.32,213.77c0.178,10.592,6.854,14.953,14.773,14.953c5.607,0,9.078-0.979,11.926-2.225l1.426,5.607
			c-2.76,1.246-7.564,2.759-14.418,2.759c-13.264,0-21.186-8.813-21.186-21.806c0-12.994,7.654-23.141,20.205-23.141
			c14.152,0,17.801,12.283,17.801,20.204c0,1.602-0.09,2.759-0.268,3.649H1046.32z M1069.283,208.163
			c0.09-4.896-2.047-12.639-10.859-12.639c-8.01,0-11.393,7.209-12.016,12.639H1069.283z"/>
		<path fill="#FFFFFF" d="M444.854,302.885l-11.115-43.812h5.979l5.2,22.166c1.3,5.46,2.47,10.92,3.25,15.146h0.13
			c0.715-4.354,2.08-9.556,3.575-15.211l5.85-22.101h5.915l5.331,22.229c1.235,5.2,2.405,10.4,3.056,15.016h0.13
			c0.91-4.81,2.145-9.686,3.51-15.146l5.786-22.101h5.785l-12.416,43.812h-5.915l-5.525-22.815c-1.365-5.59-2.274-9.88-2.859-14.3
			h-0.131c-0.715,4.354-1.755,8.646-3.38,14.3l-6.239,22.815L444.854,302.885L444.854,302.885z"/>
		<path fill="#FFFFFF" d="M492.173,256.733h5.72v19.695h0.131c0.909-1.625,2.34-3.12,4.095-4.095
			c1.689-0.976,3.705-1.561,5.85-1.561c4.227,0,10.986,2.601,10.986,13.391v18.721h-5.72v-18.069c0-5.07-1.885-9.296-7.28-9.296
			c-3.705,0-6.565,2.601-7.67,5.655c-0.325,0.845-0.39,1.69-0.39,2.73v18.979h-5.721L492.173,256.733L492.173,256.733z"/>
		<path fill="#FFFFFF" d="M550.349,295.345c0,2.729,0.13,5.396,0.455,7.54h-5.135l-0.455-3.965h-0.194
			c-1.756,2.471-5.136,4.68-9.621,4.68c-6.369,0-9.62-4.484-9.62-9.035c0-7.604,6.76-11.766,18.916-11.699v-0.65
			c0-2.535-0.716-7.28-7.15-7.215c-2.99,0-6.045,0.845-8.255,2.34l-1.3-3.835c2.6-1.625,6.435-2.73,10.399-2.73
			c9.62,0,11.961,6.565,11.961,12.806L550.349,295.345L550.349,295.345z M544.824,286.829c-6.24-0.13-13.326,0.976-13.326,7.085
			c0,3.771,2.47,5.461,5.331,5.461c4.16,0,6.825-2.602,7.735-5.266c0.194-0.65,0.26-1.301,0.26-1.82V286.829z"/>
		<path fill="#FFFFFF" d="M566.208,263.883v7.541h8.189v4.354h-8.189v16.967c0,3.9,1.104,6.109,4.291,6.109
			c1.559,0,2.469-0.129,3.314-0.39l0.26,4.354c-1.105,0.391-2.859,0.779-5.07,0.779c-2.664,0-4.81-0.91-6.175-2.404
			c-1.561-1.756-2.21-4.551-2.21-8.256v-17.16h-4.875v-4.354h4.875v-5.851L566.208,263.883z"/>
		<path fill="#FFFFFF" d="M611.58,301.52c-2.016,1.041-6.24,2.08-11.57,2.08c-12.352,0-21.582-7.8-21.582-22.229
			c0-13.78,9.297-23.011,22.881-23.011c5.396,0,8.906,1.17,10.4,1.95l-1.43,4.615c-2.08-1.041-5.137-1.82-8.775-1.82
			c-10.271,0-17.096,6.565-17.096,18.07c0,10.791,6.176,17.616,16.771,17.616c3.51,0,7.021-0.716,9.295-1.82L611.58,301.52z"/>
		<path fill="#FFFFFF" d="M618.533,256.733h5.721v46.151h-5.721V256.733z"/>
		<path fill="#FFFFFF" d="M640.242,262.583c0,1.95-1.365,3.511-3.641,3.511c-2.08,0-3.443-1.561-3.443-3.511s1.43-3.575,3.574-3.575
			C638.812,259.008,640.242,260.568,640.242,262.583z M633.873,302.885v-31.461h5.721v31.461H633.873z"/>
		<path fill="#FFFFFF" d="M649.082,279.938c0-3.313-0.064-5.915-0.26-8.515h5.07l0.324,5.2h0.131
			c1.561-2.926,5.199-5.851,10.4-5.851c4.354,0,11.115,2.601,11.115,13.391v18.721h-5.723v-18.136c0-5.07-1.885-9.295-7.279-9.295
			c-3.705,0-6.631,2.665-7.67,5.85c-0.26,0.715-0.391,1.69-0.391,2.665v18.916h-5.721v-22.946H649.082z"/>
		<path fill="#FFFFFF" d="M691.527,262.583c0,1.95-1.365,3.511-3.641,3.511c-2.08,0-3.445-1.561-3.445-3.511s1.43-3.575,3.574-3.575
			C690.097,259.008,691.527,260.568,691.527,262.583z M685.156,302.885v-31.461h5.721v31.461H685.156z"/>
		<path fill="#FFFFFF" d="M722.792,301.779c-1.496,0.716-4.811,1.82-9.035,1.82c-9.49,0-15.666-6.437-15.666-16.057
			c0-9.686,6.631-16.771,16.9-16.771c3.381,0,6.371,0.845,7.93,1.69l-1.299,4.354c-1.365-0.715-3.51-1.494-6.631-1.494
			c-7.215,0-11.115,5.395-11.115,11.895c0,7.28,4.68,11.766,10.92,11.766c3.25,0,5.396-0.778,7.021-1.494L722.792,301.779z"/>
		<path fill="#FFFFFF" d="M727.472,299.505c0-2.341,1.625-4.096,3.9-4.096c2.273,0,3.834,1.69,3.834,4.096
			c0,2.34-1.561,4.095-3.965,4.095C729.033,303.6,727.472,301.845,727.472,299.505z"/>
		<path fill="#FFFFFF" d="M764.716,301.779c-1.494,0.716-4.811,1.82-9.035,1.82c-9.488,0-15.666-6.437-15.666-16.057
			c0-9.686,6.631-16.771,16.902-16.771c3.379,0,6.369,0.845,7.93,1.69l-1.301,4.354c-1.365-0.715-3.51-1.494-6.629-1.494
			c-7.217,0-11.117,5.395-11.117,11.895c0,7.28,4.682,11.766,10.922,11.766c3.25,0,5.396-0.778,7.021-1.494L764.716,301.779z"/>
		<path fill="#FFFFFF" d="M799.492,286.895c0,11.636-8.125,16.705-15.666,16.705c-8.449,0-15.08-6.24-15.08-16.186
			c0-10.465,6.955-16.641,15.6-16.641C793.382,270.773,799.492,277.339,799.492,286.895z M774.595,287.219
			c0,6.891,3.9,12.092,9.49,12.092c5.461,0,9.557-5.136,9.557-12.222c0-5.33-2.666-12.025-9.426-12.025
			C777.521,275.063,774.595,281.304,774.595,287.219z"/>
		<path fill="#FFFFFF" d="M806.705,279.938c0-3.313-0.129-5.915-0.26-8.515h5.006l0.26,5.136h0.195
			c1.754-2.991,4.68-5.786,9.943-5.786c4.227,0,7.477,2.601,8.842,6.306h0.131c0.975-1.82,2.273-3.12,3.574-4.096
			c1.885-1.43,3.898-2.21,6.891-2.21c4.225,0,10.398,2.73,10.398,13.65v18.461h-5.59v-17.746c0-6.108-2.273-9.685-6.824-9.685
			c-3.314,0-5.785,2.404-6.824,5.135c-0.262,0.846-0.455,1.82-0.455,2.86v19.436H826.4v-18.851c0-5.006-2.211-8.58-6.564-8.58
			c-3.51,0-6.176,2.859-7.086,5.72c-0.324,0.78-0.455,1.82-0.455,2.795v18.916h-5.59V279.938L806.705,279.938z"/>
	</g>
</g>
</svg>
