<?xml version="1.0" encoding="utf-8"?>
<!-- Generator: Adobe Illustrator 15.0.0, SVG Export Plug-In . SVG Version: 6.00 Build 0)  -->
<!DOCTYPE svg PUBLIC "-//W3C//DTD SVG 1.1//EN" "http://www.w3.org/Graphics/SVG/1.1/DTD/svg11.dtd">
<svg version="1.1" id="Layer_1" xmlns="http://www.w3.org/2000/svg" xmlns:xlink="http://www.w3.org/1999/xlink" x="0px" y="0px"
	 width="1129.809px" height="550.34px" viewBox="0 0 1129.809 550.34" enable-background="new 0 0 1129.809 550.34"
	 xml:space="preserve">
<path fill="none" d="M0,0v550.34l564.896-69l563.776,69V0H0z M1120.168,540.731l-555.271-67.959L8.504,540.733V8.504h1111.664
	V540.731z"/>
<g id="Layer_4">
	<g>
		<path fill="none" d="M112.574,196.502l-3.792,13.669H96.377l16.197-53.253h15.802l16.592,53.253h-13.036l-4.108-13.669H112.574
			L112.574,196.502z M126.085,187.496l-3.317-11.299c-0.948-3.16-1.896-7.11-2.688-10.271h-0.158
			c-0.79,3.16-1.581,7.19-2.448,10.271l-3.161,11.299H126.085z"/>
		<path fill="none" d="M155.952,210.171l-12.642-53.253h12.879l4.028,21.886c1.186,6.4,2.293,13.274,3.161,18.646h0.158
			c0.869-5.769,2.133-12.167,3.478-18.805l4.503-21.728h12.8l4.267,22.438c1.186,6.242,2.055,11.932,2.845,17.856h0.157
			c0.79-5.926,1.976-12.167,3.081-18.567l4.347-21.728h12.246l-13.747,53.253h-13.037l-4.504-22.913
			c-1.027-5.373-1.896-10.35-2.528-16.435h-0.158c-0.948,6.006-1.817,11.063-3.082,16.435l-5.057,22.913H155.952L155.952,210.171z"
			/>
		<path fill="none" d="M225.641,196.502l-3.792,13.669h-12.404l16.197-53.253h15.802l16.592,53.253h-13.037l-4.107-13.669H225.641
			L225.641,196.502z M239.151,187.496l-3.318-11.299c-0.947-3.16-1.896-7.11-2.687-10.271h-0.158
			c-0.79,3.16-1.581,7.19-2.449,10.271l-3.161,11.299H239.151z"/>
		<path fill="none" d="M265.067,157.63c3.871-0.632,9.56-1.106,16.039-1.106c7.9,0,13.432,1.187,17.224,4.188
			c3.239,2.527,4.979,6.321,4.979,11.22c0,6.716-4.82,11.377-9.401,13.037v0.237c3.713,1.501,5.769,4.978,7.11,9.876
			c1.659,6.083,3.24,13.037,4.268,15.091h-12.326c-0.79-1.58-2.133-5.847-3.634-12.405c-1.501-6.716-3.792-8.454-8.771-8.533h-3.557
			v20.938h-11.93L265.067,157.63L265.067,157.63z M276.998,180.542h4.741c6.005,0,9.56-3.002,9.56-7.664
			c0-4.82-3.317-7.349-8.849-7.349c-2.923,0-4.583,0.158-5.452,0.396V180.542z"/>
		<path fill="none" d="M311.921,157.709c4.424-0.711,10.191-1.187,16.196-1.187c10.191,0,16.829,1.896,21.887,5.689
			c5.53,4.107,9.007,10.667,9.007,20.067c0,10.192-3.713,17.225-8.771,21.57c-5.609,4.662-14.223,6.874-24.65,6.874
			c-6.242,0-10.745-0.395-13.668-0.79L311.921,157.709L311.921,157.709z M323.929,201.085c1.026,0.236,2.767,0.236,4.188,0.236
			c10.981,0.079,18.172-5.926,18.172-18.646c0-11.063-6.479-16.908-16.907-16.908c-2.606,0-4.425,0.237-5.452,0.475V201.085z"/>
	</g>
	<g>
		<path fill="none" d="M501.294,142.811c7.921,0,11.749-9.346,11.749-24.12c0-14.24-3.561-23.586-11.749-23.586
			c-6.766,0-11.749,8.367-11.749,24.12C489.545,134.267,494.173,142.811,501.294,142.811z"/>
		<path fill="none" d="M784.217,275.064c-6.695-0.001-9.621,6.24-9.621,12.155c0,6.891,3.899,12.092,9.49,12.092
			c5.461,0,9.557-5.136,9.557-12.222C793.642,281.759,790.976,275.064,784.217,275.064z"/>
		<path fill="none" d="M879.539,195.524c-8.01,0-11.395,7.209-12.018,12.64h22.875C890.486,203.267,888.349,195.524,879.539,195.524
			z"/>
		<path fill="none" d="M742.57,195.524c-8.01,0-11.393,7.209-12.016,12.64h22.873C753.517,203.267,751.381,195.524,742.57,195.524z"
			/>
		<path fill="none" d="M531.498,293.914c0,3.771,2.471,5.461,5.331,5.461c4.16,0,6.825-2.603,7.735-5.267
			c0.194-0.649,0.26-1.301,0.26-1.819v-5.46C538.584,286.699,531.498,287.805,531.498,293.914z"/>
		<path fill="none" d="M621.087,195.791c-9.169,0-13.173,8.544-13.173,16.644c0,9.436,5.341,16.555,12.994,16.555
			c7.478,0,13.084-7.031,13.084-16.732C633.992,204.959,630.343,195.791,621.087,195.791z"/>
		<path fill="none" d="M1058.425,195.524c-8.011,0-11.394,7.209-12.017,12.64h22.875
			C1069.373,203.267,1067.236,195.524,1058.425,195.524z"/>
		<path fill="none" d="M597.945,106.676c0-3.026,0.088-6.052,0.267-9.079h-0.267c-1.781,3.382-3.205,5.875-4.809,8.544l-14.15,19.67
			v0.178l18.959,0.001V106.676z"/>
	</g>
	<path fill="none" d="M17.008,17.008v514.119l546.858-66.797l1.031-0.126l1.033,0.127l545.733,66.791V17.008H17.008z
		 M777.19,190.807l0.355,8.544h0.268c1.959-5.785,6.766-9.435,12.018-9.435c0.802,0,1.425,0.089,2.136,0.178v7.387
		c-0.802-0.178-1.603-0.178-2.67-0.178c-5.519,0-9.435,4.094-10.502,9.969c-0.179,1.068-0.269,2.403-0.269,3.649v22.963h-7.834
		v-29.638h-0.001c0-5.073-0.09-9.435-0.354-13.439H777.19z M571.064,126.969l25.813-36.938h8.454v35.958h8.101v6.053h-8.101v15.843
		h-7.387v-15.843h-26.881V126.969z M552.734,208.961c7.388,2.759,11.304,6.498,11.304,12.906c0,7.653-5.963,12.994-16.021,12.994
		c-4.717,0-9.079-1.245-12.104-3.025l1.869-5.873c2.403,1.424,6.498,3.025,10.414,3.025c5.606,0,8.276-2.759,8.276-6.408
		c0-3.738-2.226-5.696-7.921-7.832c-7.833-2.849-11.481-7.032-11.481-12.194c0-6.941,5.695-12.639,14.863-12.639
		c4.361,0,8.188,1.156,10.504,2.67l-1.869,5.695c-1.691-1.067-4.808-2.581-8.813-2.581c-4.63,0-7.121,2.67-7.121,5.875
		C544.635,205.134,547.127,206.736,552.734,208.961z M545.969,90.031h6.676v57.854h-7.565V97.33h-0.178l-10.059,5.429l-1.514-5.963
		L545.969,90.031z M501.826,89.051c12.105,0.002,19.137,10.86,19.137,29.284c0,19.67-7.388,30.527-20.115,30.527
		c-11.304,0-19.047-10.591-19.226-29.729C481.622,99.642,490.078,89.051,501.826,89.051z M436.768,143.079l6.142-5.963
		c14.774-14.063,21.539-21.539,21.539-30.263c0-5.874-2.759-11.303-11.394-11.303c-5.251,0-9.611,2.67-12.283,4.896l-2.491-5.519
		c3.917-3.293,9.702-5.875,16.288-5.875c12.46,0,17.712,8.544,17.712,16.822c0,10.681-7.744,19.313-19.938,31.063l-4.539,4.272
		v0.178h25.899v6.498l-36.936-0.001V143.079z M467.296,172.917c7.387,0,12.193,1.602,14.24,2.67l-1.958,6.318
		c-2.848-1.424-7.03-2.491-12.017-2.491c-14.063,0-23.407,8.988-23.407,24.743c0,14.774,8.456,24.119,22.963,24.119
		c4.807,0,9.612-0.979,12.729-2.491l1.514,6.23c-2.76,1.424-8.544,2.848-15.844,2.848c-16.91,0-29.55-10.681-29.55-30.438
		C435.966,185.556,448.694,172.917,467.296,172.917z M365.29,286.331C319.636,368.34,228.75,407.1,228.75,407.1
		s-84.123-40.451-130.623-121.613S69.597,108.458,69.597,108.458s58.119-38,158.729-38c100.609-0.001,159.576,37.998,159.576,37.998
		S410.944,204.322,365.29,286.331z M474.82,302.883h-5.915l-5.524-22.815c-1.365-5.59-2.274-9.88-2.859-14.3h-0.131
		c-0.715,4.354-1.755,8.646-3.38,14.3l-6.239,22.815l-5.917,0.002l-11.115-43.813h5.979l5.2,22.166
		c1.3,5.461,2.47,10.921,3.25,15.146h0.13c0.715-4.354,2.08-9.556,3.574-15.211l5.851-22.102h5.915l5.331,22.229
		c1.234,5.2,2.405,10.4,3.056,15.016h0.13c0.91-4.81,2.146-9.686,3.511-15.146l5.785-22.102h5.785L474.82,302.883z M518.955,302.884
		h-5.72v-18.069c0-5.069-1.885-9.296-7.28-9.296c-3.704,0-6.564,2.602-7.67,5.655c-0.324,0.845-0.39,1.689-0.39,2.729v18.979h-5.721
		l-0.001-46.15h5.72v19.695h0.131c0.909-1.625,2.34-3.12,4.095-4.095c1.689-0.977,3.705-1.562,5.851-1.562
		c4.227,0,10.985,2.602,10.985,13.392V302.884z M518.827,226.853h-0.179c-1.957,3.472-6.586,8.01-14.24,8.01
		c-6.766,0-14.863-3.826-14.863-18.868v-25.188h7.832v23.764c0,8.188,2.582,13.797,9.612,13.797c5.251,0,8.899-3.649,10.323-7.21
		c0.445-1.067,0.713-2.491,0.713-4.005v-26.345h7.832v31.24c0,4.539,0.09,8.455,0.356,11.837h-6.942L518.827,226.853z
		 M545.67,302.885l-0.455-3.965h-0.194c-1.756,2.471-5.136,4.68-9.621,4.68c-6.369,0-9.62-4.483-9.62-9.035
		c0-7.604,6.76-11.766,18.916-11.698v-0.65c0-2.535-0.716-7.28-7.149-7.215c-2.99,0-6.045,0.845-8.255,2.34l-1.301-3.835
		c2.601-1.625,6.436-2.73,10.399-2.73c9.62,0,11.961,6.565,11.961,12.807l-0.001,11.763c0,2.729,0.13,5.396,0.455,7.54H545.67z
		 M574.397,275.778h-8.188v16.968c0,3.899,1.104,6.108,4.291,6.108c1.559,0,2.469-0.129,3.313-0.39l0.26,4.354
		c-1.104,0.392-2.858,0.779-5.069,0.779c-2.664,0-4.811-0.91-6.176-2.404c-1.561-1.756-2.21-4.551-2.21-8.256v-17.16h-4.875v-4.354
		h4.875v-5.852l5.591-1.688v7.541h8.188V275.778z M569.2,196.77v-5.963h6.677v-8.01l7.652-2.315v10.325h11.215v5.963h-11.215V220
		c0,5.34,1.514,8.367,5.873,8.367c2.137,0,3.383-0.179,4.541-0.534l0.354,5.963c-1.513,0.534-3.916,1.067-6.941,1.067
		c-3.647,0-6.586-1.245-8.455-3.293c-2.137-2.402-3.024-6.229-3.024-11.304V196.77H569.2z M601.179,298.791
		c3.51,0,7.021-0.716,9.295-1.82l1.105,4.549c-2.016,1.041-6.239,2.08-11.569,2.08c-12.353,0-21.582-7.8-21.582-22.229
		c0-13.78,9.297-23.012,22.881-23.012c5.396,0,8.906,1.17,10.399,1.95l-1.43,4.615c-2.08-1.041-5.137-1.82-8.774-1.82
		c-10.271,0-17.097,6.565-17.097,18.07C584.408,291.966,590.584,298.791,601.179,298.791z M624.255,302.884h-5.722v-46.151h5.722
		V302.884z M639.594,302.885h-5.722v-31.461h5.722V302.885z M636.601,266.094c-2.08,0-3.443-1.561-3.443-3.511
		s1.431-3.575,3.574-3.575c2.08,0,3.51,1.56,3.51,3.575C640.242,264.533,638.878,266.094,636.601,266.094z M620.552,234.864
		c-11.57,0-20.648-8.544-20.648-22.161c0-14.33,9.521-22.785,21.359-22.785c12.373,0,20.738,8.988,20.738,22.072
		C642.002,227.922,630.877,234.864,620.552,234.864z M675.862,302.884h-5.723v-18.136c0-5.07-1.886-9.295-7.279-9.295
		c-3.705,0-6.631,2.665-7.67,5.85c-0.26,0.715-0.391,1.69-0.391,2.665v18.916h-5.722v-22.946h0.004c0-3.313-0.063-5.915-0.26-8.515
		h5.07l0.324,5.2h0.131c1.561-2.927,5.199-5.852,10.399-5.852c4.354,0,11.115,2.602,11.115,13.392V302.884z M690.878,302.885h-5.722
		v-31.461h5.722V302.885z M687.886,266.094c-2.08,0-3.445-1.561-3.445-3.511s1.43-3.575,3.574-3.575c2.082,0,3.512,1.56,3.512,3.575
		C691.527,264.533,690.162,266.094,687.886,266.094z M687.125,203.356c-0.354,1.157-0.623,2.492-0.623,3.916v26.612h-7.653v-25.813
		c0-6.854-3.025-11.749-8.988-11.749c-4.807,0-8.455,3.918-9.701,7.833c-0.444,1.068-0.623,2.492-0.623,3.827v25.9h-7.653v-31.417
		h-0.004c0-4.54-0.179-8.1-0.355-11.66h6.854l0.354,7.031H659c2.402-4.094,6.408-7.921,13.617-7.921
		c5.785,0,10.234,3.56,12.104,8.633h0.178c1.338-2.492,3.115-4.272,4.896-5.607c2.581-1.958,5.342-3.025,9.436-3.025
		c5.785,0,14.24,3.737,14.24,18.69v25.277h-7.654v-24.298c0-8.366-3.113-13.262-9.346-13.262
		C691.932,196.324,688.55,199.617,687.125,203.356z M714.797,298.982c3.25,0,5.396-0.777,7.021-1.494l0.976,4.291
		c-1.496,0.717-4.812,1.82-9.035,1.82c-9.49,0-15.666-6.437-15.666-16.057c0-9.687,6.631-16.771,16.899-16.771
		c3.381,0,6.371,0.846,7.931,1.69l-1.3,4.354c-1.364-0.715-3.51-1.494-6.631-1.494c-7.215,0-11.114,5.396-11.114,11.896
		C703.877,294.496,708.556,298.982,714.797,298.982z M743.192,189.917c14.15,0,17.801,12.283,17.801,20.204
		c0,1.602-0.09,2.759-0.268,3.648h-30.261c0.178,10.592,6.854,14.953,14.774,14.953c5.605,0,9.078-0.979,11.927-2.225l1.426,5.606
		c-2.76,1.246-7.564,2.759-14.42,2.759c-13.263,0-21.185-8.813-21.185-21.806C722.987,200.064,730.641,189.917,743.192,189.917z
		 M731.241,303.6c-2.208,0-3.769-1.755-3.769-4.095c0-2.341,1.625-4.096,3.899-4.096c2.273,0,3.834,1.689,3.834,4.096
		C735.206,301.845,733.645,303.6,731.241,303.6z M756.722,298.982c3.25,0,5.396-0.777,7.021-1.494l0.974,4.291
		c-1.494,0.717-4.812,1.82-9.035,1.82c-9.488,0-15.666-6.437-15.666-16.057c0-9.687,6.631-16.771,16.902-16.771
		c3.379,0,6.368,0.846,7.93,1.69l-1.301,4.354c-1.365-0.715-3.511-1.494-6.63-1.494c-7.217,0-11.116,5.396-11.116,11.896
		C745.801,294.496,750.482,298.982,756.722,298.982z M783.826,303.6c-8.448,0-15.08-6.24-15.08-16.186
		c0-10.466,6.955-16.642,15.601-16.642c9.036,0,15.146,6.566,15.146,16.122C799.492,298.531,791.367,303.6,783.826,303.6z
		 M851.685,302.884h-5.59v-17.746c0-6.108-2.273-9.685-6.824-9.685c-3.314,0-5.785,2.403-6.824,5.135
		c-0.262,0.846-0.455,1.819-0.455,2.859v19.437H826.4v-18.852c0-5.006-2.211-8.579-6.563-8.579c-3.511,0-6.177,2.858-7.087,5.72
		c-0.323,0.78-0.454,1.82-0.454,2.795v18.916h-5.591v-22.946c0-3.313-0.129-5.915-0.26-8.515h5.006l0.261,5.136h0.194
		c1.754-2.991,4.681-5.786,9.943-5.786c4.227,0,7.477,2.602,8.842,6.307h0.131c0.976-1.82,2.273-3.12,3.574-4.097
		c1.885-1.43,3.898-2.21,6.891-2.21c4.226,0,10.398,2.73,10.398,13.65V302.884z M831.211,234.865c-5.785,0-12.105-1.78-15.312-3.916
		l2.05-6.499c3.474,2.225,8.455,3.917,13.797,3.917c7.92,0,12.55-4.185,12.55-10.236c0-5.519-3.203-8.813-11.304-11.837
		c-9.791-3.561-15.844-8.724-15.844-17.089c0-9.347,7.742-16.288,19.402-16.288c6.053,0,10.592,1.424,13.172,2.938l-2.135,6.319
		c-1.869-1.157-5.875-2.848-11.306-2.848c-8.188,0-11.305,4.895-11.305,8.988c0,5.607,3.65,8.366,11.928,11.571
		c10.146,3.916,15.222,8.812,15.222,17.623C852.127,226.766,845.36,234.865,831.211,234.865z M897.694,213.77h-30.261
		c0.18,10.592,6.854,14.953,14.775,14.953c5.606,0,9.077-0.979,11.926-2.225l1.426,5.606c-2.76,1.246-7.564,2.759-14.42,2.759
		c-13.262,0-21.184-8.813-21.184-21.806c0-12.994,7.653-23.141,20.204-23.141c14.15,0,17.802,12.283,17.802,20.204
		C897.963,211.723,897.873,212.88,897.694,213.77z M928.935,197.481c-0.801-0.178-1.602-0.178-2.67-0.178
		c-5.519,0-9.435,4.094-10.502,9.969c-0.178,1.068-0.269,2.403-0.269,3.649v22.963h-7.832v-29.638h-0.003
		c0-5.073-0.088-9.435-0.354-13.439h6.854l0.354,8.544h0.27c1.957-5.785,6.765-9.435,12.017-9.435c0.801,0,1.424,0.089,2.135,0.178
		V197.481z M957.502,233.885h-7.478l-16.379-43.078h8.368l8.455,24.12c1.426,4.005,2.582,7.565,3.473,11.125h0.269
		c0.979-3.56,2.225-7.12,3.647-11.125l8.365-24.12h8.188L957.502,233.885z M989.629,233.885h-7.834v-43.078h7.834V233.885z
		 M985.535,183.508c-2.85,0-4.717-2.136-4.717-4.806c0-2.671,1.957-4.896,4.896-4.896c2.847,0.001,4.804,2.137,4.804,4.896
		C990.517,181.372,988.648,183.508,985.535,183.508z M1022.38,228.545c4.45,0,7.389-1.068,9.612-2.047l1.336,5.874
		c-2.047,0.979-6.588,2.491-12.373,2.491c-12.993,0-21.448-8.813-21.448-21.983c0-13.262,9.078-22.963,23.141-22.963
		c4.629,0,8.726,1.157,10.859,2.313l-1.781,5.963c-1.869-0.979-4.806-2.047-9.078-2.047c-9.879,0-15.219,7.388-15.219,16.288
		C1007.428,222.404,1013.837,228.545,1022.38,228.545z M1076.579,213.77h-30.259c0.178,10.592,6.854,14.953,14.773,14.953
		c5.606,0,9.078-0.979,11.926-2.225l1.426,5.606c-2.76,1.246-7.563,2.759-14.418,2.759c-13.264,0-21.186-8.813-21.186-21.806
		c0-12.994,7.653-23.141,20.205-23.141c14.151,0,17.801,12.283,17.801,20.204C1076.847,211.723,1076.758,212.88,1076.579,213.77z"/>
</g>
</svg>
