<?xml version="1.0" encoding="utf-8"?>
<!-- Generator: Adobe Illustrator 15.0.0, SVG Export Plug-In . SVG Version: 6.00 Build 0)  -->
<!DOCTYPE svg PUBLIC "-//W3C//DTD SVG 1.1//EN" "http://www.w3.org/Graphics/SVG/1.1/DTD/svg11.dtd">
<svg version="1.1" id="Layer_1" xmlns="http://www.w3.org/2000/svg" xmlns:xlink="http://www.w3.org/1999/xlink" x="0px" y="0px"
	 width="1129.809px" height="550.34px" viewBox="0 0 1129.809 550.34" enable-background="new 0 0 1129.809 550.34"
	 xml:space="preserve">
<g id="Layer_2">
	<polygon fill="#5DAADE" points="1128.672,550.34 564.895,481.34 0,550.34 0,0 1128.672,0 	"/>
	<g>
		<polygon fill="#5DAADE" points="12.756,12.756 1115.916,12.756 1115.916,535.928 564.896,468.489 12.756,535.931 		"/>
		<path fill="#7BC1EA" d="M1111.664,17.008v514.114L565.93,464.331l-1.033-0.127l-1.031,0.126L17.008,531.127V17.008H1111.664
			 M1120.168,8.504H8.504v532.229l556.394-67.961l555.271,67.959V8.504L1120.168,8.504z"/>
	</g>
	<g>
		<rect x="32.743" y="17.045" fill="#7BC1EA" width="8.504" height="512.021"/>
		<rect x="66.614" y="17.045" fill="#7BC1EA" width="8.504" height="512.021"/>
		<polygon fill="#7BC1EA" points="100.485,527.497 108.989,526.459 108.989,17.045 100.485,17.045 		"/>
		<polygon fill="#7BC1EA" points="134.355,523.361 142.86,522.322 142.86,17.045 134.355,17.045 		"/>
		<polygon fill="#7BC1EA" points="168.227,519.224 176.731,518.186 176.731,17.045 168.227,17.045 		"/>
		<polygon fill="#7BC1EA" points="202.098,515.087 210.602,514.048 210.602,17.045 202.098,17.045 		"/>
		<polygon fill="#7BC1EA" points="235.969,510.948 244.473,509.909 244.473,17.045 235.969,17.045 		"/>
		<polygon fill="#7BC1EA" points="269.839,506.813 278.344,505.773 278.344,17.045 269.839,17.045 		"/>
		<polygon fill="#7BC1EA" points="303.711,502.675 312.216,501.637 312.216,17.045 303.711,17.045 		"/>
		<polygon fill="#7BC1EA" points="337.582,498.537 346.087,497.498 346.087,17.045 337.582,17.045 		"/>
		<polygon fill="#7BC1EA" points="371.453,494.4 379.957,493.362 379.957,17.045 371.453,17.045 		"/>
		<polygon fill="#7BC1EA" points="405.323,490.264 413.828,489.225 413.828,17.045 405.323,17.045 		"/>
		<polygon fill="#7BC1EA" points="439.194,486.126 447.699,485.088 447.699,17.045 439.194,17.045 		"/>
		<polygon fill="#7BC1EA" points="473.065,481.989 481.57,480.949 481.57,17.045 473.065,17.045 		"/>
		<polygon fill="#7BC1EA" points="506.938,477.852 515.441,476.813 515.441,17.045 506.938,17.045 		"/>
		<polygon fill="#7BC1EA" points="540.807,473.715 549.313,472.676 549.313,17.045 540.807,17.045 		"/>
		<polygon fill="#7BC1EA" points="574.679,471.97 583.183,473.011 583.183,17.045 574.679,17.045 		"/>
		<polygon fill="#7BC1EA" points="608.549,476.115 617.054,477.156 617.054,17.045 608.549,17.045 		"/>
		<polygon fill="#7BC1EA" points="642.42,480.261 650.926,481.302 650.926,17.045 642.42,17.045 		"/>
		<polygon fill="#7BC1EA" points="676.291,484.406 684.797,485.447 684.797,17.045 676.291,17.045 		"/>
		<polygon fill="#7BC1EA" points="710.162,488.552 718.668,489.592 718.668,17.045 710.162,17.045 		"/>
		<polygon fill="#7BC1EA" points="744.033,492.697 752.539,493.738 752.539,17.045 744.033,17.045 		"/>
		<polygon fill="#7BC1EA" points="777.904,496.842 786.41,497.883 786.41,17.045 777.904,17.045 		"/>
		<polygon fill="#7BC1EA" points="811.775,500.988 820.281,502.028 820.281,17.045 811.775,17.045 		"/>
		<polygon fill="#7BC1EA" points="845.646,505.133 854.152,506.174 854.152,17.045 845.646,17.045 		"/>
		<polygon fill="#7BC1EA" points="879.517,509.278 888.021,510.319 888.021,17.045 879.517,17.045 		"/>
		<polygon fill="#7BC1EA" points="913.388,513.424 921.892,514.465 921.892,17.045 913.388,17.045 		"/>
		<polygon fill="#7BC1EA" points="947.26,517.569 955.763,518.61 955.763,17.045 947.26,17.045 		"/>
		<polygon fill="#7BC1EA" points="981.131,521.715 989.635,522.756 989.635,17.045 981.131,17.045 		"/>
		<polygon fill="#7BC1EA" points="1015.002,525.86 1023.506,526.901 1023.506,17.045 1015.002,17.045 		"/>
		<rect x="1048.873" y="17.045" fill="#7BC1EA" width="8.505" height="512.021"/>
		<rect x="1082.744" y="17.045" fill="#7BC1EA" width="8.504" height="512.021"/>
	</g>
</g>
<g id="Layer_4">
	<path fill="#DEBC64" d="M387.902,108.456c0,0,23.042,95.865-22.612,177.875C319.636,368.34,228.75,407.1,228.75,407.1
		s-84.123-40.451-130.623-121.613S69.597,108.458,69.597,108.458s58.119-38,158.729-38
		C328.935,70.457,387.902,108.456,387.902,108.456z"/>
	<g>
		<path fill="#473A17" d="M112.574,196.502l-3.792,13.669H96.377l16.197-53.253h15.802l16.592,53.253h-13.036l-4.108-13.669H112.574
			L112.574,196.502z M126.085,187.496l-3.317-11.299c-0.948-3.16-1.896-7.11-2.688-10.271h-0.158
			c-0.79,3.16-1.581,7.19-2.448,10.271l-3.161,11.299H126.085z"/>
		<path fill="#473A17" d="M155.952,210.171l-12.642-53.253h12.879l4.028,21.886c1.186,6.4,2.293,13.274,3.161,18.646h0.158
			c0.869-5.769,2.133-12.167,3.478-18.805l4.503-21.728h12.8l4.267,22.438c1.186,6.242,2.055,11.932,2.845,17.856h0.157
			c0.79-5.926,1.976-12.167,3.081-18.567l4.347-21.728h12.246l-13.747,53.253h-13.037l-4.504-22.913
			c-1.027-5.373-1.896-10.35-2.528-16.435h-0.158c-0.948,6.006-1.817,11.063-3.082,16.435l-5.057,22.913H155.952L155.952,210.171z"
			/>
		<path fill="#473A17" d="M225.641,196.502l-3.792,13.669h-12.404l16.197-53.253h15.802l16.592,53.253h-13.037l-4.107-13.669
			H225.641L225.641,196.502z M239.151,187.496l-3.318-11.299c-0.947-3.16-1.896-7.11-2.687-10.271h-0.158
			c-0.79,3.16-1.581,7.19-2.449,10.271l-3.161,11.299H239.151z"/>
		<path fill="#473A17" d="M265.067,157.63c3.871-0.632,9.56-1.106,16.039-1.106c7.9,0,13.432,1.187,17.224,4.188
			c3.239,2.527,4.979,6.321,4.979,11.22c0,6.716-4.82,11.377-9.401,13.037v0.237c3.713,1.501,5.769,4.978,7.11,9.876
			c1.659,6.083,3.24,13.037,4.268,15.091h-12.326c-0.79-1.58-2.133-5.847-3.634-12.405c-1.501-6.716-3.792-8.454-8.771-8.533h-3.557
			v20.938h-11.93L265.067,157.63L265.067,157.63z M276.998,180.542h4.741c6.005,0,9.56-3.002,9.56-7.664
			c0-4.82-3.317-7.349-8.849-7.349c-2.923,0-4.583,0.158-5.452,0.396V180.542z"/>
		<path fill="#473A17" d="M311.921,157.709c4.424-0.711,10.191-1.187,16.196-1.187c10.191,0,16.829,1.896,21.887,5.689
			c5.53,4.107,9.007,10.667,9.007,20.067c0,10.192-3.713,17.225-8.771,21.57c-5.609,4.662-14.223,6.874-24.65,6.874
			c-6.242,0-10.745-0.395-13.668-0.79L311.921,157.709L311.921,157.709z M323.929,201.085c1.026,0.236,2.767,0.236,4.188,0.236
			c10.981,0.079,18.172-5.926,18.172-18.646c0-11.063-6.479-16.908-16.907-16.908c-2.606,0-4.425,0.237-5.452,0.475V201.085z"/>
	</g>
	<g>
		<path fill="#FFFFFF" d="M436.768,147.885v-4.806l6.142-5.964c14.774-14.063,21.539-21.538,21.539-30.262
			c0-5.874-2.759-11.303-11.394-11.303c-5.251,0-9.611,2.67-12.283,4.896l-2.491-5.519c3.917-3.293,9.702-5.875,16.288-5.875
			c12.46,0,17.712,8.544,17.712,16.822c0,10.681-7.744,19.313-19.938,31.063l-4.539,4.272v0.178h25.899v6.498L436.768,147.885
			L436.768,147.885z"/>
		<path fill="#FFFFFF" d="M520.963,118.335c0,19.67-7.388,30.527-20.115,30.527c-11.304,0-19.047-10.591-19.226-29.729
			c0-19.492,8.456-30.083,20.204-30.083C513.931,89.053,520.963,99.911,520.963,118.335z M489.545,119.225
			c0,15.042,4.628,23.586,11.749,23.586c7.921,0,11.749-9.346,11.749-24.12c0-14.24-3.561-23.586-11.749-23.586
			C494.528,95.105,489.545,103.472,489.545,119.225z"/>
		<path fill="#FFFFFF" d="M545.079,97.33h-0.178l-10.059,5.429l-1.514-5.963l12.64-6.766h6.676v57.854h-7.565V97.33z"/>
		<path fill="#FFFFFF" d="M481.359,232.016c-2.76,1.424-8.544,2.848-15.844,2.848c-16.91,0-29.55-10.681-29.55-30.438
			c0-18.869,12.729-31.508,31.33-31.508c7.387,0,12.193,1.602,14.24,2.67l-1.958,6.318c-2.848-1.424-7.03-2.491-12.017-2.491
			c-14.063,0-23.407,8.988-23.407,24.743c0,14.774,8.456,24.119,22.963,24.119c4.807,0,9.612-0.979,12.729-2.491L481.359,232.016z"
			/>
		<path fill="#FFFFFF" d="M525.857,222.047c0,4.539,0.09,8.455,0.356,11.837h-6.942l-0.444-7.031h-0.179
			c-1.957,3.471-6.586,8.01-14.24,8.01c-6.766,0-14.863-3.826-14.863-18.868v-25.188h7.832v23.764
			c0,8.188,2.582,13.796,9.612,13.796c5.251,0,8.899-3.648,10.323-7.209c0.445-1.067,0.713-2.491,0.713-4.005v-26.345h7.832V222.047
			L525.857,222.047z"/>
		<path fill="#FFFFFF" d="M537.782,225.963c2.403,1.424,6.498,3.025,10.414,3.025c5.606,0,8.276-2.759,8.276-6.408
			c0-3.738-2.226-5.696-7.921-7.832c-7.833-2.849-11.481-7.032-11.481-12.194c0-6.941,5.695-12.639,14.863-12.639
			c4.361,0,8.188,1.156,10.504,2.67l-1.869,5.695c-1.691-1.067-4.808-2.581-8.813-2.581c-4.63,0-7.121,2.67-7.121,5.875
			c0,3.56,2.492,5.161,8.1,7.387c7.388,2.759,11.304,6.498,11.304,12.906c0,7.653-5.963,12.994-16.021,12.994
			c-4.717,0-9.079-1.245-12.104-3.025L537.782,225.963z"/>
		<path fill="#FFFFFF" d="M583.529,180.482v10.325h11.215v5.963h-11.215V220c0,5.34,1.514,8.367,5.873,8.367
			c2.137,0,3.383-0.179,4.541-0.534l0.354,5.963c-1.513,0.534-3.916,1.067-6.941,1.067c-3.647,0-6.586-1.245-8.455-3.293
			c-2.137-2.402-3.024-6.229-3.024-11.304V196.77H569.2v-5.963h6.677v-8.01L583.529,180.482z"/>
		<path fill="#FFFFFF" d="M642.002,211.99c0,15.933-11.125,22.874-21.449,22.874c-11.57,0-20.648-8.544-20.648-22.161
			c0-14.33,9.521-22.785,21.359-22.785C633.636,189.917,642.002,198.906,642.002,211.99z M607.914,212.435
			c0,9.436,5.341,16.555,12.994,16.555c7.478,0,13.084-7.031,13.084-16.732c0-7.298-3.649-16.466-12.905-16.466
			C611.918,195.791,607.914,204.335,607.914,212.435z"/>
		<path fill="#FFFFFF" d="M651.879,202.466c0-4.54-0.179-8.1-0.355-11.66h6.854l0.354,7.031H659
			c2.402-4.094,6.408-7.921,13.617-7.921c5.785,0,10.234,3.56,12.104,8.633h0.178c1.338-2.492,3.115-4.272,4.896-5.607
			c2.581-1.958,5.342-3.025,9.436-3.025c5.785,0,14.24,3.737,14.24,18.69v25.277h-7.654v-24.298c0-8.366-3.113-13.262-9.346-13.262
			c-4.539,0-7.922,3.293-9.347,7.031c-0.354,1.157-0.623,2.492-0.623,3.916v26.612h-7.653v-25.813
			c0-6.854-3.025-11.749-8.988-11.749c-4.807,0-8.455,3.918-9.701,7.833c-0.444,1.068-0.623,2.492-0.623,3.827v25.9h-7.653v-31.417
			H651.879z"/>
		<path fill="#FFFFFF" d="M730.465,213.77c0.178,10.592,6.854,14.953,14.774,14.953c5.605,0,9.078-0.979,11.927-2.225l1.426,5.606
			c-2.76,1.246-7.564,2.759-14.42,2.759c-13.263,0-21.185-8.813-21.185-21.806c0-12.994,7.654-23.141,20.205-23.141
			c14.15,0,17.801,12.283,17.801,20.204c0,1.602-0.09,2.759-0.268,3.648H730.465L730.465,213.77z M753.427,208.163
			c0.09-4.896-2.047-12.64-10.857-12.64c-8.01,0-11.393,7.209-12.016,12.64H753.427z"/>
		<path fill="#FFFFFF" d="M770.691,204.246c0-5.073-0.09-9.435-0.354-13.439h6.854l0.355,8.544h0.268
			c1.959-5.785,6.766-9.435,12.018-9.435c0.802,0,1.425,0.089,2.136,0.178v7.387c-0.802-0.178-1.603-0.178-2.67-0.178
			c-5.519,0-9.435,4.094-10.502,9.969c-0.179,1.068-0.269,2.403-0.269,3.649v22.963h-7.834L770.691,204.246L770.691,204.246z"/>
		<path fill="#FFFFFF" d="M817.949,224.45c3.474,2.225,8.455,3.917,13.797,3.917c7.92,0,12.55-4.185,12.55-10.236
			c0-5.519-3.203-8.813-11.304-11.837c-9.791-3.561-15.844-8.724-15.844-17.089c0-9.347,7.742-16.288,19.402-16.288
			c6.053,0,10.592,1.424,13.172,2.938l-2.135,6.319c-1.869-1.157-5.875-2.848-11.306-2.848c-8.188,0-11.305,4.895-11.305,8.988
			c0,5.607,3.65,8.366,11.928,11.571c10.146,3.916,15.222,8.812,15.222,17.623c0,9.257-6.767,17.355-20.916,17.355
			c-5.785,0-12.105-1.779-15.312-3.915L817.949,224.45z"/>
		<path fill="#FFFFFF" d="M867.433,213.77c0.18,10.592,6.854,14.953,14.775,14.953c5.606,0,9.077-0.979,11.926-2.225l1.426,5.606
			c-2.76,1.246-7.564,2.759-14.42,2.759c-13.262,0-21.184-8.813-21.184-21.806c0-12.994,7.653-23.141,20.204-23.141
			c14.15,0,17.802,12.283,17.802,20.204c0,1.602-0.09,2.759-0.269,3.648H867.433L867.433,213.77z M890.396,208.163
			c0.09-4.896-2.047-12.64-10.857-12.64c-8.01,0-11.395,7.209-12.018,12.64H890.396z"/>
		<path fill="#FFFFFF" d="M907.66,204.246c0-5.073-0.088-9.435-0.354-13.439h6.854l0.354,8.544h0.27
			c1.957-5.785,6.765-9.435,12.017-9.435c0.801,0,1.424,0.089,2.135,0.178v7.387c-0.801-0.178-1.602-0.178-2.67-0.178
			c-5.519,0-9.435,4.094-10.502,9.969c-0.178,1.068-0.269,2.403-0.269,3.649v22.963h-7.832v-29.638H907.66z"/>
		<path fill="#FFFFFF" d="M942.013,190.807l8.455,24.12c1.426,4.005,2.582,7.565,3.473,11.125h0.269
			c0.979-3.56,2.225-7.12,3.647-11.125l8.365-24.12h8.188l-16.909,43.078h-7.478l-16.379-43.078H942.013z"/>
		<path fill="#FFFFFF" d="M990.517,178.702c0,2.67-1.869,4.806-4.982,4.806c-2.85,0-4.717-2.136-4.717-4.806
			c0-2.671,1.957-4.896,4.896-4.896C988.56,173.807,990.517,175.943,990.517,178.702z M981.795,233.885v-43.078h7.834v43.078
			H981.795z"/>
		<path fill="#FFFFFF" d="M1033.328,232.372c-2.047,0.979-6.588,2.491-12.373,2.491c-12.993,0-21.448-8.813-21.448-21.983
			c0-13.262,9.078-22.963,23.141-22.963c4.629,0,8.726,1.157,10.859,2.313l-1.781,5.963c-1.869-0.979-4.806-2.047-9.078-2.047
			c-9.879,0-15.219,7.388-15.219,16.288c0,9.969,6.408,16.11,14.951,16.11c4.45,0,7.389-1.068,9.612-2.047L1033.328,232.372z"/>
		<path fill="#FFFFFF" d="M1046.32,213.77c0.178,10.592,6.854,14.953,14.773,14.953c5.606,0,9.078-0.979,11.926-2.225l1.426,5.606
			c-2.76,1.246-7.563,2.759-14.418,2.759c-13.264,0-21.186-8.813-21.186-21.806c0-12.994,7.653-23.141,20.205-23.141
			c14.151,0,17.801,12.283,17.801,20.204c0,1.602-0.09,2.759-0.269,3.648H1046.32L1046.32,213.77z M1069.283,208.163
			c0.09-4.896-2.047-12.64-10.858-12.64c-8.011,0-11.394,7.209-12.017,12.64H1069.283z"/>
		<path fill="#FFFFFF" d="M444.854,302.885l-11.115-43.813h5.979l5.2,22.166c1.3,5.461,2.47,10.921,3.25,15.146h0.13
			c0.715-4.354,2.08-9.556,3.574-15.211l5.851-22.102h5.915l5.331,22.229c1.234,5.2,2.405,10.4,3.056,15.016h0.13
			c0.91-4.81,2.146-9.686,3.511-15.146l5.785-22.102h5.785l-12.416,43.813h-5.915l-5.524-22.815c-1.365-5.59-2.274-9.88-2.859-14.3
			h-0.131c-0.715,4.354-1.755,8.646-3.38,14.3l-6.239,22.815L444.854,302.885L444.854,302.885z"/>
		<path fill="#FFFFFF" d="M492.174,256.733h5.72v19.695h0.131c0.909-1.625,2.34-3.12,4.095-4.095
			c1.689-0.977,3.705-1.562,5.851-1.562c4.227,0,10.985,2.602,10.985,13.392v18.721h-5.72v-18.069c0-5.069-1.885-9.296-7.28-9.296
			c-3.704,0-6.564,2.602-7.67,5.655c-0.324,0.845-0.39,1.689-0.39,2.729v18.979h-5.721L492.174,256.733L492.174,256.733z"/>
		<path fill="#FFFFFF" d="M550.349,295.345c0,2.729,0.13,5.396,0.455,7.54h-5.135l-0.455-3.965h-0.194
			c-1.756,2.471-5.136,4.68-9.621,4.68c-6.369,0-9.62-4.483-9.62-9.035c0-7.604,6.76-11.766,18.916-11.698v-0.65
			c0-2.535-0.716-7.28-7.149-7.215c-2.99,0-6.045,0.845-8.255,2.34l-1.301-3.835c2.601-1.625,6.436-2.73,10.399-2.73
			c9.62,0,11.961,6.565,11.961,12.807L550.349,295.345L550.349,295.345z M544.824,286.829c-6.24-0.13-13.326,0.976-13.326,7.085
			c0,3.771,2.471,5.461,5.331,5.461c4.16,0,6.825-2.603,7.735-5.267c0.194-0.649,0.26-1.301,0.26-1.819V286.829z"/>
		<path fill="#FFFFFF" d="M566.209,263.883v7.541h8.188v4.354h-8.188v16.968c0,3.899,1.104,6.108,4.291,6.108
			c1.559,0,2.469-0.129,3.313-0.39l0.26,4.354c-1.104,0.392-2.858,0.779-5.069,0.779c-2.664,0-4.811-0.91-6.176-2.404
			c-1.561-1.756-2.21-4.551-2.21-8.256v-17.16h-4.875v-4.354h4.875v-5.852L566.209,263.883z"/>
		<path fill="#FFFFFF" d="M611.58,301.52c-2.016,1.041-6.239,2.08-11.569,2.08c-12.353,0-21.582-7.8-21.582-22.229
			c0-13.78,9.297-23.012,22.881-23.012c5.396,0,8.906,1.17,10.399,1.95l-1.43,4.615c-2.08-1.041-5.137-1.82-8.774-1.82
			c-10.271,0-17.097,6.565-17.097,18.07c0,10.791,6.176,17.616,16.771,17.616c3.51,0,7.021-0.716,9.295-1.82L611.58,301.52z"/>
		<path fill="#FFFFFF" d="M618.533,256.733h5.722v46.151h-5.722V256.733z"/>
		<path fill="#FFFFFF" d="M640.242,262.583c0,1.95-1.364,3.511-3.641,3.511c-2.08,0-3.443-1.561-3.443-3.511
			s1.431-3.575,3.574-3.575C638.812,259.008,640.242,260.568,640.242,262.583z M633.873,302.885v-31.461h5.722v31.461H633.873z"/>
		<path fill="#FFFFFF" d="M649.082,279.938c0-3.313-0.063-5.915-0.26-8.515h5.07l0.324,5.2h0.131
			c1.561-2.927,5.199-5.852,10.399-5.852c4.354,0,11.115,2.602,11.115,13.392v18.721h-5.723v-18.136c0-5.07-1.886-9.295-7.279-9.295
			c-3.705,0-6.631,2.665-7.67,5.85c-0.26,0.715-0.391,1.69-0.391,2.665v18.916h-5.722v-22.946H649.082z"/>
		<path fill="#FFFFFF" d="M691.527,262.583c0,1.95-1.365,3.511-3.641,3.511c-2.08,0-3.445-1.561-3.445-3.511s1.43-3.575,3.574-3.575
			C690.097,259.008,691.527,260.568,691.527,262.583z M685.156,302.885v-31.461h5.722v31.461H685.156z"/>
		<path fill="#FFFFFF" d="M722.793,301.779c-1.496,0.717-4.812,1.82-9.035,1.82c-9.49,0-15.666-6.437-15.666-16.057
			c0-9.687,6.631-16.771,16.899-16.771c3.381,0,6.371,0.846,7.931,1.69l-1.3,4.354c-1.364-0.715-3.51-1.494-6.631-1.494
			c-7.215,0-11.114,5.396-11.114,11.896c0,7.28,4.68,11.766,10.92,11.766c3.25,0,5.396-0.777,7.021-1.494L722.793,301.779z"/>
		<path fill="#FFFFFF" d="M727.472,299.505c0-2.341,1.625-4.096,3.899-4.096c2.273,0,3.834,1.689,3.834,4.096
			c0,2.34-1.561,4.095-3.965,4.095C729.033,303.6,727.472,301.845,727.472,299.505z"/>
		<path fill="#FFFFFF" d="M764.717,301.779c-1.494,0.717-4.812,1.82-9.035,1.82c-9.488,0-15.666-6.437-15.666-16.057
			c0-9.687,6.631-16.771,16.902-16.771c3.379,0,6.368,0.846,7.93,1.69l-1.301,4.354c-1.365-0.715-3.511-1.494-6.63-1.494
			c-7.217,0-11.116,5.396-11.116,11.896c0,7.28,4.682,11.766,10.922,11.766c3.25,0,5.396-0.777,7.021-1.494L764.717,301.779z"/>
		<path fill="#FFFFFF" d="M799.492,286.895c0,11.636-8.125,16.705-15.666,16.705c-8.448,0-15.08-6.24-15.08-16.186
			c0-10.466,6.955-16.642,15.601-16.642C793.383,270.773,799.492,277.339,799.492,286.895z M774.595,287.219
			c0,6.891,3.899,12.092,9.49,12.092c5.461,0,9.557-5.136,9.557-12.222c0-5.33-2.666-12.025-9.426-12.025
			C777.521,275.063,774.595,281.304,774.595,287.219z"/>
		<path fill="#FFFFFF" d="M806.705,279.938c0-3.313-0.129-5.915-0.26-8.515h5.006l0.261,5.136h0.194
			c1.754-2.991,4.681-5.786,9.943-5.786c4.227,0,7.477,2.602,8.842,6.307h0.131c0.976-1.82,2.273-3.12,3.574-4.097
			c1.885-1.43,3.898-2.21,6.891-2.21c4.226,0,10.398,2.73,10.398,13.65v18.461h-5.59v-17.746c0-6.108-2.273-9.685-6.824-9.685
			c-3.314,0-5.785,2.403-6.824,5.135c-0.262,0.846-0.455,1.819-0.455,2.859v19.437H826.4v-18.852c0-5.006-2.211-8.579-6.563-8.579
			c-3.511,0-6.177,2.858-7.087,5.72c-0.323,0.78-0.454,1.82-0.454,2.795v18.916h-5.591V279.938L806.705,279.938z"/>
	</g>
</g>
<path fill="#FFFFFF" d="M577.273,139.415c2.457,1.457,7.281,3.276,12.74,3.276c7.463,0,14.016-4.914,13.924-12.831
	c0-7.645-5.188-13.014-16.926-13.014c-3.459,0-6.098,0.273-8.281,0.546l3.822-28.393h28.301v6.734h-22.568l-2.275,15.198
	c1.365-0.182,2.639-0.273,4.824-0.273c4.641,0,9.1,0.91,12.74,3.186c4.641,2.548,8.463,7.735,8.463,15.106
	c0,11.558-9.191,20.203-22.023,20.203c-6.461,0-11.83-1.82-14.742-3.641L577.273,139.415z"/>
</svg>
