<?xml version="1.0" encoding="utf-8"?>
<!-- Generator: Adobe Illustrator 15.0.0, SVG Export Plug-In . SVG Version: 6.00 Build 0)  -->
<!DOCTYPE svg PUBLIC "-//W3C//DTD SVG 1.1//EN" "http://www.w3.org/Graphics/SVG/1.1/DTD/svg11.dtd">
<svg version="1.1" id="Layer_1" xmlns="http://www.w3.org/2000/svg" xmlns:xlink="http://www.w3.org/1999/xlink" x="0px" y="0px"
	 width="1129.809px" height="550.34px" viewBox="0 0 1129.809 550.34" enable-background="new 0 0 1129.809 550.34"
	 xml:space="preserve">
<path fill="none" d="M0,0v550.34l564.896-69l563.776,69V0H0z M1120.167,540.731l-555.271-67.959L8.504,540.733V8.504h1111.663
	V540.731z"/>
<g id="Layer_4">
	<g>
		<path fill="none" d="M112.574,196.502l-3.792,13.669H96.377l16.197-53.253h15.802l16.592,53.253h-13.036l-4.107-13.669H112.574
			L112.574,196.502z M126.085,187.496l-3.317-11.3c-0.948-3.159-1.896-7.109-2.688-10.271h-0.158
			c-0.79,3.16-1.581,7.19-2.448,10.271l-3.161,11.3H126.085z"/>
		<path fill="none" d="M155.952,210.171l-12.643-53.253h12.879l4.028,21.886c1.186,6.4,2.293,13.274,3.161,18.646h0.158
			c0.868-5.77,2.133-12.167,3.478-18.806l4.503-21.728h12.8l4.268,22.438c1.186,6.242,2.055,11.933,2.845,17.856h0.157
			c0.79-5.926,1.976-12.167,3.081-18.567l4.347-21.728h12.246l-13.747,53.253h-13.037l-4.504-22.913
			c-1.027-5.373-1.896-10.351-2.528-16.436h-0.157c-0.948,6.007-1.817,11.063-3.082,16.436l-5.058,22.913h-13.194V210.171z"/>
		<path fill="none" d="M225.641,196.502l-3.792,13.669h-12.404l16.197-53.253h15.802l16.593,53.253h-13.037l-4.107-13.669H225.641
			L225.641,196.502z M239.151,187.496l-3.317-11.3c-0.947-3.159-1.896-7.109-2.688-10.271h-0.158
			c-0.789,3.16-1.58,7.19-2.448,10.271l-3.161,11.3H239.151z"/>
		<path fill="none" d="M265.067,157.63c3.871-0.632,9.561-1.106,16.039-1.106c7.9,0,13.433,1.188,17.224,4.188
			c3.239,2.526,4.979,6.321,4.979,11.22c0,6.716-4.82,11.377-9.4,13.037v0.237c3.713,1.501,5.769,4.978,7.109,9.876
			c1.659,6.083,3.24,13.037,4.268,15.091H292.96c-0.79-1.58-2.133-5.847-3.634-12.405c-1.501-6.716-3.792-8.454-8.771-8.533h-3.557
			v20.938h-11.931L265.067,157.63L265.067,157.63z M276.998,180.542h4.74c6.006,0,9.561-3.002,9.561-7.664
			c0-4.82-3.317-7.35-8.849-7.35c-2.924,0-4.583,0.158-5.452,0.396V180.542z"/>
		<path fill="none" d="M311.921,157.709c4.424-0.711,10.19-1.188,16.195-1.188c10.191,0,16.829,1.896,21.888,5.689
			c5.529,4.106,9.007,10.667,9.007,20.066c0,10.192-3.713,17.226-8.771,21.57c-5.608,4.662-14.223,6.874-24.649,6.874
			c-6.242,0-10.745-0.395-13.668-0.79L311.921,157.709L311.921,157.709z M323.929,201.085c1.025,0.235,2.767,0.235,4.188,0.235
			c10.981,0.079,18.172-5.926,18.172-18.646c0-11.063-6.479-16.908-16.906-16.908c-2.606,0-4.426,0.237-5.452,0.476L323.929,201.085
			L323.929,201.085z"/>
	</g>
	<g>
		<path fill="none" d="M501.294,142.811c7.921,0,11.749-9.346,11.749-24.12c0-14.239-3.562-23.586-11.749-23.586
			c-6.767,0-11.749,8.367-11.749,24.12C489.545,134.267,494.173,142.811,501.294,142.811z"/>
		<path fill="none" d="M784.217,275.064c-6.695-0.001-9.621,6.24-9.621,12.155c0,6.891,3.898,12.092,9.49,12.092
			c5.461,0,9.557-5.136,9.557-12.222C793.642,281.759,790.976,275.064,784.217,275.064z"/>
		<path fill="none" d="M879.538,195.524c-8.01,0-11.395,7.209-12.018,12.641h22.875
			C890.486,203.267,888.349,195.524,879.538,195.524z"/>
		<path fill="none" d="M742.57,195.524c-8.01,0-11.393,7.209-12.016,12.641h22.873C753.517,203.267,751.381,195.524,742.57,195.524z
			"/>
		<path fill="none" d="M531.497,293.914c0,3.771,2.472,5.461,5.331,5.461c4.16,0,6.825-2.604,7.735-5.268
			c0.194-0.648,0.26-1.301,0.26-1.818v-5.46C538.583,286.699,531.497,287.805,531.497,293.914z"/>
		<path fill="none" d="M621.087,195.791c-9.17,0-13.174,8.544-13.174,16.644c0,9.437,5.342,16.555,12.994,16.555
			c7.479,0,13.084-7.03,13.084-16.731C633.991,204.959,630.343,195.791,621.087,195.791z"/>
		<path fill="none" d="M1058.425,195.524c-8.012,0-11.395,7.209-12.018,12.641h22.875
			C1069.372,203.267,1067.236,195.524,1058.425,195.524z"/>
	</g>
	<path fill="none" d="M17.008,17.008v514.119l546.857-66.798l1.031-0.126l1.033,0.127l545.732,66.791V17.008H17.008z
		 M777.19,190.807l0.355,8.544h0.268c1.959-5.785,6.766-9.435,12.018-9.435c0.803,0,1.426,0.089,2.137,0.178v7.387
		c-0.803-0.178-1.604-0.178-2.67-0.178c-5.52,0-9.436,4.094-10.502,9.969c-0.18,1.068-0.27,2.403-0.27,3.649v22.963h-7.834v-29.638
		h-0.001c0-5.073-0.09-9.436-0.354-13.439H777.19z M577.275,139.415c2.457,1.456,7.28,3.276,12.74,3.276
		c7.463,0,14.015-4.914,13.924-12.831c0-7.645-5.188-13.014-16.927-13.014c-3.458,0-6.098,0.273-8.281,0.546l3.822-28.393h28.302
		v6.734h-22.568l-2.275,15.198c1.365-0.182,2.639-0.273,4.823-0.273c4.641,0,9.101,0.91,12.74,3.186
		c4.642,2.548,8.464,7.735,8.464,15.106c0,11.558-9.191,20.203-22.023,20.203c-6.461,0-11.83-1.82-14.742-3.64L577.275,139.415z
		 M552.734,208.961c7.388,2.759,11.304,6.498,11.304,12.906c0,7.652-5.963,12.993-16.021,12.993c-4.717,0-9.079-1.244-12.104-3.024
		l1.869-5.873c2.403,1.424,6.498,3.024,10.414,3.024c5.606,0,8.276-2.759,8.276-6.407c0-3.738-2.227-5.696-7.921-7.832
		c-7.833-2.85-11.481-7.032-11.481-12.194c0-6.941,5.695-12.639,14.863-12.639c4.361,0,8.188,1.155,10.504,2.67l-1.869,5.694
		c-1.69-1.066-4.808-2.58-8.813-2.58c-4.631,0-7.121,2.67-7.121,5.875C544.635,205.134,547.127,206.736,552.734,208.961z
		 M545.969,90.031h6.676v57.854h-7.565V97.33h-0.178l-10.059,5.429l-1.515-5.963L545.969,90.031z M501.825,89.051
		c12.105,0.002,19.138,10.86,19.138,29.284c0,19.67-7.389,30.526-20.115,30.526c-11.304,0-19.047-10.591-19.227-29.729
		C481.621,99.642,490.077,89.051,501.825,89.051z M436.767,143.079L436.767,143.079l6.143-5.964
		c14.774-14.063,21.539-21.538,21.539-30.263c0-5.874-2.759-11.303-11.394-11.303c-5.251,0-9.611,2.67-12.283,4.896l-2.491-5.519
		c3.917-3.293,9.702-5.875,16.288-5.875c12.46,0,17.712,8.544,17.712,16.822c0,10.681-7.744,19.313-19.938,31.063l-4.539,4.272
		v0.178h25.898v6.498l-36.936-0.001V143.079z M467.296,172.917c7.387,0,12.192,1.602,14.239,2.67l-1.958,6.317
		c-2.848-1.424-7.029-2.49-12.017-2.49c-14.063,0-23.407,8.987-23.407,24.742c0,14.774,8.456,24.119,22.963,24.119
		c4.808,0,9.612-0.979,12.729-2.49l1.514,6.229c-2.76,1.424-8.544,2.848-15.844,2.848c-16.91,0-29.55-10.681-29.55-30.438
		C435.966,185.556,448.694,172.917,467.296,172.917z M365.289,286.331C319.636,368.34,228.75,407.1,228.75,407.1
		s-84.123-40.451-130.623-121.613c-46.5-81.161-28.53-177.028-28.53-177.028s58.119-38,158.729-38
		c100.608-0.001,159.575,37.998,159.575,37.998S410.944,204.322,365.289,286.331z M474.82,302.883h-5.915l-5.523-22.815
		c-1.365-5.59-2.274-9.88-2.859-14.3h-0.131c-0.715,4.354-1.755,8.646-3.38,14.3l-6.239,22.815l-5.917,0.002l-11.115-43.813h5.979
		l5.2,22.166c1.3,5.462,2.47,10.922,3.25,15.146h0.13c0.715-4.354,2.08-9.556,3.573-15.211l5.852-22.103h5.915l5.331,22.229
		c1.233,5.2,2.405,10.4,3.056,15.016h0.13c0.91-4.81,2.146-9.686,3.512-15.146l5.784-22.103h5.785L474.82,302.883z M518.954,302.884
		h-5.72v-18.069c0-5.068-1.885-9.296-7.28-9.296c-3.703,0-6.563,2.603-7.67,5.655c-0.323,0.845-0.39,1.688-0.39,2.729v18.979h-5.721
		l-0.001-46.15h5.72v19.695h0.131c0.909-1.625,2.34-3.12,4.095-4.095c1.689-0.978,3.705-1.563,5.852-1.563
		c4.227,0,10.984,2.603,10.984,13.393V302.884z M518.826,226.853h-0.179c-1.957,3.473-6.586,8.01-14.24,8.01
		c-6.766,0-14.862-3.825-14.862-18.867v-25.188h7.832v23.764c0,8.188,2.582,13.798,9.611,13.798c5.251,0,8.899-3.649,10.323-7.211
		c0.445-1.066,0.713-2.49,0.713-4.005v-26.345h7.832v31.24c0,4.539,0.09,8.455,0.356,11.837h-6.942L518.826,226.853z
		 M545.67,302.887v-0.002l-0.455-3.965h-0.194c-1.756,2.471-5.136,4.68-9.621,4.68c-6.369,0-9.62-4.482-9.62-9.035
		c0-7.604,6.761-11.766,18.916-11.697v-0.65c0-2.535-0.716-7.28-7.148-7.215c-2.99,0-6.045,0.845-8.255,2.34l-1.302-3.835
		c2.602-1.625,6.437-2.73,10.399-2.73c9.62,0,11.961,6.565,11.961,12.808l-0.001,11.763c0,2.729,0.13,5.396,0.455,7.54H545.67z
		 M574.397,275.778h-8.188v16.969c0,3.898,1.104,6.107,4.291,6.107c1.56,0,2.47-0.129,3.313-0.39l0.26,4.354
		c-1.104,0.393-2.857,0.779-5.068,0.779c-2.664,0-4.812-0.91-6.177-2.404c-1.561-1.756-2.21-4.551-2.21-8.256v-17.16h-4.875v-4.354
		h4.875v-5.853l5.591-1.688v7.541h8.188V275.778z M569.199,196.77v-5.963h6.678v-8.01l7.651-2.315v10.325h11.215v5.963h-11.215V220
		c0,5.34,1.514,8.367,5.873,8.367c2.137,0,3.383-0.18,4.541-0.534l0.354,5.963c-1.514,0.534-3.916,1.066-6.941,1.066
		c-3.646,0-6.586-1.244-8.455-3.293c-2.137-2.401-3.023-6.229-3.023-11.304V196.77H569.199z M601.179,298.791
		c3.51,0,7.021-0.716,9.295-1.82l1.104,4.549c-2.016,1.041-6.238,2.08-11.568,2.08c-12.354,0-21.582-7.8-21.582-22.229
		c0-13.78,9.297-23.013,22.881-23.013c5.396,0,8.906,1.17,10.398,1.95l-1.43,4.615c-2.08-1.041-5.137-1.82-8.773-1.82
		c-10.271,0-17.098,6.565-17.098,18.07C584.407,291.966,590.583,298.791,601.179,298.791z M624.255,302.884h-5.723v-46.151h5.723
		V302.884z M639.594,302.885h-5.723v-31.461h5.723V302.885z M636.601,266.094c-2.08,0-3.443-1.561-3.443-3.511
		s1.432-3.575,3.574-3.575c2.08,0,3.51,1.56,3.51,3.575C640.241,264.533,638.878,266.094,636.601,266.094z M620.552,234.864
		c-11.57,0-20.648-8.544-20.648-22.16c0-14.33,9.521-22.785,21.359-22.785c12.373,0,20.738,8.987,20.738,22.071
		C642.002,227.922,630.877,234.864,620.552,234.864z M670.139,302.884v-18.136c0-5.07-1.886-9.295-7.279-9.295
		c-3.705,0-6.631,2.665-7.67,5.85c-0.26,0.715-0.391,1.69-0.391,2.665v18.916h-5.723v-22.946h0.005c0-3.313-0.063-5.915-0.261-8.515
		h5.07l0.324,5.2h0.131c1.561-2.928,5.199-5.853,10.398-5.853c4.354,0,11.115,2.603,11.115,13.393v18.721H670.139z M690.878,302.885
		h-5.723v-31.461h5.723V302.885z M687.886,266.094c-2.08,0-3.445-1.561-3.445-3.511s1.43-3.575,3.574-3.575
		c2.082,0,3.512,1.56,3.512,3.575C691.527,264.533,690.161,266.094,687.886,266.094z M687.124,203.356
		c-0.354,1.157-0.622,2.492-0.622,3.916v26.612h-7.653v-25.813c0-6.854-3.025-11.749-8.988-11.749c-4.807,0-8.455,3.918-9.701,7.833
		c-0.443,1.068-0.623,2.492-0.623,3.827v25.9h-7.652v-31.417h-0.004c0-4.54-0.18-8.101-0.355-11.66h6.854l0.354,7.031h0.267
		c2.402-4.094,6.408-7.921,13.617-7.921c5.785,0,10.234,3.56,12.104,8.633h0.178c1.338-2.492,3.115-4.272,4.896-5.607
		c2.581-1.958,5.342-3.024,9.436-3.024c5.785,0,14.24,3.736,14.24,18.689v25.277h-7.654v-24.298c0-8.366-3.113-13.263-9.346-13.263
		C691.932,196.324,688.55,199.617,687.124,203.356z M714.797,298.982c3.25,0,5.396-0.776,7.021-1.494l0.977,4.291
		c-1.496,0.718-4.813,1.82-9.035,1.82c-9.49,0-15.666-6.437-15.666-16.057c0-9.688,6.631-16.771,16.898-16.771
		c3.381,0,6.371,0.847,7.932,1.69l-1.301,4.354c-1.363-0.715-3.51-1.494-6.631-1.494c-7.215,0-11.113,5.396-11.113,11.896
		C703.877,294.496,708.556,298.982,714.797,298.982z M743.192,189.917c14.15,0,17.801,12.283,17.801,20.204
		c0,1.602-0.09,2.759-0.268,3.647h-30.261c0.178,10.592,6.854,14.953,14.773,14.953c5.605,0,9.078-0.979,11.928-2.225l1.426,5.605
		c-2.76,1.246-7.564,2.759-14.42,2.759c-13.264,0-21.186-8.813-21.186-21.806C722.987,200.064,730.641,189.917,743.192,189.917z
		 M731.24,303.6c-2.208,0-3.769-1.755-3.769-4.095c0-2.341,1.625-4.096,3.898-4.096s3.834,1.688,3.834,4.096
		C735.205,301.845,733.645,303.6,731.24,303.6z M756.722,298.982c3.25,0,5.396-0.776,7.021-1.494l0.975,4.291
		c-1.494,0.718-4.813,1.82-9.035,1.82c-9.488,0-15.666-6.437-15.666-16.057c0-9.688,6.631-16.771,16.901-16.771
		c3.38,0,6.368,0.847,7.931,1.69l-1.301,4.354c-1.365-0.715-3.512-1.494-6.631-1.494c-7.217,0-11.115,5.396-11.115,11.896
		C745.801,294.496,750.482,298.982,756.722,298.982z M783.825,303.6c-8.447,0-15.08-6.24-15.08-16.186
		c0-10.467,6.955-16.643,15.602-16.643c9.036,0,15.146,6.566,15.146,16.122C799.491,298.531,791.366,303.6,783.825,303.6z
		 M851.685,302.884h-5.59v-17.746c0-6.108-2.273-9.685-6.824-9.685c-3.314,0-5.785,2.402-6.824,5.135
		c-0.262,0.846-0.455,1.819-0.455,2.858v19.438H826.4v-18.852c0-5.007-2.211-8.579-6.563-8.579c-3.512,0-6.178,2.857-7.087,5.72
		c-0.323,0.78-0.454,1.82-0.454,2.795v18.916h-5.592v-22.946c0-3.313-0.129-5.915-0.26-8.515h5.006l0.262,5.136h0.193
		c1.754-2.991,4.682-5.786,9.943-5.786c4.227,0,7.477,2.603,8.842,6.308h0.131c0.977-1.82,2.273-3.12,3.574-4.098
		c1.885-1.43,3.898-2.21,6.891-2.21c4.227,0,10.398,2.73,10.398,13.65V302.884z M831.211,234.865
		c-5.785,0-12.105-1.779-15.313-3.915l2.05-6.499c3.475,2.225,8.455,3.917,13.797,3.917c7.92,0,12.551-4.186,12.551-10.236
		c0-5.52-3.203-8.813-11.305-11.837c-9.791-3.562-15.844-8.725-15.844-17.089c0-9.348,7.742-16.288,19.402-16.288
		c6.053,0,10.592,1.424,13.172,2.938l-2.135,6.319c-1.869-1.157-5.875-2.848-11.307-2.848c-8.188,0-11.305,4.895-11.305,8.987
		c0,5.607,3.649,8.366,11.928,11.571c10.146,3.916,15.222,8.812,15.222,17.623C852.127,226.766,845.36,234.865,831.211,234.865z
		 M897.694,213.77h-30.261c0.18,10.592,6.854,14.953,14.775,14.953c5.605,0,9.076-0.979,11.926-2.225l1.426,5.605
		c-2.76,1.246-7.564,2.759-14.42,2.759c-13.262,0-21.184-8.813-21.184-21.806c0-12.994,7.652-23.141,20.203-23.141
		c14.15,0,17.803,12.283,17.803,20.204C897.963,211.723,897.872,212.88,897.694,213.77z M928.935,197.481
		c-0.801-0.178-1.602-0.178-2.67-0.178c-5.52,0-9.436,4.094-10.502,9.969c-0.178,1.068-0.27,2.403-0.27,3.649v22.963h-7.832v-29.638
		h-0.003c0-5.073-0.088-9.436-0.354-13.439h6.854l0.354,8.544h0.27c1.957-5.785,6.766-9.435,12.018-9.435
		c0.801,0,1.424,0.089,2.135,0.178V197.481z M957.502,233.885h-7.479l-16.379-43.078h8.368l8.455,24.12
		c1.426,4.005,2.582,7.565,3.473,11.125h0.27c0.979-3.56,2.225-7.12,3.646-11.125l8.365-24.12h8.188L957.502,233.885z
		 M989.629,233.885h-7.834v-43.078h7.834V233.885z M985.534,183.508c-2.85,0-4.717-2.136-4.717-4.806
		c0-2.672,1.957-4.896,4.896-4.896c2.847,0.001,4.804,2.137,4.804,4.896C990.517,181.372,988.648,183.508,985.534,183.508z
		 M1022.38,228.545c4.449,0,7.389-1.068,9.611-2.047l1.336,5.874c-2.047,0.979-6.588,2.49-12.372,2.49
		c-12.993,0-21.448-8.813-21.448-21.982c0-13.262,9.078-22.963,23.141-22.963c4.629,0,8.727,1.156,10.859,2.313l-1.781,5.963
		c-1.869-0.979-4.806-2.047-9.078-2.047c-9.879,0-15.219,7.389-15.219,16.288C1007.428,222.404,1013.837,228.545,1022.38,228.545z
		 M1076.578,213.77h-30.259c0.178,10.592,6.854,14.953,14.773,14.953c5.605,0,9.078-0.979,11.926-2.225l1.426,5.605
		c-2.76,1.246-7.563,2.759-14.418,2.759c-13.264,0-21.186-8.813-21.186-21.806c0-12.994,7.652-23.141,20.205-23.141
		c14.15,0,17.801,12.283,17.801,20.204C1076.847,211.723,1076.758,212.88,1076.578,213.77z"/>
</g>
</svg>
