<?xml version="1.0" encoding="utf-8"?>
<!-- Generator: Adobe Illustrator 15.0.0, SVG Export Plug-In . SVG Version: 6.00 Build 0)  -->
<!DOCTYPE svg PUBLIC "-//W3C//DTD SVG 1.1//EN" "http://www.w3.org/Graphics/SVG/1.1/DTD/svg11.dtd">
<svg version="1.1" id="Signature_xA0_Image_1_" xmlns="http://www.w3.org/2000/svg" xmlns:xlink="http://www.w3.org/1999/xlink"
	 x="0px" y="0px" width="116px" height="54.843px" viewBox="0 0 116 54.843" enable-background="new 0 0 116 54.843"
	 xml:space="preserve">
<g>
	<path fill="none" d="M71.236,0c0.705,0.099,0.183,1.427,0.742,1.672c-6.453,9.954-18.058,14.757-35.477,13.745
		c-1.068,7.181-2.812,13.67-4.829,20.06c-0.924,2.925-2.467,5.519-2.601,9.474c1.753-1.468,1.794-4.646,3.529-6.129
		c1.711-0.104,2.673,0.547,3.343,1.485c-0.808,2.942-1.479,7.13-0.743,10.03c4.01-1.377,5.116-5.658,8.73-7.43
		c1.302,0.245,2.485,0.61,3.158,1.485c-0.022,1.588-0.737,2.481-0.929,3.899c1.947-1.211,2.402-3.912,4.458-5.015
		c1.159,0.142,2.113,0.487,2.972,0.929c0.681,8.191,8.878,1.301,14.116,1.301c1.304,0,2.612,0.521,3.899,0.557
		c3.568,0.098,7.543-1.779,10.959-0.186c1.918,0.895,2.627,2.826,5.387,2.414c5.037-0.752,8.146-6.144,14.674-5.385
		c2.041,0.236,3.734,1.352,5.572,1.67c2.607,0.453,5.277-0.201,7.801,1.301c-1.03,1.549-3.008,1.424-4.271,1.486
		c-1.729,0.082-4.15-0.055-5.944-0.558c-1.576-0.442-2.603-1.162-4.087-1.114c-5.832,0.188-10.43,7.93-17.273,4.829
		c-1.555-0.705-2.048-2.2-3.9-2.601c-2.838-0.613-6.172,0.963-9.287,0.742c-1.25-0.088-2.311-0.443-3.344-0.371
		c-3,0.209-5.966,2.519-9.287,2.785c-2.974,0.239-5.059-0.683-7.429-2.785c-1.296,2.867-7.685,8.203-9.102,1.299
		c-2.286,3.293-9.404,6.23-10.773,0.187c-0.681,3.085-5.706,5.783-6.129,0c-1.291-0.099-1.312,2.339-2.786,2.972
		c-1.444,0.621-3.552-0.314-3.715-1.485c-0.194-1.399,3.185-3.913,4.086-5.201c2.746-3.922,3.585-6.679,4.644-12.259
		c1.143-6.024,2.646-13.365,4.458-18.388c-12.078-2.045-17.242,6.036-20.989,13.559c-1.783,5.897-3.564,12.896-4.086,20.06
		c-0.124,1.705,0.502,4.354-0.743,5.572c-3.787,1.538-4.098-4.878-4.829-7.615c-0.729-2.727-1.486-5.382-1.115-7.059
		c2.292-0.816,3.085,2.111,3.529,4.271c1.604-7.057,3.094-14.277,6.129-20.06C13.488,17.032,19.756,12.518,30.371,13
		c11.575,0.526,22.465,0.238,30.461-4.458c1.339-0.786,1.918-1.939,3.529-2.415c1.105-1.989,3.461-2.73,4.457-4.829
		c1.021-0.004,1.55-0.546,2.229-1.3C71.113,0,71.175,0,71.236,0z"/>
	<path fill="none" d="M17.372,42.164c1.182,4.301-4.494,2.535-4.272-0.373C14.102,40.718,16.571,41.371,17.372,42.164z"/>
	<path fill="none" d="M15.886,48.479c1.052,2.642-2.209,7.526-4.458,3.715c0.407-1.327,0.271-3.196,0.743-4.458
		C13.583,47.272,15.168,47.688,15.886,48.479z"/>
</g>
</svg>
