<?xml version="1.0" encoding="utf-8"?>
<!-- Generator: Adobe Illustrator 15.0.0, SVG Export Plug-In . SVG Version: 6.00 Build 0)  -->
<!DOCTYPE svg PUBLIC "-//W3C//DTD SVG 1.1//EN" "http://www.w3.org/Graphics/SVG/1.1/DTD/svg11.dtd">
<svg version="1.1" id="Layer_1" xmlns="http://www.w3.org/2000/svg" xmlns:xlink="http://www.w3.org/1999/xlink" x="0px" y="0px"
	 width="495.238px" height="301.19px" viewBox="0 0 495.238 301.19" enable-background="new 0 0 495.238 301.19"
	 xml:space="preserve">
<path fill="none" d="M392.729,74.858v0.386h62.31v-1.136h-0.384V72.6h-0.384v-1.132h-0.369v-1.521h-0.383v-0.752h-0.369v-0.75
	h-0.384v-1.138h-0.383v-0.75h-0.369v-0.752h-0.384v-0.756h-0.368v-0.765h-0.384v-0.367h-0.384v-0.756h-0.368v-0.38h-0.384v-0.752
	h-0.369v-0.385h-0.384v-0.371h-0.383v-0.765h-0.369v-0.367h-0.384v-0.385h-0.368v-0.371h-0.384v-0.38h-0.384v-0.385h-0.368V58.25
	h-0.384v-0.385h-0.369v-0.371h-0.383v-0.38h-0.384v-0.385h-0.369v-0.367h-0.384v-0.385h-0.368v-0.371h-0.384v-0.38h-0.752v-0.385
	h-0.384v-0.367h-0.752v-0.385h-0.384v-0.371h-0.369v-0.38h-0.752v-0.385h-0.768v-0.367h-0.752v-0.385h-0.752V51.83h-0.753v-0.38
	h-0.752v-0.385h-0.768v-0.367h-0.752v-0.386h-1.505v-0.371h-1.519v-0.38h-1.121v-0.385h-2.272V48.81h-7.936v0.367h-2.641v0.385
	h-1.136v0.38h-1.505v0.371h-1.136v0.386h-1.136v0.367h-0.752v0.385h-0.753v0.38h-0.752v0.371h-0.753v0.385h-0.767v0.367h-0.752
	v0.385h-0.753v0.38h-0.383v0.371h-0.369v0.385h-0.752v0.367h-0.384v0.385h-0.753v0.38h-0.383v0.371h-0.369v0.385h-0.384v0.367
	h-0.383v0.385h-0.369v0.38h-0.384v0.371h-0.368v0.385h-0.384v0.367h-0.384v0.385h-0.368v0.38h-0.384v0.371h-0.369v0.385h-0.384
	v0.367h-0.383v0.385h-0.369v0.75h-0.384v0.385h-0.368v0.752h-0.384v0.38h-0.384v0.756h-0.368v0.367h-0.384v0.765h-0.369v0.756
	h-0.384v0.752h-0.383v0.75h-0.369v0.752h-0.384v0.766h-0.368v0.756h-0.384v1.132h-0.384v1.508h-0.368v1.503h-0.384v1.136
	 M303.604,114.139v0.371h1.504v-0.371h3.408v-0.38h2.641v-0.385h1.136v-0.367h1.136v-0.385h1.121v-0.371h1.136v-0.38h1.136v-0.385
	h0.752v-0.367h0.384v-0.385h0.752v-0.371h0.753v-0.38h0.752v-0.385h0.384v-0.367h0.752v-0.385h0.753v-0.371h0.383v-0.38h0.384
	v-0.385h0.369v-0.367h0.752v-0.385h0.384v-0.371h0.384v-0.38h0.368v-0.385h0.384v-0.367h0.369v-0.385h0.767v-0.371h0.369v-0.765
	h0.383v-0.367h0.369v-0.386h0.384v-0.371h0.384v-0.765h0.368v-0.367h0.384v-0.386h0.369v-0.371h0.383v-0.765h0.384V99.79h0.369
	v-0.756h0.383v-0.765h0.369v-0.752h0.384v-0.75h0.383v-0.752h0.369v-0.385h0.384v-0.75h0.368v-0.752h0.384v-1.521h0.384v-1.123
	h0.369v-1.132h0.383v-1.521h0.369V86.94h0.384v-3.776h0.383v-3.391h-0.383v-4.162h-0.384v-1.503h-0.369V72.6h-0.383v-1.132h-0.369
	v-1.136h-0.384v-1.508h-0.384v-0.766h-0.368v-0.752h-0.384v-0.75h-0.369v-0.752h-0.383v-0.756h-0.384v-0.38h-0.369v-0.752h-0.383
	v-0.756h-0.369v-0.38h-0.384v-0.752h-0.383v-0.385h-0.369v-0.371h-0.384v-0.38h-0.368v-0.752h-0.384v-0.385h-0.384v-0.371h-0.369
	v-0.38h-0.383V58.25h-0.369v-0.385h-0.767v-0.371h-0.369v-0.38h-0.384v-0.385h-0.368v-0.367h-0.384v-0.385h-0.752v-0.371h-0.384
	v-0.38h-0.369v-0.385h-0.384v-0.367h-0.383v-0.385h-0.753v-0.371h-0.752v-0.38h-0.752v-0.385h-0.384v-0.367h-0.753v-0.385h-0.752
	V51.83h-0.752v-0.38h-0.768v-0.385h-1.121v-0.367h-1.136v-0.386h-1.136v-0.371h-1.136v-0.38h-1.505v-0.385h-3.776V48.81h-4.528
	v0.367h-3.776v0.385h-1.136v0.38h-1.136v0.371h-1.136v0.386h-1.136v0.367h-1.121v0.385h-0.768v0.38h-0.752v0.371h-0.752v0.385
	h-0.753v0.367h-0.384v0.385h-0.752v0.38h-0.752v0.371h-0.753v0.385h-0.383v0.367h-0.384v0.385h-0.369v0.38h-0.383v0.371h-0.753
	v0.385h-0.384v0.367h-0.368v0.385h-0.384v0.38h-0.369v0.371h-0.383v0.385h-0.384v0.367h-0.369v0.385h-0.383v0.38h-0.369v0.371
	h-0.384v0.752h-0.384v0.385h-0.368v0.38h-0.384v0.371h-0.369v0.385h-0.383v0.752h-0.384v0.38h-0.369v0.756h-0.383v0.752h-0.369v0.75
	h-0.384v0.752h-0.383v0.386h-0.369v0.75h-0.384v0.752h-0.368v1.136h-0.384v1.138h-0.384v1.136h-0.369V72.6h-0.383v1.123h-0.369
	v2.653h-0.384v3.011h-0.383v3.024h0.383v3.776h0.384v2.641h0.369v1.136h0.383v1.138h0.369v1.502h0.384v1.136h0.384v0.752h0.368
	v0.766h0.384v0.756h0.369v0.752h0.383v0.75h0.384v0.752h0.369v0.765h0.383v0.756h0.369v0.367h0.384v0.385h0.383v0.38h0.369v0.756
	h0.384v0.367h0.368v0.385h0.384v0.75h0.384v0.386h0.369v0.367h0.383v0.385h0.369v0.38h0.384v0.371h0.383v0.385h0.369v0.367h0.384
	v0.385h0.368v0.38h0.384v0.371h0.753v0.385h0.383v0.367h0.369v0.385h0.384v0.38h0.383v0.371h0.753v0.385h0.752v0.367h0.384v0.385
	h0.752v0.38h0.753v0.371h0.752v0.385h0.384v0.367h0.752v0.385h1.136v0.38h1.136v0.371h1.121v0.385h1.136v0.367h1.136v0.385h2.272
	v0.38H303.604z M362.136,123.58V123.2h-1.505v-0.386h-0.767v-0.367h-0.369v-0.756h-0.383V6.135h0.383V5.382h0.369V4.997h0.767V4.626
	h5.665v0.371h0.752v0.385h0.369v0.752h0.384v115.557h-0.384v0.756h-0.369v0.367h-0.752v0.386h-1.889v0.379H362.136z M128.005,123.58
	V123.2h-1.136v-0.386h-0.752v-0.367h-0.385v-0.385h-0.367v-1.136h-0.384V42.39h0.384v-1.132h0.367v-0.385h0.771v-0.371h1.117v-0.38
	h3.026v0.38h1.521v0.371h0.367v0.385h0.383v0.367h0.367v9.826h0.771v-0.385h0.367v-0.367h0.383v-0.386h0.367v-0.371h0.385v-0.38
	h0.385v-0.385h0.367V48.81h0.383v-0.386h0.367v-0.371h0.385v-0.38h0.385v-0.385h0.367v-0.367h0.75v-0.386h0.385v-0.371h0.752v-0.379
	h0.75V45.4h0.385v-0.367h0.752v-0.385h0.384v-0.371h0.752v-0.379h0.752v-0.386h0.75v-0.367h0.771V42.76h1.117V42.39h1.138v-0.38
	h1.136v-0.386h1.136v-0.367h1.138v-0.385h3.391v-0.371h3.391v-0.38h2.659v0.38h3.776v0.371h1.888v0.385h1.888v0.367h1.117v0.386
	h1.138v0.38h1.136v0.371h0.752v0.385h0.75v0.367h0.771v0.386h0.75v0.379h0.752v0.371h0.752v0.385h0.75V45.4h0.385v0.386h0.752v0.379
	h0.384v0.371h0.752v0.386h0.386v0.367h0.367v0.385h0.75v0.38h0.385v0.371h0.385v0.386h0.367v0.367h0.383v0.385h0.367v0.38h0.385
	v0.371h0.385v0.386h0.367v0.367h0.383v0.385h0.367v0.38h0.385v0.371h0.385v0.752h0.367v0.385h0.383v0.38h0.367v0.371h0.385v0.752
	h0.385v0.765h0.367v0.371h0.383v0.752h0.367v0.385h0.771v-0.385h0.367v-0.752h0.383v-0.371h0.367v-0.765h0.385v-0.367h0.385v-0.756
	h0.367v-0.38h0.383v-0.385h0.367v-0.367h0.385v-0.385h0.385V51.83h0.367v-0.765h0.383v-0.367h0.367v-0.386h0.386v-0.371h0.385v-0.38
	h0.75v-0.385h0.367V48.81h0.386v-0.386h0.385v-0.371h0.367v-0.38h0.384v-0.385h0.752v-0.367h0.385v-0.386h0.367v-0.371h0.75v-0.379
	h0.386V45.4h0.752v-0.367h0.75v-0.385h0.771v-0.371h0.367v-0.379h0.75v-0.386h0.771v-0.367h0.75V42.76h1.138V42.39h1.117v-0.38
	h1.138v-0.386h1.136v-0.367h1.888v-0.385h1.503v-0.371h4.162v-0.38h2.641v0.38h3.776v0.371h2.639v0.385h1.138v0.367h1.136v0.386
	h1.503v0.38h1.138v0.371h1.136v0.385h0.752v0.367h0.383v0.386h0.752v0.379h0.752v0.371h0.75v0.385h0.771V45.4h0.75v0.386h0.752
	v0.379h0.385v0.371h0.367v0.386h0.383v0.367h0.367v0.385h0.771v0.38h0.367v0.371h0.383v0.386h0.367v0.367h0.385v0.385h0.752v0.38
	h0.383v0.371h0.367v0.752h0.385v0.385h0.385v0.38h0.367v0.371h0.383v0.385h0.367v0.752h0.385v0.38h0.385v0.371h0.367v0.385h0.383
	v0.367h0.367v0.765h0.386v0.756h0.385v0.752h0.367v0.75h0.384v0.752h0.367v0.385h0.386v0.75h0.383v0.752h0.369v1.136h0.383v1.138
	h0.369v1.136h0.384v1.503h0.384v1.138h0.368v2.268h0.384V72.6h0.369v48.327h-0.369v1.136h-0.384v0.385h-0.368v0.367h-0.768v0.386
	h-1.89v0.379h-1.117V123.2h-1.521v-0.386h-0.752v-0.367h-0.385v-0.385h-0.367v-0.371h-0.383V73.356h-0.367v-3.024h-0.385v-1.888
	h-0.385v-1.138h-0.367V66.17h-0.383v-1.123h-0.367v-1.132h-0.385v-0.756h-0.385v-0.38h-0.367v-0.752h-0.383v-0.756h-0.367v-0.765
	h-0.385v-0.752h-0.385v-0.371h-0.367v-0.38h-0.383v-0.385h-0.367v-0.752h-0.385v-0.371h-0.385v-0.38h-0.367v-0.385h-0.383v-0.752
	h-0.752v-0.371h-0.385v-0.38h-0.367v-0.385h-0.383v-0.367h-0.367v-0.385h-0.771v-0.371h-0.367v-0.38h-0.383v-0.385h-0.752v-0.367
	h-0.385v-0.385h-0.75V51.83h-0.752v-0.38h-0.752v-0.385h-0.75v-0.367h-0.771v-0.386h-1.117v-0.371h-1.138v-0.38h-1.136v-0.385
	h-1.888V48.81h-3.776v-0.386h-0.752v0.386h-3.776v0.367h-1.888v0.385h-1.136v0.38h-1.136v0.371h-1.138v0.386h-0.75v0.367h-0.752
	v0.385h-0.752v0.38h-0.75v0.371h-0.386v0.385h-0.752v0.367h-0.75v0.385h-0.386v0.38h-0.385v0.371h-0.367v0.385h-0.75v0.367h-0.386
	v0.385h-0.385v0.38h-0.367v0.371h-0.384v0.385h-0.367v0.367h-0.385v0.385h-0.386v0.38h-0.367v0.756h-0.384v0.367h-0.367v0.385
	h-0.385v0.38h-0.386v0.371h-0.367v0.752h-0.384v0.765h-0.367v0.756h-0.385v0.752h-0.386v0.75h-0.367v0.752h-0.384v0.765h-0.367
	v1.508h-0.385v1.136h-0.386v1.132h-0.367v3.011h-0.383v49.092h-0.367v1.136h-0.385v0.385h-0.385v0.367h-0.75v0.386h-1.138v0.379
	h-2.255V123.2h-1.888v-0.386h-0.75v-0.367h-0.385v-0.756h-0.385V72.97h-0.367v-3.776h-0.383v-1.136h-0.367v-1.123h-0.385v-1.518
	h-0.385v-1.136h-0.367V63.53h-0.383v-0.75h-0.367v-0.385h-0.385v-0.752h-0.385v-0.75h-0.367v-0.752h-0.384v-0.385h-0.367v-0.75
	h-0.386v-0.385H178.6V58.25h-0.367v-0.385h-0.384v-0.75h-0.367v-0.385h-0.386v-0.367h-0.385v-0.385h-0.367v-0.371h-0.384v-0.38
	h-0.367v-0.385h-0.771v-0.367h-0.367v-0.385h-0.384v-0.371h-0.367v-0.38h-0.385v-0.385h-0.752v-0.367h-0.75v-0.385h-0.771V51.83
	h-0.367v-0.38h-0.75v-0.385h-0.771v-0.367h-0.75v-0.386h-1.138v-0.371h-1.503v-0.38h-1.136v-0.385h-1.505V48.81h-3.776v-0.386
	h-1.136v0.386h-3.776v0.367h-1.502v0.385h-1.138v0.38h-1.521v0.371h-1.117v0.386h-0.771v0.367h-0.75v0.385h-0.367v0.38h-0.771v0.371
	h-0.75v0.385h-0.752v0.367h-0.386v0.385h-0.75v0.38h-0.367v0.371h-0.385v0.385h-0.386v0.367h-0.367v0.385h-0.75v0.38h-0.385v0.371
	h-0.385v0.385h-0.367v0.367h-0.383v0.765h-0.367v0.371h-0.385v0.385h-0.385v0.367h-0.367v0.385h-0.383v0.75h-0.367v0.385h-0.385
	v0.752h-0.385v0.75h-0.367v0.752h-0.383v0.765h-0.367v0.371h-0.385v0.752h-0.385v1.521h-0.367v1.132h-0.383v1.123h-0.367v1.521
	h-0.385v3.776h-0.385v48.335h-0.367v0.756h-0.75v0.367h-0.385v0.386h-1.136v0.379H128.005z M107.621,123.58V123.2h-1.888v-0.386
	h-0.771v-0.367h-0.367v-0.756h-0.383V41.624h0.383v-0.367h0.367v-0.385h0.385v-0.371h0.752v-0.38h4.527v0.38h1.138v0.371h0.383
	v0.385h0.367v1.132h0.385v78.537h-0.385v1.136h-0.367v0.385h-0.383v0.367h-0.752v0.386h-1.888v0.379H107.621z M267.729,158.322
	v-0.384h-1.505v-0.372h-0.767v-0.38h-0.369V156.8h-0.384v-1.121h-0.368V80.908h0.368v-4.532h0.384v-1.888h0.369V72.22h0.383v-1.508
	h0.384V69.58h0.369v-1.136h0.384v-1.138h0.368V66.17h0.384v-1.123h0.384v-0.765h0.368V63.53h0.384v-1.136h0.369v-0.752h0.383v-0.75
	H270v-0.752h0.369v-0.385h0.384v-0.75h0.368V58.25h0.384v-0.756h0.384v-0.38h0.368v-0.752h0.384v-0.385h0.369v-0.371h0.383v-0.38
	h0.384v-0.752h0.369v-0.385h0.383v-0.371h0.369v-0.38h0.384v-0.385h0.384v-0.367h0.368v-0.385h0.384V51.83h0.369v-0.38h0.383v-0.385
	h0.384v-0.367h0.369v-0.386h0.383v-0.371h0.369v-0.38h0.384v-0.385h0.383V48.81h0.753v-0.386h0.368v-0.371h0.384v-0.38h0.753v-0.385
	h0.383v-0.367h0.369v-0.386h0.767v-0.371h0.753v-0.379h0.368V45.4h0.768v-0.367h0.752v-0.385h0.369v-0.371h0.767v-0.379h1.121
	v-0.386h0.768v-0.367h0.752V42.76h0.753V42.39h1.136v-0.38h1.504v-0.386h1.136v-0.367h1.505v-0.385h1.889v-0.371h2.271v-0.38h9.057
	v0.38h2.655v0.371h1.889v0.385h1.505v0.367h1.504v0.386h1.136v0.38h0.753v0.371h1.136v0.385h0.752v0.367h1.136v0.386h0.753v0.379
	h0.767v0.371h0.753v0.385h0.368V45.4h0.768v0.386h0.752v0.379h0.369v0.371h0.767v0.386h0.369v0.367h0.752v0.385h0.384v0.38h0.384
	v0.371h0.752v0.386h0.369v0.367h0.383v0.385h0.384v0.38h0.369v0.371h0.383v0.386h0.753v0.367h0.383v0.385h0.369v0.38h0.384v0.371
	h0.368v0.385h0.384v0.752h0.384v0.38h0.369v0.371h0.383v0.385h0.369v0.367h0.384v0.385h0.383v0.75h0.369v0.385h0.384v0.752h0.368
	v0.38h0.384v0.371h0.384v0.752h0.368v0.765h0.384v0.371h0.369v0.752h0.384v0.765h0.383v0.371h0.369v1.138h0.384v0.75h0.368v0.752
	h0.384v0.765h0.384v1.123h0.368v1.136h0.384v0.752h0.369v1.136h0.383v1.888h0.384V72.6h0.369v1.888h0.384v3.011h0.368v7.938h-0.368
	v2.639h-0.384v2.273h-0.369v1.503h-0.384v1.518h-0.383v1.123h-0.369v1.136h-0.384v1.138h-0.368v1.136h-0.384v0.752h-0.384v0.75
	h-0.368v0.752h-0.384v0.765h-0.369v0.756h-0.383v0.752h-0.384v0.38h-0.369v0.756h-0.384v0.752h-0.368v0.38h-0.384v0.756h-0.384
	v0.367h-0.368v0.385h-0.384v0.75h-0.369v0.385h-0.383v0.752h-0.384v0.38h-0.369v0.371h-0.383v0.385h-0.369v0.367h-0.384v0.385
	h-0.384v0.38h-0.368v0.371h-0.384v0.385h-0.369v0.367h-0.383v0.385h-0.384v0.38h-0.369v0.371h-0.383v0.385h-0.369v0.367h-0.384
	v0.385h-0.383v0.38h-0.753v0.371h-0.368v0.385h-0.384v0.367h-0.753v0.385h-0.383v0.38h-0.369v0.371h-0.767v0.385h-0.753v0.367
	h-0.368v0.385h-0.768v0.38h-0.752v0.371h-0.753v0.385h-0.752v0.367h-0.752v0.386h-0.768v0.38h-0.752v0.371h-1.136v0.385h-0.753
	v0.367h-1.136v0.386h-1.504v0.379h-1.505v0.371h-1.889v0.385h-2.271v0.367h-9.824v-0.367h-1.888v-0.385h-2.257v-0.371h-1.137v-0.379
	h-1.504v-0.386h-1.136v-0.367h-1.136v-0.385h-0.753v-0.371h-0.752v-0.38h-0.768v-0.386h-0.752v-0.367h-1.136v-0.385h-0.369v-0.371
	h-0.752v-0.38h-0.384v-0.385h-0.752v-0.367h-0.753v-0.385h-0.383v-0.371h-0.753v-0.38h-0.383v-0.385h-0.369v-0.367h-0.384v-0.385
	h-0.752v-0.371h-0.384v-0.38h-0.369v-0.385h-0.383v-0.367h-0.384v-0.385h-0.369v-0.371h-0.383v-0.38h-0.369v-0.385h-0.384v-0.367
	h-0.383v-0.385h-0.369v-0.371h-0.384v-0.38h-0.368v-0.385h-0.384v-0.367h-0.384v-0.385h-0.369v-0.75h-0.383v-0.385h-0.369v-0.367
	h-0.384v-0.385h-0.383v49.478h-0.369v0.752h-0.384v0.38h-0.752v0.372H270v0.384H267.729z M222.027,208.167v0.38h5.665v-0.38h3.41
	v-0.388h1.138v-0.365h1.117v-0.383h1.138v-0.373h1.136v-0.38h1.136v-0.387h0.752v-0.365h0.385v-0.384h0.75v-0.372h0.752v-0.38h0.385
	v-0.388h0.75v-0.365h0.752v-0.383h0.752v-0.373h0.383v-0.38h0.367v-0.387h0.385v-0.365h0.385v-0.384h0.367v-0.372h0.383v-0.38h0.752
	v-0.388h0.385v-0.365h0.367v-0.383h0.383v-0.373h0.367v-0.38h0.386v-0.387h0.385v-0.749h0.367v-0.372h0.384v-0.38h0.367v-0.752
	h0.386v-0.384h0.383v-0.373h0.369v-0.38h0.383v-0.752h0.369v-0.384h0.384v-0.752h0.384v-0.752h0.368v-0.757h0.384v-0.767h0.369
	v-0.749h0.383v-0.752h0.384v-0.752h0.369v-1.523h0.383v-1.121h0.369v-1.516h0.384v-1.14h0.383v-1.501h0.369v-4.163h0.384v-4.142
	h-0.384v-4.16h-0.369v-1.504h-0.383v-1.137h-0.384v-1.508h-0.369v-1.132h-0.383v-1.523h-0.369v-0.749h-0.384v-0.752h-0.383v-0.752
	h-0.369v-0.384h-0.384v-0.752h-0.368v-0.753h-0.384v-0.756h-0.384V156.8h-0.369v-0.365H249.6v-0.756h-0.369v-0.38h-0.383v-0.388
	h-0.386v-0.365h-0.367v-0.756h-0.384v-0.38h-0.367v-0.387h-0.385v-0.751h-0.386v-0.37h-0.367v-0.38h-0.75v-0.385h-0.385v-0.367
	h-0.385v-0.385h-0.367v-0.371h-0.383v-0.38h-0.367v-0.385h-0.385v-0.367h-0.752v-0.385h-0.383v-0.371h-0.367v-0.38h-0.771v-0.386
	h-0.75v-0.367h-0.752v-0.385h-0.385v-0.371h-0.75v-0.38h-0.752v-0.386h-0.752v-0.367h-0.75v-0.385h-1.138v-0.371h-1.136v-0.38
	h-1.136v-0.386h-1.138v-0.367h-2.639v-0.385h-3.776v-0.371h-0.367v0.371h-3.776v0.385h-2.659v0.367h-1.118v0.386h-1.138v0.38h-1.136
	v0.371h-1.136v0.385h-0.752v0.367h-0.752v0.386h-0.75v0.38h-0.771v0.371h-0.367v0.385h-0.75v0.367h-0.771v0.386h-0.367v0.38h-0.75
	v0.371h-0.386v0.385h-0.385v0.367h-0.367v0.385h-0.75v0.38h-0.386v0.371h-0.385v0.385h-0.367v0.367h-0.384v0.385h-0.367v0.38h-0.386
	v0.37h-0.385v0.386h-0.367v0.365h-0.384v0.387h-0.367v0.749h-0.386v0.387h-0.385v0.365h-0.367v0.768h-0.384v0.368h-0.367v0.388
	h-0.385v0.365h-0.386v0.767h-0.367v0.756h-0.384v0.753h-0.367v0.752h-0.385v0.749h-0.386v0.767h-0.367v0.756h-0.384v0.753h-0.367
	v1.5h-0.385v1.14h-0.386v1.516h-0.367v1.121h-0.384v2.655h-0.367v3.776h-0.385v1.509h0.385v4.156h0.367v2.644h0.384v1.133h0.367
	v1.508h0.386v1.136h0.385v1.505h0.367v0.749h0.384v0.767h0.367v0.756h0.386v0.752h0.385v0.753h0.367v0.748h0.384v0.768h0.367v0.756
	h0.386v0.365h0.385v0.387h0.367v0.753h0.384v0.384h0.367v0.364h0.385v0.768h0.386v0.372h0.367v0.384h0.384v0.752h0.367v0.38h0.385
	v0.373h0.386v0.383h0.75v0.365h0.367v0.388h0.385v0.38h0.386v0.372h0.367v0.384h0.384v0.365h0.367v0.387h0.385v0.38h0.752v0.373
	h0.383v0.383h0.752v0.365h0.752v0.388h0.383v0.38h0.752v0.372h0.752v0.384h0.75v0.365h0.385v0.387h1.136v0.38h1.138v0.373h1.118
	v0.383h1.138v0.365h1.136v0.388H222.027z M394.986,208.547v0.372h4.16v-0.372h3.393v-0.38h1.52v-0.388h1.121v-0.365h1.136v-0.383
	h1.136v-0.373h1.136v-0.38h0.753v-0.387h0.752v-0.365h0.384v-0.384h0.752v-0.372h0.753v-0.38h0.752v-0.388h0.384v-0.365h0.752
	v-0.383h0.384v-0.373h0.752v-0.38h0.384v-0.387h0.368v-0.365h0.384v-0.384h0.369v-0.372h0.384v-0.38h0.383v-0.388h0.753v-0.365
	h0.368v-0.383h0.384v-0.373h0.384v-0.767h0.368v-0.365h0.384v-0.384h0.369v-0.372h0.383v-0.768h0.384v-0.364h0.369v-0.384h0.384
	v-0.753h0.368v-0.387h0.384v-0.749h0.384v-0.372h0.368v-0.768h0.384v-0.748h0.369v-0.753h0.383v-0.752h0.384v-0.756h0.369v-0.767
	h0.384v-1.121h0.368v-1.517h0.384v-1.139h0.384v-1.501h0.368v-1.137h0.384v-4.148h0.369v-4.908h-0.369v-4.16h-0.384v-1.504h-0.368
	v-1.137h-0.384v-1.508h-0.384v-1.132h-0.368v-1.136h-0.384v-0.753h-0.369v-0.756h-0.384v-0.767h-0.383v-0.749h-0.369v-0.752h-0.384
	v-0.753h-0.368v-0.756h-0.384V156.8h-0.384v-0.365h-0.368v-0.388h-0.384v-0.748h-0.369v-0.388h-0.384v-0.365h-0.383v-0.387h-0.369
	v-0.749h-0.384v-0.387h-0.368v-0.365h-0.384v-0.386h-0.384v-0.37h-0.368v-0.38h-0.384v-0.385h-0.369v-0.367h-0.383v-0.385h-0.384
	v-0.371h-0.369v-0.38h-0.384v-0.385h-0.752v-0.367h-0.384v-0.385h-0.368v-0.371h-0.384v-0.38h-0.752v-0.386h-0.753v-0.367h-0.383
	v-0.385h-0.753v-0.371h-0.752v-0.38h-0.753v-0.386h-0.383v-0.367h-1.136v-0.385h-1.136v-0.371h-1.121v-0.38h-1.137v-0.386h-1.136
	v-0.367h-1.504v-0.385h-3.408v-0.371h-3.393v0.371h-3.776v0.385h-1.52v0.367h-1.121v0.386h-1.136v0.38h-1.136v0.371h-1.136v0.385
	h-0.752v0.367h-0.753v0.386h-0.752v0.38h-0.384v0.371h-0.752v0.385H381.4v0.367h-0.767v0.386h-0.369v0.38h-0.752v0.371h-0.384v0.385
	h-0.383v0.367h-0.369v0.385h-0.384v0.38h-0.368v0.371h-0.768v0.385h-0.369v0.367h-0.383v0.385h-0.369v0.38h-0.384v0.37h-0.383v0.386
	h-0.369v0.365h-0.384v0.767h-0.368v0.369h-0.384v0.387h-0.384v0.753h-0.368v0.38h-0.384v0.368h-0.369v0.388h-0.384v0.752h-0.383
	v0.752h-0.369v0.749h-0.384v0.768h-0.368v0.372h-0.384v0.749h-0.384v0.767h-0.368v0.756h-0.384v1.132h-0.369v1.121h-0.383v1.14
	h-0.384v1.516h-0.369v1.121h-0.384v1.889h-0.368v4.163h-0.384v3.39h0.384v3.776h0.368v1.888h0.384v1.523h0.369v1.132h0.384v1.509
	h0.383v1.136h0.369v0.752h0.384v0.752h0.368v0.749h0.384v0.767h0.384v0.757h0.368v0.752h0.384v0.752h0.369v0.749h0.383v0.387h0.384
	v0.38h0.369v0.757h0.384v0.364h0.368v0.388h0.384v0.38h0.384v0.756h0.368v0.365h0.384v0.387h0.369v0.38h0.383v0.373h0.384v0.383
	h0.369v0.365h0.383v0.388h0.369v0.38h0.384v0.372h0.384v0.384h0.752v0.365h0.369v0.387h0.383v0.38h0.384v0.373h0.369v0.383h0.752
	v0.365h0.767v0.388h0.369v0.38h0.752v0.372h0.768v0.384h0.752v0.365h0.369v0.387h0.767v0.38h1.121v0.373h1.137v0.383h1.136v0.365
	h1.504v0.388h1.136v0.38H394.986z M452.384,217.607v-0.388h-1.505v-0.364h-0.384v-0.384h-0.368v-0.753h-0.384v-101.58h-0.369v0.371
	h-0.384v0.385h-0.383v0.367h-0.753v0.385h-0.368v0.38h-0.768v0.371h-0.368v0.385h-0.384v0.367h-0.752v0.385h-0.384v0.38h-0.753
	v0.371h-0.752v0.385h-0.752v0.367h-0.753v0.386h-0.767v0.38h-0.752v0.371h-0.753v0.385h-0.752v0.367h-1.136v0.386h-1.136v0.379
	h-1.505v0.371h-1.52v0.385h-1.121v0.367h-2.655v0.386h-4.145v0.379h-3.776V123.2h-3.776v-0.386h-2.272v-0.367h-1.504v-0.385h-1.52
	v-0.371h-1.121v-0.379h-1.136v-0.386h-0.753v-0.367h-1.136v-0.385h-0.752v-0.371h-0.767v-0.38h-0.753v-0.386h-0.752v-0.367h-0.753
	v-0.385h-0.752v-0.371h-0.384v-0.38h-0.752v-0.385h-0.752v-0.367h-0.384v-0.385h-0.752v-0.371h-0.384v-0.38h-0.369v-0.385h-0.767
	v-0.367h-0.369v-0.385h-0.384v-0.371h-0.368v-0.38h-0.384v-0.385h-0.752v-0.367h-0.384v-0.385h-0.369v-0.371h-0.384v-0.38h-0.383
	v-0.385h-0.369v-0.367h-0.384v-0.385h-0.368v-0.371h-0.384v-0.765h-0.384v-0.367h-0.368v-0.385h-0.384v-0.371h-0.369v-0.38h-0.383
	v-0.752h-0.384v-0.385h-0.369v-0.371h-0.384v-0.765h-0.368v-0.367h-0.384v-0.756h-0.384v-0.765h-0.368v-0.367h-0.384v-0.756h-0.369
	v-0.765h-0.383v-0.752h-0.384v-0.75h-0.369V99.79h-0.383v-0.756h-0.369v-0.765h-0.384v-1.123h-0.384v-1.132h-0.368v-0.756h-0.384
	V93.74h-0.369v-1.503h-0.383v-1.521h-0.384v-2.255h-0.369v-3.024h-0.383v-6.802h0.383v-3.391h0.369V72.97h0.384v-1.502h0.383v-1.521
	h0.369v-1.123h0.384v-1.132h0.368v-1.136h0.384v-1.138h0.384v-0.75h0.369v-0.752h0.383v-0.756h0.369v-0.765h0.384v-0.752h0.383
	v-0.75h0.369v-0.752h0.384v-0.385h0.368v-0.75h0.384V58.25h0.384v-0.385h0.368v-0.371h0.384v-0.765h0.369v-0.367h0.384v-0.756h0.383
	v-0.38h0.369v-0.385h0.384v-0.367h0.368v-0.385h0.384v-0.75h0.384v-0.385h0.368v-0.367h0.384v-0.385h0.369V51.83h0.383v-0.38h0.384
	v-0.385h0.369v-0.367h0.384v-0.386h0.368v-0.371h0.768v-0.38h0.368v-0.385h0.384V48.81h0.369v-0.386h0.767v-0.371h0.369v-0.38h0.384
	v-0.385h0.752v-0.367h0.384v-0.386h0.752v-0.371h0.369v-0.379h0.767V45.4h0.752v-0.367h0.369v-0.385h0.768v-0.371h0.752v-0.379
	h1.136v-0.386h0.752v-0.367h0.753V42.76h1.136V42.39h1.136v-0.38h1.121v-0.386h1.136v-0.367h1.52v-0.385h2.257v-0.371h2.641v-0.38
	h6.048v0.38h3.776v0.371h2.641v0.385h1.136v0.367h1.504v0.386h1.137v0.38h1.136v0.371h1.136v0.385h1.136v0.367h0.752v0.386h0.753
	v0.379h0.383v0.371h0.753v0.385h0.752V45.4h0.752v0.386h0.753v0.379h0.767v0.371h0.369v0.386h0.752v0.367h0.384v0.385h0.384v0.38
	h0.368v0.371h0.753v0.386h0.383v0.367h0.384v0.385h0.369v0.38h0.752v0.371h0.384v0.386h0.384v0.367h0.368v0.385h0.384v0.38h0.369
	v0.371h0.383v0.385h0.384v0.367h0.369v0.765h0.383v0.371h0.369v0.385h0.384v0.367h0.384v0.385h0.368v0.38h0.384v0.756h0.369v0.367
	h0.383v0.385h0.384v0.75h0.369v0.752h0.383v0.385h0.369v0.75h0.384v0.752h0.384v0.765h0.368v0.371h0.384v0.752h0.368v0.765h0.384
	v0.756h0.384v0.752h0.369v1.136h0.383v1.132h0.369v1.123h0.384v0.766h0.383v1.123h0.369v1.521h0.384v2.255h0.368v2.273h0.384v1.888
	h0.384v2.268h-0.384v1.508h-0.384v0.38h-0.368v0.371h-0.384v0.385h-0.752v0.367h-0.753v0.385h-69.108v1.888h0.383v2.639h0.369v2.273
	h0.384v1.132h0.368v0.756h0.384v1.132h0.384v1.123h0.368v1.136h0.384v0.752h0.369v0.765h0.383v0.756h0.384v0.367h0.369v0.765h0.384
	v0.756h0.368v0.752h0.384v0.38h0.384v0.756h0.368v0.367h0.384v0.385h0.369v0.38h0.383v0.371h0.384v0.752h0.369v0.385h0.384v0.38
	h0.368v0.371h0.384v0.385h0.384v0.367h0.368v0.385h0.384v0.38h0.369v0.371h0.383v0.385h0.384v0.367h0.752v0.385h0.369v0.38h0.384
	v0.371h0.384v0.385h0.752v0.367h0.369v0.385h0.767v0.38h0.752v0.371h0.753v0.385h0.383v0.367h0.753v0.385h0.752v0.38h0.753v0.371
	h1.136v0.385h1.136v0.367h1.136v0.385h1.505v0.38h1.136v0.371h3.393v0.385h6.8v-0.385h1.889v-0.371h1.888v-0.38h1.136v-0.385h1.137
	v-0.367h1.12v-0.385h1.137v-0.371h0.752v-0.38h0.767v-0.385h0.753v-0.367h0.752v-0.385h0.384v-0.371h0.752v-0.38h0.753v-0.385h0.383
	v-0.367h0.753v-0.385h0.368v-0.371h0.384v-0.38h0.384v-0.385h0.368v-0.367h0.753v-0.385h0.384v-0.371h0.383v-0.38h0.369v-0.385
	h0.384v-0.367h0.368v-0.385h0.384v-0.371h0.384v-0.38h0.368v-0.752h0.384v-0.386h0.369v-0.371h0.383v-0.765h0.384v-0.367h0.369
	v-0.386h0.384v-0.75h0.368v-0.385h0.384V99.79h0.384v-0.386h0.368v-0.75h0.753v-0.386h1.519v-0.367h1.505v0.367h0.753v0.386h0.767
	v0.379h0.369v0.371h0.383v0.752h0.369v1.521h0.384v114.041h-0.384v0.753h-0.369v0.384h-0.383v0.364h-1.505v0.388H452.384z
	 M395.37,217.607v-0.388h-4.16v-0.364h-2.257v-0.384h-1.519v-0.373h-1.505v-0.38h-1.136v-0.387h-1.136v-0.365h-0.753v-0.384h-1.136
	v-0.372h-0.752v-0.38h-0.753v-0.388h-0.752v-0.364h-0.767v-0.384h-0.753v-0.372h-0.368v-0.38h-0.768v-0.388h-0.752v-0.365h-0.369
	v-0.384h-0.767v-0.372h-0.369v-0.38h-0.384v-0.387h-0.752v-0.365h-0.384v-0.384h-0.368v-0.372h-0.384v-0.38h-0.753v-0.388h-0.383
	v-0.365h-0.369v-0.383h-0.384v-0.373h-0.368v-0.38h-0.384v-0.387h-0.384v-0.365h-0.368v-0.384h-0.384v-0.372h-0.369v-0.38h-0.383
	v-0.753h-0.384v-0.383h-0.369v-0.373h-0.384v-0.38h-0.368v-0.387h-0.384v-0.749h-0.384v-0.372h-0.368v-0.768h-0.384v-0.365h-0.369
	v-0.756h-0.383v-0.38h-0.384v-0.752h-0.369v-0.756h-0.383v-0.38h-0.369v-0.752h-0.384v-0.757h-0.384v-0.767h-0.368v-1.121H361
	v-0.768h-0.369v-0.748h-0.383v-1.14h-0.384v-1.121h-0.369v-1.132h-0.383v-1.136h-0.369v-1.509h-0.384v-1.888h-0.384v-2.655h-0.368
	v-5.277h-0.384v-0.388h0.384v-5.664h0.368v-2.637h0.384v-1.505h0.384v-1.523h0.369v-1.5h0.383v-1.137h0.369v-1.139h0.384v-0.749
	h0.383v-1.14H361v-0.749h0.384v-0.752h0.368v-0.752h0.384v-0.756h0.384v-0.768h0.369v-0.752h0.383v-0.749h0.369v-0.387h0.384v-0.751
	h0.383v-0.37h0.369v-0.766h0.384v-0.367h0.368v-0.756h0.384v-0.38h0.384v-0.385h0.368v-0.752h0.384v-0.371h0.369v-0.38h0.384v-0.386
	h0.383v-0.367h0.369v-0.385h0.384v-0.371h0.368v-0.38h0.384v-0.386h0.384v-0.367h0.368v-0.385h0.384v-0.371h0.369v-0.38h0.383
	v-0.386h0.384v-0.367h0.369v-0.385h0.752v-0.371h0.384v-0.38h0.384v-0.385h0.368v-0.367h0.753v-0.385h0.383v-0.371h0.753v-0.38
	h0.383v-0.385h0.753v-0.367h0.384v-0.385h0.752v-0.371h0.752v-0.38h0.753v-0.385h0.752v-0.367h0.767v-0.385h1.121v-0.371h0.768
	v-0.38h1.121v-0.385h1.136v-0.367h1.136v-0.385h1.505v-0.371h1.888v-0.38h2.272v-0.385h8.688v0.385h2.64v0.38h1.889v0.371h1.505
	v0.385h1.136v0.367h1.136v0.385h1.136v0.38h1.136v0.371h0.752v0.385h0.753v0.367h0.752v0.385h0.752v0.38h0.768v0.371h0.752v0.385
	h0.369v0.367h0.767v0.385h0.369v0.38h0.752v0.371h0.384v0.385h0.752v0.367h0.384v0.385h0.369v0.38h0.767v0.371h0.369v0.385h0.384
	v0.367h0.368v0.386h0.384v0.38h0.384v0.371h0.368v0.385h0.384v0.367h0.369v0.386h0.383v0.38h0.384v0.371h0.753v0.752h0.368v0.386
	h0.384v0.38h0.384v0.371h0.368v0.752h0.384v0.385h0.369v0.38h0.383v0.371h0.384v0.752h0.369v0.766h0.383v0.37h0.369v0.751h0.384
	v0.767h0.384v0.756h0.368v0.753h0.384v0.748h0.369v0.753h0.383v0.767h0.384v0.756h0.369v1.133h0.383v0.756h0.369v1.132h0.384v1.121
	h0.384v1.14h0.368v1.516h0.384v1.508h0.368v1.889h0.384v1.888h0.384v4.912h0.369v40.017h-0.369v1.14h-0.384v0.384h-0.384v0.364
	h-1.504v0.388h-3.393v-0.388h-1.52v-0.364h-0.369v-0.384h-0.384v-1.14h-0.383V201.75h-0.369v0.365h-0.384v0.767h-0.368v0.373h-0.384
	v0.383h-0.384v0.365h-0.368v0.768h-0.384v0.372h-0.369v0.384h-0.384v0.365h-0.383v0.387h-0.369v0.38h-0.384v0.373h-0.368v0.383
	h-0.384v0.365h-0.752v0.388h-0.384v0.38h-0.369v0.372h-0.384v0.384h-0.752v0.365h-0.384v0.387h-0.368v0.38h-0.768v0.372h-0.368
	v0.384h-0.753v0.365h-0.383v0.388h-0.753v0.38h-0.752v0.372h-0.384v0.384h-0.752v0.364h-0.753v0.388h-1.136v0.38h-0.752v0.372
	h-0.768v0.384h-1.121v0.365h-1.136v0.387h-1.136v0.38h-1.136v0.373h-1.888v0.384h-1.889v0.364h-4.145v0.388H395.37z
	 M311.156,217.607v-0.388h-3.776v-0.364h-2.641v-0.384h-1.136v-0.373h-1.505v-0.38h-1.136v-0.387h-1.136v-0.365h-1.136v-0.384
	h-0.753v-0.372h-0.752v-0.38h-0.384v-0.388h-0.752v-0.364h-0.752v-0.384h-0.753v-0.372h-0.767v-0.38h-0.753v-0.388h-0.368v-0.365
	h-0.384v-0.384h-0.384v-0.372h-0.368v-0.38h-0.753v-0.387h-0.383v-0.365h-0.384v-0.384h-0.369v-0.372h-0.384v-0.38h-0.752v-0.388
	h-0.384v-0.365h-0.368v-0.383h-0.384v-0.753h-0.369v-0.387h-0.383v-0.365h-0.384v-0.384h-0.369v-0.752h-0.383v-0.388h-0.369v-0.365
	h-0.384v-0.383h-0.384v-0.753h-0.368v-0.387h-0.384v-0.749h-0.369v-0.752h-0.383v-0.753h-0.384v-0.756h-0.369v-0.767h-0.383v-0.365
	h-0.369v-0.756h-0.384v-1.132h-0.384v-1.137h-0.368v-1.136h-0.384v-1.504h-0.369v-1.137h-0.383v-2.274h-0.384v-3.776h-0.369v-49.843
	h0.369v-0.75h0.384v-0.385h1.504v-0.367h4.16v0.367h1.136v0.385h0.753v1.136h0.383v50.98h0.369v2.254h0.384v1.522h0.368v1.132h0.384
	v1.121h0.384v1.14h0.368v0.384h0.384v0.752h0.369v0.753h0.384v0.748h0.383v0.768h0.369v0.756h0.384v0.365h0.368v0.387h0.384v0.38
	h0.384v0.373h0.368v0.748h0.384v0.388h0.369v0.38h0.383v0.372h0.384v0.384h0.369v0.365h0.384v0.387h0.368v0.38h0.768v0.373h0.368
	v0.383h0.384v0.365h0.369v0.388h0.767v0.38h0.369v0.372h0.752v0.384h0.768v0.365h0.752v0.387h0.752v0.38h0.384v0.373h1.121v0.383
	h1.52v0.365h1.136v0.388h1.121v0.38h3.024v0.372h4.159v-0.372h3.024v-0.38h1.121v-0.388h1.136v-0.365h1.52v-0.383h1.121v-0.373
	h0.767v-0.38h0.369v-0.387h0.752v-0.365h0.768v-0.384h0.752v-0.372h0.752v-0.38h0.384v-0.388h0.369v-0.365h0.383v-0.383h0.753
	v-0.373h0.384v-0.38h0.368v-0.387h0.384v-0.365h0.752v-0.384h0.384v-0.752h0.369v-0.388h0.383v-0.365h0.369v-0.383h0.384v-0.373
	h0.383v-0.767h0.369v-0.365h0.384v-0.384h0.368v-0.752h0.384v-0.752h0.384v-0.757h0.369v-0.38h0.383v-0.752h0.369v-0.756h0.384
	v-1.132h0.383v-1.137h0.369v-1.136h0.384v-1.504h0.368v-3.024h0.384v-50.229h0.384v-0.75h0.368v-0.385h1.52v-0.367h4.529v0.367
	h1.136v0.385h0.368v0.38h0.384v50.98h-0.384v3.776h-0.368v1.508h-0.384v1.501h-0.384v1.14h-0.368v1.136h-0.384v1.137h-0.369v1.132
	h-0.384v0.756h-0.383v0.365h-0.369v0.767h-0.384v0.756h-0.368v0.753h-0.384v0.752h-0.384v0.749h-0.368v0.387h-0.384v0.753h-0.369
	v0.383h-0.383v0.365h-0.384v0.388h-0.369v0.38h-0.384v0.756h-0.368v0.365h-0.384v0.387h-0.384v0.38h-0.368v0.756h-0.384v0.365
	h-0.752v0.388h-0.384v0.38h-0.369v0.372h-0.383v0.384h-0.369v0.365h-0.768v0.387h-0.368v0.38h-0.384v0.372h-0.369v0.384h-0.383
	v0.365h-0.753v0.388h-0.752v0.38h-0.767v0.372h-0.369v0.384h-0.752v0.364h-0.768v0.388h-0.752v0.38h-0.753v0.372h-0.752v0.384
	h-1.136v0.365h-1.136v0.387h-1.136v0.38h-1.121v0.373h-1.52v0.384h-2.641v0.364h-3.776v0.388H311.156z M111.765,217.607v-0.388
	h-1.888v-0.364h-0.367v-0.384h-0.771v-0.753h-0.367v-79.302h0.367v-0.752h0.385v-0.385h0.385v-0.371h0.75v-0.38h1.505v-0.385h1.521
	v0.385h1.503v0.38h0.385v0.371h0.367v0.385h0.383v0.367h0.367v1.136h0.386v8.69h0.385v-0.386h0.367v-0.367h0.384v-0.385h0.367
	v-0.371h0.386v-0.38h0.385v-0.386h0.367v-0.367h0.384v-0.385h0.367v-0.371h0.386v-0.38h0.385v-0.385h0.367v-0.367h0.384v-0.385
	h0.752v-0.371h0.752v-0.38h0.384v-0.385h0.752v-0.367h0.386v-0.385h0.75v-0.371h0.752v-0.38h0.386v-0.385h0.75v-0.367h0.752v-0.385
	h1.136v-0.371h1.137v-0.38h1.118v-0.385h1.138v-0.367h0.75v-0.385h1.521v-0.371h3.026v-0.38h3.391v-0.385h1.888v0.385h3.776v0.38
	h2.64v0.371h1.136v0.385h1.503v0.367h1.138v0.385h1.136v0.38h1.136v0.371h0.752v0.385h0.752v0.367h0.75v0.385h0.385v0.38h0.752
	v0.371h0.75v0.385h0.771v0.367h0.75v0.385h0.367v0.38h0.385v0.371h0.385v0.385h0.75v0.367h0.367v0.385h0.385v0.38h0.385v0.371h0.367
	v0.385h0.75v0.367h0.385v0.386h0.385v0.38h0.367v0.371h0.383v0.385h0.367v0.752h0.385v0.38h0.385v0.371h0.367v0.385h0.383v0.367
	h0.367v0.766h0.386v0.371h0.385v0.385h0.367v0.752h0.384v0.38h0.367v0.756h0.386v0.752h0.385v0.75h0.367v0.751h0.384v0.767h0.367
	v0.369h0.386v1.14h0.385v1.136h0.367v1.132h0.384v1.121h0.367v1.14h0.385v1.516h0.386v3.396h0.367v51.359h-0.367v0.373h-0.386v0.384
	h-0.385v0.364h-1.502v0.388h-3.024v-0.388h-1.504v-0.364h-0.383v-0.384h-0.367v-0.373h-0.385V167.38h-0.385v-3.776h-0.367v-1.505
	h-0.383v-1.136h-0.367v-1.136h-0.385v-1.505h-0.385v-0.756h-0.367v-0.38h-0.383v-0.752h-0.367v-0.756h-0.385v-0.768h-0.385v-0.752
	h-0.367v-0.369h-0.383v-0.38h-0.367v-0.752h-0.385v-0.386h-0.385v-0.37h-0.367v-0.38h-0.383v-0.752h-0.367v-0.385h-0.385v-0.371
	h-0.385v-0.38h-0.75v-0.385h-0.367v-0.367h-0.385v-0.385h-0.385v-0.371h-0.367v-0.38h-0.75v-0.386h-0.385v-0.367h-0.752v-0.385
	h-0.75v-0.371h-0.386v-0.38h-0.752v-0.386h-0.75v-0.367h-0.771v-0.385h-1.117v-0.371h-1.138v-0.38h-1.136v-0.386h-1.136v-0.367
	h-3.026v-0.385h-4.894v0.385h-3.026v0.367h-1.136v0.386h-1.136v0.38h-1.138v0.371h-1.118v0.385h-0.771v0.367h-0.367v0.386h-0.75
	v0.38h-0.771v0.371h-0.75v0.385h-0.752v0.367h-0.385v0.386h-0.367v0.38h-0.384v0.371h-0.752v0.385h-0.385v0.367h-0.367v0.385h-0.384
	v0.38h-0.367v0.371h-0.386v0.385h-0.385v0.367h-0.367v0.385h-0.384v0.38h-0.367v0.37h-0.386v0.751h-0.385v0.387h-0.367v0.38h-0.384
	v0.756h-0.367v0.365h-0.385v0.768h-0.386v0.756h-0.367v0.752h-0.384v0.752h-0.367v0.749h-0.385v1.14h-0.386v1.136h-0.367v1.136
	h-0.384v1.132h-0.367v3.01h-0.385v49.092h-0.386v0.767h-0.367v0.373h-0.383v0.384h-0.752v0.364h-1.136v0.388H111.765z
	 M90.628,217.607v-0.388h-1.521v-0.364h-0.752v-0.384h-0.385v-0.373h-0.367v-0.767h-0.383v-78.915h0.383v-0.752h0.367v-0.385h0.385
	v-0.371h0.385v-0.38h0.75v-0.385h3.776v0.385h0.752v0.38h0.752v0.371h0.384v0.385h0.367v1.132h0.386v78.17h-0.386v1.132h-0.367
	v0.373h-0.384v0.384h-0.752v0.364h-1.503v0.388H90.628z M6.779,217.607v-0.388H5.661v-0.364H4.891v-0.384H4.523v-0.373H4.14v-0.38
	H3.773v-0.752H3.388V100.922h0.385v-0.38H4.14v-0.385h0.75V99.79h0.771v-0.386H8.3v0.386h0.367v0.367h0.771v0.385h0.367v0.38h0.75
	v0.371h0.385v0.386h0.752v0.367h0.383v0.385h0.367v0.38h0.771v0.371h0.367v0.386h0.75v0.367h0.386v0.385h0.752v0.38h0.384v0.371
	h0.752v0.385h0.385v0.367h0.75v0.385h0.752v0.38h0.385v0.371h0.75v0.385h0.752v0.367h0.752v0.385h0.384v0.38h0.752v0.371h0.752
	v0.385h0.75v0.367h0.771v0.385h1.117v0.38h0.771v0.371h0.75v0.385h0.752v0.367h1.136v0.385h1.138v0.38h0.75v0.371h1.138v0.385h1.118
	v0.367h1.521v0.385h1.138v0.38h1.503v0.371h1.888v0.385h2.273v0.367h3.776v0.385h5.279v-0.385h4.912v-0.367h1.888v-0.385h1.505
	v-0.371h1.888v-0.38h1.521v-0.385h1.118v-0.367h1.137v-0.385h0.75v-0.371h1.138v-0.38h0.75v-0.385h1.138v-0.367h0.75v-0.385h0.771
	v-0.371h0.367v-0.38h0.75v-0.385h0.771v-0.367h0.367v-0.385h0.75v-0.371h0.771v-0.38h0.367v-0.385h0.75v-0.367h0.385v-0.385h0.386
	v-0.371h0.367v-0.38h0.384v-0.385h0.367v-0.367h0.771v-0.385h0.367v-0.371h0.383v-0.38h0.367v-0.385h0.385v-0.367h0.385v-0.756
	h0.367v-0.38h0.383v-0.385h0.367v-0.752h0.385v-0.371h0.385v-0.38h0.367V99.79h0.383v-0.756h0.367v-0.765h0.385v-1.123h0.385V96.38
	h0.367v-0.752h0.383V93.74h0.367v-3.024h0.385v-0.752h-0.385V86.94h-0.367v-1.888h-0.383v-0.752h-0.367v-0.75H82.69v-1.138h-0.385
	v-0.75h-0.367v-0.385h-0.383v-0.752h-0.367v-0.371h-0.385v-0.38h-0.385v-0.385h-0.367v-0.752h-0.383v-0.371h-0.367v-0.38h-0.385
	v-0.385h-0.385v-0.367h-0.367v-0.386h-0.75v-0.371h-0.386v-0.38H76.64v-0.385h-0.367v-0.367H75.89v-0.386h-0.752v-0.371h-0.385
	v-0.38h-0.75v-0.385h-0.752v-0.367h-0.385V72.97h-0.75V72.6h-0.752v-0.38h-0.752v-0.385h-0.75v-0.367h-0.385v-0.386h-1.136v-0.37
	h-0.752v-0.38h-1.136v-0.386h-0.752V69.58h-1.136v-0.385h-0.752v-0.371h-1.136v-0.38h-1.138v-0.386h-1.503v-0.367h-1.136v-0.385
	h-1.138v-0.371h-1.118v-0.38H55.12V66.17h-1.888v-0.367h-1.505v-0.385h-1.888v-0.371h-1.521v-0.38h-2.255v-0.385h-1.521v-0.367
	h-1.888V63.53h-1.502v-0.371h-1.888v-0.38H37.76v-0.385h-1.138v-0.367h-1.136v-0.385h-1.503v-0.371h-1.138v-0.38H31.71v-0.385
	h-1.136v-0.367h-0.752v-0.385h-1.136v-0.371h-0.752v-0.38h-1.136v-0.385h-0.752V58.25H24.91v-0.385h-0.367v-0.371h-0.771v-0.38
	h-0.75v-0.385h-0.752v-0.367h-0.385v-0.385h-0.75v-0.371h-0.752v-0.38h-0.752v-0.385h-0.384v-0.367h-0.752v-0.385h-0.386v-0.371
	h-0.367v-0.38h-0.384v-0.385h-0.752v-0.367h-0.386v-0.385h-0.367V51.83h-0.384v-0.38h-0.752v-0.385h-0.386v-0.367h-0.367v-0.386
	h-0.384v-0.371h-0.367v-0.765h-0.385V48.81h-0.386v-0.386h-0.367v-0.371h-0.383v-0.765h-0.367v-0.367H10.94v-0.386h-0.385v-0.371
	h-0.367V45.4H9.805v-0.752H9.438v-1.136H9.052V42.76H8.667v-0.75H8.3v-0.752H7.917v-1.136H7.549v-2.641H7.164v-2.644H6.779v-2.268
	h0.385v-2.641h0.385v-2.644h0.367v-1.132H8.3v-0.756h0.367v-1.132h0.385v-0.756h0.385v-0.765h0.367V21.62h0.383v-0.765h0.367v-0.367
	h0.385v-0.385h0.385v-0.75h0.367v-0.386h0.383V18.6h0.367v-0.756h0.386v-0.38h0.385v-0.386h0.367v-0.752h0.384v-0.371h0.367v-0.38
	h0.386V15.19h0.385v-0.367h0.367v-0.385h0.384v-0.371h0.752v-0.38h0.385v-0.386h0.367v-0.367h0.384V12.55h0.367v-0.371h0.386v-0.38
	h0.385v-0.385h0.75v-0.367h0.367v-0.385h0.771v-0.371h0.75v-0.38h0.367V9.526h0.771V9.159h0.75V8.773h0.367V8.403h0.771v-0.38h0.75
	V7.638h0.752V7.271h1.136V6.885h0.752V6.515h1.136v-0.38h0.752V5.75h1.136V5.382h0.752V4.997h1.503V4.626h1.521v-0.38h1.888V3.861
	h1.505V3.494h2.271V3.109h14.354v0.385h2.255v0.367h1.888v0.385h1.521v0.38h1.118v0.371h1.138v0.385h1.521V5.75h0.75v0.385h1.138
	v0.38h0.75v0.371h1.138v0.385h0.75v0.367h1.138v0.385h0.75v0.38h0.752v0.371h0.752v0.385h0.75v0.367h0.771v0.385h0.75v0.38h0.367
	v0.371h0.771v0.385h0.75v0.367h0.752v0.385h0.752v0.38h0.383v0.371h0.752v0.385h0.752v0.367h0.383v0.386h0.752v0.38h0.385v0.371
	h0.75v0.385h0.752v0.367h0.385v0.386h0.75v0.38h0.367v0.371h0.771v0.385h0.367v0.367h0.75v0.386h0.385v0.38h0.385v2.644h-0.385
	v0.752h-0.385v0.75h-0.367v0.752h-0.383v0.385h-0.367v0.38h-0.385v0.371h-0.385v0.386h-2.255v-0.386h-0.75v-0.371h-0.385v-0.38
	h-0.752v-0.385h-0.383v-0.367h-0.752V21.99h-0.752V21.62h-0.383V21.24h-0.752v-0.386H76.64v-0.367h-0.75v-0.385h-0.752v-0.371
	h-0.385v-0.379h-0.75v-0.386h-0.752V18.6h-0.385v-0.385h-0.75v-0.371h-0.752v-0.38h-0.752v-0.386h-0.384v-0.367h-0.752v-0.385
	h-1.136v-0.371h-0.752v-0.38h-0.752V15.19h-0.75v-0.367h-0.771v-0.385h-0.75v-0.371h-1.137v-0.38h-0.75v-0.386h-1.138v-0.367h-1.118
	V12.55H59.28v-0.371h-1.521v-0.38h-1.503v-0.385h-1.888v-0.367h-2.641v-0.385h-7.186v0.385h-3.776v0.367h-1.888v0.385h-1.502v0.38
	h-1.888v0.371h-1.136v0.385h-1.138v0.367h-0.75v0.386h-1.138v0.38h-1.118v0.371h-0.771v0.385h-0.75v0.367h-0.752v0.386h-0.752v0.38
	h-0.383v0.371h-0.752v0.385h-0.752v0.367H24.91v0.386h-0.752v0.38h-0.385v0.371h-0.367V18.6h-0.75v0.367h-0.386v0.386h-0.385v0.379
	h-0.367v0.371h-0.384v0.385h-0.367v0.367h-0.386v0.386h-0.385v0.379h-0.367v0.371h-0.384v0.752h-0.367v0.385h-0.385v0.38h-0.386
	v0.756h-0.367v0.367h-0.384v0.385H16.99v1.136h-0.385v0.752h-0.386v0.75h-0.367v1.138h-0.384v0.75h-0.367v3.026h-0.385v2.639h0.385
	v2.273h0.367v1.132h0.384v0.756h0.367v1.132h0.386v0.756h0.385v0.367h0.367v0.766h0.384v0.371h0.367v0.385h0.386v0.367h0.385v0.765
	h0.367v0.371h0.384v0.385h0.367V45.4h0.385v0.386h0.752v0.379h0.384v0.371h0.367v0.386h0.385v0.367h0.752v0.385h0.384v0.38h0.367
	v0.371h0.771v0.386h0.75v0.367h0.752v0.385h0.385v0.38h0.75v0.371h0.752v0.386h0.752v0.367h0.75v0.385h1.138v0.38h0.75v0.371h1.138
	v0.385h0.75v0.367h0.771v0.385h1.503v0.38h1.136v0.371h1.138v0.385h1.503v0.367h1.136v0.385h1.504v0.38h1.521v0.371h1.888v0.385
	h1.502v0.367h1.888v0.385h1.888v0.38h1.888v0.371h1.503v0.385h1.888v0.367h1.888v0.385h1.138v0.38h1.136v0.371h1.503v0.385h1.138
	v0.367h1.136v0.385h1.502v0.38h1.138v0.371h0.75v0.385h1.138v0.367h0.75v0.385h0.771v0.38h1.117v0.371h0.771v0.385h1.117v0.367
	h0.771v0.385h0.367v0.38h0.75v0.371h0.771v0.385h0.75v0.367h0.752v0.386h0.386v0.38h0.75v0.371h0.752v0.385h0.752v0.367h0.383v0.386
	h0.367v0.38h0.385v0.371h0.385v0.385h0.75v0.367h0.367v0.386h0.385v0.38h0.385v0.37h0.75v0.386h0.367v0.367h0.385v0.385h0.385v0.38
	h0.367v0.371h0.383v0.752h0.367v0.385h0.385v0.38h0.385v0.371h0.367v0.752h0.383v0.385h0.367v0.38h0.385v0.756h0.385v0.367h0.367
	v0.765h0.383v1.123h0.367v0.765h0.385v0.756h0.385v0.752h0.367v1.136h0.384v1.132h0.367v2.644h0.386v2.641h0.385v3.391h-0.385v2.654
	h-0.386v1.888h-0.367v1.123h-0.384v1.136h-0.367v1.138h-0.385v0.75h-0.385v0.752H89.49v0.765h-0.383v0.756H88.74v0.752h-0.385v0.38
	h-0.385v0.756h-0.367v0.367h-0.383v0.765h-0.367v0.371h-0.385v0.385h-0.385v0.367h-0.367v0.765h-0.383v0.371h-0.367v0.385h-0.385
	v0.367h-0.385v0.385h-0.367v0.38h-0.383v0.371h-0.367v0.385H82.69v0.367h-0.385v0.385h-0.367v0.38h-0.383v0.371h-0.752v0.385h-0.385
	v0.367h-0.367v0.385h-0.383v0.38h-0.752v0.371h-0.385v0.385h-0.75v0.367h-0.752v0.385H76.64v0.38h-0.75v0.371h-0.752v0.385h-0.385
	v0.367h-0.75v0.385h-0.752v0.38h-0.385v0.371h-1.117v0.385h-0.771v0.367h-1.117v0.386h-0.771v0.38H67.97v0.371h-0.771v0.385h-1.117
	v0.367h-0.771v0.386h-1.502v0.379H61.92v0.371h-1.503v0.385h-1.888v0.367h-1.888v0.386h-4.914v0.379h-7.552V123.2h-3.41v-0.386
	H38.51v-0.367h-1.888v-0.385h-1.521v-0.371h-1.888v-0.379h-1.118v-0.386h-1.138v-0.367h-1.136v-0.385h-1.503v-0.371h-0.771v-0.38
	h-1.118v-0.386H25.66v-0.367h-1.117v-0.385h-0.771v-0.371h-0.75v-0.38h-1.138v-0.385h-0.75v-0.367h-0.752v-0.385h-0.752v-0.371
	h-0.75v-0.38h-0.771v-0.385h-0.75v-0.367H16.99v-0.385h-0.771v-0.371h-0.75v-0.38h-0.752v-0.385h-0.386v-0.367h-0.75v-0.385h-0.752
	v-0.371h-0.386v-0.38h-0.75v97.048h59.668v0.384h0.386v0.365h0.367v0.387h0.384v1.136h0.367v4.142h-0.367v0.767h-0.384v0.373h-0.367
	v0.384h-0.386v0.364h-1.136v0.388H6.779z M220.14,249.706v-0.388h-1.888v-0.365h-1.888v-0.383h-1.503v-0.373h-1.503v-0.38h-1.138
	v-0.387h-1.136v-0.365h-1.136v-0.384h-0.752v-0.372h-1.136v-0.38h-1.138v-0.388h-0.75v-0.748h-0.367v-0.373h-0.386v-0.767h-0.385
	v-2.253h0.385v-1.136h0.386v-0.753h0.367v-0.384h0.384v-0.752h0.367v-0.387h0.385v-0.365h1.136v-0.384h0.752v0.384h1.503v0.365
	h0.771v0.387h0.75v0.38h1.138v0.372h0.75v0.384h1.138v0.365h1.503v0.388h1.136v0.379h1.888v0.373h3.026v0.384h3.391v-0.384h3.776
	v-0.373h1.888v-0.379h1.136v-0.388h1.505v-0.365h1.136v-0.384h1.136v-0.372h0.752v-0.38h0.752v-0.387h0.75v-0.365h0.771v-0.384
	h0.367v-0.372h0.75v-0.38h0.771v-0.388h0.75v-0.365h0.367v-0.383h0.385v-0.373h0.385v-0.38h0.75v-0.387h0.367v-0.365h0.385v-0.384
	h0.385v-0.372h0.367v-0.38h0.75v-0.388h0.386v-0.748h0.385v-0.373h0.367v-0.38h0.384v-0.387h0.367v-0.365h0.386v-0.756h0.383v-0.38
	h0.369v-0.388h0.383v-0.365h0.369v-0.756h0.384v-0.767h0.384v-0.365h0.368v-0.756h0.384v-0.768h0.369v-0.748h0.383v-0.753h0.384
	v-0.752h0.369v-1.136h0.383v-1.136h0.369v-1.14h0.384v-1.121h0.383v-1.516h0.369v-3.776h0.384v-11.329h-0.384v0.749h-0.369v0.387
	h-0.383v0.38h-0.384v0.373h-0.369v0.748h-0.383v0.388h-0.369v0.38h-0.384v0.372h-0.383v0.384h-0.369v0.365h-0.384v0.387h-0.368v0.38
	h-0.384v0.373h-0.384v0.383h-0.369v0.365H249.6v0.388h-0.752v0.38h-0.386v0.372h-0.367v0.384h-0.75v0.365h-0.385v0.387h-0.386v0.38
	h-0.75v0.372h-0.367v0.384h-0.771v0.365h-0.75v0.388h-0.367v0.38h-0.771v0.372h-0.75v0.384h-0.752v0.364h-0.752v0.388h-1.136v0.38
	h-0.752v0.372h-1.136v0.384h-1.136v0.365h-1.138v0.387h-1.118v0.38h-2.273v0.373h-1.888v0.384h-9.826v-0.384h-2.639v-0.373h-1.505
	v-0.38h-1.521v-0.387h-1.503v-0.365h-0.752v-0.384h-1.136v-0.372h-1.136v-0.38h-0.752v-0.388h-0.752v-0.364h-0.75v-0.384h-0.771
	v-0.372h-0.75v-0.38h-0.367v-0.388h-0.771v-0.365h-0.75v-0.384h-0.367v-0.372h-0.771v-0.38h-0.367v-0.387h-0.384v-0.365h-0.752
	v-0.384h-0.385v-0.372h-0.367v-0.38h-0.75v-0.388h-0.385v-0.365h-0.386v-0.383h-0.367v-0.373h-0.384v-0.38h-0.367v-0.387h-0.385
	v-0.365h-0.386v-0.384h-0.367v-0.372h-0.384v-0.38h-0.367v-0.388h-0.385v-0.748h-0.386v-0.373h-0.367v-0.38h-0.384v-0.387h-0.367
	v-0.365h-0.385v-0.756h-0.386v-0.38h-0.367v-0.753h-0.383v-0.383h-0.367v-0.373h-0.385v-0.767h-0.385v-0.749h-0.367v-0.752h-0.383
	v-0.388H190.7v-0.748h-0.385v-0.753h-0.385v-0.752h-0.367v-1.136h-0.383v-0.752h-0.367v-0.757h-0.385v-1.132h-0.385v-1.136h-0.367
	v-1.136h-0.383v-1.505h-0.367v-1.522h-0.385v-1.889h-0.385v-2.637h-0.367v-10.193h0.367v-2.64h0.385v-1.889h0.385v-1.523h0.367v-1.5
	h0.383v-1.137h0.367v-1.139h0.385v-0.749h0.385v-1.14h0.367v-0.749h0.383v-0.752h0.367v-0.752h0.385v-0.756h0.385v-0.768h0.367
	v-0.752h0.383v-0.749h0.367v-0.387h0.385v-0.751h0.385v-0.37h0.367v-0.766h0.383v-0.367h0.367v-0.756h0.386v-0.38h0.385v-0.752
	h0.367v-0.385h0.384v-0.371h0.367v-0.38h0.386v-0.386h0.385v-0.367h0.367v-0.756h0.384v-0.38h0.367v-0.386h0.386v-0.367h0.752
	v-0.385h0.384v-0.371h0.367v-0.38h0.386v-0.386h0.385v-0.367h0.367v-0.385h0.384v-0.371h0.752v-0.38h0.386v-0.385h0.367v-0.367
	h0.384v-0.385h0.752v-0.371h0.386v-0.38h0.75v-0.385h0.752v-0.367h0.386v-0.385h0.75v-0.371h0.752v-0.38h0.752v-0.385h0.75v-0.367
	h0.771v-0.385h0.75v-0.371h1.138v-0.38h0.75v-0.385h1.138v-0.367h1.503v-0.385h1.136v-0.371h2.255v-0.38h2.273v-0.385h8.688v0.385
	h2.255v0.38h1.888v0.371h1.521v0.385h1.138v0.367h1.118v0.385h1.521v0.38h0.752v0.371h0.752v0.385h0.75v0.367h0.771v0.385h0.75v0.38
	h0.752v0.371h0.752v0.385h0.383v0.367h0.752v0.385h0.752v0.38h0.383v0.371h0.752v0.385h0.385v0.367h0.367v0.385h0.384v0.38h0.752
	v0.371h0.383v0.385h0.369v0.367h0.383v0.386h0.369v0.38h0.384v0.371h0.752v0.385h0.384v0.367h0.369v0.386h0.383v0.38h0.384v0.371
	h0.369v0.752h0.383v0.386h0.369v0.38h0.384v0.371h0.383v0.752h0.369v0.385h0.384v0.38h0.368v0.756h0.384v0.367h0.384v0.766h0.369
	v0.756h0.383v0.365h0.369v0.767h0.384v0.756h0.383v0.753h0.369v0.748h0.384v0.753h0.368v0.767h0.384v0.756h0.384v0.753h0.368v1.136
	h0.384v0.752h0.369v1.136h0.384v1.132h0.383v1.121h0.369v1.14h0.384v1.516h0.368v1.889h0.384v3.776h0.384v38.519h-0.384v4.908
	h-0.384v2.645H263.2v1.505h-0.384v1.516h-0.369v1.121h-0.383v1.14h-0.384v0.748h-0.369v1.14h-0.384v0.749h-0.368v0.767h-0.384v0.756
	h-0.384v1.133h-0.368v0.372h-0.384v0.749h-0.369v0.767h-0.383v0.373h-0.384v0.748h-0.369v0.388h-0.383v0.752h-0.369v0.384h-0.384
	v0.365h-0.384v0.767h-0.368v0.373h-0.384v0.383h-0.369v0.365h-0.383v0.768h-0.384v0.372h-0.369v0.384h-0.383v0.365h-0.369v0.387
	h-0.384v0.38h-0.383v0.372h-0.369v0.384h-0.384v0.365h-0.368v0.388h-0.768v0.379h-0.369v0.373H249.6v0.384h-0.369v0.364h-0.769
	v0.388h-0.367v0.38h-0.384v0.372h-0.752v0.384h-0.386v0.365h-0.75v0.387h-0.367v0.38h-0.771v0.373h-0.75v0.384h-0.752v0.364h-0.752
	v0.388h-0.75v0.38h-0.771v0.372h-0.75v0.384h-1.138v0.365h-1.118v0.387h-0.771v0.38h-1.503v0.373h-1.503v0.383h-1.521v0.365h-2.641
	v0.388H220.14z"/>
<path fill="none" d="M79.238,68.016c-7.802-5.253-18.308-8.633-30.165-10.83h-0.341c-10.678-2.036-19.484-4.925-25.418-8.985
	c-5.928-4.069-8.645-8.48-8.821-14.41c0-6.105,3.411-11.862,9.308-16.272c5.945-4.232,14.593-7.121,24.268-7.121
	c13.04,0,24.282,7.152,33.602,13.257c1.683,1.199,2.994-0.025,4-1.726c1.193-1.872,1.77-3.36,0.061-4.542
	C76.406,11.281,63.646,2.947,48.069,2.947c-11.212,0-21.195,3.232-28.661,8.644c-7.448,5.43-12.36,13.217-12.36,22.201
	c0,8.806,4.912,15.933,12.212,20.683c7.272,4.909,16.937,7.949,27.941,9.985h0.35c11.537,2.198,21.008,5.43,27.439,9.664
	c6.446,4.411,9.675,9.481,9.675,16.269c0,6.608-3.568,12.876-10.191,17.611c-6.417,4.767-15.756,7.807-26.08,7.807
	c-14.207,0.147-27.804-6.877-36.743-13.542c-2.187-1.433-3.705-2.687-4.191-2.687c-2.212,0-4.071,0.976-4.071,3.173v110.486
	c0,2.213,1.859,4.071,4.071,4.071h62.248c2.375,0,2.983-1.858,2.983-4.071c0-2.375-0.608-4.237-2.983-4.237H11.693v-97.666
	c9.618,6.241,22.392,11.963,36.701,12.096c11.862,0,22.556-3.57,30.505-9.321c7.964-5.77,13.379-14.237,13.379-23.722
	C92.278,80.908,87.025,73.103,79.238,68.016z M112.605,120.336V43.099c0-2.375-1.857-2.861-4.234-2.861
	c-2.212,0-4.069,0.487-4.069,2.861v77.237c0,2.212,1.857,2.919,4.069,2.919C110.749,123.255,112.605,122.549,112.605,120.336z
	 M188.751,123.255c0,0,3.953,0.179,3.953-3.066V74.123c0-14.06,11.522-25.759,25.577-25.759c14.237,0,25.42,11.699,25.745,25.759
	v46.007c0,2.034,1.709,3.125,3.907,3.125c2.375,0,4.071-1.092,4.071-3.125V74.123c0-18.647-15.074-33.723-33.723-33.723
	c-12.714,0-23.895,7.112-29.825,17.627c-5.77-10.516-16.789-17.627-29.651-17.627c-10.368,0-19.484,4.573-25.591,11.862v-9.163
	c0-2.196-1.695-2.699-4.071-2.699c-2.034,0-3.893,0.503-3.893,2.699v76.942c0,3.538,3.893,3.214,3.893,3.214
	s4.071,0.417,4.071-3.258V74.123c0-14.06,11.36-25.759,25.591-25.759c14.222,0,25.597,11.699,25.597,25.759v46.407
	C184.548,120.692,184.001,123.255,188.751,123.255z M344.567,81.406c0-22.698-17.775-41.168-40.152-41.168
	c-12.893,0-24.398,6.431-31.523,16.095c0,0-8.29,11.034-8.29,26.506v72.313c0,2.197,1.858,2.847,4.057,2.847
	c2.39,0,4.233-0.472,4.233-3.205v-48.824c7.125,10.342,18.631,16.789,31.523,16.789C326.792,122.757,344.567,103.948,344.567,81.406
	z M272.892,81.406v-1.355c0.693-17.627,14.736-31.508,31.523-31.508c17.612,0,31.848,14.561,31.848,32.864
	c0,18.293-14.235,33.042-31.848,33.222C287.304,114.449,272.892,99.7,272.892,81.406z M363.39,123.255
	c2.375,0,4.219-0.396,4.219-2.594V7.151c0-2.215-1.844-2.493-4.219-2.493c-2.198,0-4.071,0.278-4.071,2.493v113.51
	C359.318,122.859,361.191,123.255,363.39,123.255z M424.213,40.298c-22.353,0-40.334,18.644-40.334,41.687
	c0,22.713,17.981,41.346,40.334,41.346c9.82,0,18.789-3.644,25.766-9.69v101.12c0,2.212,1.859,2.552,4.057,2.552
	c2.36,0,4.22-0.34,4.22-2.552V104.997c0-4.044-0.384-5.165-1.845-6.227c-1.696-1.031-4.233-0.691-5.428,1.344
	c0,0.028,0,0.028-0.015,0.042c-0.266,0.325-0.487,0.634-0.664,0.988c-5.694,8.72-15.489,14.06-26.091,14.06
	c-17.115,0-31.351-13.735-32.191-31.865h68.106c2.213,0,4.086-1.518,4.086-3.73v-0.666
	C462.503,57.246,445.568,40.298,424.213,40.298z M392.538,75.377c3.024-15.756,16.079-26.938,31.675-26.938
	c15.248,0,28.48,11.345,31.18,26.938H392.538z M91.41,134.274c-2.198,0-4.075,1.123-4.075,3.483v76.413
	c0,2.198,1.877,3.143,4.075,3.143c2.386,0,4.249-0.944,4.249-3.143v-76.413C95.658,135.397,93.796,134.274,91.41,134.274z
	 M142.181,134.453c-10.338,0-19.663,4.735-25.753,12.022v-8.556c0-2.213-1.7-3.467-3.913-3.467c-2.372,0-4.071,1.254-4.071,3.467
	v76.615c0,0-0.249,2.655,4.208,2.777c0,0,3.776,0.133,3.776-3.112v-46.039c0.325-14.062,11.694-25.578,25.753-25.578
	c14.233,0,25.577,11.517,25.577,25.578v46.359c0,2.375,1.874,2.792,4.072,2.792c2.201,0,4.075-0.417,4.075-2.792v-46.359
	C175.904,149.689,160.814,134.453,142.181,134.453z M224.849,134.274c-21.703,0-38.991,18.808-38.991,41.188
	c0,22.861,17.288,41.333,38.991,41.333c12.699,0,24.058-6.254,31.005-16.26v10.168c0,17.111-13.716,30.845-31.005,30.845
	c-5.105,0-10.197-1.494-14.428-3.525c-2.052-1.195-3.555,0.129-4.575,2.341c-1,1.845-0.869,3.747,0.842,4.961
	c5.427,2.359,12.05,4.352,18.161,4.352c21.684,0,39.118-17.451,39.118-38.973v-37.616c0-10.385-8.113-22.541-8.113-22.541
	C248.906,140.709,237.548,134.274,224.849,134.274z M224.849,208.856c-16.953,0-30.845-14.767-30.845-33.394
	c0-18.486,13.892-33.057,30.845-33.057c17.109,0,31.005,14.571,31.005,33.057C255.854,194.09,241.958,208.856,224.849,208.856z
	 M341.883,134.112c-2.021,0-4.061-0.218-4.061,2.157v47.141c0,14.239-11.531,25.594-25.767,25.756
	c-14.058-0.162-25.416-11.517-25.416-25.756v-47.1c0-2.371-1.858-2.198-4.057-2.198c-2.213,0-4.071-0.173-4.071,2.198v47.1
	c0,18.635,14.913,33.902,33.544,33.902c18.984,0,34.061-15.268,34.061-33.902V136.27
	C346.116,133.895,344.258,134.112,341.883,134.112z M396.919,134.274c-21.861,0-39.326,18.808-39.326,41.528
	c0,22.684,17.465,41.51,39.326,41.51c12.716,0,24.074-6.608,31.185-16.451v13.899c0,2.212,1.858,2.552,4.071,2.552
	c2.197,0,4.056-0.34,4.056-2.552v-38.165c0-14.659-8.127-26.049-8.127-26.049C420.993,140.709,409.635,134.274,396.919,134.274z
	 M396.919,209.166c-16.949,0-31.184-14.732-31.184-33.363c0-18.646,14.234-33.544,31.184-33.544
	c17.126,0,31.185,14.899,31.185,33.544C428.104,194.434,414.045,209.166,396.919,209.166z"/>
<path fill="none" d="M492.65,204.445v12.498h-1.973v-10.728l-4.308,10.728h-1.18l-4.22-10.728v10.728h-1.991v-12.498h3.216
	l3.6,8.811l3.717-8.811H492.65 M476.782,204.445v1.771h-3.924v10.728h-2.198v-10.728h-3.982v-1.771H476.782z"/>
<path fill="none" d="M16.179,292.632v-1.903c-1.314,1.679-2.803,2.109-4.543,2.109c-1.624,0-3.055-0.563-3.898-1.401
	c-1.593-1.607-1.929-4.248-1.929-6.756c0-2.496,0.336-5.137,1.929-6.76c0.843-0.837,2.274-1.387,3.898-1.387
	c1.741,0,3.214,0.388,4.483,2.036v-8.954h2.329v23.016H16.179 M12.148,278.6c-3.452,0-4.01,2.979-4.01,6.081
	c0,3.098,0.559,6.063,4.01,6.063s3.97-2.965,3.97-6.063C16.118,281.579,15.6,278.6,12.148,278.6z"/>
<path fill="none" d="M24.143,272.201v-2.614h2.613v2.614H24.143 M24.273,292.632V276.73h2.32v15.901H24.273z"/>
<path fill="none" d="M37.461,292.838c-2.685,0-4.792-0.634-6.533-2.319l1.563-1.534c1.254,1.316,2.948,1.833,4.943,1.833
	c2.609,0,4.234-0.933,4.234-2.807c0-1.387-0.813-2.168-2.67-2.33l-2.615-0.218c-3.096-0.27-4.75-1.652-4.75-4.278
	c0-2.909,2.451-4.65,5.856-4.65c2.259,0,4.294,0.55,5.71,1.712l-1.518,1.522c-1.106-0.874-2.583-1.269-4.223-1.269
	c-2.331,0-3.568,1.015-3.568,2.622c0,1.361,0.782,2.169,2.786,2.331l2.569,0.225c2.76,0.247,4.674,1.328,4.674,4.293
	C43.922,291.035,41.298,292.838,37.461,292.838"/>
<path fill="none" d="M54.663,292.838c-4.01,0-7.051-2.729-7.051-8.157s3.041-8.146,7.051-8.146c2.182,0,3.583,0.579,5.237,2.36
	l-1.593,1.479c-1.193-1.331-2.137-1.773-3.644-1.773c-1.563,0-2.847,0.604-3.701,1.818c-0.741,1.032-1.02,2.253-1.02,4.263
	c0,2.007,0.278,3.23,1.02,4.274c0.854,1.184,2.137,1.788,3.701,1.788c1.507,0,2.451-0.457,3.644-1.788l1.593,1.523
	C58.246,292.244,56.844,292.838,54.663,292.838"/>
<path fill="none" d="M73.203,279.769c-0.869-0.874-1.518-1.169-2.74-1.169c-2.331,0-3.808,1.858-3.808,4.281v9.751H64.31V276.73
	h2.345v1.932c0.854-1.316,2.595-2.128,4.457-2.128c1.518,0,2.685,0.358,3.802,1.479L73.203,279.769"/>
<path fill="none" d="M79.386,285.286c0,3.495,1.65,5.502,4.674,5.502c1.858,0,2.924-0.55,4.178-1.804l1.593,1.387
	c-1.625,1.607-3.116,2.467-5.827,2.467c-4.208,0-6.95-2.537-6.95-8.157c0-5.137,2.478-8.146,6.518-8.146
	c4.101,0,6.537,2.98,6.537,7.686v1.066H79.386 M87.309,280.904c-0.62-1.46-2.051-2.404-3.736-2.404
	c-1.665,0-3.096,0.944-3.715,2.404c-0.339,0.871-0.411,1.357-0.472,2.655h8.41C87.735,282.262,87.645,281.775,87.309,280.904z"/>
<path fill="none" d="M96.512,285.286c0,3.495,1.669,5.502,4.689,5.502c1.833,0,2.908-0.55,4.177-1.804l1.578,1.387
	c-1.623,1.607-3.111,2.467-5.827,2.467c-4.191,0-6.933-2.537-6.933-8.157c0-5.137,2.478-8.146,6.533-8.146
	c4.101,0,6.521,2.98,6.521,7.686v1.066H96.512 M104.418,280.904c-0.603-1.46-2.019-2.404-3.689-2.404
	c-1.695,0-3.111,0.944-3.73,2.404c-0.356,0.871-0.411,1.357-0.487,2.655h8.41C104.846,282.262,104.789,281.775,104.418,280.904z"/>
<path fill="none" d="M116.647,292.632c-2.701,0-4.057-1.903-4.057-4.263v-9.77h-2.021v-1.77h2.021v-4.982h2.331v4.982h3.38v1.77
	h-3.38v9.695c0,1.472,0.664,2.331,2.152,2.331h1.228v2.006H116.647"/>
<path fill="none" d="M137.151,292.838c-4.014,0-7.049-2.729-7.049-8.157s3.035-8.146,7.049-8.146c2.198,0,3.584,0.579,5.238,2.36
	l-1.593,1.479c-1.198-1.331-2.126-1.773-3.645-1.773c-1.547,0-2.847,0.604-3.705,1.818c-0.736,1.032-1.031,2.253-1.031,4.263
	c0,2.007,0.295,3.23,1.031,4.274c0.857,1.184,2.157,1.788,3.705,1.788c1.519,0,2.447-0.457,3.645-1.788l1.593,1.523
	C140.736,292.244,139.349,292.838,137.151,292.838"/>
<path fill="none" d="M157.038,291.021c-1.121,1.091-2.644,1.817-4.573,1.817c-1.949,0-3.456-0.727-4.558-1.817
	c-1.625-1.648-1.934-3.876-1.934-6.34c0-2.448,0.31-4.694,1.934-6.343c1.103-1.092,2.609-1.804,4.558-1.804
	c1.929,0,3.452,0.712,4.573,1.804c1.604,1.648,1.931,3.895,1.931,6.343C158.968,287.145,158.642,289.372,157.038,291.021
	 M155.369,279.769c-0.721-0.741-1.772-1.169-2.904-1.169c-1.121,0-2.126,0.428-2.878,1.169c-1.167,1.147-1.298,3.143-1.298,4.912
	c0,1.781,0.131,3.762,1.298,4.909c0.752,0.74,1.757,1.153,2.878,1.153c1.132,0,2.183-0.413,2.904-1.153
	c1.167-1.147,1.269-3.128,1.269-4.909C156.638,282.911,156.536,280.916,155.369,279.769z"/>
<path fill="none" d="M168.957,292.838c-2.67,0-4.781-0.634-6.539-2.319l1.549-1.534c1.269,1.316,2.98,1.833,4.958,1.833
	c2.624,0,4.233-0.933,4.233-2.807c0-1.387-0.811-2.168-2.64-2.33l-2.639-0.218c-3.102-0.27-4.735-1.652-4.735-4.278
	c0-2.909,2.447-4.65,5.853-4.65c2.259,0,4.294,0.55,5.71,1.712l-1.519,1.522c-1.136-0.874-2.583-1.269-4.232-1.269
	c-2.331,0-3.559,1.015-3.559,2.622c0,1.361,0.767,2.169,2.777,2.331l2.548,0.225c2.775,0.247,4.694,1.328,4.694,4.293
	C175.417,291.035,172.803,292.838,168.957,292.838"/>
<path fill="none" d="M200.404,292.632v-9.799c0-2.817-1.506-4.233-3.907-4.233c-2.331,0-3.985,1.449-3.985,3.986v10.046h-2.314
	v-9.799c0-2.817-1.523-4.233-3.924-4.233c-2.392,0-3.97,1.449-3.97,4.233v9.799h-2.329V276.73h2.329v1.74
	c1.121-1.302,2.716-1.937,4.497-1.937c2.198,0,3.909,0.904,4.868,2.655c1.243-1.751,3.009-2.655,5.239-2.655
	c1.726,0,3.157,0.55,4.116,1.479c1.138,1.106,1.711,2.592,1.711,4.439v10.179H200.404"/>
<path fill="none" d="M209.845,285.286c0,3.495,1.65,5.502,4.691,5.502c1.842,0,2.908-0.55,4.177-1.804l1.578,1.387
	c-1.608,1.607-3.116,2.467-5.815,2.467c-4.203,0-6.959-2.537-6.959-8.157c0-5.137,2.491-8.146,6.533-8.146
	c4.116,0,6.537,2.98,6.537,7.686v1.066H209.845 M217.768,280.904c-0.623-1.46-2.039-2.404-3.719-2.404
	c-1.682,0-3.112,0.944-3.717,2.404c-0.369,0.871-0.426,1.357-0.487,2.655h8.407C218.194,282.262,218.119,281.775,217.768,280.904z"
	/>
<path fill="none" d="M229.995,292.632c-2.729,0-4.101-1.903-4.101-4.263v-9.77h-1.989v-1.77h1.989v-4.982h2.346v4.982h3.406v1.77
	h-3.406v9.695c0,1.472,0.68,2.331,2.168,2.331h1.237v2.006H229.995"/>
<path fill="none" d="M236.148,272.201v-2.614h2.595v2.614H236.148 M236.264,292.632V276.73h2.314v15.901H236.264z"/>
<path fill="none" d="M250.603,292.838c-4,0-7.049-2.729-7.049-8.157s3.05-8.146,7.049-8.146c2.198,0,3.599,0.579,5.251,2.36
	l-1.574,1.479c-1.214-1.331-2.143-1.773-3.677-1.773s-2.847,0.604-3.673,1.818c-0.737,1.032-1.047,2.253-1.047,4.263
	c0,2.007,0.31,3.23,1.047,4.274c0.826,1.184,2.139,1.788,3.673,1.788s2.463-0.457,3.677-1.788l1.574,1.523
	C254.201,292.244,252.801,292.838,250.603,292.838"/>
<path fill="none" d="M272.788,292.632c-2.729,0-4.086-1.903-4.086-4.263v-9.77h-1.991v-1.77h1.991v-4.982h2.346v4.982h3.393v1.77
	h-3.393v9.695c0,1.472,0.663,2.331,2.153,2.331h1.239v2.006H272.788"/>
<path fill="none" d="M289.266,291.021c-1.106,1.091-2.626,1.817-4.559,1.817c-1.947,0-3.452-0.727-4.543-1.817
	c-1.623-1.648-1.947-3.876-1.947-6.34c0-2.448,0.324-4.694,1.947-6.343c1.091-1.092,2.596-1.804,4.543-1.804
	c1.933,0,3.452,0.712,4.559,1.804c1.622,1.648,1.946,3.895,1.946,6.343C291.212,287.145,290.888,289.372,289.266,291.021
	 M287.628,279.769c-0.753-0.741-1.785-1.169-2.921-1.169c-1.121,0-2.124,0.428-2.877,1.169c-1.165,1.147-1.298,3.143-1.298,4.912
	c0,1.781,0.133,3.762,1.298,4.909c0.753,0.74,1.756,1.153,2.877,1.153c1.136,0,2.168-0.413,2.921-1.153
	c1.15-1.147,1.254-3.128,1.254-4.909C288.882,282.911,288.778,280.916,287.628,279.769z"/>
<path fill="none" d="M306.406,291.021c-1.121,1.091-2.626,1.817-4.559,1.817s-3.466-0.727-4.572-1.817
	c-1.594-1.648-1.937-3.876-1.937-6.34c0-2.448,0.343-4.694,1.937-6.343c1.106-1.092,2.64-1.804,4.572-1.804s3.438,0.712,4.559,1.804
	c1.607,1.648,1.933,3.895,1.933,6.343C308.339,287.145,308.014,289.372,306.406,291.021 M304.754,279.769
	c-0.752-0.741-1.785-1.169-2.906-1.169c-1.136,0-2.124,0.428-2.876,1.169c-1.166,1.147-1.283,3.143-1.283,4.912
	c0,1.781,0.117,3.762,1.283,4.909c0.752,0.74,1.74,1.153,2.876,1.153c1.121,0,2.154-0.413,2.906-1.153
	c1.165-1.147,1.254-3.128,1.254-4.909C306.008,282.911,305.919,280.916,304.754,279.769z"/>
<path fill="none" d="M317.779,292.632c-2.715,0-4.071-1.903-4.071-4.263v-9.77h-2.007v-1.77h2.007v-4.982h2.33v4.982h3.382v1.77
	h-3.382v9.695c0,1.472,0.679,2.331,2.154,2.331h1.228v2.006H317.779"/>
<path fill="none" d="M334.227,292.632v-9.828c0-2.788-1.49-4.204-3.88-4.204s-3.968,1.449-3.968,4.204v9.828h-2.33v-23.016h2.33
	v8.854c1.15-1.316,2.685-1.937,4.455-1.937c3.6,0,5.738,2.29,5.738,5.89v10.208H334.227"/>
<path fill="none" d="M359.289,292.632v-1.52c-1.298,1.295-2.464,1.726-4.603,1.726c-2.198,0-3.481-0.431-4.484-1.46
	c-0.767-0.782-1.194-1.977-1.194-3.245c0-2.763,1.946-4.573,5.502-4.573h4.779v-1.538c0-2.315-1.162-3.477-4.086-3.477
	c-2.021,0-3.068,0.482-3.998,1.799l-1.593-1.449c1.427-1.84,3.038-2.36,5.635-2.36c4.263,0,6.357,1.848,6.357,5.3v10.798H359.289
	 M359.289,285.286h-4.474c-2.371,0-3.551,0.984-3.551,2.817c0,1.844,1.136,2.714,3.658,2.714c1.371,0,2.537-0.089,3.555-1.051
	c0.546-0.527,0.812-1.446,0.812-2.755V285.286z"/>
<path fill="none" d="M371.252,292.632c-2.788,0-4.042-1.814-4.042-4.233v-18.782h2.331v18.679c0,1.549,0.517,2.331,2.109,2.331
	h1.283v2.006H371.252"/>
<path fill="none" d="M376.739,272.201v-2.614h2.622v2.614H376.739 M376.872,292.632V276.73h2.316v15.901H376.872z"/>
<path fill="none" d="M390.163,299.934c-2.404,0-3.714-0.608-5.399-2.124l1.52-1.49c1.151,1.033,1.962,1.579,3.791,1.579
	c3.083,0,4.382-2.158,4.382-4.883v-2.497c-1.299,1.671-2.759,2.08-4.455,2.08c-1.623,0-3.01-0.571-3.851-1.431
	c-1.589-1.578-1.947-4.023-1.947-6.639c0-2.548,0.358-5.015,1.947-6.608c0.841-0.837,2.257-1.387,3.88-1.387
	c1.74,0,3.157,0.388,4.455,2.065v-1.869h2.286v16.388C396.771,297.072,394.338,299.934,390.163,299.934 M390.502,278.6
	c-3.451,0-3.953,2.979-3.953,5.93c0,2.995,0.502,5.979,3.953,5.979c3.452,0,3.954-2.983,3.954-5.979
	C394.456,281.579,393.954,278.6,390.502,278.6z"/>
<path fill="none" d="M412.776,292.632v-9.799c0-2.817-1.505-4.233-3.909-4.233c-2.39,0-3.938,1.449-3.938,4.233v9.799h-2.33V276.73
	h2.33v1.74c1.121-1.302,2.685-1.937,4.455-1.937c1.726,0,3.112,0.521,4.086,1.479c1.121,1.106,1.638,2.592,1.638,4.439v10.179
	H412.776"/>
<path fill="none" d="M441.188,292.632v-9.799c0-2.817-1.52-4.233-3.895-4.233c-2.346,0-3.982,1.449-3.982,3.986v10.046h-2.316
	v-9.799c0-2.817-1.52-4.233-3.924-4.233c-2.394,0-3.968,1.449-3.968,4.233v9.799h-2.346V276.73h2.346v1.74
	c1.121-1.302,2.699-1.937,4.484-1.937c2.198,0,3.909,0.904,4.883,2.655c1.224-1.751,3.009-2.655,5.236-2.655
	c1.696,0,3.157,0.55,4.101,1.479c1.136,1.106,1.727,2.592,1.727,4.439v10.179H441.188"/>
<path fill="none" d="M450.628,285.286c0,3.495,1.652,5.502,4.691,5.502c1.844,0,2.905-0.55,4.174-1.804l1.579,1.387
	c-1.608,1.607-3.098,2.467-5.827,2.467c-4.189,0-6.933-2.537-6.933-8.157c0-5.137,2.478-8.146,6.52-8.146
	c4.115,0,6.535,2.98,6.535,7.686v1.066H450.628 M458.55,280.904c-0.605-1.46-2.036-2.404-3.718-2.404s-3.112,0.944-3.721,2.404
	c-0.351,0.871-0.409,1.357-0.483,2.655h8.408C458.978,282.262,458.903,281.775,458.55,280.904z"/>
<path fill="none" d="M476.502,292.632v-9.799c0-2.817-1.52-4.233-3.924-4.233c-2.39,0-3.924,1.449-3.924,4.233v9.799h-2.346V276.73
	h2.346v1.74c1.121-1.302,2.67-1.937,4.439-1.937c1.727,0,3.113,0.521,4.071,1.479c1.136,1.106,1.667,2.592,1.667,4.439v10.179
	H476.502"/>
<path fill="none" d="M488.937,292.632c-2.714,0-4.071-1.903-4.071-4.263v-9.77h-1.991v-1.77h1.991v-4.982h2.346v4.982h3.378v1.77
	h-3.378v9.695c0,1.472,0.679,2.331,2.153,2.331h1.225v2.006H488.937"/>
</svg>
