<?xml version="1.0" encoding="utf-8"?>
<!-- Generator: Adobe Illustrator 19.0.0, SVG Export Plug-In . SVG Version: 6.00 Build 0)  -->
<svg version="1.1" id="Layer_1" xmlns="http://www.w3.org/2000/svg" xmlns:xlink="http://www.w3.org/1999/xlink" x="0px" y="0px"
	 viewBox="0 0 107 32" style="enable-background:new 0 0 107 32;" xml:space="preserve">
<path d="M97.3,26.2L97.3,26.2C97.3,26.2,97.3,26.2,97.3,26.2c0,0-0.1-0.1-0.2-0.1C97.1,26,97,26,96.9,26h0c-0.2,0-0.4,0.1-0.5,0.3
	l0,0c0,0-0.1,0.1-0.1,0.1c0,0.2-0.1,0.3-0.2,0.4c0.2,0,0.3-0.1,0.5-0.2c0.2-0.1,0.3-0.2,0.5-0.3C97.2,26.3,97.3,26.3,97.3,26.2
	 M101.3,26.4L101.3,26.4C101.3,26.4,101.3,26.4,101.3,26.4L101.3,26.4c0-0.1-0.3-0.2-0.3-0.2c0,0,0,0-0.1,0h0
	c-0.2,0-0.4,0.2-0.6,0.2c-0.3,0.2-0.5,0.5-0.7,0.8l0,0c0,0-0.1,0-0.1,0.1c0,0.1-0.1,0.3-0.1,0.4c0,0,0,0.2,0,0.3v0
	c0,0.1,0,0.1,0,0.2c0,0,0,0.1,0,0.1c0,0,0,0,0,0c0,0,0.1,0,0.2,0c0,0,0.1-0.1,0.2-0.1c0.1-0.1,0.2-0.1,0.3-0.2
	c0.1,0,0.1-0.1,0.1-0.1c0.1-0.1,0.2-0.2,0.3-0.3c0,0,0,0,0-0.1l0,0c0.1-0.1,0.1-0.2,0.3-0.3c0,0,0,0,0-0.1v0l0,0
	c0.1,0,0.1-0.1,0.1-0.2c0.1-0.1,0.1-0.1,0.1-0.2C101.2,26.6,101.3,26.5,101.3,26.4 M102.8,23.1C102.8,23.1,102.8,23.2,102.8,23.1
	C102.8,23.2,102.8,23.2,102.8,23.1c0,0.1,0,0.2,0,0.3v0c0,0.1,0,0.2,0,0.3h0l0,0c0,0.1,0,0.2,0,0.3v0c0,0.1,0,0.1,0,0.2
	c0,0.2,0,0.4,0,0.7c0,0.4,0,0.8,0,1.1c0,0.2,0,0.4,0,0.6c0,0,0,0,0,0.1c0,0.1,0,0.1,0,0.2c0,0,0,0.1,0,0.1c0,0.1,0,0.2,0,0.2
	c0,0.1,0,0.3,0.1,0.4c0,0,0,0,0,0.1c0,0.1,0,0.2,0.1,0.2c0,0.1,0.1,0.2,0.1,0.3c0,0.1,0.1,0.1,0.2,0.2c0.1,0.1,0.1,0.1,0.2,0.1
	c0,0,0.1,0,0.2,0c0.1,0,0.2,0,0.2,0c0,0,0.1,0,0.1,0c0,0,0,0,0.1,0c0,0,0.1,0,0.1,0c0,0,0.1,0,0.1,0c0,0,0,0,0.1,0
	c0.1,0,0.1,0,0.2,0c0.1,0,0.2,0,0.3,0h0c0.1,0,0.2,0,0.2,0.1l0,0v0c0,0.1,0,0.2-0.1,0.2c-0.1,0.1-0.1,0.1-0.2,0.1c0,0,0,0,0,0
	c0,0,0,0.1,0,0.1c-0.1,0-0.2,0.1-0.4,0.2c0,0-0.1,0-0.1,0c0,0-0.1,0.1-0.1,0.1c-0.2,0.1-0.5,0-0.7,0.1l0,0c-0.1,0-0.1,0-0.1,0
	c0,0,0,0,0,0l0,0c-0.3-0.2-0.5-0.4-0.7-0.6l0,0c-0.1-0.2-0.2-0.3-0.3-0.5c0-0.1,0-0.2-0.1-0.3l0,0c0-0.2-0.1-0.4-0.1-0.6
	c-0.1,0.1-0.1,0.1-0.2,0.2c0,0-0.1,0.1-0.1,0.1c0,0-0.1,0-0.1,0c0,0,0,0-0.1,0.1c0,0-0.1,0.1-0.1,0.1c0,0,0,0,0,0.1
	c0,0-0.1,0.1-0.1,0.1c-0.1,0.1-0.1,0.2-0.2,0.2c-0.1,0.1-0.2,0.2-0.3,0.3c0,0-0.1,0.1-0.1,0.1c-0.1,0-0.1,0.1-0.1,0.1
	c0,0,0,0.1,0,0.1c0,0-0.1,0-0.1,0.1c-0.1,0.1-0.2,0.1-0.3,0.2c-0.1,0-0.1,0.1-0.2,0.1c-0.1,0-0.3,0.1-0.4,0.1c0,0-0.1,0-0.1,0
	c-0.1,0-0.2,0-0.3,0c-0.1,0-0.1-0.1-0.2-0.1c-0.1-0.1-0.2-0.1-0.2-0.2c-0.1-0.1-0.1-0.2-0.2-0.3c0-0.1-0.1-0.2-0.1-0.3
	c0,0-0.1,0.1-0.1,0.1c-0.1,0.1-0.2,0.1-0.3,0.2c-0.1,0.1-0.3,0.2-0.4,0.3c0,0.1-0.1,0.1-0.1,0.1c-0.1,0-0.1,0-0.2,0.1
	c0,0-0.1,0.1-0.1,0.1c0,0,0,0-0.1,0h0c0,0,0,0,0,0c0,0-0.1,0-0.1,0.1c-0.1,0-0.2,0-0.2,0c-0.1,0-0.1,0-0.2,0c0,0-0.1,0-0.1,0
	c-0.1,0-0.2,0-0.3,0c0,0-0.1,0-0.1,0c-0.1,0-0.2,0-0.3-0.1c-0.1,0-0.2-0.1-0.2-0.2c-0.1-0.1-0.2-0.2-0.3-0.3l0,0
	c0-0.1-0.1-0.2-0.2-0.3l0,0c0-0.2-0.1-0.3-0.1-0.5c0,0,0,0,0-0.1c0-0.1,0-0.2,0-0.3c0-0.1,0-0.2,0-0.3c0-0.1,0.1-0.2,0.1-0.3
	c0-0.1,0-0.2,0.1-0.3c0-0.2,0.1-0.3,0.2-0.5c0-0.1,0.1-0.2,0.2-0.2c0.1-0.2,0.2-0.3,0.4-0.4l0,0c0.1,0,0.2-0.1,0.3-0.2l0,0
	c0.1,0,0.2-0.1,0.3-0.1c0,0,0.1,0,0.1,0c0.2,0,0.4,0.1,0.6,0.2c0.2,0.1,0.3,0.2,0.4,0.3l0,0c0,0.1,0.2,0.2,0.2,0.3c0,0,0,0,0,0
	c0,0,0,0.1,0,0.1c0,0,0,0,0,0c0,0,0,0.1,0.1,0.1c0,0,0,0,0,0c0,0.1-0.1,0.2-0.1,0.3l0,0c0,0,0,0-0.1,0.1c0,0.1-0.1,0.1-0.1,0.2
	c0,0,0,0,0,0.1c0,0.1-0.1,0.1-0.3,0.2c-0.1,0.1-0.2,0.1-0.3,0.2c-0.1,0-0.1,0.1-0.3,0.1c-0.1,0.1-0.1,0.1-0.2,0.1
	c-0.1,0-0.1,0-0.1,0c-0.1,0-0.2,0.1-0.4,0.1c0,0-0.1,0-0.1,0c0,0-0.1,0-0.1,0c0,0-0.1,0-0.1,0c0,0,0,0,0,0.1v0c0,0.1,0,0.2,0.1,0.2
	c0.1,0.1,0.1,0.1,0.2,0.2c0.1,0.1,0.1,0.1,0.2,0.1h0c0,0,0.1,0,0.1,0c0.2,0,0.4-0.1,0.6-0.2c0.1,0,0.2-0.1,0.3-0.1
	c0.2-0.1,0.4-0.3,0.6-0.4c0,0,0.1,0,0.1-0.1c0.1,0,0.1,0,0.2-0.1c0,0,0.1-0.1,0.2-0.1c0.1,0,0.1,0,0.1-0.1c0-0.2,0.1-0.3,0.2-0.5
	c0.1-0.1,0.2-0.3,0.2-0.4l0,0c0.1-0.1,0.1-0.1,0.1-0.2c0,0,0,0,0,0c0.1,0,0.1-0.1,0.1-0.2c0.1-0.1,0.2-0.2,0.3-0.3
	c0.1,0,0.1-0.1,0.2-0.1c0.2-0.1,0.3-0.2,0.5-0.2c0.1,0,0.2-0.1,0.4-0.1h0.1c0.1,0,0.2,0,0.2,0c0.1,0,0.3,0.1,0.4,0.1
	c0.1,0.1,0.2,0.1,0.3,0.2c0.1-0.1,0.1-0.2,0.2-0.4c0-0.2,0.1-0.3,0.1-0.5c0-0.1,0-0.1,0-0.2c0-0.2,0-0.4,0-0.7c0,0,0-0.1,0-0.1
	c0,0,0-0.1,0-0.1c0,0,0-0.1,0-0.1c0,0,0-0.1,0-0.1c0,0,0-0.1,0-0.1c0-0.1,0.1-0.2,0.1-0.3l0,0c0.1,0,0.1-0.1,0.2-0.1l0,0
	c0.1,0,0.1,0,0.2,0c0.1,0,0.2,0,0.2,0.1C102.6,23,102.7,23.1,102.8,23.1"/>
<path d="M88.6,26.6C88.6,26.6,88.6,26.6,88.6,26.6C88.6,26.6,88.5,26.6,88.6,26.6c-0.1-0.1-0.2-0.1-0.3-0.1c0,0,0,0,0,0
	c-0.1,0-0.2,0-0.3,0.1c0,0-0.1,0-0.1,0.1c0,0-0.1,0.1-0.1,0.1h0c0,0,0,0,0,0c0,0,0,0,0,0c0,0,0,0,0.1,0c0,0,0.1,0.1,0.1,0.1
	c0,0,0,0,0,0c0.1,0,0.3-0.1,0.3-0.1C88.4,26.8,88.6,26.7,88.6,26.6 M84.3,27.6C84.3,27.6,84.3,27.6,84.3,27.6
	C84.3,27.6,84.3,27.6,84.3,27.6c0,0-0.1,0.1-0.1,0.1c-0.1,0.1-0.2,0.2-0.3,0.3c0,0.1-0.1,0.1-0.1,0.2c-0.1,0.2-0.2,0.3-0.3,0.5
	c-0.1,0.1-0.1,0.2-0.2,0.3c-0.1,0.2-0.3,0.3-0.6,0.3l0,0c0,0-0.1,0-0.2-0.1c0,0,0-0.1-0.1-0.1c-0.1-0.1-0.1-0.1-0.1-0.2
	c-0.1-0.2-0.1-0.5-0.1-0.8c0,0-0.1,0.1-0.1,0.1c0,0.1-0.1,0.1-0.1,0.2c0,0-0.1,0-0.1,0.1c0,0,0,0.1-0.1,0.1
	c-0.1,0.1-0.2,0.2-0.3,0.3c-0.1,0.1-0.3,0.2-0.3,0.3l0,0c0,0-0.1,0-0.1,0c0,0,0,0,0,0c-0.1,0.1-0.3,0.2-0.5,0.2c-0.1,0-0.2,0-0.3,0
	c0,0-0.1,0-0.1,0c-0.2-0.1-0.4-0.3-0.5-0.4l0,0c0-0.1-0.1-0.2-0.2-0.3c0-0.1-0.1-0.2-0.1-0.3l0,0c-0.1-0.4-0.1-0.8-0.2-1.2
	c0,0,0,0,0-0.1c0,0,0-0.1,0-0.1c0,0,0-0.1,0-0.1c-0.1,0-0.1,0.1-0.2,0.1c-0.1,0-0.2,0.1-0.3,0.1c0,0,0,0-0.1,0l0,0
	c-0.1,0-0.1-0.1-0.1-0.2c0-0.1,0-0.2,0.1-0.3c0.1-0.1,0.1-0.2,0.2-0.3c0,0,0.1,0,0.1,0c0.1-0.1,0.2-0.1,0.3-0.2c0-0.5,0.1-1,0.1-1.5
	l0,0c0.1-0.1,0.1-0.2,0.1-0.3c0-0.1,0.1-0.1,0.1-0.1c0-0.1,0-0.2,0.1-0.3c0,0,0.2-0.1,0.3-0.1c0,0,0,0,0.1,0c0.1,0,0.2,0.1,0.2,0.2
	c0,0,0,0.1,0,0.1c0,0.1,0.1,0.2,0.1,0.3v0c0,0.1-0.1,0.1-0.1,0.1c0,0,0,0,0,0c0,0,0,0.1,0,0.1c0,0,0,0,0,0c0,0,0,0.1,0,0.1
	c0,0.1,0,0.1,0,0.2c0,0,0,0.1,0,0.1c0,0,0,0.1,0,0.1c0,0,0,0.1,0,0.1c0,0,0,0.1,0,0.1c0,0,0,0.1,0,0.2c0,0,0,0,0,0
	c0.3-0.1,0.6-0.2,0.8-0.3c0.1,0,0.2,0,0.3-0.1c0,0,0.1,0,0.1-0.1c0.2-0.1,0.3-0.1,0.5-0.1h0c0,0,0,0,0,0c0,0,0,0,0.1,0l0,0
	c0,0,0.1,0,0.2,0.1l0,0c0,0.1,0,0.1,0,0.2c0,0.1,0,0.2-0.1,0.3c-0.1,0.1-0.1,0.2-0.2,0.2l0,0c-0.1,0-0.1,0-0.2,0h0
	c-0.3,0.2-0.7,0.2-1.1,0.4c0,0,0,0-0.1,0.1c-0.1,0-0.1,0-0.2,0.1c0,0-0.1,0.1-0.1,0.1c0,0,0,0,0,0h0c0,0,0,0,0,0
	c-0.1,0-0.1,0.1-0.2,0.1c0,0,0,0.1,0,0.1c0,0.1,0,0.2,0,0.3c0,0.1,0,0.1,0,0.2c0,0.1,0,0.2,0,0.3c0,0.1,0,0.2,0,0.3
	c0,0.1,0,0.2,0.1,0.2v0c0,0.1,0,0.1,0,0.1c0,0,0,0,0,0c0,0.1,0.1,0.2,0.1,0.3c0,0.1,0,0.2,0.1,0.2h0h0c0.1,0,0.1,0,0.2-0.1
	c0.1,0,0.1-0.1,0.2-0.1c0.1-0.2,0.3-0.3,0.5-0.5c0.1-0.1,0.1-0.1,0.1-0.1c0,0,0-0.1,0-0.1c0-0.1,0.1-0.1,0.1-0.1
	c0,0,0.1-0.1,0.1-0.2c0,0,0-0.1,0.1-0.1c0,0,0-0.1,0.1-0.1c0-0.1,0.1-0.1,0.1-0.1c0,0,0,0,0-0.1c0,0,0.1-0.1,0.1-0.1c0,0,0,0,0-0.1
	c0,0,0.1-0.1,0.1-0.1c0,0,0-0.1,0.1-0.1c0.1-0.1,0.1-0.1,0.1-0.3c0-0.1,0-0.1,0-0.2c0-0.1,0-0.2,0-0.3c0,0,0-0.1,0-0.1l0,0
	c0-0.2,0.1-0.3,0.1-0.5c0,0,0,0,0-0.1c0,0,0-0.1,0-0.2c0,0,0,0,0-0.1c0-0.1,0-0.1,0-0.1c0,0,0,0,0,0c0,0,0-0.1,0-0.1c0,0,0,0,0,0
	c0-0.3,0.1-0.5,0.2-0.7l0,0c0.1,0,0.1-0.1,0.2-0.2c0,0,0.1,0,0.2,0c0.1,0,0.2,0,0.3,0.1c0.1,0,0.1,0.1,0.2,0.2c0,0.1,0,0.1,0,0.2
	c0,0,0,0.1,0,0.1v0c0,0.1,0,0.1,0,0.1c0,0,0,0.1,0,0.2c0,0.1,0,0.2-0.1,0.3c0,0.1,0,0.2,0,0.3v0c0,0,0,0.1,0,0.1v0
	c0,0.1,0,0.1-0.1,0.2c0,0.1,0,0.2,0,0.2c0,0.1,0,0.2,0,0.3c0,0.1,0,0.2,0,0.3c0,0,0,0,0,0l0,0c0,0,0,0,0,0.1v0l0,0c0,0,0,0.1,0,0.2
	c0,0,0,0.1,0,0.2c0,0,0,0.1,0,0.1c0,0,0,0.1,0,0.1c0,0,0,0.1,0,0.1c0,0,0,0.1,0,0.1c0,0,0,0.1,0,0.1c0,0.1,0,0.1,0,0.1
	c0,0,0,0.1,0,0.1c0,0.1,0,0.2,0,0.3c0.1-0.1,0.1-0.2,0.2-0.3c0,0,0.1,0,0.1-0.1c0,0,0-0.1,0.1-0.1c0.1-0.1,0.2-0.2,0.3-0.3
	c0.1-0.1,0.2-0.2,0.4-0.2c0,0,0.1,0,0.1,0c0.1,0,0.3,0,0.4,0.1c0.1,0.1,0.3,0.1,0.3,0.3c0.1,0.2,0.2,0.3,0.3,0.5l0,0
	c0,0.1,0.1,0.2,0.1,0.3c0,0.1,0.1,0.1,0.1,0.2c0,0,0,0.1,0,0.1c0.1,0.1,0.1,0.2,0.2,0.2l0,0c0,0,0,0.1,0,0.1
	c0.1,0.1,0.1,0.1,0.2,0.1h0c0.2,0,0.5-0.2,0.6-0.2l0,0c0,0,0,0,0,0c0.1,0,0.1,0,0.1-0.1c-0.1-0.3-0.2-0.5-0.2-0.9c0-0.1,0-0.2,0-0.3
	c0,0,0-0.1,0-0.1c0-0.1,0-0.2,0.1-0.3c0-0.1,0-0.1,0.1-0.2c0-0.1,0.1-0.1,0.1-0.1c0,0,0,0,0-0.1c0.1-0.1,0.2-0.2,0.2-0.3l0,0
	c0.1,0,0.2-0.1,0.3-0.2c0.2-0.1,0.5-0.2,0.8-0.2c0,0,0.1,0,0.2,0c0.2,0.1,0.4,0.1,0.5,0.2c0.1,0.1,0.3,0.2,0.3,0.4l0,0
	c0,0.2,0.1,0.3,0.1,0.4c0,0,0,0.1,0,0.1l0,0c0,0,0,0.1-0.1,0.1c-0.1,0.1-0.1,0.2-0.2,0.3c0,0-0.1,0.1-0.1,0.1c0,0-0.1,0.1-0.1,0.1
	c0,0-0.1,0-0.1,0.1c0,0-0.1,0.1-0.1,0.1c-0.1,0-0.2,0-0.3,0.1c0,0,0,0-0.1,0c0,0-0.1,0-0.1,0c-0.2,0-0.3,0-0.5-0.1c0,0,0,0,0,0v0
	c0,0,0,0.1,0.1,0.1c0,0,0,0,0,0.1c0,0,0,0,0,0c0,0,0,0,0,0c0,0.1,0.1,0.1,0.1,0.2c0.1,0,0.1,0.1,0.2,0.1c0,0,0.1,0.1,0.1,0.1
	c0,0,0.1,0,0.1,0c0.1,0,0.3-0.1,0.4-0.1l0,0c0.1,0,0.2-0.1,0.3-0.1c0.2-0.1,0.4-0.3,0.6-0.4c0.2-0.2,0.4-0.3,0.6-0.5l0,0
	c0,0,0,0,0,0h0c0,0,0,0,0.1,0h0c0.1-0.1,0.2-0.2,0.3-0.2c0.1-0.1,0.3-0.1,0.4-0.1c0.1,0,0.2,0,0.3,0c0.2,0.1,0.4,0.3,0.5,0.4
	c0.1-0.2,0.2-0.4,0.3-0.6c0-0.1,0.1-0.1,0.1-0.1c0-0.1,0.1-0.2,0.2-0.3c0.1-0.1,0.1-0.2,0.2-0.2l0,0c0.1-0.1,0.1-0.1,0.1-0.2l0,0
	c0.1-0.1,0.2-0.1,0.2-0.3l0,0c0.1-0.1,0.3-0.2,0.3-0.3l0,0c0.1,0,0.1-0.1,0.2-0.1h0c0.1,0,0.1-0.1,0.2-0.1l0,0c0.1,0,0.2,0,0.3,0
	c0.1,0,0.2,0,0.4,0l0,0c0.2,0.1,0.5,0.2,0.6,0.4c0,0.1,0.1,0.2,0.1,0.3v0c0,0.1,0,0.1-0.1,0.2c-0.1,0-0.1,0.1-0.2,0.1h0
	c-0.1,0-0.2-0.1-0.3-0.1c-0.1,0-0.1,0-0.2,0c-0.1,0-0.2,0-0.3,0.1c-0.1,0-0.2,0.1-0.3,0.2c-0.1,0.1-0.2,0.1-0.2,0.2
	c0,0-0.1,0.1-0.1,0.1c0,0-0.1,0.1-0.1,0.1c0,0,0,0.1-0.1,0.1C93.1,26.9,93,27,93,27.1c0,0.1-0.1,0.1-0.2,0.2c0,0.1-0.1,0.2-0.1,0.3
	c-0.1,0.4-0.3,0.8-0.5,1.1c-0.1,0.1-0.1,0.2-0.2,0.3c0,0,0,0,0,0h0c0,0,0,0,0,0c-0.1,0-0.1,0-0.2,0c0,0,0,0-0.1,0
	c-0.1,0-0.1-0.1-0.1-0.1c-0.1,0-0.1,0-0.2-0.1c0-0.1,0-0.1-0.1-0.2c-0.1-0.2-0.1-0.3-0.1-0.5c0-0.1,0-0.1-0.1-0.2
	c0-0.1-0.1-0.1-0.1-0.1c0,0,0,0,0,0h0c-0.1,0-0.1,0.1-0.3,0.1c0,0,0,0,0,0.1l0,0c-0.3,0.1-0.5,0.3-0.7,0.5l0,0
	c-0.1,0-0.2,0.2-0.3,0.2c0,0-0.1,0.1-0.1,0.1l0,0c-0.3,0.2-0.6,0.3-1,0.4c-0.1,0-0.2,0-0.3,0c-0.1,0-0.2,0-0.3,0
	c-0.3-0.1-0.6-0.2-0.8-0.4c-0.1,0-0.1-0.1-0.1-0.1h0h0v0c0,0-0.1,0.1-0.1,0.1c-0.1,0.1-0.2,0.2-0.3,0.2c-0.1,0.1-0.2,0.1-0.3,0.2
	c-0.1,0-0.3,0.1-0.5,0.1c0,0-0.1,0-0.1,0c-0.1,0-0.3-0.1-0.4-0.1c-0.1-0.1-0.2-0.2-0.3-0.2c-0.1-0.1-0.2-0.2-0.3-0.4l0,0
	c0-0.1-0.2-0.3-0.3-0.5c0-0.1-0.1-0.2-0.1-0.3c0,0,0-0.1-0.1-0.1C84.3,27.7,84.3,27.6,84.3,27.6C84.3,27.6,84.3,27.6,84.3,27.6"/>
<path d="M77.6,26.8C77.6,26.7,77.6,26.7,77.6,26.8c0-0.2,0-0.2-0.1-0.3c-0.2,0-0.3-0.1-0.5-0.1c0,0,0,0,0,0c-0.1,0-0.2,0-0.3,0.1
	c-0.1,0.1-0.2,0.2-0.2,0.4c0,0,0,0,0,0c-0.1,0-0.1,0.1-0.1,0.2c0,0,0,0.1,0,0.1c0,0.1,0,0.2,0,0.3c0,0.1,0,0.2,0,0.3
	c0,0.1,0.1,0.3,0.1,0.4c0,0,0,0,0,0.1c0,0,0,0,0,0c0,0,0,0,0,0c0,0,0.1,0,0.1,0.1c0,0,0,0.1,0,0.1c0,0,0,0,0,0c0,0,0.1-0.1,0.2-0.1
	c0.1-0.1,0.1-0.1,0.2-0.2c0.1-0.1,0.1-0.1,0.1-0.2c0.1-0.1,0.1-0.2,0.1-0.3c0,0,0-0.1,0-0.2c0-0.1,0.1-0.2,0.1-0.3v0c0,0,0,0,0,0v0
	c0,0,0,0,0,0c0,0,0-0.1,0-0.1c0,0,0-0.1,0-0.1C77.6,26.9,77.6,26.9,77.6,26.8C77.6,26.8,77.6,26.8,77.6,26.8 M78.3,27L78.3,27
	c0,0.1,0,0.1,0,0.2c0,0,0,0.1,0,0.1c0,0,0,0.1,0,0.1c0,0.1,0,0.1,0,0.2c0,0.2-0.1,0.3-0.2,0.5c0,0.1,0,0.1-0.1,0.2
	c0,0.1-0.1,0.2-0.1,0.2c0,0,0,0,0,0c-0.1,0-0.1,0.2-0.2,0.3c0,0-0.1,0-0.1,0.1c-0.1,0.1-0.1,0.1-0.2,0.1c-0.1,0-0.3,0.1-0.5,0.1
	c-0.1,0-0.1,0-0.2,0c-0.1,0-0.1-0.1-0.2-0.1c0,0-0.1,0-0.1,0c-0.1,0-0.1-0.1-0.2-0.1l0,0c-0.1-0.1-0.1-0.1-0.2-0.2l0,0
	c0,0,0,0,0-0.1c-0.1-0.2-0.2-0.4-0.3-0.6c-0.1-0.2-0.1-0.5-0.1-0.7c0-0.1,0-0.2,0-0.2c0,0,0-0.1,0-0.1v0c0-0.1,0-0.2,0-0.3
	c0-0.1,0-0.1,0-0.2c0-0.1,0.1-0.1,0.1-0.2c0,0,0-0.1,0.1-0.2c0,0,0.1,0,0.1-0.1c0,0,0,0,0-0.1c0.1-0.1,0.2-0.2,0.4-0.3
	c0.1,0,0.1-0.1,0.2-0.1c0.1,0,0.1,0,0.2,0c0.1,0,0.1,0,0.2,0c0,0,0.1,0,0.1,0c0,0,0,0,0,0c0,0,0,0,0.1,0c0.1,0,0.1,0.1,0.1,0.1
	c0.1,0,0.1,0,0.2,0c0,0,0.1,0,0.2,0c0,0,0.1,0,0.1,0c0,0,0,0,0,0l0,0c0.2,0.1,0.3,0.3,0.4,0.5l0,0C78.2,26.6,78.3,26.8,78.3,27"/>
<path d="M74.4,26C74.4,26,74.4,26,74.4,26c-0.1-0.1-0.2-0.2-0.3-0.2c-0.2,0-0.3,0-0.5,0.1c-0.1,0-0.1,0-0.2,0.1
	c-0.1,0-0.1,0.1-0.2,0.1c-0.2,0.1-0.3,0.3-0.5,0.4c-0.1,0.2-0.3,0.3-0.3,0.5l0,0c-0.1,0-0.1,0.1-0.1,0.2c0,0,0,0.1-0.1,0.1
	c0,0.1-0.1,0.2-0.1,0.2c0,0,0,0,0,0.1v0c0,0.1,0,0.1,0.1,0.3c0.1,0.1,0.2,0.2,0.2,0.2c0.1,0.1,0.1,0.2,0.2,0.2c0,0,0.2,0.1,0.3,0.1
	h0h0c0.1,0,0.1-0.1,0.2-0.1c0.1,0,0.1-0.1,0.2-0.1c0.1-0.1,0.2-0.2,0.3-0.3c0,0,0-0.1,0.1-0.1c0,0,0.1-0.1,0.1-0.1c0,0,0-0.1,0-0.1
	c0,0,0.1-0.1,0.1-0.1c0,0,0,0,0-0.1c0,0,0.1-0.1,0.1-0.1c0,0,0,0,0,0v0v0c0,0,0,0,0,0c0,0,0.1-0.1,0.1-0.1c0.1-0.2,0.2-0.4,0.3-0.6
	v0c0-0.1,0.1-0.1,0.1-0.2v0c0,0,0,0,0,0l0,0c0,0,0-0.1,0-0.2C74.4,26.2,74.4,26.1,74.4,26 M75.3,26L75.3,26c0,0,0,0.1,0,0.1
	c0,0.1,0,0.1,0,0.2c0,0.1,0,0.2-0.1,0.3c0,0,0,0,0,0c0,0.2,0,0.3-0.1,0.4c0,0.1-0.1,0.2-0.1,0.3l0,0c0,0.1-0.1,0.1-0.1,0.2l0,0
	c-0.1,0.1-0.1,0.1-0.1,0.2l0,0c-0.1,0.1-0.1,0.3-0.3,0.4c-0.1,0.2-0.3,0.3-0.4,0.5l0,0c-0.1,0-0.1,0.1-0.1,0.1l0,0
	c-0.1,0-0.1,0.1-0.2,0.1c-0.1,0-0.2,0.1-0.3,0.2c-0.1,0-0.2,0.1-0.3,0.1c0,0,0,0-0.1,0c0,0,0,0,0,0c0,0-0.1,0-0.1,0c0,0-0.1,0-0.1,0
	h0c-0.1,0-0.2,0-0.4-0.1l0,0c0,0-0.1,0-0.1-0.1c-0.1,0-0.2,0-0.2-0.1c0,0-0.1-0.1-0.1-0.1c0,0-0.1,0-0.1-0.1c0,0,0-0.1,0-0.1
	c0,0-0.1-0.1-0.1-0.1c-0.1,0.1-0.1,0.3-0.2,0.4l0,0c-0.1,0-0.1,0-0.1,0.1c0,0,0,0,0,0c0,0,0,0,0,0c0,0,0,0,0,0h0
	c-0.1,0-0.1,0.1-0.2,0.1h0c-0.1,0-0.1,0-0.1-0.1c0,0-0.1-0.1-0.1-0.1c0,0,0,0,0,0c0-0.1-0.1-0.1-0.1-0.2l0,0c0-0.1,0-0.2,0.1-0.3
	c0-0.2,0.1-0.4,0.1-0.5c0.1-0.5,0.2-1,0.2-1.5c0-0.1,0.1-0.3,0.1-0.4c0,0,0,0,0,0c0,0,0-0.1,0-0.1c0,0,0,0,0,0c0-0.6,0-1.3,0.1-1.9
	c0,0,0,0,0-0.1l0,0c0,0,0-0.1,0-0.2v0c0-0.1,0-0.2,0-0.3c0,0,0,0,0-0.1c0-0.1,0-0.1,0.1-0.2c0-0.1,0.1-0.2,0.1-0.2
	c0.1-0.1,0.2,0,0.2-0.1c0,0,0,0,0,0c0,0,0,0,0,0c0,0,0.1,0,0.2,0.1c0.1,0,0.1,0.1,0.2,0.1c0,0,0,0.1,0,0.1c0,0.1,0.1,0.2,0.1,0.3
	c0,0,0,0.1,0,0.1c0,0.1,0,0.1,0,0.2c0,0,0,0,0,0c0,0.1,0.1,0.1,0.1,0.2c0,0,0,0,0,0c0,0.1,0,0.1,0,0.2c0,0,0,0.1,0,0.1
	c0,0.1,0,0.2,0,0.2c0,0.1,0,0.3,0,0.4c0,0.1,0,0.2,0,0.2c0,0.1,0,0.2,0,0.2v0c0,0,0,0,0,0.1c0,0,0,0,0,0c0,0,0,0,0,0c0,0,0,0,0,0
	c0,0,0,0.1,0,0.1h0l0,0c0,0,0,0.1,0,0.1c0,0,0,0.1,0,0.1c0,0.1,0,0.1,0,0.2c0,0,0.1,0,0.1-0.1l0,0c0.1-0.1,0.2-0.3,0.4-0.4
	c0,0,0.1,0,0.1,0c0,0,0.1-0.1,0.1-0.1c0,0,0.1-0.1,0.2-0.1c0.1-0.1,0.2-0.1,0.3-0.2c0.1-0.1,0.2-0.1,0.3-0.1c0,0,0,0,0,0
	c0,0,0,0,0,0h0c0.1,0,0.2-0.1,0.3-0.1h0c0.1,0,0.2,0,0.4,0c0.1,0,0.2,0.1,0.3,0.1c0.2,0.1,0.4,0.2,0.6,0.3l0,0
	C75.2,25.6,75.2,25.8,75.3,26"/>
<path d="M67.1,26.3c0-0.1,0-0.1,0-0.1c-0.1-0.1-0.3-0.1-0.4-0.1h0c-0.1,0-0.1,0-0.1,0c-0.1,0-0.2,0.2-0.3,0.3
	c-0.2,0.2-0.3,0.4-0.4,0.7c0,0,0,0.1,0,0.1c0,0,0,0.1,0,0.1v0c0,0,0,0,0,0c0,0,0.1-0.1,0.2-0.1c0.1-0.1,0.2-0.1,0.3-0.2
	c0.1-0.1,0.3-0.2,0.4-0.3c0.1-0.1,0.2-0.1,0.2-0.1c0,0,0-0.1,0.1-0.1C67,26.4,67.1,26.4,67.1,26.3 M68.4,27.7L68.4,27.7
	c0,0.1-0.1,0.2-0.1,0.2v0c0,0,0,0,0,0v0c0,0.1-0.1,0.1-0.1,0.1c0,0,0,0,0,0v0c0,0,0,0,0,0c-0.1,0.1-0.1,0.1-0.1,0.1v0c0,0,0,0,0,0v0
	c0,0,0,0,0,0c-0.1,0.1-0.1,0.1-0.2,0.2l0,0c-0.1,0.1-0.2,0.1-0.2,0.2c0,0-0.1,0.1-0.1,0.1c0,0-0.1,0-0.1,0c-0.1,0.1-0.1,0.1-0.2,0.2
	l0,0c-0.3,0.2-0.7,0.4-1.1,0.4h0c-0.1,0-0.2,0-0.3,0l0,0c0,0-0.1-0.1-0.2-0.1l0,0c-0.2-0.2-0.4-0.3-0.6-0.5c0-0.1-0.1-0.1-0.1-0.2
	c0,0,0-0.1-0.1-0.1c0,0,0,0,0,0c0,0,0,0,0,0v0h0c-0.1-0.1-0.1-0.3-0.1-0.4c0-0.1,0-0.2,0-0.3c0-0.1,0-0.3,0-0.4c0-0.1,0-0.2,0-0.3
	c0-0.2,0.1-0.4,0.2-0.6c0-0.1,0.1-0.2,0.1-0.2c0-0.1,0-0.1,0.1-0.2c0.1-0.1,0.2-0.1,0.2-0.2l0,0c0.1-0.1,0.2-0.3,0.4-0.4
	c0.1,0,0.1,0,0.2-0.1c0.1,0,0.1-0.1,0.2-0.1c0,0,0,0,0,0c0,0,0.1,0,0.1,0c0,0,0,0,0,0c0,0,0,0,0.1,0c0,0,0.1,0,0.1,0
	c0.1,0,0.2,0,0.3,0.1c0.1,0,0.1,0.1,0.2,0.1l0,0c0.1,0.1,0.3,0.3,0.4,0.4l0,0c0,0.1,0.1,0.2,0.1,0.4c0,0,0,0,0,0.1l0,0v0v0
	c0,0.3-0.1,0.5-0.3,0.7c0,0.1-0.1,0.1-0.1,0.2l0,0c-0.2,0.1-0.4,0.3-0.6,0.4c-0.1,0-0.1,0-0.2,0.1c0,0,0,0,0,0c-0.1,0-0.1,0-0.2,0.1
	c-0.1,0-0.1,0.1-0.2,0.1c-0.1,0-0.2,0-0.3,0.1c-0.1,0-0.2,0-0.2,0c0,0.2,0.1,0.4,0.2,0.5c0.1,0,0.1,0,0.1,0.1c0,0,0,0,0,0s0,0,0,0h0
	c0.1,0,0.3,0,0.4-0.1c0.1,0,0.1-0.1,0.2-0.1c0.1,0,0.1,0,0.2-0.1c0.1-0.1,0.2-0.2,0.4-0.3c0,0,0,0,0,0h0h0c0,0,0,0,0,0
	c0,0,0.1-0.1,0.1-0.1c0.2-0.1,0.4-0.2,0.6-0.3l0,0h0h0c0.1,0,0.1-0.1,0.2-0.1C68.4,27.6,68.4,27.6,68.4,27.7
	C68.4,27.7,68.4,27.7,68.4,27.7"/>
<path d="M63.8,26.9C63.8,26.9,63.8,26.8,63.8,26.9c-0.1-0.1-0.1-0.1-0.2-0.1c-0.1,0-0.1,0-0.2,0c-0.1,0.1-0.2,0.1-0.3,0.2
	c-0.2,0.2-0.5,0.4-0.7,0.7c-0.1,0.2-0.2,0.3-0.3,0.5c0,0.1,0,0.2-0.1,0.2c0,0.1-0.1,0.1-0.1,0.2c0,0,0,0,0,0c0,0,0,0,0,0
	c0,0.1-0.1,0.1-0.1,0.2v0v0c0,0,0,0.1,0.1,0.2c0,0.1,0.1,0.1,0.1,0.1c0.1,0,0.2,0.1,0.3,0.1h0c0,0,0,0,0,0c0.2-0.1,0.3-0.2,0.4-0.2
	c0.1-0.1,0.2-0.2,0.3-0.3c0,0,0,0,0-0.1l0,0c0.3-0.4,0.6-0.8,0.8-1.3C63.7,27.1,63.8,27,63.8,26.9 M64.6,26.8c0,0.1,0,0.2,0,0.3
	c0,0.2,0,0.3-0.1,0.5c0,0.1-0.1,0.1-0.1,0.2v0c0,0,0,0,0,0c0,0,0,0,0,0c0,0,0,0.1-0.1,0.1c0,0.1,0,0.1-0.1,0.2c0,0-0.1,0.1-0.1,0.1
	c0,0,0,0.1,0,0.1c0,0.1-0.1,0.1-0.1,0.1v0v0c0,0,0,0,0,0c0,0,0,0-0.1,0.1c0,0.1-0.1,0.1-0.1,0.2c0,0.1-0.1,0.1-0.1,0.2
	c0,0-0.1,0.1-0.1,0.1c0,0,0,0.1-0.1,0.1c0,0-0.1,0.1-0.1,0.1c0,0,0,0.1-0.1,0.1c-0.1,0.1-0.3,0.2-0.5,0.3c-0.1,0-0.1,0.1-0.2,0.1
	c-0.1,0-0.2,0-0.2,0c-0.1,0-0.1,0-0.2,0.1c-0.1,0-0.1,0.1-0.2,0.1c0,0-0.1,0-0.1,0c0,0-0.1,0-0.1,0h0c-0.1,0-0.1,0-0.2,0
	c-0.1,0-0.2,0-0.2,0c0,0-0.1-0.1-0.2-0.1c-0.1,0-0.1-0.1-0.2-0.1c-0.1-0.1-0.1-0.2-0.2-0.2h0h0h0c0,0-0.1,0.1-0.1,0.1l0,0
	c-0.1,0-0.2-0.1-0.3-0.1c-0.1-0.1-0.1-0.2-0.2-0.2l0,0c0-0.1,0-0.2,0-0.3c0-0.3,0-0.7,0-1c0-0.2,0-0.5,0-0.7v0c0,0,0-0.1,0-0.1
	c0,0,0,0,0,0c0,0,0-0.1,0-0.1v0c0,0,0,0,0,0l0,0v0c0-0.1,0-0.1,0-0.1c0,0,0,0,0,0v0c0-0.1,0-0.1,0-0.2c0-0.3,0-0.5,0-0.7v0
	c0-0.1,0-0.2,0-0.2c0,0,0-0.1,0-0.1c0-0.1,0-0.2,0-0.3c0-0.1,0-0.1,0-0.2c0,0,0-0.1,0-0.2c0-0.1,0-0.2,0-0.3c0-0.1,0-0.1,0-0.2v-0.1
	c0-0.2,0-0.4,0-0.5c0-0.1,0-0.2,0-0.3c0,0,0-0.1,0.1-0.1c0,0,0.1-0.1,0.1-0.1c0,0,0.1,0,0.1,0c0.1,0,0.1,0,0.2,0.1
	c0.1,0.1,0.2,0.1,0.3,0.2c0,0,0.1,0.1,0.1,0.2c0,0,0,0.1,0,0.1c0,0.1,0,0.1,0,0.2c0,0.1,0,0.1,0,0.1l0,0v0c0,0.1,0,0.1,0,0.1
	c0,0,0,0,0,0c0,0,0,0,0,0c0,0,0,0.1,0,0.1c0,0.2,0,0.3,0,0.5v0c0,0.1,0,0.1,0,0.2v0c0,0.1,0,0.1,0,0.1c0,0.1,0,0.3,0,0.4
	c0,0.2,0,0.4,0,0.6c0,0,0,0,0,0c0,0.1,0,0.2,0,0.3c0,0.1,0,0.1,0,0.2v0c0,0,0,0,0,0c0,0,0,0,0,0.1l0,0c0,0.1,0,0.3,0,0.4
	c0,0,0,0.1,0,0.1c0,0,0.1-0.1,0.1-0.1c0.1-0.1,0.1-0.1,0.1-0.2l0,0c0.1-0.1,0.1-0.1,0.2-0.2l0,0c0.1-0.1,0.2-0.1,0.3-0.2
	c0.1-0.1,0.1-0.1,0.2-0.2c0,0,0.1-0.1,0.2-0.1c0.1-0.1,0.3-0.2,0.5-0.3l0,0h0c0.2,0,0.4-0.1,0.6-0.1c0,0,0,0,0,0
	c0.1,0,0.2,0,0.3,0.1c0.1,0,0.2,0.1,0.2,0.1l0,0c0.1,0.1,0.2,0.1,0.2,0.2l0,0c0,0.1,0.1,0.1,0.1,0.2c0,0,0,0.1,0,0.1
	C64.5,26.6,64.6,26.7,64.6,26.8"/>
<path style="fill:#DE761C;" d="M49.4,26.5c0-0.1-0.1-0.2-0.1-0.2c0-0.1-0.1-0.1-0.2-0.1c0,0,0,0,0,0h0c-0.1,0-0.2,0.1-0.3,0.1
	c-0.1,0.1-0.2,0.2-0.3,0.3c-0.1,0.2-0.2,0.3-0.3,0.4c0,0,0,0.1-0.1,0.2c0,0.1-0.1,0.2-0.1,0.3c0,0,0,0,0,0c0,0,0,0,0,0.1
	c0,0.1-0.1,0.2-0.1,0.2c0,0,0,0,0,0c0,0.1,0,0.1-0.1,0.2c0,0,0,0,0,0v0c0,0,0,0,0,0.1c0,0,0,0.1,0,0.1c0,0,0,0,0,0c0,0,0,0,0,0.1
	c0,0,0,0,0,0c0,0.1-0.1,0.2-0.1,0.3c0,0,0,0,0,0.1c0,0,0,0.1,0,0.1c0,0,0,0,0.1,0c0,0,0,0,0.1,0c0,0,0,0,0,0
	c0.2-0.1,0.3-0.2,0.5-0.3c0.1-0.1,0.3-0.3,0.4-0.4c0.1-0.1,0.1-0.3,0.2-0.4c0.1-0.1,0.1-0.2,0.2-0.4l0,0
	C49.2,27.1,49.3,26.7,49.4,26.5 M57.4,28.4c0,0,0,0.1,0,0.1c0,0.1-0.1,0.2-0.1,0.3C57.2,28.9,57.1,29,57,29c-0.1,0-0.2,0-0.2,0
	c0,0,0,0-0.1,0c0,0,0,0,0,0c0,0-0.1,0-0.1,0c0,0,0,0,0,0c0,0-0.1,0-0.1,0h0c-0.1,0-0.1,0-0.2-0.1c-0.1,0-0.1-0.1-0.2-0.1
	c0,0-0.1,0-0.2-0.1c0,0-0.1-0.1-0.1-0.1c-0.1-0.1-0.1-0.1-0.2-0.2c-0.1-0.1-0.2-0.2-0.2-0.3c0,0-0.1,0-0.1-0.1
	c-0.2-0.3-0.4-0.6-0.6-0.8c0,0,0,0,0,0h0c-0.2,0-0.2,0.2-0.3,0.3c0,0,0,0,0,0.1l0,0c-0.2,0.1-0.2,0.4-0.4,0.6c0,0,0,0.1,0,0.1l0,0
	c-0.1,0.1-0.1,0.1-0.1,0.1c0,0,0,0.1-0.1,0.2c0,0.1-0.1,0.1-0.2,0.2c-0.1,0.1-0.1,0.1-0.1,0.2l0,0c-0.1,0.1-0.2,0.1-0.2,0.2l0,0
	c-0.1,0-0.2,0-0.3,0h0c-0.2,0-0.3-0.1-0.4-0.2c0-0.1-0.1-0.2-0.1-0.3c0,0,0-0.1,0-0.1c0,0,0-0.1,0-0.1c0-0.2,0.1-0.5,0.1-0.7
	c0,0.1-0.1,0.1-0.2,0.2c-0.1,0.2-0.2,0.3-0.3,0.4c-0.1,0.1-0.2,0.3-0.4,0.4c-0.1,0.1-0.2,0.1-0.2,0.2l0,0c-0.1,0-0.1,0.1-0.2,0.1
	c0,0,0,0-0.1,0.1c-0.1,0-0.2,0.1-0.3,0.1c-0.1,0-0.1,0.1-0.2,0.1h0h0c0,0,0,0-0.1,0c-0.1,0-0.2-0.1-0.3-0.1c-0.1,0-0.2-0.1-0.2-0.1
	c-0.1-0.1-0.2-0.2-0.2-0.2c-0.1-0.1-0.1-0.2-0.2-0.2c0,0,0,0,0,0v0c0,0,0,0,0,0v0c0,0,0-0.1-0.1-0.1c0-0.1,0-0.3-0.1-0.4
	c-0.1,0-0.1,0.1-0.1,0.2c-0.1,0.1-0.1,0.2-0.1,0.3l0,0c-0.1,0-0.1,0.1-0.2,0.2c0,0.1-0.1,0.1-0.1,0.2c-0.1,0.1-0.2,0.2-0.3,0.3
	c-0.1,0.1-0.2,0.2-0.3,0.2c-0.1,0-0.2,0-0.2,0c-0.1,0-0.2,0.1-0.3,0.1c0,0,0,0-0.1,0c-0.1,0-0.1,0-0.1-0.1c-0.1,0-0.1,0-0.2,0
	c-0.2-0.1-0.3-0.2-0.4-0.2l0,0c0-0.1-0.1-0.2-0.2-0.3c0-0.1,0-0.1,0-0.2c0-0.1,0-0.1,0-0.2c0,0,0,0.1-0.1,0.1c0,0-0.1,0-0.1,0.1
	c0,0-0.1,0.1-0.1,0.2c-0.1,0.1-0.2,0.1-0.3,0.2c-0.2,0.1-0.3,0.2-0.5,0.3c0,0-0.1,0.1-0.2,0.1c-0.1,0-0.1,0.1-0.2,0.1
	c-0.1,0.1-0.1,0.1-0.2,0.1c-0.1,0-0.1,0-0.2,0l0,0c-0.2,0-0.4,0-0.6-0.2c0,0,0,0,0,0h0c0,0,0,0-0.1,0v0l0,0
	c-0.1-0.1-0.2-0.2-0.3-0.3c0,0-0.1-0.1-0.1-0.2c-0.1-0.1-0.1-0.4-0.1-0.6c0-0.1,0-0.1,0-0.2c0,0,0-0.1,0-0.1c0,0,0-0.1,0-0.1
	c0,0,0-0.1,0-0.1v0c0,0,0-0.1,0-0.1c0,0,0-0.1,0-0.1c0-0.1,0-0.1,0-0.1c0,0,0,0,0,0c0,0,0,0,0-0.1c0,0,0,0,0,0
	c0-0.1,0.1-0.2,0.1-0.3c0,0,0,0,0-0.1l0,0c0.2-0.4,0.3-1,0.6-1.3c0,0,0,0,0-0.1c0,0,0,0,0,0c0.1,0,0.1-0.1,0.2-0.2
	c0.1-0.1,0.1-0.1,0.2-0.2c0.1,0,0.2-0.1,0.2-0.1c0.1-0.1,0.2-0.1,0.4-0.1h0c0.1,0,0.2,0,0.3,0c0.2,0,0.3,0,0.5,0.1
	c0.1,0,0.2,0.1,0.2,0.2c0.1,0.1,0.1,0.1,0.2,0.2c0,0,0,0,0,0c0,0.1,0,0.1,0,0.2c0,0,0,0,0,0c0,0.1-0.1,0.1-0.2,0.2
	c-0.1,0-0.2,0.1-0.3,0.1c0,0,0,0-0.1,0l0,0C46.1,26,46,26,46,26c0,0-0.1,0-0.1,0c-0.2,0-0.3,0-0.4,0.1c-0.1,0.1-0.2,0.2-0.3,0.2
	c0,0.2-0.2,0.2-0.2,0.4c0,0.1-0.1,0.2-0.1,0.3c0,0,0,0,0,0c0,0,0,0.1,0,0.1v0c0,0,0,0,0,0l0,0c0,0,0,0.1,0,0.1
	c-0.1,0.2-0.1,0.5-0.1,0.8c0,0,0,0.1,0,0.1c0,0.1,0,0.3,0,0.4c0,0.1,0,0.3,0.1,0.4c0,0,0.1,0,0.1,0c0.1,0,0.2-0.1,0.4-0.1
	c0.1,0,0.2-0.1,0.3-0.1c0.1-0.1,0.2-0.2,0.3-0.2c0.1-0.1,0.2-0.2,0.4-0.2c0.1-0.1,0.3-0.3,0.5-0.3c0.1,0,0.1-0.1,0.2-0.2
	c0.1,0,0.2-0.1,0.2-0.1c0.1-0.1,0.1-0.3,0.1-0.4c0,0,0,0,0,0c0-0.1,0.1-0.1,0.1-0.2c0.1-0.1,0.1-0.2,0.2-0.3
	c0.1-0.2,0.1-0.3,0.3-0.4c0,0,0,0,0-0.1c0,0,0,0,0,0l0,0c0.1-0.1,0.1-0.1,0.2-0.2c0.1-0.1,0.1-0.2,0.2-0.2c0.1-0.1,0.2-0.2,0.4-0.2
	c0,0,0.1,0,0.1,0c0.1,0,0.1-0.1,0.2-0.1c0.1,0,0.1,0,0.2,0c0,0,0.1,0,0.1,0c0.2,0,0.3,0.1,0.4,0.2c0.1,0.1,0.2,0.2,0.3,0.3
	c0,0,0,0,0,0c0.1,0,0.2,0,0.3,0.1l0,0c0,0.1,0.1,0.1,0.1,0.1l0,0c0,0.1,0.1,0.1,0.1,0.3c0,0.1,0,0.1,0,0.2c0,0.1,0,0.1,0,0.2
	c0,0.1,0,0.1,0,0.2v0c0,0,0,0,0,0.1c0,0,0,0,0,0c0,0,0,0,0,0c0,0.1,0,0.2,0,0.2c0,0.1,0,0.2,0,0.2c0,0.1,0,0.1,0,0.2
	c0,0.1,0.1,0.3,0.1,0.5c0,0.1,0,0.2,0,0.3c0,0.1,0.1,0.1,0.1,0.2c0.2-0.1,0.4-0.3,0.5-0.5c0.2-0.2,0.3-0.4,0.5-0.5c0,0,0-0.1,0-0.1
	l0,0c0.1-0.1,0.2-0.3,0.3-0.5c0,0,0-0.1,0-0.1c0,0,0.1,0,0.1-0.1c0,0,0,0,0-0.1c0,0,0.1-0.1,0.1-0.1c0.1-0.1,0.1-0.2,0.2-0.2
	c0,0,0.1-0.1,0.1-0.2c0.1,0,0.1-0.1,0.2-0.1c0,0,0.1,0,0.1,0c0.2,0,0.3,0,0.4,0.1c0,0,0,0,0,0v0c0,0.1,0.1,0.1,0.1,0.2
	c0,0,0,0.1,0,0.1c0,0.1,0,0.2,0,0.2c0,0.1,0,0.1,0,0.2c0,0,0,0,0,0c0,0,0,0,0,0c0,0.1,0,0.2-0.1,0.3c0,0,0,0.1,0,0.1v0c0,0,0,0,0,0
	c0.1-0.1,0.1-0.1,0.1-0.2c0,0,0.1-0.1,0.1-0.1c0,0,0.1-0.1,0.1-0.1c0.1-0.1,0.1-0.2,0.2-0.3c0.1-0.1,0.2-0.2,0.4-0.3
	c0.1,0,0.2-0.1,0.3-0.1c0.1,0,0.2,0,0.2,0c0,0,0.1,0,0.1,0c0,0,0,0,0,0h0c0,0,0,0,0,0c0.1,0,0.2,0.1,0.3,0.2
	c0.1,0.1,0.1,0.2,0.2,0.2l0,0c0.1,0.2,0.2,0.3,0.3,0.5c0.2,0.1,0.2,0.3,0.3,0.4c0.1,0.1,0.2,0.2,0.3,0.2l0,0c0,0.2,0.4,0.1,0.6,0.2
	c0.1,0,0.1,0,0.2,0C57.3,28.4,57.3,28.4,57.4,28.4L57.4,28.4z M47.2,27.2C47.2,27.2,47.2,27.2,47.2,27.2L47.2,27.2L47.2,27.2
	L47.2,27.2L47.2,27.2L47.2,27.2C47.2,27.2,47.2,27.2,47.2,27.2"/>
<polyline style="fill:#DE761C;" points="47.2,27.2 47.2,27.2 47.2,27.2 47.2,27.2 "/>
<rect x="47.2" y="27.2" style="fill:#DE761C;" width="0" height="0"/>
<path d="M39.5,26.8C39.5,26.8,39.5,26.8,39.5,26.8c0-0.2,0-0.3-0.1-0.3c0,0-0.1,0-0.1,0h0c-0.1,0-0.1,0.1-0.2,0.2
	C39,26.7,39,26.8,39,26.9c-0.1,0.1-0.2,0.3-0.2,0.5v0c0.1,0,0.2-0.1,0.3-0.1c0.1,0,0.2-0.1,0.2-0.2c0,0,0.1-0.1,0.1-0.1
	C39.5,26.9,39.5,26.8,39.5,26.8 M41.2,28.4L41.2,28.4c0,0.1-0.1,0.1-0.1,0.2c0,0.1,0,0.1-0.1,0.2c0,0,0,0.1-0.1,0.1
	c-0.1,0.1-0.1,0.1-0.2,0.1c0,0-0.1,0.1-0.1,0.2c-0.1,0.1-0.4,0.2-0.6,0.3c-0.1,0.1-0.3,0.2-0.4,0.2c-0.1,0-0.1,0-0.2,0
	c-0.1,0-0.2,0-0.3,0c-0.1,0-0.3,0-0.4-0.1c-0.1-0.1-0.3-0.1-0.4-0.2c-0.1-0.1-0.2-0.2-0.2-0.2C38.1,29.1,38,29,37.9,29
	c0,0,0-0.1,0-0.1c0,0-0.1-0.1-0.1-0.1c-0.1-0.2-0.1-0.4-0.1-0.5c0,0,0-0.1,0-0.1c0-0.3,0-0.5,0.1-0.7c0-0.2,0.1-0.3,0.2-0.5
	c0.1-0.1,0.1-0.3,0.2-0.4c0.1-0.1,0.2-0.3,0.2-0.4c0.1-0.1,0.2-0.2,0.3-0.3c0.1,0,0.1,0,0.2,0c0.1,0,0.1,0,0.2-0.1c0,0,0,0,0,0
	c0.1,0,0.3,0,0.4,0.1c0.1,0,0.1,0.1,0.2,0.1c0.1,0.1,0.1,0.1,0.2,0.2c0.1,0.1,0.1,0.2,0.2,0.3c0,0.1,0.1,0.2,0.1,0.2
	c0,0.1,0.1,0.2,0.1,0.3c0,0,0,0,0,0.1c0,0.2-0.1,0.3-0.1,0.4c-0.1,0.1-0.2,0.2-0.2,0.3c-0.1,0.1-0.2,0.2-0.3,0.2
	c-0.1,0.1-0.2,0.1-0.3,0.2c-0.1,0.1-0.3,0.2-0.5,0.2c-0.1,0-0.2,0-0.2,0c0,0.2,0.1,0.4,0.2,0.5c0.1,0.1,0.3,0.2,0.5,0.2h0h0
	c0.3,0,0.7-0.2,1-0.4c0.1,0,0.1-0.1,0.2-0.1c0.1,0,0.1,0,0.1,0c0.1,0,0.1-0.1,0.2-0.1c0,0,0,0,0,0C41.1,28.2,41.2,28.3,41.2,28.4"/>
<path d="M37.2,26.9L37.2,26.9c0,0.4-0.1,0.6-0.1,0.9c-0.1,0.2-0.1,0.4-0.2,0.6c-0.1,0.2-0.2,0.4-0.3,0.5c-0.1,0.1-0.2,0.2-0.3,0.3
	c-0.1,0.1-0.2,0.2-0.3,0.3c-0.1,0-0.2,0.1-0.3,0.1c-0.1,0.1-0.3,0.1-0.5,0.1c-0.1,0-0.3,0-0.4-0.1c-0.1,0-0.2-0.1-0.3-0.2
	c-0.1-0.1-0.1-0.2-0.2-0.3c-0.1-0.2-0.2-0.4-0.3-0.6c0-0.1-0.1-0.2-0.1-0.3c-0.1-0.2-0.1-0.4-0.2-0.5c-0.1,0-0.1,0.1-0.2,0.2
	c-0.1,0.1-0.1,0.1-0.2,0.2c-0.1,0.1-0.1,0.2-0.2,0.2c-0.1,0.1-0.1,0.2-0.2,0.2c-0.1,0.1-0.2,0.2-0.4,0.3c-0.1,0.1-0.2,0.2-0.4,0.3
	c-0.1,0.1-0.2,0.1-0.3,0.2c-0.1,0.1-0.2,0.1-0.2,0.2c-0.1,0-0.1,0-0.2,0c-0.1,0-0.1,0-0.2,0c-0.1,0-0.1,0-0.2-0.1
	c-0.1-0.1-0.3-0.1-0.3-0.2c0,0,0-0.1,0-0.1c0-0.1-0.1-0.2-0.1-0.3v0c0-0.1,0-0.2,0-0.3c0-0.3,0.1-0.6,0.2-1c0-0.2,0.1-0.4,0.1-0.6
	c0-0.3,0.1-0.6,0.2-1c0-0.2,0-0.3,0-0.5c0-0.1,0-0.2,0-0.2v0c0,0,0-0.1,0-0.1c0,0,0,0,0-0.1c0-0.1,0.1-0.1,0.2-0.1
	c0.1,0,0.2-0.1,0.2-0.1h0c0.1,0,0.2,0,0.3,0.1c0.1,0.1,0.2,0.1,0.2,0.2c0,0,0,0.1,0,0.1c0,0.1,0,0.1,0,0.2c0,0.1,0,0.3,0,0.4
	c0,0.1,0,0.3,0,0.4c0,0.1,0,0.1,0,0.1c0,0,0,0,0,0c0,0,0,0.1,0,0.1c0,0,0,0,0,0c0,0.3-0.1,0.6-0.1,0.8c0,0.1,0,0.3-0.1,0.4
	c0,0.1-0.1,0.3-0.1,0.4c0,0.1,0,0.1,0,0.2c0,0.1,0,0.1,0.1,0.2c0.1-0.1,0.3-0.2,0.4-0.4c0.1-0.1,0.3-0.3,0.4-0.4c0,0,0-0.1,0.1-0.1
	c0.1-0.2,0.4-0.4,0.5-0.5c0.1-0.1,0.2-0.2,0.3-0.3c0.1-0.1,0.2-0.2,0.3-0.2c0,0,0,0,0.1,0c0,0,0.1,0,0.1,0h0h0c0,0,0.1,0,0.2,0
	c0,0,0,0,0,0c0.1,0,0.2,0.1,0.3,0.2c0.1,0.1,0.2,0.2,0.2,0.3c0,0.2,0.1,0.5,0.1,0.7c0,0.2,0.1,0.5,0.2,0.6c0.1,0.2,0.2,0.5,0.4,0.5
	h0h0c0.1,0,0.2-0.1,0.3-0.2c0.1-0.1,0.3-0.3,0.4-0.5c0.1-0.1,0.2-0.3,0.2-0.5c0.1-0.3,0.2-0.6,0.2-1c0-0.1,0-0.2,0-0.4
	c0-0.2-0.1-0.5-0.2-0.7c0-0.1-0.1-0.2-0.2-0.4c-0.1-0.1-0.1-0.2-0.2-0.2c-0.1,0-0.1,0-0.2,0h0c-0.2,0-0.3,0.2-0.5,0.3
	c0,0-0.1,0-0.2,0c-0.1,0-0.2,0.1-0.3,0.1c0,0,0,0,0,0c-0.1,0-0.1,0-0.2-0.1c0-0.1-0.1-0.1-0.1-0.2c0,0,0,0,0,0
	c0-0.1,0.1-0.2,0.1-0.3c0.1-0.1,0.1-0.1,0.2-0.2c0.1-0.1,0.2-0.2,0.4-0.2c0.1,0,0.1-0.1,0.2-0.1c0.1,0,0.2,0,0.3,0c0,0,0.1,0,0.1,0
	c0.2,0,0.4,0.1,0.5,0.2c0.2,0.1,0.3,0.3,0.4,0.4c0.1,0.2,0.2,0.4,0.3,0.6C37,25.7,37,25.8,37,26c0,0.1,0.1,0.1,0.1,0.2
	C37.2,26.4,37.2,26.6,37.2,26.9C37.2,26.9,37.2,26.9,37.2,26.9"/>
<path style="fill:#9E004F;" d="M12.4,2.1c1.5,0.6,2.8,2,3.3,3.8c0.8,2.9-0.6,5.9-3.2,6.7c-0.5,0.1-1,0.2-1.4,0.2l0,0
	c3.6,1.4,6.7-1.1,7.3-3.9C18.9,6,17.2,2.6,12.4,2.1"/>
<path style="fill:#472F92;" d="M3.6,6.1c1.3-1,3.1-1.5,5-1c2.9,0.8,4.8,3.5,4.2,6.1c-0.1,0.5-0.3,0.9-0.6,1.3l0,0
	c3-2.5,2.4-6.4,0.2-8.3C10.3,2.4,6.5,2.2,3.6,6.1"/>
<path style="fill:#0073A4;" d="M2.7,15.8c-0.3-1.6,0.3-3.4,1.6-4.8c2.1-2.2,5.4-2.4,7.4-0.6c0.4,0.3,0.6,0.7,0.9,1.2l0,0
	C12,7.7,8.3,6.3,5.6,7.2C2.9,8.1,0.8,11.3,2.7,15.8"/>
<path style="fill:#73A533;" d="M10.7,21.3c-1.5-0.6-2.8-2-3.3-3.8c-0.8-2.9,0.6-5.9,3.2-6.7c0.5-0.1,1-0.2,1.4-0.2v0
	c-3.6-1.4-6.7,1.1-7.3,3.9C4.1,17.4,5.8,20.8,10.7,21.3"/>
<path style="fill:#FCAF17;" d="M19.4,17.3c-1.3,1-3.1,1.5-5,1c-2.9-0.8-4.8-3.5-4.2-6.1c0.1-0.5,0.3-0.9,0.6-1.3l0,0
	c-3,2.5-2.4,6.4-0.2,8.3C12.7,21,16.6,21.2,19.4,17.3"/>
<path style="fill:#DE761C;" d="M20.3,7.6c0.3,1.6-0.3,3.4-1.6,4.8c-2.1,2.2-5.4,2.4-7.4,0.6c-0.4-0.3-0.6-0.7-0.9-1.2l0,0
	c0.6,3.8,4.4,5.3,7.1,4.3C20.2,15.3,22.3,12.1,20.3,7.6"/>
<path style="fill:#58595B;" d="M25.2,18.1c0,0.5,0.2,0.8,0.5,0.9c0.3,0.2,0.7,0.3,1.1,0.3c0.1,0,0.3,0,0.5,0c0.2,0,0.4-0.1,0.5-0.1
	c0.2-0.1,0.3-0.2,0.4-0.3c0.1-0.1,0.1-0.3,0.1-0.4c0,0,0-0.1,0-0.2c0-0.1-0.1-0.2-0.2-0.4c-0.1-0.1-0.3-0.2-0.5-0.3
	c-0.2-0.1-0.5-0.1-0.7-0.2c-0.3-0.1-0.5-0.1-0.8-0.2c-0.3-0.1-0.6-0.1-0.8-0.2c-0.3-0.1-0.5-0.2-0.7-0.4c-0.2-0.2-0.4-0.3-0.5-0.6
	c-0.1-0.2-0.2-0.5-0.2-0.9c0-0.4,0.1-0.7,0.3-1c0.2-0.3,0.4-0.5,0.7-0.6c0.3-0.2,0.6-0.3,0.9-0.3s0.7-0.1,1-0.1c0.4,0,0.7,0,1,0.1
	c0.3,0.1,0.6,0.2,0.9,0.4c0.3,0.2,0.5,0.4,0.7,0.7c0.2,0.3,0.3,0.6,0.3,1H28c-0.1-0.4-0.2-0.6-0.5-0.7c-0.3-0.1-0.6-0.2-0.9-0.2
	c-0.1,0-0.2,0-0.4,0c-0.1,0-0.3,0.1-0.4,0.1c-0.1,0.1-0.2,0.1-0.3,0.2c-0.1,0.1-0.1,0.2-0.1,0.4c0,0.2,0.1,0.3,0.2,0.5
	c0.1,0.1,0.3,0.2,0.5,0.3c0.2,0.1,0.5,0.1,0.7,0.2c0.3,0.1,0.5,0.1,0.8,0.2c0.3,0.1,0.6,0.1,0.8,0.2c0.3,0.1,0.5,0.2,0.7,0.4
	c0.2,0.2,0.4,0.3,0.5,0.6c0.1,0.2,0.2,0.5,0.2,0.9c0,0.4-0.1,0.8-0.3,1.1c-0.2,0.3-0.4,0.5-0.7,0.7c-0.3,0.2-0.6,0.3-1,0.4
	c-0.4,0.1-0.7,0.1-1.1,0.1c-0.4,0-0.8-0.1-1.2-0.1c-0.4-0.1-0.7-0.3-1-0.5c-0.3-0.2-0.5-0.5-0.6-0.8c-0.2-0.3-0.2-0.7-0.3-1.1H25.2z
	"/>
<path style="fill:#58595B;" d="M33.1,13.4h1.5v1h0c0.1-0.2,0.2-0.3,0.4-0.5c0.1-0.1,0.3-0.3,0.5-0.4c0.2-0.1,0.4-0.2,0.6-0.2
	c0.2-0.1,0.5-0.1,0.7-0.1c0.4,0,0.8,0.1,1.2,0.3c0.4,0.2,0.6,0.5,0.8,0.9c0.3-0.4,0.6-0.6,0.9-0.9c0.3-0.2,0.8-0.3,1.3-0.3
	c0.7,0,1.3,0.2,1.7,0.5c0.4,0.4,0.6,1,0.6,1.8v4.8h-1.5v-4.1c0-0.3,0-0.5,0-0.8c0-0.2-0.1-0.4-0.2-0.6c-0.1-0.2-0.2-0.3-0.4-0.4
	c-0.2-0.1-0.4-0.1-0.7-0.1c-0.5,0-0.9,0.2-1.1,0.5c-0.2,0.3-0.4,0.8-0.4,1.4v4.1h-1.5v-4.5c0-0.5-0.1-0.9-0.3-1.1
	c-0.2-0.2-0.5-0.4-1-0.4c-0.2,0-0.4,0-0.6,0.1c-0.2,0.1-0.3,0.2-0.5,0.4c-0.1,0.2-0.3,0.3-0.3,0.6s-0.1,0.5-0.1,0.8v4.1h-1.5V13.4z"
	/>
<path style="fill:#58595B;" d="M49.5,16.9c0-0.3,0-0.6-0.1-0.9c-0.1-0.3-0.2-0.6-0.4-0.8c-0.2-0.2-0.4-0.4-0.6-0.6
	c-0.2-0.1-0.5-0.2-0.8-0.2c-0.6,0-1.1,0.2-1.5,0.7c-0.3,0.5-0.5,1.1-0.5,1.8c0,0.4,0,0.7,0.1,1s0.2,0.6,0.4,0.8
	c0.2,0.2,0.4,0.4,0.6,0.5c0.2,0.1,0.5,0.2,0.8,0.2c0.4,0,0.6-0.1,0.9-0.2c0.2-0.1,0.4-0.3,0.6-0.6c0.2-0.2,0.3-0.5,0.3-0.8
	C49.5,17.5,49.5,17.2,49.5,16.9 M44.1,13.4h1.5v0.9h0c0.2-0.4,0.5-0.7,0.9-0.9c0.4-0.2,0.8-0.3,1.3-0.3c0.6,0,1,0.1,1.4,0.3
	c0.4,0.2,0.8,0.5,1,0.8c0.3,0.3,0.5,0.7,0.6,1.2c0.1,0.5,0.2,0.9,0.2,1.4c0,0.5-0.1,0.9-0.2,1.4c-0.1,0.4-0.3,0.8-0.6,1.2
	s-0.6,0.6-0.9,0.8c-0.4,0.2-0.8,0.3-1.3,0.3c-0.2,0-0.5,0-0.7-0.1c-0.2,0-0.4-0.1-0.6-0.2c-0.2-0.1-0.4-0.2-0.6-0.3
	c-0.2-0.1-0.3-0.3-0.4-0.5h0V23h-1.5V13.4z"/>
<rect x="51.8" y="10.7" style="fill:#58595B;" width="1.5" height="9.6"/>
<path style="fill:#58595B;" d="M54,13.4h1.7l1.8,5.2h0l1.8-5.2h1.6l-2.7,7.4c-0.1,0.3-0.2,0.6-0.4,0.9c-0.1,0.3-0.3,0.5-0.4,0.8
	c-0.2,0.2-0.4,0.4-0.7,0.5c-0.3,0.1-0.6,0.2-1,0.2c-0.4,0-0.7,0-1.1-0.1v-1.3c0.1,0,0.2,0,0.4,0.1c0.1,0,0.2,0,0.4,0
	c0.2,0,0.3,0,0.4-0.1c0.1,0,0.2-0.1,0.3-0.2c0.1-0.1,0.1-0.2,0.2-0.3c0.1-0.1,0.1-0.3,0.1-0.4l0.2-0.5L54,13.4z"/>
<path style="fill:#58595B;" d="M61.5,10.7H63v3.6h0c0.2-0.3,0.5-0.6,0.8-0.8c0.4-0.2,0.8-0.3,1.3-0.3c0.8,0,1.4,0.2,1.8,0.6
	c0.4,0.4,0.7,1,0.7,1.8v4.8h-1.5V16c0-0.6-0.1-0.9-0.4-1.2c-0.2-0.2-0.6-0.4-1-0.4c-0.3,0-0.5,0-0.7,0.1c-0.2,0.1-0.4,0.2-0.5,0.4
	c-0.1,0.2-0.3,0.4-0.3,0.6C63.1,15.8,63,16,63,16.3v4.1h-1.5V10.7z"/>
<path style="fill:#58595B;" d="M31.4,10.8c-0.5,0-0.9,0.4-0.9,0.9c0,0.5,0.4,0.9,0.9,0.9s0.9-0.4,0.9-0.9
	C32.3,11.2,31.9,10.8,31.4,10.8 M31.4,10.8c-0.5,0-0.9,0.4-0.9,0.9c0,0.5,0.4,0.9,0.9,0.9s0.9-0.4,0.9-0.9
	C32.3,11.2,31.9,10.8,31.4,10.8 M30.6,13.4h1.5v7h-1.5V13.4z"/>
<path style="fill:#58595B;" d="M73.4,16.3c0-0.2-0.1-0.5-0.2-0.7c-0.1-0.2-0.2-0.4-0.4-0.6c-0.1-0.2-0.3-0.3-0.5-0.4
	c-0.2-0.1-0.4-0.2-0.7-0.2c-0.3,0-0.5,0-0.7,0.1c-0.2,0.1-0.4,0.2-0.6,0.4c-0.2,0.2-0.3,0.4-0.4,0.6c-0.1,0.2-0.1,0.5-0.2,0.7H73.4z
	 M69.8,17.3c0,0.3,0,0.5,0.1,0.8s0.2,0.5,0.3,0.7c0.2,0.2,0.3,0.3,0.6,0.5c0.2,0.1,0.5,0.2,0.8,0.2c0.5,0,0.8-0.1,1.1-0.3
	c0.3-0.2,0.5-0.5,0.6-0.9h1.5c-0.1,0.4-0.2,0.7-0.4,1c-0.2,0.3-0.4,0.5-0.7,0.8c-0.3,0.2-0.6,0.4-0.9,0.5c-0.3,0.1-0.7,0.2-1.1,0.2
	c-0.5,0-1-0.1-1.5-0.3c-0.4-0.2-0.8-0.4-1.1-0.8c-0.3-0.3-0.5-0.7-0.7-1.2c-0.1-0.5-0.2-0.9-0.2-1.5c0-0.5,0.1-1,0.2-1.4
	c0.2-0.4,0.4-0.8,0.7-1.2c0.3-0.3,0.6-0.6,1.1-0.8c0.4-0.2,0.9-0.3,1.4-0.3c0.5,0,1,0.1,1.5,0.3c0.4,0.2,0.8,0.5,1.1,0.9
	c0.3,0.4,0.5,0.8,0.6,1.3s0.2,1,0.1,1.5H69.8z"/>
<rect x="84" y="10.7" style="fill:#58595B;" width="1.5" height="9.6"/>
<path style="fill:#58595B;" d="M86.2,13.4h1.2v-2.1h1.5v2.1h1.4v1.1h-1.4v3.7c0,0.2,0,0.3,0,0.4c0,0.1,0,0.2,0.1,0.3
	s0.1,0.1,0.2,0.2c0.1,0,0.2,0.1,0.4,0.1c0.1,0,0.2,0,0.3,0c0.1,0,0.2,0,0.3,0v1.2c-0.2,0-0.3,0-0.5,0.1c-0.2,0-0.3,0-0.5,0
	c-0.4,0-0.7,0-1-0.1c-0.2-0.1-0.4-0.2-0.6-0.3c-0.1-0.1-0.2-0.3-0.3-0.6c0-0.2-0.1-0.5-0.1-0.8v-4.1h-1.2V13.4z"/>
<path style="fill:#58595B;" d="M91,10.7h1.5v3.6h0c0.2-0.3,0.5-0.6,0.8-0.8c0.4-0.2,0.8-0.3,1.3-0.3c0.8,0,1.4,0.2,1.8,0.6
	c0.4,0.4,0.7,1,0.7,1.8v4.8h-1.5V16c0-0.6-0.1-0.9-0.4-1.2c-0.2-0.2-0.6-0.4-1-0.4c-0.3,0-0.5,0-0.7,0.1c-0.2,0.1-0.4,0.2-0.5,0.4
	c-0.1,0.2-0.3,0.4-0.3,0.6c-0.1,0.2-0.1,0.5-0.1,0.7v4.1H91V10.7z"/>
<path style="fill:#58595B;" d="M81.1,19.7c-0.8,1.1-5.5,1.9-5.5-2.8c0-0.5,0.1-1,0.2-1.4c0.1-0.5,0.3-0.8,0.6-1.2
	c0.3-0.3,0.6-0.6,1-0.8s0.9-0.3,1.4-0.3c0.4,0,0.9,0.1,1.3,0.3c0.4,0.2,0.7,0.5,0.9,0.9h0v-0.9h1.5v1.8v3.6c0,0.2,0,0.3,0.1,0.4
	c0.1,0.1,0.1,0.1,0.3,0.1h0.2c0.1,0,0.1,0,0.2,0v1.1c-0.1,0-0.1,0-0.2,0.1c-0.1,0-0.2,0-0.3,0.1c-0.1,0-0.2,0-0.3,0
	c-0.1,0-0.2,0-0.2,0c-0.3,0-0.6-0.1-0.8-0.2C81.3,20.2,81.2,20,81.1,19.7 M77.3,17.8c0.1,0.3,0.2,0.6,0.3,0.8
	c0.2,0.2,0.4,0.4,0.6,0.6c0.2,0.1,0.5,0.2,0.9,0.2c0.3,0,0.6-0.1,0.8-0.2c0.2-0.1,0.4-0.3,0.6-0.5c0.2-0.2,0.3-0.5,0.4-0.8
	c0.1-0.3,0.1-0.6,0.1-1c0-0.7-0.2-1.3-0.5-1.8c-0.3-0.4-0.8-0.7-1.5-0.7c-0.3,0-0.6,0.1-0.8,0.2s-0.4,0.3-0.6,0.6s-0.3,0.5-0.4,0.8
	c-0.1,0.3-0.1,0.6-0.1,0.9C77.2,17.2,77.2,17.5,77.3,17.8"/>
</svg>
