<?xml version="1.0" encoding="utf-8"?>
<!-- Generator: Adobe Illustrator 15.0.0, SVG Export Plug-In . SVG Version: 6.00 Build 0)  -->
<!DOCTYPE svg PUBLIC "-//W3C//DTD SVG 1.1//EN" "http://www.w3.org/Graphics/SVG/1.1/DTD/svg11.dtd">
<svg version="1.1" id="Layer_1" xmlns="http://www.w3.org/2000/svg" xmlns:xlink="http://www.w3.org/1999/xlink" x="0px" y="0px"
	 width="1234.211px" height="493.047px" viewBox="0 0 1234.211 493.047" enable-background="new 0 0 1234.211 493.047"
	 xml:space="preserve">
<path fill="none" d="M449.21,245.199c0,4.696-3.807,8.504-8.504,8.504h-3.042c-4.697,0-8.504-3.808-8.504-8.504V8.504
	c0-4.697,3.807-8.504,8.504-8.504h3.042c4.697,0,8.504,3.807,8.504,8.504V245.199z"/>
<path fill="none" d="M819.211,246.199c0,4.696-3.808,8.504-8.504,8.504h-3.043c-4.696,0-8.504-3.808-8.504-8.504V10.504
	c0-4.697,3.808-8.504,8.504-8.504h3.043c4.696,0,8.504,3.807,8.504,8.504V246.199z"/>
<path fill="none" d="M922.211,246.199c0,4.696-3.808,8.504-8.504,8.504h-3.043c-4.696,0-8.504-3.808-8.504-8.504V10.504
	c0-4.697,3.808-8.504,8.504-8.504h3.043c4.696,0,8.504,3.807,8.504,8.504V246.199z"/>
<path fill="none" d="M1088.211,176.199c0,4.696-3.808,8.504-8.504,8.504h-3.043c-4.696,0-8.504-3.808-8.504-8.504V10.504
	c0-4.697,3.808-8.504,8.504-8.504h3.043c4.696,0,8.504,3.807,8.504,8.504V176.199z"/>
<path fill="none" d="M1234.211,176.199c0,4.696-3.808,8.504-8.504,8.504h-3.043c-4.696,0-8.504-3.808-8.504-8.504V10.504
	c0-4.697,3.808-8.504,8.504-8.504h3.043c4.696,0,8.504,3.807,8.504,8.504V176.199z"/>
<path fill="none" d="M396.21,245.199c0,4.696-3.807,8.504-8.504,8.504h-3.042c-4.697,0-8.504-3.808-8.504-8.504V105.503
	c0-4.696,3.807-8.503,8.504-8.503h3.042c4.697,0,8.504,3.807,8.504,8.503V245.199z"/>
<path fill="none" d="M873.033,1.326c4.696,0,8.504,3.808,8.504,8.504v3.043c0,4.696-3.808,8.504-8.504,8.504H745.338
	c-4.696,0-8.504-3.808-8.504-8.504V9.83c0-4.696,3.808-8.504,8.504-8.504H873.033z"/>
<path fill="none" d="M496,167.513h147.75c0-7.75,1.75-84-86.25-84c-52.333,0-86.667,38.084-86.667,85.25
	c0,42.584,25.167,89.75,86.667,89.75c41.75,0,72.5-31.5,72.5-38c0-8.25-4.5-12.5-14.875-12.5c-5.625,0-17.875,29.5-57.625,29.5
	c-41.25,0-64.75-37.75-64.75-66.5C492.75,167.763,496,167.513,496,167.513z M557.5,104.763c35,0,59,23.25,59,39.5l-120.5-0.25
	C496,136.763,522.5,104.763,557.5,104.763z"/>
<g>
	<path fill="none" d="M190.21,245.199c0,4.696-3.807,8.504-8.504,8.504h-3.042c-4.697,0-8.504-3.808-8.504-8.504V105.503
		c0-4.696,3.807-8.503,8.504-8.503h3.042c4.697,0,8.504,3.807,8.504,8.503V245.199z"/>
	<path fill="none" d="M266.21,245.199c0,4.696-3.807,8.504-8.504,8.504h-3.042c-4.697,0-8.504-3.808-8.504-8.504V125.503
		c0-4.696,3.807-8.504,8.504-8.504h3.042c4.697,0,8.504,3.808,8.504,8.504V245.199z"/>
	<path fill="none" d="M342.21,245.199c0,4.696-3.807,8.504-8.504,8.504h-3.042c-4.697,0-8.504-3.808-8.504-8.504V125.503
		c0-4.696,3.807-8.504,8.504-8.504h3.042c4.697,0,8.504,3.808,8.504,8.504V245.199z"/>
	<path fill="none" d="M187.959,99.754c0-2.866,16.166-12.741,32.666-12.741s35.561,17.75,35.561,17.75s17.439-17.75,38.939-17.75
		s47.103,21.563,47.103,40.323c0-0.406-20.167,0-20.167,0s-9.687-19.906-27.228-19.906c-16.458,0-28.606,15.646-28.606,19.906
		h-19.833c0-4.24-11.395-19.573-26.395-19.573c-16.625,0-29.605,14.75-29.605,19.573l-20.234-1.833
		C170.161,125.503,187.959,103.513,187.959,99.754z"/>
</g>
<path fill="none" d="M75.167,0.43c-30,0-55.333,15.333-55.333,52.333c0,82,110.667,52,110.667,127.334c0,0-2.333,57-54.667,57
	c-42.333,0-57.083-41.584-57.083-45.584c0-7.5-18.75-10.667-18.75,6c0,14.25,21.5,56.584,74.5,56.584c43.25,0,75-25.084,75-73.834
	c0-86-109.667-73-109.667-126.833c0-31.417,23.75-34.583,34.75-34.583c22,0,33.333,22,40.5,22c7.917,0,9.25-5.083,9.25-10.5
	C124.333,24.013,111.917,0.43,75.167,0.43z"/>
<path fill="none" d="M1043.001,84.43c0-61-53.834-82.43-75.167-82.43c-7.396,0-57.17,0-57.17,0l7.919,172.263l6.667-6.667
	c0,0,29.147-0.083,33.314-0.083s53.103,78.417,58.436,83.75c6.417,6.417,19.667,2.5,19.667-6.667
	c0-6.166-52.666-78.833-52.666-78.833S1043.001,151.763,1043.001,84.43z M922.697,147.013v-124c0,0,32.553-0.25,39.803-0.25
	c35,0,60.25,30,60.25,62.75c0,47-41.25,61.75-61.25,61.75C954.5,147.263,922.697,147.013,922.697,147.013z"/>
<path fill="none" d="M1151.5,254.43c59.536,0,82.579-45.334,82.711-80.583h-20.051c0,22.416-18.577,61.122-62.66,61.122
	s-63.288-43.206-63.288-61.122l-20.053-0.084C1068.159,208.763,1090.035,254.43,1151.5,254.43z"/>
<path fill="none" d="M375.319,269.345c0,131.782,105.466,223.702,223.272,223.702c127.992,0,220.844-106.817,220.844-223.702
	c0-10.67-17.226-11.676-17.226,0c-3.469,120.609-99.833,205.49-203.618,205.49c-108.961,0-205.582-90.002-205.582-205.49
	C393.009,258.675,375.319,259.141,375.319,269.345z"/>
</svg>
