<?xml version="1.0" encoding="utf-8"?>
<!-- Generator: Adobe Illustrator 15.0.0, SVG Export Plug-In . SVG Version: 6.00 Build 0)  -->
<!DOCTYPE svg PUBLIC "-//W3C//DTD SVG 1.1//EN" "http://www.w3.org/Graphics/SVG/1.1/DTD/svg11.dtd">
<svg version="1.1" id="Layer_1" xmlns="http://www.w3.org/2000/svg" xmlns:xlink="http://www.w3.org/1999/xlink" x="0px" y="0px"
	 width="1234.211px" height="493.047px" viewBox="0 0 1234.211 493.047" enable-background="new 0 0 1234.211 493.047"
	 xml:space="preserve">
<path fill="#558F40" d="M1234.211,176.198c0,4.696-3.808,8.505-8.504,8.505h-3.043c-4.696,0-8.504-3.809-8.504-8.505V10.504
	c0-4.697,3.808-8.504,8.504-8.504h3.043c4.696,0,8.504,3.807,8.504,8.504V176.198z"/>
<g>
	<path fill="#558F40" d="M437.664,253.703h3.042c4.697,0,8.504-3.809,8.504-8.505V8.504c0-4.697-3.807-8.504-8.504-8.504h-3.042
		c-4.697,0-8.504,3.807-8.504,8.504v236.694C429.16,249.895,432.967,253.703,437.664,253.703z"/>
	<path fill="#558F40" d="M384.664,253.703h3.042c4.697,0,8.504-3.809,8.504-8.505V105.503c0-4.696-3.807-8.503-8.504-8.503h-3.042
		c-4.697,0-8.504,3.807-8.504,8.503v139.695C376.16,249.895,379.967,253.703,384.664,253.703z"/>
	<path fill="#558F40" d="M873.033,1.326H745.338c-4.696,0-8.504,3.808-8.504,8.504v3.043c0,4.695,3.808,8.504,8.504,8.504h53.822
		v224.821c0,4.696,3.808,8.505,8.504,8.505h3.043c4.696,0,8.504-3.809,8.504-8.505V21.377h53.822c4.696,0,8.504-3.809,8.504-8.504
		V9.83C881.537,5.134,877.729,1.326,873.033,1.326z"/>
	<path fill="#558F40" d="M557.5,258.513c41.75,0,72.5-31.5,72.5-38c0-8.25-4.5-12.5-14.875-12.5c-5.625,0-17.875,29.5-57.625,29.5
		c-41.25,0-64.75-37.75-64.75-66.5c0-3.25,3.25-3.5,3.25-3.5h147.75c0-7.75,1.75-84-86.25-84c-52.333,0-86.667,38.084-86.667,85.25
		C470.833,211.347,496,258.513,557.5,258.513z M557.5,104.763c35,0,59,23.25,59,39.5l-120.5-0.25
		C496,136.763,522.5,104.763,557.5,104.763z"/>
	<path fill="#558F40" d="M342.21,126.917v-1.414c0-1.009-0.185-1.973-0.508-2.871c-3.702-17.479-26.857-35.619-46.577-35.619
		c-21.5,0-38.939,17.75-38.939,17.75s-19.061-17.75-35.561-17.75s-32.666,9.875-32.666,12.741l0,0
		c-1.554-1.689-3.776-2.754-6.253-2.754h-3.042c-4.697,0-8.504,3.807-8.504,8.503v139.695c0,4.696,3.807,8.505,8.504,8.505h3.042
		c4.697,0,8.504-3.809,8.504-8.505V127.32l0.184,0.017c0-4.823,12.98-19.573,29.605-19.573c13.768,0,24.491,12.91,26.161,18.312
		v119.124c0,4.696,3.807,8.505,8.504,8.505h3.042c4.697,0,8.504-3.809,8.504-8.505V127.336h0.017
		c0-4.26,12.148-19.906,28.606-19.906c17.541,0,27.228,19.906,27.228,19.906s0.041-0.001,0.1-0.002v117.864
		c0,4.696,3.807,8.505,8.504,8.505h3.042c4.697,0,8.504-3.809,8.504-8.505V127.325c0.003,0.003,0.018,0.007,0.018,0.011
		C342.228,127.197,342.213,127.056,342.21,126.917z"/>
	<path fill="#558F40" d="M39.834,53.43c0-31.417,23.75-34.583,34.75-34.583c22,0,33.333,22,40.5,22c7.917,0,9.25-5.083,9.25-10.5
		C124.333,24.013,111.917,0.43,75.167,0.43c-30,0-55.333,15.333-55.333,52.333c0,82,110.667,52,110.667,127.334
		c0,0-2.333,57-54.667,57c-42.333,0-57.083-41.584-57.083-45.584c0-7.5-18.75-10.667-18.75,6c0,14.25,21.5,56.584,74.5,56.584
		c43.25,0,75-25.084,75-73.834C149.501,94.263,39.834,107.263,39.834,53.43z"/>
	<path fill="#558F40" d="M1043.001,84.43c0-61-53.834-82.43-75.167-82.43c-6.289,0-43.212,0-54.127,0h-3.043
		c-4.696,0-8.504,3.807-8.504,8.504v235.694c0,4.696,3.808,8.505,8.504,8.505h3.043c4.696,0,8.504-3.809,8.504-8.505v-75.563
		l3.039-3.039c0,0,29.146-0.083,33.314-0.083c4.167,0,53.103,78.417,58.436,83.75c6.417,6.417,19.667,2.5,19.667-6.667
		c0-6.166-52.666-78.833-52.666-78.833S1043.001,151.763,1043.001,84.43z M961.5,147.263c-7,0-38.803-0.25-38.803-0.25v-124
		c0,0,32.553-0.25,39.803-0.25c35,0,60.25,30,60.25,62.75C1022.75,132.513,981.5,147.263,961.5,147.263z"/>
	<path fill="#558F40" d="M1214.16,173.847c0,22.416-18.577,61.122-62.66,61.122s-63.288-43.206-63.288-61.122h-0.001V10.504
		c0-4.697-3.808-8.504-8.504-8.504h-3.043c-4.696,0-8.504,3.807-8.504,8.504v163.259h-0.001c0,0.033,0.001,0.067,0.001,0.1v2.335
		c0,0.358,0.029,0.71,0.072,1.057c1.412,34.468,23.827,77.175,83.268,77.175c59.536,0,82.579-45.334,82.711-80.583H1214.16z"/>
	<path fill="#558F40" d="M802.209,269.345c-3.469,120.609-99.833,205.49-203.618,205.49c-108.961,0-205.582-90.002-205.582-205.49
		c0-10.67-17.689-10.204-17.689,0c0,131.782,105.466,223.702,223.271,223.702c127.992,0,220.844-106.817,220.844-223.702
		C819.435,258.675,802.209,257.669,802.209,269.345z"/>
</g>
</svg>
