<?xml version="1.0" encoding="utf-8"?>
<!-- Generator: Adobe Illustrator 15.0.0, SVG Export Plug-In . SVG Version: 6.00 Build 0)  -->
<!DOCTYPE svg PUBLIC "-//W3C//DTD SVG 1.1//EN" "http://www.w3.org/Graphics/SVG/1.1/DTD/svg11.dtd">
<svg version="1.1" id="Ebene_1" xmlns="http://www.w3.org/2000/svg" xmlns:xlink="http://www.w3.org/1999/xlink" x="0px" y="0px"
	 width="156.436px" height="43.75px" viewBox="0 0 156.436 43.75" enable-background="new 0 0 156.436 43.75" xml:space="preserve">
<g>
	<path fill="none" d="M147.5,11.225h-4.445V23.8h4.445v-6.515c0-1.564,0.506-2.924,2.32-2.924c2.227,0,2.021,2.117,2.021,3.33V23.8
		h4.495v-7.776c0-3.08-1.367-5.198-4.746-5.198c-1.771,0-3.031,0.505-4.039,2.019H147.5V11.225L147.5,11.225L147.5,11.225z"/>
	<path fill="none" d="M132.246,11.225h-4.442V23.8h4.442v-6.515c0-1.564,0.503-2.924,2.327-2.924c2.215,0,2.021,2.117,2.021,3.33
		V23.8h4.486v-7.776c0-3.08-1.36-5.198-4.739-5.198c-1.771,0-3.03,0.505-4.041,2.019h-0.056L132.246,11.225L132.246,11.225
		L132.246,11.225z"/>
	<path fill="none" d="M125.988,11.225h-4.446v1.213c-0.959-1.059-2.476-1.612-3.884-1.612c-3.739,0-6.314,3.078-6.314,6.713
		c0,3.591,2.623,6.718,6.361,6.718c1.467,0,2.982-0.552,3.789-1.817h0.048v1.36h4.446V11.225L125.988,11.225L125.988,11.225z
		 M118.92,14.711c1.814,0,2.873,1.263,2.873,2.827c0,1.618-1.059,2.831-2.873,2.831c-1.826,0-2.886-1.213-2.886-2.831
		C116.034,15.974,117.094,14.711,118.92,14.711L118.92,14.711L118.92,14.711z"/>
	<path fill="none" d="M93.563,11.225H89.12V23.8h4.441v-6.009c0-1.361,0-3.536,1.974-3.536c2.019,0,2.019,2.175,2.019,3.536V23.8
		H102v-6.009c0-1.457,0.099-3.43,2.167-3.43c1.874,0,1.816,2.166,1.816,3.43V23.8h4.447v-7.974c0-2.932-1.062-5.001-4.292-5.001
		c-1.719,0-3.381,0.808-4.246,2.419c-0.901-1.66-2.475-2.419-4.294-2.419c-1.61,0-2.921,0.603-3.989,1.971h-0.048L93.563,11.225
		L93.563,11.225L93.563,11.225z"/>
	<path fill="none" d="M73.968,11.225v7.574c0,4.145,2.926,5.457,6.716,5.457c3.786,0,6.719-1.313,6.719-5.457v-7.574h-4.496v6.722
		c0,1.61-0.406,2.726-2.223,2.726c-1.865,0-2.226-1.115-2.226-2.726v-6.722H73.968L73.968,11.225L73.968,11.225z"/>
	<path fill="none" d="M71.95,11.225h-4.447v1.213c-0.96-1.059-2.476-1.612-3.89-1.612c-3.733,0-6.311,3.078-6.311,6.713
		c0,3.591,2.623,6.718,6.36,6.718c1.468,0,2.982-0.552,3.788-1.817h0.051v1.36h4.447L71.95,11.225L71.95,11.225L71.95,11.225z
		 M64.773,14.711c1.817,0,2.885,1.263,2.885,2.827c0,1.618-1.066,2.831-2.885,2.831c-1.814,0-2.876-1.213-2.876-2.831
		C61.897,15.974,62.958,14.711,64.773,14.711L64.773,14.711L64.773,14.711z"/>
	<path fill="none" d="M52.505,11.225h-4.447V23.8h4.447v-5.05c0-2.168,0.604-3.787,3.081-3.787c0.708,0,1.311,0.049,1.915,0.407
		v-4.291h-0.855c-1.77,0-3.233,0.649-4.09,2.224h-0.051V11.225L52.505,11.225L52.505,11.225z"/>
	<polygon fill="none" points="45.28,14.916 47.806,14.916 47.806,11.225 45.28,11.225 45.28,7.438 40.833,7.438 40.833,11.225 
		39.376,11.225 39.376,14.916 40.833,14.916 40.833,23.8 45.28,23.8 45.28,14.916 	"/>
	<path fill="none" d="M38.618,11.633c-1.32-0.605-2.728-0.808-4.146-0.808c-2.778,0-5.557,1.36-5.557,4.44
		c0,2.272,1.417,2.979,2.777,3.338c1.416,0.35,2.828,0.398,2.828,1.409c0,0.659-0.856,0.961-1.412,0.961
		c-1.112,0-2.629-0.662-3.532-1.313l-1.621,3.13c1.515,0.959,3.282,1.464,5.104,1.464c2.927,0,5.908-1.361,5.908-4.699
		c0-2.32-1.565-3.33-3.635-3.73c-0.609-0.105-2.021-0.252-2.021-1.115c0-0.603,0.906-0.855,1.412-0.855
		c0.758,0,1.719,0.253,2.377,0.603L38.618,11.633L38.618,11.633L38.618,11.633z"/>
	<path fill="none" d="M24.372,0.318C17.911,4.609,11.396,9.059,4.88,13.351c-2.877,2.224-2.777,5.553-0.805,8.381L24.372,8.146
		V0.318L24.372,0.318L24.372,0.318z"/>
	<path fill="none" d="M0.431,34.104c6.469-4.293,12.985-8.74,19.501-13.035c2.876-2.215,2.778-5.55,0.809-8.379L0.431,26.275V34.104
		L0.431,34.104L0.431,34.104z"/>
	<path fill="none" d="M67.851,40.082c-0.422,0-0.898-0.057-1.246-0.133v-1.547h0.502c0.065,0.301,0.111,0.635,0.146,0.936
		c0.211,0.043,0.456,0.066,0.699,0.066c0.813,0,1.368-0.367,1.368-0.955c0-1.326-2.813-0.514-2.813-2.471
		c0-0.937,0.766-1.625,2.168-1.625c0.365,0,0.813,0.057,1.201,0.153v1.479h-0.489c-0.067-0.301-0.124-0.635-0.145-0.934
		c-0.202-0.033-0.436-0.068-0.668-0.068c-0.813,0-1.225,0.349-1.225,0.892c0,1.347,2.814,0.58,2.814,2.446
		C70.165,39.293,69.297,40.082,67.851,40.082L67.851,40.082z"/>
	<path fill="none" d="M72.282,33.453c-0.322,0-0.58-0.244-0.58-0.566c0-0.313,0.258-0.568,0.58-0.568
		c0.311,0,0.567,0.257,0.567,0.568C72.851,33.209,72.593,33.453,72.282,33.453L72.282,33.453z M70.892,39.982v-0.479
		c0.289-0.065,0.636-0.123,0.967-0.146V35.12c-0.266-0.045-0.644-0.089-0.967-0.111v-0.478c0.502-0.065,1.226-0.102,1.803-0.077
		v4.903c0.322,0.021,0.666,0.078,0.945,0.146v0.479H70.892L70.892,39.982z"/>
	<path fill="none" d="M82.172,36.414c0-0.836-0.201-1.381-0.999-1.381c-0.847,0-1.66,0.877-1.66,2.314v2.012
		c0.314,0.021,0.647,0.065,0.924,0.145v0.479h-1.756V36.4c0-0.754-0.145-1.367-0.991-1.367c-0.911,0-1.655,0.955-1.655,2.314v2.012
		c0.311,0.021,0.645,0.065,0.922,0.145v0.479h-2.725v-0.479c0.288-0.066,0.634-0.123,0.968-0.145v-4.238
		c-0.269-0.045-0.646-0.088-0.968-0.111v-0.477c0.498-0.066,1.224-0.102,1.789-0.078c0,0.355-0.03,0.879-0.088,1.223l0.022,0.01
		c0.312-0.811,1.032-1.346,1.943-1.346c1.259,0,1.515,0.902,1.535,1.324c0.212-0.521,0.813-1.324,1.937-1.324
		c1.034,0,1.625,0.557,1.625,1.803v3.215c0.334,0.021,0.666,0.078,0.957,0.146v0.479h-1.78V36.414L82.172,36.414z"/>
	<path fill="none" d="M87.503,35.043c-1.111,0-1.646,1.291-1.646,2.27v1.935c0.323,0.104,0.668,0.146,1.079,0.146
		c1.146,0,1.893-0.688,1.893-2.358C88.827,35.789,88.414,35.043,87.503,35.043L87.503,35.043z M86.881,40.049
		c-0.38,0-0.657-0.012-1.024-0.078v2.146c0.334,0.025,0.678,0.08,0.969,0.154v0.479h-2.771v-0.479
		c0.291-0.074,0.636-0.129,0.969-0.154v-6.996c-0.268-0.045-0.646-0.088-0.969-0.111v-0.477c0.501-0.066,1.246-0.102,1.792-0.078
		c0,0.332-0.021,0.879-0.092,1.201l0.024,0.01c0.312-0.801,1.011-1.313,1.893-1.313c1.287,0,2.034,0.901,2.034,2.617
		C89.705,38.947,88.626,40.049,86.881,40.049L86.881,40.049z"/>
	<path fill="none" d="M92.983,39.504v0.479h-2.75v-0.479c0.289-0.066,0.635-0.123,0.969-0.145v-6.83
		c-0.268-0.045-0.646-0.088-0.969-0.109v-0.48c0.491-0.063,1.225-0.098,1.791-0.076v7.496
		C92.358,39.381,92.691,39.438,92.983,39.504L92.983,39.504z"/>
	<path fill="none" d="M98.264,35.076l-2.034,5.506c-0.623,1.689-1.134,2.258-2.348,2.258c-0.21,0-0.498-0.023-0.732-0.066
		l0.088-0.756c0.233,0.066,0.458,0.109,0.701,0.109c0.668,0,1.002-0.32,1.445-1.488l0.258-0.656H95.45l-1.778-4.905
		c-0.254-0.033-0.522-0.078-0.743-0.144v-0.479h2.479v0.479c-0.231,0.064-0.5,0.121-0.801,0.144l0.955,2.715
		c0.18,0.513,0.301,0.912,0.423,1.336h0.011c0.103-0.347,0.313-0.989,0.546-1.647l0.836-2.402c-0.29-0.021-0.569-0.078-0.792-0.143
		v-0.479h2.426v0.479C98.787,34.998,98.521,35.043,98.264,35.076L98.264,35.076z"/>
	<path fill="none" d="M105.854,35.178c-0.378-0.09-0.732-0.135-1.088-0.135c-1.136,0-1.89,0.689-1.89,2.357
		c0,1.248,0.422,1.992,1.335,1.992c1.101,0,1.643-1.289,1.643-2.271V35.178L105.854,35.178z M105.854,39.982
		c0-0.334,0.035-0.865,0.104-1.201l-0.023-0.012c-0.313,0.789-1.012,1.313-1.901,1.313c-1.366,0-2.034-1.002-2.034-2.611
		c0-1.973,1.111-3.082,2.835-3.082c0.322,0,0.645,0.021,1.021,0.057v-1.916c-0.265-0.045-0.643-0.088-0.966-0.108v-0.479
		c0.489-0.064,1.224-0.098,1.791-0.076v7.451c0.268,0.045,0.646,0.09,0.955,0.111v0.479
		C107.157,39.971,106.422,40.004,105.854,39.982L105.854,39.982z"/>
	<path fill="none" d="M110.456,34.99c-0.865,0-1.69,0.656-1.69,2.135c0,1.414,0.611,2.193,1.69,2.193
		c0.867,0,1.655-0.668,1.655-2.193C112.112,35.793,111.557,34.99,110.456,34.99L110.456,34.99z M110.334,40.029
		c-1.479,0-2.438-0.9-2.438-2.836c0-1.58,0.982-2.894,2.639-2.894c1.348,0,2.445,0.746,2.445,2.771
		C112.98,38.719,111.968,40.029,110.334,40.029L110.334,40.029z"/>
	<path fill="none" d="M114.882,33.4c-0.321,0-0.577-0.244-0.577-0.566c0-0.313,0.256-0.568,0.577-0.568
		c0.313,0,0.569,0.256,0.569,0.568C115.451,33.156,115.194,33.4,114.882,33.4L114.882,33.4z M113.49,39.928v-0.477
		c0.292-0.068,0.638-0.123,0.968-0.146v-4.236c-0.266-0.047-0.646-0.088-0.968-0.11v-0.479c0.502-0.065,1.226-0.1,1.804-0.078v4.904
		c0.323,0.023,0.667,0.078,0.943,0.146v0.477H113.49L113.49,39.928z"/>
	<path fill="none" d="M121.357,36.346c0-0.865-0.234-1.365-1.035-1.365c-0.988,0-1.689,0.979-1.689,2.289v2.035
		c0.311,0.023,0.646,0.07,0.924,0.146v0.477h-2.728v-0.477c0.29-0.068,0.636-0.123,0.969-0.146v-4.236
		c-0.269-0.047-0.646-0.088-0.969-0.11v-0.479c0.5-0.065,1.225-0.1,1.793-0.078c0,0.357-0.035,0.892-0.09,1.228l0.011,0.009
		c0.323-0.802,1.021-1.345,1.992-1.345c1.267,0,1.655,0.802,1.655,1.778v3.234c0.334,0.023,0.67,0.078,0.945,0.146v0.477h-1.778
		V36.346L121.357,36.346z"/>
	<path fill="none" d="M126.168,34.945c-0.957,0-1.525,0.592-1.525,1.4c0,0.891,0.545,1.381,1.479,1.381
		c0.922,0,1.503-0.49,1.503-1.381C127.625,35.471,127.09,34.945,126.168,34.945L126.168,34.945z M126.733,39.965H125.6
		c-0.113,0-0.279,0-0.376-0.012c-0.479,0.242-0.76,0.643-0.76,1.111c0,0.709,0.68,1.09,1.602,1.09c1.214,0,1.925-0.512,1.925-1.289
		C127.989,40.316,127.579,39.965,126.733,39.965L126.733,39.965z M125.923,42.83c-1.402,0-2.304-0.576-2.304-1.621
		c0-0.689,0.435-1.203,0.958-1.469c-0.346-0.156-0.56-0.436-0.56-0.801c0-0.379,0.224-0.726,0.602-0.912
		c-0.512-0.301-0.812-0.867-0.812-1.604c0-1.153,0.891-2.123,2.402-2.123c0.291,0,0.565,0.033,0.833,0.101h1.881v0.656h-1.001
		c0.336,0.258,0.533,0.688,0.533,1.213c0,1.168-0.812,2.082-2.414,2.082c-0.256,0-0.558-0.025-0.77-0.092
		c-0.265,0.11-0.385,0.313-0.385,0.512c0,0.324,0.309,0.469,0.999,0.469h1.078c1.202,0,1.879,0.59,1.879,1.521
		C128.846,41.941,127.625,42.83,125.923,42.83L125.923,42.83z"/>
	<path fill="none" d="M140.042,36.359c0-0.836-0.202-1.379-1.004-1.379c-0.845,0-1.656,0.877-1.656,2.313v2.012
		c0.313,0.023,0.645,0.07,0.924,0.146v0.477h-1.758v-3.582c0-0.754-0.146-1.365-0.989-1.365c-0.913,0-1.658,0.957-1.658,2.313v2.013
		c0.313,0.022,0.646,0.069,0.925,0.146v0.478h-2.727v-0.478c0.29-0.068,0.635-0.123,0.967-0.146V35.07
		c-0.266-0.047-0.642-0.088-0.967-0.111V34.48c0.5-0.066,1.226-0.101,1.791-0.078c0,0.356-0.031,0.879-0.088,1.227l0.021,0.008
		c0.313-0.813,1.033-1.344,1.945-1.344c1.257,0,1.512,0.902,1.534,1.322c0.212-0.521,0.813-1.322,1.938-1.322
		c1.033,0,1.623,0.553,1.623,1.801v3.213c0.334,0.023,0.666,0.078,0.956,0.146v0.477h-1.777V36.359L140.042,36.359z"/>
	<path fill="none" d="M144.568,34.99c-0.866,0-1.688,0.656-1.688,2.135c0,1.414,0.611,2.193,1.688,2.193
		c0.869,0,1.658-0.668,1.658-2.193C146.227,35.793,145.669,34.99,144.568,34.99L144.568,34.99z M144.446,40.029
		c-1.479,0-2.438-0.9-2.438-2.836c0-1.58,0.982-2.894,2.639-2.894c1.346,0,2.446,0.746,2.446,2.771
		C147.094,38.719,146.082,40.029,144.446,40.029L144.446,40.029z"/>
	<path fill="none" d="M151.218,35.143c-1.331-0.199-1.912,0.732-1.912,2.59v1.59c0.332,0.023,0.678,0.078,0.966,0.146v0.479h-2.768
		v-0.479c0.29-0.068,0.634-0.123,0.968-0.146v-4.235c-0.267-0.045-0.645-0.09-0.968-0.11v-0.479
		c0.502-0.065,1.226-0.101,1.791-0.078c0,0.369-0.043,0.912-0.136,1.394l0.021,0.012c0.226-0.814,0.802-1.637,2.07-1.504
		L151.218,35.143L151.218,35.143z"/>
	<path fill="none" d="M154.065,34.953c-0.778,0-1.337,0.566-1.47,1.434h2.805C155.42,35.531,154.907,34.953,154.065,34.953
		L154.065,34.953z M156.243,37.01h-3.691c-0.057,1.658,0.599,2.348,1.835,2.348c0.577,0,1.188-0.145,1.603-0.354l0.077,0.713
		c-0.513,0.209-1.134,0.332-1.823,0.332c-1.668,0-2.561-0.899-2.561-2.834c0-1.657,0.893-2.896,2.427-2.896
		c1.524,0,2.158,1.058,2.158,2.279C156.268,36.699,156.268,36.844,156.243,37.01L156.243,37.01z"/>
</g>
</svg>
