<?xml version="1.0" encoding="utf-8"?>
<!-- Generator: Adobe Illustrator 15.0.0, SVG Export Plug-In . SVG Version: 6.00 Build 0)  -->
<!DOCTYPE svg PUBLIC "-//W3C//DTD SVG 1.1//EN" "http://www.w3.org/Graphics/SVG/1.1/DTD/svg11.dtd">
<svg version="1.1" id="Ebene_1" xmlns="http://www.w3.org/2000/svg" xmlns:xlink="http://www.w3.org/1999/xlink" x="0px" y="0px"
	 width="156.436px" height="43.75px" viewBox="0 0 156.436 43.75" enable-background="new 0 0 156.436 43.75" xml:space="preserve">
<g>
	<path fill-rule="evenodd" clip-rule="evenodd" d="M147.5,11.225h-4.445V23.8h4.445v-6.515c0-1.564,0.506-2.924,2.321-2.924
		c2.226,0,2.021,2.117,2.021,3.33V23.8h4.495v-7.776c0-3.08-1.367-5.198-4.746-5.198c-1.77,0-3.031,0.505-4.039,2.019H147.5V11.225
		L147.5,11.225L147.5,11.225z"/>
	<path fill-rule="evenodd" clip-rule="evenodd" d="M132.246,11.225h-4.442V23.8h4.442v-6.515c0-1.564,0.503-2.924,2.327-2.924
		c2.215,0,2.022,2.117,2.022,3.33V23.8h4.486v-7.776c0-3.08-1.36-5.198-4.739-5.198c-1.77,0-3.03,0.505-4.041,2.019h-0.056V11.225
		L132.246,11.225L132.246,11.225z"/>
	<path fill-rule="evenodd" clip-rule="evenodd" d="M125.988,11.225h-4.447v1.213c-0.959-1.059-2.475-1.612-3.884-1.612
		c-3.739,0-6.314,3.078-6.314,6.713c0,3.591,2.623,6.718,6.361,6.718c1.467,0,2.983-0.552,3.789-1.818h0.048V23.8h4.447V11.225
		L125.988,11.225L125.988,11.225z M118.92,14.711c1.815,0,2.873,1.263,2.873,2.827c0,1.618-1.058,2.831-2.873,2.831
		c-1.826,0-2.886-1.213-2.886-2.831C116.034,15.974,117.094,14.711,118.92,14.711L118.92,14.711L118.92,14.711z"/>
	<path fill-rule="evenodd" clip-rule="evenodd" d="M93.563,11.225H89.12V23.8h4.442v-6.009c0-1.361,0-3.536,1.973-3.536
		c2.019,0,2.019,2.175,2.019,3.536V23.8H102v-6.009c0-1.457,0.099-3.43,2.167-3.43c1.874,0,1.817,2.166,1.817,3.43V23.8h4.447
		v-7.974c0-2.932-1.062-5.001-4.292-5.001c-1.719,0-3.381,0.808-4.246,2.419c-0.902-1.66-2.475-2.419-4.294-2.419
		c-1.61,0-2.921,0.603-3.989,1.971h-0.048V11.225L93.563,11.225L93.563,11.225z"/>
	<path fill-rule="evenodd" clip-rule="evenodd" d="M73.968,11.225v7.574c0,4.145,2.926,5.457,6.716,5.457
		c3.786,0,6.719-1.312,6.719-5.457v-7.574h-4.497v6.722c0,1.61-0.406,2.726-2.222,2.726c-1.865,0-2.226-1.115-2.226-2.726v-6.722
		H73.968L73.968,11.225L73.968,11.225z"/>
	<path fill-rule="evenodd" clip-rule="evenodd" d="M71.95,11.225h-4.447v1.213c-0.96-1.059-2.475-1.612-3.889-1.612
		c-3.734,0-6.311,3.078-6.311,6.713c0,3.591,2.623,6.718,6.36,6.718c1.468,0,2.983-0.552,3.788-1.818h0.051V23.8h4.447V11.225
		L71.95,11.225L71.95,11.225z M64.773,14.711c1.817,0,2.884,1.263,2.884,2.827c0,1.618-1.066,2.831-2.884,2.831
		c-1.815,0-2.876-1.213-2.876-2.831C61.897,15.974,62.958,14.711,64.773,14.711L64.773,14.711L64.773,14.711z"/>
	<path fill-rule="evenodd" clip-rule="evenodd" d="M52.505,11.225h-4.447V23.8h4.447v-5.05c0-2.168,0.604-3.787,3.081-3.787
		c0.708,0,1.311,0.049,1.915,0.407v-4.291h-0.855c-1.77,0-3.234,0.649-4.09,2.224h-0.051V11.225L52.505,11.225L52.505,11.225z"/>
	<polygon fill-rule="evenodd" clip-rule="evenodd" points="45.28,14.916 47.806,14.916 47.806,11.225 45.28,11.225 45.28,7.438 
		40.833,7.438 40.833,11.225 39.376,11.225 39.376,14.916 40.833,14.916 40.833,23.8 45.28,23.8 45.28,14.916 45.28,14.916 	"/>
	<path fill-rule="evenodd" clip-rule="evenodd" d="M38.618,11.633c-1.32-0.605-2.727-0.808-4.146-0.808
		c-2.778,0-5.557,1.36-5.557,4.44c0,2.272,1.417,2.979,2.778,3.338c1.416,0.35,2.828,0.398,2.828,1.409
		c0,0.659-0.857,0.961-1.412,0.961c-1.113,0-2.629-0.662-3.533-1.313l-1.621,3.13c1.515,0.959,3.283,1.464,5.105,1.464
		c2.927,0,5.908-1.361,5.908-4.699c0-2.32-1.565-3.33-3.635-3.73c-0.609-0.105-2.021-0.252-2.021-1.115
		c0-0.603,0.906-0.855,1.412-0.855c0.758,0,1.719,0.253,2.377,0.603L38.618,11.633L38.618,11.633L38.618,11.633z"/>
	<path fill-rule="evenodd" clip-rule="evenodd" fill="#1E7539" d="M24.372,0.318C17.911,4.609,11.396,9.059,4.88,13.351
		c-2.877,2.224-2.777,5.553-0.805,8.381L24.372,8.146V0.318L24.372,0.318L24.372,0.318z"/>
	<path fill-rule="evenodd" clip-rule="evenodd" fill="#1E7539" d="M0.431,34.104c6.469-4.293,12.985-8.74,19.501-13.035
		c2.876-2.215,2.778-5.55,0.808-8.379L0.431,26.275V34.104L0.431,34.104L0.431,34.104z"/>
	<path fill="#6E6E6E" d="M67.851,40.082c-0.422,0-0.899-0.057-1.246-0.133v-1.547h0.502c0.065,0.301,0.111,0.635,0.145,0.936
		c0.211,0.043,0.456,0.066,0.699,0.066c0.813,0,1.369-0.367,1.369-0.955c0-1.326-2.813-0.514-2.813-2.471
		c0-0.936,0.766-1.625,2.168-1.625c0.365,0,0.813,0.057,1.201,0.154v1.48h-0.489c-0.067-0.301-0.124-0.635-0.145-0.934
		c-0.202-0.033-0.435-0.068-0.668-0.068c-0.813,0-1.224,0.348-1.224,0.891c0,1.346,2.814,0.58,2.814,2.447
		C70.165,39.293,69.297,40.082,67.851,40.082L67.851,40.082z"/>
	<path fill="#6E6E6E" d="M72.282,33.453c-0.322,0-0.58-0.244-0.58-0.566c0-0.313,0.258-0.568,0.58-0.568
		c0.311,0,0.568,0.256,0.568,0.568C72.851,33.209,72.593,33.453,72.282,33.453L72.282,33.453z M70.892,39.982v-0.479
		c0.289-0.066,0.636-0.123,0.967-0.145v-4.238c-0.266-0.045-0.644-0.088-0.967-0.111v-0.477c0.502-0.066,1.225-0.102,1.803-0.078
		v4.904c0.322,0.021,0.666,0.078,0.945,0.145v0.479H70.892L70.892,39.982z"/>
	<path fill="#6E6E6E" d="M82.172,36.414c0-0.836-0.201-1.381-0.999-1.381c-0.847,0-1.66,0.877-1.66,2.314v2.012
		c0.314,0.021,0.647,0.066,0.924,0.145v0.479h-1.756V36.4c0-0.754-0.145-1.367-0.991-1.367c-0.911,0-1.656,0.955-1.656,2.314v2.012
		c0.311,0.021,0.645,0.066,0.922,0.145v0.479h-2.724v-0.479c0.288-0.066,0.633-0.123,0.967-0.145v-4.238
		c-0.268-0.045-0.646-0.088-0.967-0.111v-0.477c0.498-0.066,1.223-0.102,1.789-0.078c0,0.355-0.031,0.879-0.088,1.223l0.022,0.01
		c0.312-0.811,1.033-1.346,1.944-1.346c1.258,0,1.514,0.902,1.535,1.324c0.212-0.521,0.813-1.324,1.936-1.324
		c1.035,0,1.625,0.557,1.625,1.803v3.215c0.334,0.021,0.666,0.078,0.957,0.145v0.479h-1.78V36.414L82.172,36.414z"/>
	<path fill="#6E6E6E" d="M87.503,35.043c-1.111,0-1.646,1.291-1.646,2.27v1.934c0.323,0.104,0.668,0.146,1.079,0.146
		c1.145,0,1.892-0.689,1.892-2.359C88.827,35.789,88.414,35.043,87.503,35.043L87.503,35.043z M86.881,40.049
		c-0.38,0-0.657-0.012-1.024-0.078v2.146c0.334,0.025,0.677,0.08,0.968,0.154v0.48h-2.771v-0.48
		c0.291-0.074,0.636-0.129,0.969-0.154v-6.996c-0.268-0.045-0.646-0.088-0.969-0.111v-0.477c0.501-0.066,1.246-0.102,1.792-0.078
		c0,0.332-0.022,0.879-0.092,1.201l0.025,0.01c0.311-0.801,1.01-1.313,1.892-1.313c1.287,0,2.034,0.902,2.034,2.617
		C89.705,38.947,88.626,40.049,86.881,40.049L86.881,40.049z"/>
	<path fill="#6E6E6E" d="M92.983,39.504v0.479h-2.75v-0.479c0.289-0.066,0.634-0.123,0.968-0.145v-6.83
		c-0.267-0.045-0.646-0.088-0.968-0.109v-0.48c0.491-0.064,1.224-0.098,1.791-0.076v7.496
		C92.358,39.381,92.691,39.438,92.983,39.504L92.983,39.504z"/>
	<path fill="#6E6E6E" d="M98.264,35.076l-2.034,5.506c-0.623,1.689-1.134,2.258-2.348,2.258c-0.21,0-0.498-0.023-0.732-0.066
		l0.088-0.756c0.233,0.066,0.458,0.109,0.701,0.109c0.668,0,1.002-0.32,1.445-1.488l0.258-0.656H95.45l-1.778-4.906
		c-0.254-0.033-0.522-0.078-0.743-0.143v-0.479h2.478v0.479c-0.231,0.064-0.5,0.121-0.8,0.143l0.955,2.715
		c0.179,0.512,0.301,0.912,0.423,1.336h0.01c0.103-0.346,0.314-0.99,0.546-1.648l0.836-2.402c-0.29-0.021-0.569-0.078-0.792-0.143
		v-0.479h2.426v0.479C98.787,34.998,98.521,35.043,98.264,35.076L98.264,35.076z"/>
	<path fill="#6E6E6E" d="M105.854,35.178c-0.378-0.09-0.733-0.135-1.088-0.135c-1.136,0-1.89,0.689-1.89,2.357
		c0,1.248,0.422,1.992,1.335,1.992c1.101,0,1.643-1.289,1.643-2.27V35.178L105.854,35.178z M105.854,39.982
		c0-0.334,0.035-0.865,0.103-1.201l-0.023-0.012c-0.313,0.789-1.012,1.313-1.902,1.313c-1.366,0-2.034-1.002-2.034-2.611
		c0-1.973,1.112-3.082,2.835-3.082c0.323,0,0.645,0.021,1.022,0.057v-1.916c-0.265-0.045-0.643-0.088-0.966-0.109v-0.48
		c0.489-0.064,1.224-0.098,1.791-0.076v7.451c0.268,0.045,0.645,0.09,0.955,0.111v0.479
		C107.157,39.971,106.422,40.004,105.854,39.982L105.854,39.982z"/>
	<path fill="#6E6E6E" d="M110.456,34.99c-0.865,0-1.69,0.656-1.69,2.135c0,1.414,0.611,2.193,1.69,2.193
		c0.867,0,1.656-0.668,1.656-2.193C112.112,35.793,111.557,34.99,110.456,34.99L110.456,34.99z M110.334,40.029
		c-1.479,0-2.438-0.9-2.438-2.836c0-1.58,0.982-2.893,2.638-2.893c1.348,0,2.446,0.746,2.446,2.77
		C112.98,38.719,111.968,40.029,110.334,40.029L110.334,40.029z"/>
	<path fill="#6E6E6E" d="M114.882,33.4c-0.321,0-0.577-0.244-0.577-0.566c0-0.313,0.256-0.568,0.577-0.568
		c0.313,0,0.569,0.256,0.569,0.568C115.451,33.156,115.194,33.4,114.882,33.4L114.882,33.4z M113.49,39.928v-0.477
		c0.292-0.068,0.638-0.123,0.968-0.146v-4.236c-0.265-0.047-0.645-0.088-0.968-0.111v-0.479c0.502-0.066,1.226-0.1,1.804-0.078
		v4.904c0.323,0.023,0.667,0.078,0.944,0.146v0.477H113.49L113.49,39.928z"/>
	<path fill="#6E6E6E" d="M121.357,36.346c0-0.865-0.235-1.365-1.035-1.365c-0.989,0-1.69,0.979-1.69,2.289v2.035
		c0.311,0.023,0.646,0.07,0.924,0.146v0.477h-2.728v-0.477c0.29-0.068,0.636-0.123,0.969-0.146v-4.236
		c-0.268-0.047-0.646-0.088-0.969-0.111v-0.479c0.5-0.066,1.225-0.1,1.793-0.078c0,0.357-0.035,0.891-0.09,1.227l0.011,0.008
		c0.323-0.801,1.022-1.344,1.992-1.344c1.267,0,1.656,0.801,1.656,1.779v3.234c0.334,0.023,0.67,0.078,0.945,0.146v0.477h-1.778
		V36.346L121.357,36.346z"/>
	<path fill="#6E6E6E" d="M126.168,34.945c-0.957,0-1.525,0.592-1.525,1.4c0,0.891,0.545,1.381,1.479,1.381
		c0.922,0,1.503-0.49,1.503-1.381C127.625,35.471,127.09,34.945,126.168,34.945L126.168,34.945z M126.733,39.965H125.6
		c-0.113,0-0.279,0-0.376-0.012c-0.479,0.242-0.76,0.643-0.76,1.111c0,0.709,0.68,1.09,1.602,1.09c1.214,0,1.924-0.512,1.924-1.289
		C127.989,40.316,127.579,39.965,126.733,39.965L126.733,39.965z M125.923,42.83c-1.402,0-2.304-0.576-2.304-1.621
		c0-0.689,0.435-1.203,0.958-1.469c-0.345-0.156-0.559-0.436-0.559-0.801c0-0.379,0.223-0.725,0.601-0.912
		c-0.511-0.301-0.811-0.867-0.811-1.604c0-1.154,0.89-2.123,2.402-2.123c0.291,0,0.566,0.033,0.833,0.1h1.881v0.656h-1.001
		c0.336,0.258,0.533,0.689,0.533,1.213c0,1.168-0.811,2.082-2.414,2.082c-0.256,0-0.557-0.025-0.769-0.092
		c-0.265,0.111-0.385,0.313-0.385,0.512c0,0.324,0.309,0.469,0.999,0.469h1.078c1.202,0,1.879,0.59,1.879,1.521
		C128.846,41.941,127.625,42.83,125.923,42.83L125.923,42.83z"/>
	<path fill="#6E6E6E" d="M140.042,36.359c0-0.836-0.202-1.379-1.004-1.379c-0.844,0-1.656,0.877-1.656,2.313v2.012
		c0.313,0.023,0.645,0.07,0.924,0.146v0.477h-1.758v-3.582c0-0.754-0.145-1.365-0.989-1.365c-0.913,0-1.658,0.957-1.658,2.313v2.012
		c0.313,0.023,0.645,0.07,0.924,0.146v0.477h-2.726v-0.477c0.29-0.068,0.635-0.123,0.967-0.146v-4.236
		c-0.266-0.047-0.642-0.088-0.967-0.111v-0.479c0.5-0.066,1.225-0.1,1.791-0.078c0,0.357-0.031,0.879-0.088,1.227l0.021,0.008
		c0.313-0.813,1.034-1.344,1.946-1.344c1.257,0,1.512,0.902,1.534,1.322c0.212-0.521,0.813-1.322,1.937-1.322
		c1.034,0,1.624,0.553,1.624,1.801v3.213c0.334,0.023,0.666,0.078,0.956,0.146v0.477h-1.778V36.359L140.042,36.359z"/>
	<path fill="#6E6E6E" d="M144.568,34.99c-0.867,0-1.688,0.656-1.688,2.135c0,1.414,0.611,2.193,1.688,2.193
		c0.869,0,1.658-0.668,1.658-2.193C146.227,35.793,145.669,34.99,144.568,34.99L144.568,34.99z M144.446,40.029
		c-1.479,0-2.438-0.9-2.438-2.836c0-1.58,0.982-2.893,2.639-2.893c1.345,0,2.446,0.746,2.446,2.77
		C147.094,38.719,146.082,40.029,144.446,40.029L144.446,40.029z"/>
	<path fill="#6E6E6E" d="M151.218,35.143c-1.331-0.199-1.912,0.732-1.912,2.59v1.59c0.332,0.023,0.678,0.078,0.966,0.146v0.479
		h-2.768v-0.479c0.29-0.068,0.634-0.123,0.968-0.146v-4.236c-0.267-0.045-0.645-0.09-0.968-0.111v-0.479
		c0.502-0.066,1.226-0.1,1.791-0.078c0,0.369-0.043,0.912-0.136,1.393l0.022,0.012c0.225-0.814,0.802-1.637,2.07-1.504
		L151.218,35.143L151.218,35.143z"/>
	<path fill="#6E6E6E" d="M154.065,34.953c-0.779,0-1.337,0.566-1.47,1.434h2.805C155.42,35.531,154.907,34.953,154.065,34.953
		L154.065,34.953z M156.243,37.01h-3.691c-0.057,1.658,0.599,2.348,1.835,2.348c0.577,0,1.188-0.145,1.602-0.355l0.078,0.713
		c-0.513,0.209-1.134,0.332-1.824,0.332c-1.668,0-2.56-0.9-2.56-2.834c0-1.658,0.892-2.895,2.427-2.895
		c1.524,0,2.158,1.057,2.158,2.279C156.268,36.699,156.268,36.844,156.243,37.01L156.243,37.01z"/>
</g>
</svg>
