<?xml version="1.0" encoding="utf-8"?>
<!-- Generator: Adobe Illustrator 19.0.0, SVG Export Plug-In . SVG Version: 6.00 Build 0)  -->
<svg version="1.1" id="Layer_1" xmlns="http://www.w3.org/2000/svg" xmlns:xlink="http://www.w3.org/1999/xlink" x="0px" y="0px"
	 viewBox="0 0 2345 390" enable-background="new 0 0 2345 390" xml:space="preserve">
<g id="XMLID_61_">
	<g id="XMLID_1_">
		<path id="XMLID_13_" fill="#A9A9A9" d="M1055.64185,173.25168c-2.05432-23.10431-7.68848-45.28478-17.24084-66.27233
			c-11.93994-26.2334-28.95166-48.74512-51.95911-66.56238c-20.17834-15.62628-42.51221-26.8476-67.24719-32.72351
			c-12.70502-3.01819-25.849-4.25592-38.8327-6.01715c-18.84753-2.5567-37.48114-0.04547-56.00079,3.17993
			c-15.64496,2.72473-30.48969,8.00946-44.97516,14.56982c-19.68518,8.91522-36.96991,21.31238-51.87915,36.6264
			c-14.65948,15.0575-25.86182,32.67261-34.72589,51.92719c-11.92731,25.90899-16.74219,53.23858-17.92853,81.31896
			c-0.73651,17.43188,1.16876,34.763,4.87756,51.91406c7.06171,32.65698,20.70728,61.8941,42.97931,87.05042
			c21.04578,23.7713,46.81079,40.22247,76.75916,50.14203c21.62103,7.16144,43.85199,11.07001,66.83447,10.96857
			c10.90265-0.98431,21.9892-1.04694,32.66315-3.17706c14.63727-2.92114,29.49365-6.06213,43.30762-11.51276
			c27.62018-10.89832,51.0401-28.00159,70.2912-51.07269c17.75977-21.284,29.67834-45.26526,36.82971-71.73285
			C1056.35535,226.11594,1058.00793,199.8602,1055.64185,173.25168z M1012.51917,253.30063
			c-8.62476,27.02228-23.47815,50.18726-45.2594,68.59009c-21.6377,18.28137-46.64374,29.172-74.69464,32.91138
			c-8.86841,1.18213-17.82056,1.73621-26.73438,2.57776c-24.16357-0.46185-47.44482-4.63867-69.2851-14.96057
			c-36.15271-17.08606-60.93805-44.83569-75.05719-82.12915c-7.17902-18.9621-10.4693-38.60565-11.14209-58.93719
			c-1.04333-31.53326,4.44501-61.5011,19.03076-89.53338c21.78442-41.867,56.64728-66.58252,102.45203-75.8175
			c28.45435-5.73694,56.93048-4.20697,84.75494,4.23773c17.79163,5.39972,33.94135,14.01691,48.51941,25.89282
			c18.86914,15.37146,32.86035,34.24237,42.3501,56.375c7.97437,18.5985,12.13928,38.18114,13.55542,58.48754
			C1022.7334,205.72043,1020.01416,229.81796,1012.51917,253.30063z"/>
	</g>
	<g id="XMLID_2_">
		<path id="XMLID_3_" display="none" fill="none" d="M1795.57983,255.9584c62.90393,0,125.03748,0,187.6925,0
			c-30.8103-74.73602-61.39563-148.92645-92.40344-224.14166C1858.94507,106.90879,1827.42786,181.0444,1795.57983,255.9584z"/>
		<path id="XMLID_10_" d="M2053.43799,367.42886c-4.80933-11.47992-9.67273-22.93713-14.48425-34.41614
			c-8.9707-21.40186-17.86768-42.83466-26.88794-64.21564c-9.59766-22.74927-19.35547-45.43097-28.94531-68.18359
			c-9.33228-22.14203-18.51843-44.3457-27.80859-66.50562c-8.52234-20.32861-17.09473-40.63616-25.65112-60.95049
			c-7.27515-17.27277-14.5863-34.53052-21.81055-51.82458c-1.16138-2.78033-2.7594-4.14905-5.9928-4.03033
			c-6.49084,0.23834-12.9978,0.15387-19.49512,0.03479c-2.80493-0.05145-4.32886,0.68677-5.5387,3.61414
			c-5.69812,13.7868-11.73865,27.43323-17.73779,41.0943c-7.87048,17.92285-15.88892,35.78094-23.71387,53.72357
			c-12.7926,29.33361-25.42529,58.73699-38.22913,88.06567c-11.00549,25.20935-22.19385,50.33881-33.23193,75.534
			c-11.36731,25.94666-22.67175,51.92102-33.95203,77.90576c-2.07764,4.78619-3.9082,9.67969-6.31299,15.67004
			c6.30566,0,11.42651-0.31409,16.4884,0.0968c4.24939,0.34491,6.30505-1.33069,7.74573-5.13788
			c2.75366-7.27704,5.83252-14.4342,8.89331-21.59113c9.31653-21.78448,18.86279-43.47333,27.89819-65.37323
			c1.90869-4.62604,4.1792-6.11841,9.07947-6.10626c63.82751,0.15851,127.65576,0.16162,191.48328-0.0141
			c4.49927-0.01239,6.38135,1.6637,7.92456,5.4986c12.00293,29.83002,24.14917,59.60248,36.33154,89.35974
			c0.49951,1.22009,1.77051,2.98547,2.73242,3.01813c7.41211,0.25214,14.83667,0.13879,23.07385,0.13879
			C2054.47803,370.43314,2054.05103,368.89206,2053.43799,367.42886z M1795.57983,255.9584
			c31.84802-74.914,63.36523-149.04962,95.28906-224.14166c31.00781,75.21521,61.59314,149.40564,92.40344,224.14166
			C1920.61731,255.9584,1858.48376,255.9584,1795.57983,255.9584z"/>
	</g>
	<path id="XMLID_464_" d="M591.74744,354.36838c0,6.44067,0,12.06604,0,18.13446c-73.64563,0-147.16827,0-221.38815,0
		c0-1.85693,0-3.62836,0-5.39984c0.0004-114.31207,0.00012-228.62411,0.00278-342.93619
		c0.00015-6.79851,0.01114-6.79518,6.74146-6.79509c66.15463,0.00084,132.30927-0.00008,198.46393,0.00124
		c7.35248,0.00015,7.35242,0.00507,7.3606,7.17339c0.01172,10.39206,0.01178,10.39067-10.15009,10.39166
		c-58.15607,0.00566-116.31232,0.07362-174.46793-0.09145c-4.98825-0.01416-6.51984,1.18971-6.49597,6.35205
		c0.2041,44.15771,0.18872,88.31705,0.01205,132.47498c-0.01874,4.67316,1.37863,5.80316,5.89056,5.79156
		c55.48956-0.14294,110.97955-0.09314,166.46948-0.08871c6.73383,0.00052,6.73376,0.01242,6.74695,6.78308
		c0.02283,11.78033,0.02289,11.77902-11.74414,11.77902c-53.65692-0.00006-107.31409,0.07388-160.97034-0.11765
		c-5.08658-0.01816-6.42398,1.31079-6.40302,6.38559c0.19812,47.99042,0.2164,95.98242-0.00085,143.97263
		c-0.02402,5.29596,1.67963,6.29498,6.53198,6.28357c62.15503-0.1463,124.31055-0.09528,186.46588-0.09436
		C586.95313,354.36838,589.09363,354.36838,591.74744,354.36838z"/>
	<path id="XMLID_463_" d="M1145.16602,334.61533c7.50452-5.04291,13.73926-9.42645,20.23621-13.37903
		c0.92334-0.56177,3.74939,0.47931,4.63098,1.60883c9.10522,11.66571,19.68872,21.67096,32.72363,28.73657
		c10.25916,5.5611,21.36719,8.95142,32.90942,10.75897c18.01819,2.82166,36.01868,1.64734,52.99866-4.42578
		c26.90088-9.62134,45.79675-28.00201,52.25842-56.56259c4.0304-17.814,2.521-35.63757-7.67725-51.52106
		c-8.64783-13.46875-20.90918-23.19241-35.7854-28.815c-23.22241-8.7771-46.81958-16.55759-70.15649-25.03906
		c-19.28406-7.00845-37.74646-15.37848-52.23816-30.79541c-11.32312-12.04599-18.08032-26.18994-20.3761-42.24235
		c-2.74646-19.2027-2.68787-38.28641,5.13599-56.75037c8.44055-19.91949,22.87939-33.86531,41.60938-43.83656
		c13.75269-7.3215,28.57568-11.50655,43.88232-13.73425c12.34351-1.79648,24.70349-0.55305,37.13647,0.46548
		c12.65491,1.03673,24.50281,4.47295,35.82483,9.35998c10.43811,4.50552,20.56396,10.1216,28.29211,19.04013
		c1.93262,2.2301,4.57532,3.82912,6.7345,5.88332c1.83948,1.7502,2.26855,3.40988-0.36487,5.21498
		c-4.64648,3.18507-9.04675,6.72755-13.5907,10.06526c-2.09399,1.53802-3.72632,0.95255-5.54834-0.89743
		c-7.56812-7.68428-14.96033-15.5186-24.83606-20.54477c-11.05505-5.62636-22.53174-9.15927-34.92651-10.37093
		c-14.89197-1.45576-29.41602-0.19841-43.66565,4.12772c-27.99658,8.49965-47.63965,25.95302-53.87097,55.07576
		c-5.05835,23.64063-1.2821,46.34977,15.67908,64.9892c8.2207,9.03415,18.51624,15.94986,29.97607,20.12943
		c22.2323,8.10843,44.75146,15.43915,67.21313,22.90726c15.82617,5.26193,31.25244,11.52109,44.65308,21.49597
		c10.76648,8.01407,18.97827,18.43896,23.94287,31.23749c4.00549,10.32556,5.56885,20.92212,6.1178,31.95374
		c1.00537,20.20038-2.26257,39.26166-12.9353,56.62653c-8.67932,14.12128-20.65063,24.77039-35.27222,32.64941
		c-23.51953,12.67365-48.92432,15.65582-74.87036,13.69098c-27.50952-2.08325-53.52686-9.5788-75.27368-27.7063
		C1158.79431,348.22763,1152.54382,341.61826,1145.16602,334.61533z"/>
	<path id="XMLID_462_" d="M1433.55701,17.4896c9.23657,0,17.14941-0.11203,25.05139,0.13078
		c1.08203,0.03323,2.37585,1.6644,3.12341,2.84055c15.47998,24.35083,30.86597,48.76132,46.33228,73.12076
		c11.36865,17.90558,22.82654,35.75443,34.24304,53.62962c9.80994,15.3598,19.61414,30.72321,29.4342,46.07642
		c0.60645,0.94812,1.3302,1.8212,2.30188,3.13956c1.34302-1.78607,2.49463-3.1431,3.45715-4.62305
		c22.59705-34.74805,45.16919-69.51234,67.75598-104.26698c14.19421-21.84091,28.43237-43.65337,42.57874-65.52519
		c2.1344-3.29999,4.51208-5.12241,8.81055-4.75687c5.54883,0.47188,11.16833,0.11501,17.97583,0.11501
		c-3.94543,6.37724-7.12659,11.70903-10.48975,16.92342c-16.7113,25.90938-33.46729,51.78993-50.2135,77.67674
		c-14.95422,23.11649-29.93799,46.21397-44.86621,69.34727c-7.37817,11.4335-14.78955,22.85013-21.88062,34.46085
		c-1.44727,2.36942-2.14233,5.57074-2.1499,8.39136c-0.12805,47.32739-0.08984,94.65521-0.09448,141.98291
		c-0.00061,6.77759-0.01563,6.85406-6.84058,6.76392c-4.62354-0.0611-11.20056,1.37408-13.35254-1.03375
		c-2.48914-2.78503-1.32129-9.05206-1.32861-13.80798c-0.06494-41.82806-0.34558-83.66022,0.18933-125.48157
		c0.1261-9.85986-2.44458-17.85684-7.77295-25.84741c-15.91309-23.8634-31.45813-47.9736-47.03015-72.0629
		c-19.71606-30.50037-39.32593-61.06934-58.96228-91.62113C1444.64807,35.0008,1439.53821,26.89396,1433.55701,17.4896z"/>
	<path id="XMLID_461_" d="M148.9295,372.91611c-6.62007,0-12.59488,0.14569-18.54921-0.13794
		c-1.03799-0.0495-2.45256-1.75208-2.86345-2.97083c-0.50566-1.49994-0.15146-3.29315-0.15147-4.95959
		c-0.00165-107.66046-0.00113-215.32089-0.0024-322.98135c-0.00009-6.92383-0.00578-6.9276-7.11208-6.92787
		C82.91972,34.93703,45.58854,34.94024,8.25736,34.9352c-6.93131-0.00093-6.93131-0.01488-6.92265-7.14207
		c0.01266-10.42159,0.01267-10.42064,10.20024-10.42067c85.82838-0.00029,171.65686,0.04477,257.48495-0.11794
		c5.01718-0.00951,6.11893,1.57132,6.01617,6.23061c-0.25235,11.44353-0.04092,11.45076-11.69803,11.45128
		c-35.66463,0.0016-71.32924,0.00021-106.99385,0.002c-7.40779,0.00037-7.41341,0.00438-7.4135,7.2337
		c-0.00133,107.9936-0.00107,215.98715-0.00119,323.98074C148.9295,368.13388,148.9295,370.11484,148.9295,372.91611z"/>
	<path id="XMLID_460_" d="M2151.36206,17.40537c6.25854,0,11.90186-0.15378,17.52197,0.13702
		c1.05347,0.05449,2.53125,1.73135,2.8938,2.93637c0.50732,1.68423,0.16187,3.6286,0.16187,5.46167
		c-0.00269,107.32681-0.00732,214.65359-0.01172,321.98038c-0.00024,6.43597,0.00024,6.44409,6.64551,6.4444
		c52.83008,0.0025,105.66016,0.00159,158.49023,0.00171c2.11426,0,4.22852,0.00006,6.60205,0.00006c0,6.3786,0,12.12933,0,18.27911
		c-1.79028,0.10638-3.40161,0.2854-5.01318,0.28601c-60.49634,0.02191-120.99243-0.02087-181.48853,0.13074
		c-4.62939,0.0116-5.89307-1.36383-5.88867-5.92322c0.11182-114.99286,0.08716-229.98584,0.08667-344.97879
		C2151.36206,20.84383,2151.36206,19.52682,2151.36206,17.40537z"/>
</g>
</svg>
