<?xml version="1.0" encoding="utf-8"?>
<!-- Generator: Adobe Illustrator 19.0.0, SVG Export Plug-In . SVG Version: 6.00 Build 0)  -->
<svg version="1.1" id="Calque_1" xmlns="http://www.w3.org/2000/svg" xmlns:xlink="http://www.w3.org/1999/xlink" x="0px" y="0px"
	 viewBox="-238.42999 389.39001 123 63" enable-background="new -238.42999 389.39001 123 63" xml:space="preserve">
<title>logo</title>
<path fill="#68617C" d="M-176.92999,394.78c-1.73,2.11002-8.88,10.88-8.88,15.23999
	c-0.00217,4.9043,3.97177,8.88177,8.87607,8.88394c4.90428,0.0022,8.88176-3.97177,8.88394-8.87604c0-0.00262,0-0.00528,0-0.0079
	C-168.04999,405.66-175.2,396.85001-176.92999,394.78C-176.92999,394.78-176.92999,394.78-176.92999,394.78z M-176.92999,419.89001
	c-5.45038-0.01105-9.8645-4.42963-9.87-9.88c0-5.30002,9.11-15.89001,9.5-16.34h0.75c0.39,0.44998,9.5,11,9.5,16.34
	C-167.0555,415.46429-171.47569,419.88449-176.92999,419.89001L-176.92999,419.89001z"/>
<polygon fill="#68617C" points="-162.42999,391.82001 -191.41998,391.82001 -191.41998,390.89001 -162.42999,390.89001 
	-162.42999,391.82001 "/>
<polygon fill="#68617C" points="-134.56,448.39001 -145.66,432.54999 -147.31999,432.54999 -147.31999,450.29999 
	-145.95999,450.29999 -145.95999,434.47 -134.85999,450.29999 -133.19998,450.29999 -133.19998,432.54999 -134.56,432.54999 
	-134.56,448.39001 "/>
<polygon fill="#68617C" points="-116.85999,433.81 -116.85999,432.56 -128.25,432.56 -128.25,450.31 -116.85999,450.31 
	-116.85999,449.01001 -126.84999,449.01001 -126.84999,442.01999 -118.00999,442.01999 -118.00999,440.78 -126.84999,440.78 
	-126.84999,433.81 -116.85999,433.81 "/>
<polygon fill="#68617C" points="-237,433.79001 -232.01999,433.79001 -232.01999,450.29999 -230.59999,450.29999 
	-230.59999,433.79001 -225.62,433.79001 -225.62,432.56 -237,432.56 -237,433.79001 "/>
<polygon fill="#68617C" points="-209.76999,433.79001 -209.76999,432.56 -221.14999,432.56 -221.14999,450.29999 
	-209.76999,450.29999 -209.76999,449.01001 -219.76999,449.01001 -219.76999,442.01001 -210.92,442.01001 -210.92,440.79001 
	-219.76999,440.79001 -219.76999,433.79001 -209.76999,433.79001 "/>
<path fill="#68617C" d="M-189.20999,441.48001c0,4.64999-3.24001,8.14999-7.53,8.14999s-7.41-3.51001-7.41-8.14999
	c0-4.64001,3.18001-8.19,7.41-8.19S-189.20999,436.81-189.20999,441.48001
	C-189.20999,441.48001-189.20999,441.48001-189.20999,441.48001z M-196.73999,432.07001c-5,0-8.88,4.13998-8.88,9.41
	c0,5.26999,3.89,9.41,8.87001,9.41c5.19975-0.29364,9.17696-4.74692,8.88333-9.94669
	c-0.27046-4.78961-4.0937-8.61285-8.88333-8.88333l0,0L-196.73999,432.07001z"/>
<path fill="#68617C" d="M-183.98999,432.56l0.23,0.33002c1,1.31,3.73,5.28998,6.40001,9.14999c2.17,3.13,4.42,6.37,5.72,8.19998
	l0.06,0.08002h1.62l-12.33-17.76001H-183.98999z"/>
<polygon fill="#68617C" points="-176.37999,439.36002 -175.56,440.54001 -169.88998,432.56 -171.67999,432.56 -176.37999,439.36002 
	"/>
<polygon fill="#68617C" points="-177.54999,443.41 -178.37,442.22 -183.98,450.29999 -182.2,450.29999 -177.54999,443.41 "/>
<path fill="#68617C" d="M-162.30998,442.89001l3.2-8.45001l3.20999,8.45001H-162.30998z M-158.36998,432.51001H-159.84
	l-0.25999,0.75998l-6.44,17h1.44l2.28999-6h7.38l2.34,6h1.41l-6.7-17.72l0,0L-158.36998,432.51001z"/>
</svg>
