<?xml version="1.0" encoding="utf-8"?>
<!-- Generator: Adobe Illustrator 19.0.0, SVG Export Plug-In . SVG Version: 6.00 Build 0)  -->
<svg version="1.1" id="Layer_1" xmlns="http://www.w3.org/2000/svg" xmlns:xlink="http://www.w3.org/1999/xlink" x="0px" y="0px"
	 viewBox="0 0 609 88" style="enable-background:new 0 0 609 88;" xml:space="preserve">
<g>
	<path style="fill:#4999D4;" d="M14.2,84.2L2.2,8.8h19.2l4.3,30.1c0.6,4.2,1.3,10.6,1.3,17l0.3,0.1l10.1-40.5H53l9.5,40.6l0.3-0.1
		c0-5,0.6-12.2,1.3-16.5l4.4-30.7h19.2L75.6,84.2H57.3l-8.1-27.2c-1.6-5.1-3.4-12.1-4.1-16.7h-0.3c-0.7,4.4-2.5,11.9-4.1,17.1
		l-8.2,26.7H14.2z"/>
	<path style="fill:#4999D4;" d="M143.5,39.3c0.3,2.1,0.4,5.1,0.4,7.1v37.8h-19.4V48.9c0-0.9,0-2.1-0.1-2.8c-0.3-2.8-2.1-3.5-4-3.5
		c-2.4,0-4.7,0.9-6.4,2v39.7H94.5V8.8h19.5v21.8c3-1.9,7.5-3.9,13.8-3.9C138.1,26.7,142.4,31.8,143.5,39.3z"/>
	<path style="fill:#4999D4;" d="M155.8,29.7c4-1.5,13.5-2.9,20.5-2.9c16.5,0,23.5,5.9,23.5,23.7v17.2c0,2.6,0.7,4.5,3.2,4.5
		c0.7,0,1.6-0.2,2.6-0.5l1.6,11.1c-3.6,1.8-6.8,2.5-10.5,2.5c-6.4,0-10-2.1-12.2-6.3c-4,3.5-7.9,6.3-15.6,6.3
		c-11.9,0-17.5-7.9-17.5-18c0-12.5,6.9-19.7,21.9-19.7c3.2,0,4.9,0.3,8.2,1.1v-0.7c0-5.5-4.7-7-9.8-7c-4.9,0-10.4,1.3-14,2.4
		L155.8,29.7z M181.4,59.8c-0.7-0.4-2.3-1.3-4.8-1.3c-3.9,0-6.5,1.9-6.5,6.7c0,4.4,1.8,6.4,5,6.4c2.5,0,5.2-1.8,6.3-3.6V59.8z"/>
	<path style="fill:#4999D4;" d="M232.9,41.1v22.8c0,3.5,0.8,5.7,4.5,5.7c2,0,3.8-0.4,6.3-1.6l2.3,14.5c-3.9,1.9-10.1,2.9-15,2.9
		c-12.9,0-17.6-7.2-17.6-17.2V41.1h-7.3V27.7h7.3V18l19.5-8.7v18.4h10.9v13.4H232.9z"/>
</g>
<g>
	<path style="fill:#6E6E78;" d="M308.2,80.1c-5.9,3-13.6,5.6-24,5.6c-25.5,0-33.5-20.6-33.5-38.6c0-20.2,7.1-39.9,31.7-39.9
		c19.7,0,25.6,11.3,27.7,21.7l-18.6,4.5c-1.5-7.1-4.4-10.9-9-10.9c-9.6,0-10.8,13.7-10.8,23.8c0,14.6,4.5,23.1,15.8,23.1
		c6.2,0,11.5-2.1,17.4-5.1L308.2,80.1z"/>
	<path style="fill:#6E6E78;" d="M316.4,8.8h19.5v55.8c0,3.6,1.5,4.9,3.9,4.9c1.6,0,2.9-0.2,5.9-1.6l2.3,14.5
		c-4.8,2.2-9.7,2.9-14.2,2.9c-13.7,0-17.4-7.4-17.4-18V8.8z"/>
	<path style="fill:#6E6E78;" d="M363.3,2.3c6.7,0,10.9,3.6,10.9,10.5c0,7-4.7,10.4-10.8,10.4c-6.3,0-10.7-3.9-10.7-10.3
		C352.7,5.9,357.3,2.3,363.3,2.3z M373.2,27.7v56.5h-19.4V27.7H373.2z"/>
	<path style="fill:#6E6E78;" d="M432.7,39.3c0.3,2.1,0.4,5.1,0.4,7.1v37.8h-19.4V48.9c0-0.9,0-2.1-0.1-2.8c-0.3-2.8-2.1-3.5-4-3.5
		c-2.5,0-4.9,1.2-6.4,2v39.7h-19.5V27.7h16.9l0.8,4.1c3.6-2.6,8.5-5,15.2-5C427.2,26.7,431.5,31.8,432.7,39.3z"/>
	<path style="fill:#6E6E78;" d="M453.1,2.3c6.7,0,10.9,3.6,10.9,10.5c0,7-4.7,10.4-10.8,10.4c-6.3,0-10.7-3.9-10.7-10.3
		C442.5,5.9,447.1,2.3,453.1,2.3z M463,27.7v56.5h-19.4V27.7H463z"/>
	<path style="fill:#6E6E78;" d="M514.8,66.2l0.9,15.7c-3.8,1.7-9.9,3.6-17.5,3.6c-21.4,0-27.4-15.5-27.4-29.6
		c0-14.4,6.3-29.2,26.4-29.2c12.6,0,19.2,7,21.1,17l-15.8,4.9c-0.8-3.8-1.7-6.8-5.7-6.8c-4.3,0-6,5.1-6,12.8
		c0,9.4,2.6,15.2,10.6,15.2C505.8,69.9,511.1,68.1,514.8,66.2z"/>
	<path style="fill:#6E6E78;" d="M524.7,76.7c2.4,0,3.8,1.7,3.8,4c0,2.2-1.5,4-3.9,4c-2.4,0-3.7-1.6-3.7-3.9
		C520.9,78.6,522.2,76.7,524.7,76.7z"/>
	<path style="fill:#6E6E78;" d="M549.4,77.1l0.4,6.2c-1.5,0.7-3.9,1.4-6.9,1.4c-8.5,0-10.8-6.1-10.8-11.7c0-5.7,2.5-11.5,10.4-11.5
		c5,0,7.6,2.8,8.3,6.7l-6.3,2c-0.3-1.5-0.7-2.7-2.2-2.7c-1.7,0-2.4,2-2.4,5c0,3.7,1,6,4.2,6C545.8,78.6,547.9,77.8,549.4,77.1z"/>
	<path style="fill:#6E6E78;" d="M551.8,73.2c0-6.5,3.4-11.6,10.5-11.6c7.8,0,10.1,5.2,10.1,11.3c0,6.3-2.9,11.9-10.5,11.9
		C554.3,84.8,551.8,79.1,551.8,73.2z M564.5,73c0-3.6-0.4-5.6-2.3-5.6c-2,0-2.5,2.1-2.5,5.7c0,3.9,0.5,5.7,2.4,5.7
		C564,78.8,564.5,76.6,564.5,73z"/>
	<path style="fill:#6E6E78;" d="M593.7,63.7c1.8-1.3,4-2.2,6.6-2.2c4.2,0,5.9,2,6.3,5c0.1,0.8,0.2,2,0.2,2.8v14.9h-7.7v-14
		c0-0.4,0-0.8,0-1.1c-0.1-1.1-0.8-1.4-1.6-1.4c-1,0-1.9,0.4-2.5,0.8v15.7h-7.7v-14c0-0.4,0-0.8,0-1.1c-0.1-1.1-0.8-1.4-1.6-1.4
		c-1,0-1.9,0.5-2.5,0.8v15.7h-7.7V61.9h6.7l0.3,1.6c1.3-1,3.3-2,6-2C591,61.5,592.7,62.5,593.7,63.7z"/>
</g>
</svg>
