<?xml version="1.0" encoding="utf-8"?>
<!-- Generator: Adobe Illustrator 15.0.0, SVG Export Plug-In . SVG Version: 6.00 Build 0)  -->
<!DOCTYPE svg PUBLIC "-//W3C//DTD SVG 1.1//EN" "http://www.w3.org/Graphics/SVG/1.1/DTD/svg11.dtd">
<svg version="1.1" id="Layer_1" xmlns="http://www.w3.org/2000/svg" xmlns:xlink="http://www.w3.org/1999/xlink" x="0px" y="0px"
	 width="561.563px" height="687.675px" viewBox="0 -13.325 561.563 687.675" enable-background="new 0 -13.325 561.563 687.675"
	 xml:space="preserve">
<g display="none">
	<path display="inline" fill="none" d="M146.615,672.916c-10.332,0-20.664,0-30.996,0c-10.391-2.273-18.743-6.588-24.997-12.997
		c-6.254,6.409-14.606,10.724-24.997,12.997c-10.332,0-20.664,0-30.996,0c-37.754-1.907-36.502-48.152-32.996-87.988
		c5.333,0,10.666,0,15.998,0c3.036,23.82-7.146,58.102,7.999,67.992c7.833,5.113,34.832,6.006,44.995,2
		c20.847-8.221,7.771-45.866,12.998-69.992c5,0,9.999,0,14.998,0c3.538,21.576-6.371,50.766,4,63.993
		c8.084,10.309,45.06,11.438,54.992,1.999c14.838-14.104,0.301-44.864,7-65.992c4.999,0,9.999,0,14.998,0
		C180.723,626.367,184.62,670.593,146.615,672.916z"/>
	<path display="inline" fill="none" d="M289.598,638.921c6.649,11.351,18.146,23.178,22.996,32.995
		c-28.857,6.6-29.501-20.529-42.995-30.997c-20.331,0-40.662,0-60.993,0c0,10.331,0,20.665,0,30.997c-5.666,0-11.332,0-16.998,0
		c0-28.997,0-57.992,0-86.989c23.855,3.625,68.02-4.754,93.988,0C313.386,590.015,316.015,631.66,289.598,638.921z M292.598,611.924
		c-1.645-22.625-59.765-5.746-82.991-10.998c-2.321,6.01-0.341,16.322-1,23.997C228.849,620.256,294.375,636.413,292.598,611.924z"
		/>
	<path display="inline" fill="none" d="M337.591,640.92c0,10.33,0,20.664,0,30.996c-5.333,0-10.665,0-15.998,0
		c0.666-28.663-1.332-59.991,1-86.989c38.014,4.536,103.91-12.775,113.985,17.998c1.46,4.461,2.464,12.477,0,19.998
		C427.069,651.967,374.483,637.399,337.591,640.92z M421.58,612.924c0-22.954-60.177-7.435-82.989-11.998
		c-2.322,6.01-0.342,16.322-1,23.997C358.2,620.075,421.58,636.278,421.58,612.924z"/>
	<path display="inline" fill="none" d="M561.563,617.924c0,17.997,0,35.995,0,53.992c-6.069-0.712-14.982,1.419-16.997-1
		c-5.376-6.45,3.761-23.188,0-34.995c-26.33,0-52.66,0-78.99,0c-0.663,11.669,1.329,25.99-1,35.995c-5,0-9.999,0-14.999,0
		c2.939-23.709-4.456-44.688,1-62.991c2.522-8.466,16.169-22.576,27.997-23.998C517.442,580.257,561.259,584.802,561.563,617.924z
		 M481.573,600.926c-10.351,2.064-14.771,10.45-15.998,17.997c26.331,0,52.66,0,78.99,0
		C547.245,598.592,502.792,596.688,481.573,600.926z"/>
	<path display="inline" fill="#FFFFFF" stroke="#000000" stroke-miterlimit="10" d="M54.626,1c34.853-4.813,80.812-1,117.984-1
		c77.703,0,152.987,0,233.971,0c37.333,0,90.983-4.919,112.986,4c29.658,12.021,29.997,34.335,29.997,78.989
		c0,121.837,0,242.313,0,365.954c0,44.792,2.67,77.853-32.996,88.989c-14.254,4.451-37.271,2-57.993,2
		c-103.688,0-193.96,0-299.962,0c-35.49,0-90.047,6.26-115.984-4c-11.575-4.578-20.794-13.181-25.997-25.997
		c-5.579-13.74-4-36.906-4-56.993c0-98.896,0-205.71,0-304.962c0-15.61,0-36.431,0-60.992c0-18.65-2.321-42.947,3-56.992
		C21.683,14.02,38.721,3.196,54.626,1z M228.605,258.968c-4.222,6.83-14.032,9.779-23.997,7.999c-1.442,6.649,5.221,11.629,5,17.998
		c-0.146,4.225-5.132,8.564-5,12.999c0.113,3.76,3.78,6.521,5,9.999c4.193,11.96,2.713,27.729,8.999,41.995
		c5.445,12.359,12.81,24.899,15.998,35.995c2.117,7.363,0.86,13.596,5,18.997c7.821,10.207,21.056,11.231,26.997,21.997
		c-3.353-0.686-3.655,1.677-4,4c0.42,22.289-11.955,41.862-2,61.992c23.597,9.93,25.8-14.603,29.996-37.995
		c2.547-14.195,8.194-24.634,9-31.996c1.721-15.742-7.095-18.907-15.998-20.997c6.531-14.859-6.065-22.097-8-29.996
		c-0.951-3.887-1.359-17.072-1-19.998c1.017-8.243,6.761-13.66,7-21.997c0.166-5.864-3.786-9.223,0-14.999
		c8.394,0.605,7.967,10.029,8.998,17.998c20.114,20.547,37.017,44.309,52.993,68.99c3.381,10.986,0.164,22.744,5,31.996
		c1.642,3.139,5.14,4.382,6.999,6.999c9.633,13.551,11.348,27.021,10.999,47.994c-0.052,3.073-1.611,6.434-1,9.999
		c3.001,17.518,26.575,31.832,43.994,15.998c-1.223-10.109-7.166-15.496-7.998-25.997c-1.938-3.063-8.357-1.642-9.999-5
		c-5.195-19.682-1.052-47.079-3-67.991c-1.104-11.854-6.906-18.271-12.999-29.997c-10.341-19.902-9.535-47.342-13.998-70.99
		c-5.845-30.969-23.744-55.143-33.996-79.99c9.636-2.362,20.938-3.058,28.996-6.999c10.995-44.563,0.975-90.824-21.997-117.984
		c-11.017-13.024-28.492-15.38-40.994-25.997c6.998-27.407,2.082-57.664-22.998-59.992c-7.375-0.686-21.097,0.667-26.997,7.999
		c-4.724,5.87-2.151,16.645-3,27.996c-0.807,10.81-0.374,14.307,5,23.997c-13.204,10.146-33.519,9.195-47.994,18.998
		c-9.939,6.73-28.985,28.965-32.996,40.995c-2.229,6.688-1.197,14.021-3,20.998c-2.26,8.752-8.854,16.51-9.999,24.997
		c-2.727,20.208,10.033,34.34,18.998,47.993c-2.335,16.366,17.256,33.32,29.996,27.997c-6.647-2.352-9.549-8.448-15.998-10.999
		c4.448-7.938-5.889-7.521-6.999-12.999c-4.837-16.418-1.688-29.827,8.999-37.994c-5.094-0.735-3.616-8.766-3-10.999
		c1.087-3.937,7.461-5.401,10.999-9.999c4.317-5.611,3.194-12.987,8.999-12.998c0.603,12.313,10.028,23.688,6.999,34.996
		c10.66,4.005,17.145,12.188,21.998,21.997c-6.533,1.8-17.177-0.514-18.998,6c2.158,4.508,13.505-0.175,15.998,3.999
		c-4.853,7.813-16.984,8.345-19.998,17.997c8.732,2.577,13.894-6.656,21.997-7.999c-2.26,7.072-12.015,6.649-13.998,13.998
		C221.375,263.759,225.784,260.277,228.605,258.968z M228.605,258.968c-4.222,6.83-14.032,9.779-23.997,7.999
		c-1.442,6.649,5.221,11.629,5,17.998c-0.146,4.225-5.132,8.564-5,12.999c0.113,3.76,3.78,6.521,5,9.999
		c4.193,11.96,2.713,27.729,8.999,41.995c5.445,12.359,12.81,24.899,15.998,35.995c2.117,7.363,0.86,13.596,5,18.997
		c7.821,10.207,21.056,11.231,26.997,21.997c-3.353-0.686-3.655,1.677-4,4c0.42,22.289-11.955,41.862-2,61.992
		c23.597,9.93,25.8-14.603,29.996-37.995c2.547-14.195,8.194-24.634,9-31.996c1.721-15.742-7.095-18.907-15.998-20.997
		c6.531-14.859-6.065-22.097-8-29.996c-0.951-3.887-1.359-17.072-1-19.998c1.017-8.243,6.761-13.66,7-21.997
		c0.166-5.864-3.786-9.223,0-14.999c8.394,0.605,7.967,10.029,8.998,17.998c20.114,20.547,37.017,44.309,52.993,68.99
		c3.381,10.986,0.164,22.744,5,31.996c1.642,3.139,5.14,4.382,6.999,6.999c9.633,13.551,11.348,27.021,10.999,47.994
		c-0.052,3.073-1.611,6.434-1,9.999c3.001,17.518,26.575,31.832,43.994,15.998c-1.223-10.109-7.166-15.496-7.998-25.997
		c-1.938-3.063-8.357-1.642-9.999-5c-5.195-19.682-1.052-47.079-3-67.991c-1.104-11.854-6.906-18.271-12.999-29.997
		c-10.341-19.902-9.535-47.342-13.998-70.99c-5.845-30.969-23.744-55.143-33.996-79.99c9.636-2.362,20.938-3.058,28.996-6.999
		c10.995-44.563,0.975-90.824-21.997-117.984c-11.017-13.024-28.492-15.38-40.994-25.997c6.998-27.407,2.082-57.664-22.998-59.992
		c-7.375-0.686-21.097,0.667-26.997,7.999c-4.724,5.87-2.151,16.645-3,27.996c-0.807,10.81-0.374,14.307,5,23.997
		c-13.204,10.146-33.519,9.195-47.994,18.998c-9.939,6.73-28.985,28.965-32.996,40.995c-2.229,6.688-1.197,14.021-3,20.998
		c-2.26,8.752-8.854,16.51-9.999,24.997c-2.727,20.208,10.033,34.34,18.998,47.993c-2.335,16.366,17.256,33.32,29.996,27.997
		c-6.647-2.352-9.549-8.448-15.998-10.999c4.448-7.938-5.889-7.521-6.999-12.999c-4.837-16.418-1.688-29.827,8.999-37.994
		c-5.094-0.735-3.616-8.766-3-10.999c1.087-3.937,7.461-5.401,10.999-9.999c4.317-5.611,3.194-12.987,8.999-12.998
		c0.603,12.313,10.028,23.688,6.999,34.996c10.66,4.005,17.145,12.188,21.998,21.997c-6.533,1.8-17.177-0.514-18.998,6
		c2.158,4.508,13.505-0.175,15.998,3.999c-4.853,7.813-16.984,8.345-19.998,17.997c8.732,2.577,13.894-6.656,21.997-7.999
		c-2.26,7.072-12.015,6.649-13.998,13.998C221.375,263.759,225.784,260.277,228.605,258.968z"/>
	<path display="inline" fill="none" d="M319.594,185.977c-1.679-1.825,7.717,9.554,2,11.998
		C319.034,195.867,319.637,190.599,319.594,185.977z"/>
</g>
<g>
	<path fill="#D73446" d="M54.648,546.823c-26.203,0-47.52-21.317-47.52-47.52V41.087c0-26.203,21.317-47.52,47.52-47.52H507.09
		c26.202,0,47.52,21.317,47.52,47.52v458.217c0,26.202-21.317,47.52-47.52,47.52H54.648z"/>
	<g>
		<path fill="#A7A8AC" d="M507.09-1.433c23.483,0,42.52,19.037,42.52,42.52v458.217c0,23.483-19.036,42.52-42.52,42.52H54.648
			c-23.483,0-42.52-19.036-42.52-42.52V41.087c0-23.483,19.037-42.52,42.52-42.52H507.09 M507.09-11.433H54.648
			c-28.959,0-52.52,23.561-52.52,52.52v458.217c0,28.959,23.561,52.52,52.52,52.52H507.09c28.959,0,52.52-23.561,52.52-52.52V41.087
			C559.609,12.127,536.049-11.433,507.09-11.433L507.09-11.433z"/>
	</g>
</g>
<path fill="#FFFFFF" d="M228.605,258.968c-4.222,6.83-14.032,9.779-23.997,7.999c-1.442,6.649,5.221,11.629,5,17.998
	c-0.146,4.225-5.132,8.564-5,12.999c0.113,3.76,3.78,6.521,5,9.999c4.193,11.96,2.713,27.729,8.999,41.995
	c5.445,12.359,12.81,24.899,15.998,35.995c2.117,7.363,0.86,13.596,5,18.997c7.821,10.207,21.056,11.231,26.997,21.997
	c-3.353-0.686-3.655,1.677-4,4c0.42,22.289-11.955,41.862-2,61.992c23.597,9.93,25.8-14.603,29.996-37.995
	c2.547-14.195,8.194-24.634,9-31.996c1.721-15.742-7.095-18.907-15.998-20.997c6.531-14.859-6.065-22.097-8-29.996
	c-0.951-3.887-1.359-17.072-1-19.998c1.017-8.243,6.761-13.66,7-21.997c0.166-5.864-3.786-9.223,0-14.999
	c8.394,0.605,7.967,10.029,8.998,17.998c20.114,20.547,37.017,44.309,52.993,68.99c3.381,10.986,0.164,22.744,5,31.996
	c1.642,3.139,5.14,4.382,6.999,6.999c9.633,13.551,11.348,27.021,10.999,47.994c-0.052,3.073-1.611,6.434-1,9.999
	c3.001,17.518,26.575,31.832,43.994,15.998c-1.223-10.109-7.166-15.496-7.998-25.997c-1.938-3.063-8.357-1.642-9.999-5
	c-5.195-19.682-1.052-47.079-3-67.991c-1.104-11.854-6.906-18.271-12.999-29.997c-10.341-19.902-9.535-47.342-13.998-70.99
	c-5.845-30.969-23.744-55.143-33.996-79.99c9.636-2.362,20.938-3.058,28.996-6.999c10.995-44.563,0.975-90.824-21.997-117.984
	c-11.017-13.024-28.492-15.38-40.994-25.997c6.998-27.407,2.082-57.664-22.998-59.992c-7.375-0.686-21.097,0.667-26.997,7.999
	c-4.724,5.87-2.151,16.645-3,27.996c-0.807,10.81-0.374,14.307,5,23.997c-13.204,10.146-33.519,9.195-47.994,18.998
	c-9.939,6.73-28.985,28.965-32.996,40.995c-2.229,6.688-1.197,14.021-3,20.998c-2.26,8.752-8.854,16.51-9.999,24.997
	c-2.727,20.208,10.033,34.34,18.998,47.993c-2.335,16.366,17.256,33.32,29.996,27.997c-6.647-2.352-9.549-8.448-15.998-10.999
	c4.448-7.938-5.889-7.521-6.999-12.999c-4.837-16.418-1.688-29.827,8.999-37.994c-5.094-0.735-3.616-8.766-3-10.999
	c1.087-3.937,7.461-5.401,10.999-9.999c4.317-5.611,3.194-12.987,8.999-12.998c0.603,12.313,10.028,23.688,6.999,34.996
	c10.66,4.005,17.145,12.188,21.998,21.997c-6.533,1.8-17.177-0.514-18.998,6c2.158,4.508,13.505-0.175,15.998,3.999
	c-4.853,7.813-16.984,8.345-19.998,17.997c8.732,2.577,13.894-6.656,21.997-7.999c-2.26,7.072-12.015,6.649-13.998,13.998
	C221.375,263.759,225.784,260.277,228.605,258.968z"/>
<path fill="#D73446" d="M146.615,672.916c-10.332,0-20.664,0-30.996,0c-10.391-2.273-18.743-6.588-24.997-12.997
	c-6.254,6.409-14.606,10.724-24.997,12.997c-10.332,0-20.664,0-30.996,0c-37.754-1.907-36.502-48.152-32.996-87.988
	c5.333,0,10.666,0,15.998,0c3.036,23.82-7.146,58.102,7.999,67.992c7.833,5.113,34.832,6.006,44.995,2
	c20.847-8.221,7.771-45.866,12.998-69.992c5,0,9.999,0,14.998,0c3.538,21.576-6.371,50.766,4,63.993
	c8.084,10.309,45.06,11.438,54.992,1.999c14.838-14.104,0.301-44.864,7-65.992c4.999,0,9.999,0,14.998,0
	C180.723,626.367,184.62,670.593,146.615,672.916z"/>
<path fill="#D73446" d="M289.598,638.921c6.649,11.351,18.146,23.178,22.996,32.995c-28.857,6.6-29.501-20.529-42.995-30.997
	c-20.331,0-40.662,0-60.993,0c0,10.331,0,20.665,0,30.997c-5.666,0-11.332,0-16.998,0c0-28.997,0-57.992,0-86.989
	c23.855,3.625,68.02-4.754,93.988,0C313.386,590.015,316.015,631.66,289.598,638.921z M292.598,611.924
	c-1.645-22.625-59.765-5.746-82.991-10.998c-2.321,6.01-0.341,16.322-1,23.997C228.849,620.256,294.375,636.413,292.598,611.924z"/>
<path fill="#D73446" d="M337.591,640.92c0,10.33,0,20.664,0,30.996c-5.333,0-10.665,0-15.998,0c0.666-28.663-1.332-59.991,1-86.989
	c38.014,4.536,103.91-12.775,113.985,17.998c1.46,4.461,2.464,12.477,0,19.998C427.069,651.967,374.483,637.399,337.591,640.92z
	 M421.58,612.924c0-22.954-60.177-7.435-82.989-11.998c-2.322,6.01-0.342,16.322-1,23.997
	C358.2,620.075,421.58,636.278,421.58,612.924z"/>
<path fill="#D73446" d="M561.563,617.924c0,17.997,0,35.995,0,53.992c-6.069-0.712-14.982,1.419-16.997-1
	c-5.376-6.45,3.761-23.188,0-34.995c-26.33,0-52.66,0-78.99,0c-0.663,11.669,1.329,25.99-1,35.995c-5,0-9.999,0-14.999,0
	c2.939-23.709-4.456-44.688,1-62.991c2.522-8.466,16.169-22.576,27.997-23.998C517.442,580.257,561.259,584.802,561.563,617.924z
	 M481.573,600.926c-10.351,2.064-14.771,10.45-15.998,17.997c26.331,0,52.66,0,78.99,0
	C547.245,598.592,502.792,596.688,481.573,600.926z"/>
</svg>
