<?xml version="1.0" encoding="utf-8"?>
<!-- Generator: Adobe Illustrator 15.0.0, SVG Export Plug-In . SVG Version: 6.00 Build 0)  -->
<!DOCTYPE svg PUBLIC "-//W3C//DTD SVG 1.1//EN" "http://www.w3.org/Graphics/SVG/1.1/DTD/svg11.dtd">
<svg version="1.1" id="Layer_1" xmlns="http://www.w3.org/2000/svg" xmlns:xlink="http://www.w3.org/1999/xlink" x="0px" y="0px"
	 width="1062.282px" height="438.681px" viewBox="0 0 1062.282 438.681" enable-background="new 0 0 1062.282 438.681"
	 xml:space="preserve">
<polygon fill="none" points="846.81,380.913 789.003,238.497 747.094,238.497 729.934,433.204 746.854,433.204 760.871,272.457 
	761.531,272.457 826.767,433.204 841.474,433.204 907.191,272.457 907.862,272.457 920.636,433.204 960.443,433.204 
	944.013,238.497 904.578,238.268 "/>
<path fill="none" d="M350.453,436.037c-56.836,0-99.341-43.06-99.341-100.597c0-58.027,42.505-101.088,99.341-101.088
	c56.856,0,99.371,43.061,99.371,101.088C449.823,392.978,407.309,436.037,350.453,436.037 M350.453,245.125
	c-33.829,0-56.971,35.502-56.971,90.315c0,48.957,20.824,89.835,56.971,89.835c37.889,0,58.733-43.551,58.733-89.835
	C409.186,287.574,388.342,245.125,350.453,245.125"/>
<path fill="none" d="M589.571,436.037c-56.851,0-99.365-43.06-99.365-100.597c0-58.027,42.515-101.088,99.365-101.088
	c56.826,0,99.356,43.061,99.356,101.088C688.927,392.978,646.397,436.037,589.571,436.037 M589.571,245.125
	c-33.819,0-56.976,35.502-56.976,90.315c0,48.957,20.813,89.835,56.976,89.835c37.885,0,58.688-43.551,58.688-89.835
	C648.259,287.574,627.456,245.125,589.571,245.125"/>
<polygon fill="none" points="20.669,204.358 20.349,205.068 20.349,223.82 173.577,223.79 0,420.96 0,430.101 223.85,430.101 
	223.85,410.958 64.8,410.958 237.771,213.468 237.771,204.358 "/>
<polygon fill="none" points="1029.864,368.379 1048.886,368.379 1062.282,205.319 1016.949,205.319 "/>
<path fill="none" d="M1039.885,395.36c-6.217,0-11.403,2.202-15.668,6.558c-4.226,4.385-6.327,9.541-6.327,15.518
	c0,6.228,2.102,11.313,6.387,15.288c4.285,3.965,9.201,5.957,14.798,5.957c6.187,0,11.433-2.112,15.718-6.258
	c4.275-4.185,6.418-9.16,6.418-14.987c0-5.847-2.033-10.973-6.098-15.418C1051.039,397.593,1045.982,395.36,1039.885,395.36"/>
<polygon fill="none" points="212.848,2.092 182.307,2.092 182.307,41.858 150.515,41.858 150.515,2.092 119.964,2.092 
	119.964,102.149 150.515,102.149 150.515,62.803 182.307,62.803 182.307,102.149 212.848,102.149 "/>
<polygon fill="none" points="319.096,82.055 319.096,2.092 288.556,2.092 288.556,102.149 343.775,102.149 348.375,82.055 "/>
<rect x="235.439" y="2.083" fill="none" width="30.53" height="100.066"/>
<rect x="359.253" y="2.083" fill="none" width="30.541" height="100.066"/>
<path fill="none" d="M540.394,27.632c0-5.446,5.437-7.959,14.236-7.959c9.611,0,20.083,2.092,27.191,5.026l-2.522-21.775
	C571.35,1.251,564.242,0,551.277,0c-24.689,0-41.418,9.731-41.418,30.145c0,35.171,47.696,28.042,47.696,44.372
	c0,6.277-4.605,9.631-15.898,9.631c-10.042,0-25.525-3.354-34.721-7.959l3.344,23.027c9.206,3.354,21.755,5.026,31.797,5.026
	c25.51,0,46.435-8.37,46.435-33.489C588.51,37.253,540.394,43.541,540.394,27.632"/>
<path fill="none" d="M454.224,78.281c28.438,0,46.429-14.647,46.429-40.187C500.653,10.042,481.42,0,450.039,0
	c-12.139,0-26.776,0.841-37.233,2.092v100.057h30.541V78.281H454.224z M470.533,38.515c0,12.975-6.272,21.775-22.166,21.775h-5.021
	V18.942c1.772-0.1,3.454-0.1,5.021-0.1C463.429,18.842,470.533,25.96,470.533,38.515"/>
<path fill="none" d="M61.406,78.281c28.438,0,46.429-14.647,46.429-40.187C107.835,10.042,88.593,0,57.211,0
	C45.082,0,30.445,0.841,19.988,2.092v100.057h30.531V78.281H61.406z M77.715,38.515c0,12.975-6.272,21.775-22.176,21.775h-5.021
	V18.942c1.782-0.1,3.454-0.1,5.021-0.1C70.602,18.842,77.715,25.96,77.715,38.515"/>
</svg>
